<svg version="1.0"
    xmlns="http://www.w3.org/2000/svg" width="900.000000pt" height="1200.000000pt"
    viewBox="0 0 900.000000 1200.000000" preserveAspectRatio="xMidYMid meet">

    <g transform="translate(0.000000,1200.000000) scale(0.100000,-0.100000)">
        <path d="M2150 10123 c-556 -25 -1064 -248 -1456 -640 -347 -347 -577 -790
-666 -1278 -22 -122 -23 -153 -23 -515 1 -416 9 -517 61 -763 261 -1238 1542
-2730 4114 -4794 173 -139 317 -253 320 -253 3 0 127 98 276 218 1578 1265
2646 2290 3329 3193 501 664 776 1245 859 1819 35 241 47 691 25 930 -58 639
-409 1264 -926 1652 -346 260 -738 402 -1176 427 -361 21 -682 -41 -1015 -195
-470 -218 -964 -669 -1307 -1193 l-66 -101 -71 107 c-135 205 -268 371 -443
552 -556 576 -1187 863 -1835 834z"/>
    </g>
</svg>
