<?xml version="1.0" encoding="UTF-8"?>
<svg version="1.1" xmlns="http://www.w3.org/2000/svg" width="2160" height="798">
<path d="M0 0 C0.90369324 -0.00350464 1.80738647 -0.00700928 2.73846436 -0.01062012 C5.69811904 -0.01935585 8.65753078 -0.01361726 11.6171875 -0.00683594 C13.69026739 -0.00818493 15.76334697 -0.01012742 17.83642578 -0.01263428 C22.17027819 -0.0155745 26.50404787 -0.01132341 30.83789062 -0.00195312 C36.37568753 0.00944068 41.91329052 0.0028753 47.45108032 -0.00909805 C51.7286117 -0.01634643 56.00609758 -0.01401506 60.28363037 -0.00884247 C62.32484968 -0.00751421 64.36607321 -0.00912464 66.4072876 -0.01380157 C69.26642708 -0.01891591 72.1252583 -0.01108802 74.984375 0 C75.81684753 -0.00404846 76.64932007 -0.00809692 77.50701904 -0.01226807 C88.21331692 0.06413338 97.30015455 2.58709502 105.3515625 9.96191406 C112.59048395 17.91756041 113.65004999 26.5634537 113.58984375 36.93457031 C113.58883667 37.75517944 113.58782959 38.57578857 113.58679199 39.42126465 C113.58158069 42.47128711 113.56761947 45.52128957 113.5546875 48.57128906 C113.5340625 55.39816406 113.5134375 62.22503906 113.4921875 69.25878906 C128.6721875 69.25878906 143.8521875 69.25878906 159.4921875 69.25878906 C159.4921875 79.15878906 159.4921875 89.05878906 159.4921875 99.25878906 C144.3121875 99.25878906 129.1321875 99.25878906 113.4921875 99.25878906 C113.61195413 116.93465556 113.61195413 116.93465556 113.75 134.61035156 C113.81034897 141.81768042 113.86854003 149.02498214 113.9140625 156.23242188 C113.95088995 162.04206551 113.99724319 167.85156165 114.05025101 173.66107941 C114.06880843 175.87945218 114.08391138 178.09785659 114.09553146 180.31627655 C114.11237066 183.41933859 114.14140047 186.52206183 114.17333984 189.625 C114.17550003 190.54569275 114.17766022 191.4663855 114.17988586 192.41497803 C114.19104935 193.26189209 114.20221283 194.10880615 114.2137146 194.98138428 C114.21924536 195.71513149 114.22477612 196.44887871 114.23047447 197.20486069 C114.53952516 199.63029587 115.15761409 201.21128452 116.4921875 203.25878906 C120.35542088 204.54653352 124.06709287 204.49261699 128.09765625 204.57519531 C128.93686111 204.59597641 129.77606598 204.61675751 130.64070129 204.63816833 C133.32028044 204.70352925 135.99995719 204.7624862 138.6796875 204.82128906 C140.49675487 204.86448708 142.31381238 204.90810179 144.13085938 204.95214844 C148.58453684 205.05998074 153.03828889 205.15915402 157.4921875 205.25878906 C157.4921875 215.15878906 157.4921875 225.05878906 157.4921875 235.25878906 C150.12692162 235.32788641 142.7627934 235.38755477 135.39746094 235.42358398 C132.89514339 235.4386134 130.39285193 235.45904256 127.890625 235.48510742 C124.28118425 235.52174784 120.67209367 235.53857452 117.0625 235.55175781 C115.95480255 235.56724167 114.8471051 235.58272552 113.70584106 235.59867859 C102.45370923 235.60108314 93.61700424 233.319378 85.4921875 225.25878906 C80.35134874 218.76377814 78.24643462 212.30210252 78.22717285 204.00315857 C78.22060095 202.94107865 78.22060095 202.94107865 78.21389627 201.85754257 C78.20162437 199.4970042 78.20338106 197.13668952 78.20507812 194.77612305 C78.19905095 193.07893547 78.19212595 191.38175088 78.18437195 189.68457031 C78.16950423 186.03581811 78.16073913 182.38712043 78.15666199 178.73834038 C78.14994083 172.96898316 78.12817846 167.19974259 78.10412598 161.43043518 C78.05102822 148.14411624 78.01761673 134.85776139 77.98436737 121.57138062 C77.95368433 109.39018558 77.91885696 97.20904068 77.86805677 85.02791077 C77.84470659 79.2923427 77.83096693 73.556856 77.82456207 67.82124507 C77.81862618 64.25480238 77.80453248 60.68842578 77.78821754 57.12201691 C77.78233907 55.4680244 77.77986984 53.81401573 77.78105736 52.1600132 C77.78221623 49.90234675 77.7712026 47.64505187 77.75720215 45.38743591 C77.75280247 43.49239649 77.75280247 43.49239649 77.7483139 41.55907345 C77.49749771 38.32721311 76.99404133 36.11742729 75.4921875 33.25878906 C71.72575971 31.05530846 68.24286917 31.00596547 63.9453125 31 C62.64045898 30.99369568 61.33560547 30.98739136 59.99121094 30.980896 C58.57486841 30.984476 57.15852712 30.98857802 55.7421875 30.99316406 C54.28157486 30.99181578 52.82096267 30.98987389 51.36035156 30.98736572 C48.30399286 30.98442212 45.24775131 30.98868743 42.19140625 30.99804688 C38.28076857 31.00944103 34.37040545 31.00287746 30.45977783 30.99090195 C27.44512883 30.98366266 24.43054454 30.98598076 21.41589355 30.99115753 C19.97424283 30.99248831 18.53258616 30.9908664 17.09094238 30.98619843 C15.07365029 30.98109944 13.0563375 30.99025366 11.0390625 31 C9.31961426 31.00238678 9.31961426 31.00238678 7.56542969 31.00482178 C4.45108957 31.26218532 2.26271631 31.83213949 -0.5078125 33.25878906 C-2.03535684 36.31387775 -1.74781857 39.53485026 -1.82421875 42.89160156 C-1.84286987 43.55796631 -1.861521 44.22433105 -1.8807373 44.91088867 C-1.94907034 47.40171973 -2.00919653 49.89277047 -2.0703125 52.38378906 C-2.2146875 57.95253906 -2.3590625 63.52128906 -2.5078125 69.25878906 C13.0021875 69.25878906 28.5121875 69.25878906 44.4921875 69.25878906 C44.4921875 79.15878906 44.4921875 89.05878906 44.4921875 99.25878906 C28.9821875 99.25878906 13.4721875 99.25878906 -2.5078125 99.25878906 C-2.5078125 144.13878906 -2.5078125 189.01878906 -2.5078125 235.25878906 C-14.3878125 235.25878906 -26.2678125 235.25878906 -38.5078125 235.25878906 C-38.5078125 190.37878906 -38.5078125 145.49878906 -38.5078125 99.25878906 C-53.6878125 99.25878906 -68.8678125 99.25878906 -84.5078125 99.25878906 C-84.5078125 89.35878906 -84.5078125 79.45878906 -84.5078125 69.25878906 C-69.3278125 69.25878906 -54.1478125 69.25878906 -38.5078125 69.25878906 C-38.62595335 56.26091428 -38.62595335 56.26091428 -38.77807617 43.26342773 C-38.87485754 31.06236702 -38.87029394 19.99395147 -30.58984375 10.26660156 C-21.83217604 1.82112088 -11.75403165 -0.05716195 0 0 Z " fill="#FCFCFC" transform="translate(1675.5078125,113.7412109375)"/>
<path d="M0 0 C11.55 0 23.1 0 35 0 C35 77.55 35 155.1 35 235 C23.78 235 12.56 235 1 235 C1 227.41 1 219.82 1 212 C-4.80912277 213.72617655 -4.80912277 213.72617655 -8.25 217.5625 C-19.24746615 230.8561404 -31.38279056 237.4072916 -48.4375 239.6875 C-49.95651763 239.81544593 -51.47782928 239.91765306 -53 240 C-54.42699219 240.07927734 -54.42699219 240.07927734 -55.8828125 240.16015625 C-78.15572085 240.78948904 -98.14691414 233.08400821 -114.36328125 217.79296875 C-134.27403623 196.70231717 -137.59886279 170.61191407 -137.08886719 142.91748047 C-136.38890622 119.93799258 -127.25485453 98.90534847 -110.76953125 82.82421875 C-93.35178512 67.79885986 -72.31774517 63.66479042 -49.91259766 64.77685547 C-33.66837966 66.02138315 -20.42422787 72.82414194 -9.14453125 84.3515625 C-7.09981607 86.87672988 -5.99215653 88.92930327 -5 92 C-3.35 92 -1.7 92 0 92 C0 61.64 0 31.28 0 0 Z M-90 113 C-101.56664707 128.28449791 -102.89421325 148.07936861 -100.69970703 166.52392578 C-99.22363732 175.23179688 -96.22332768 182.85733931 -91 190 C-90.2575 191.051875 -89.515 192.10375 -88.75 193.1875 C-79.64293825 202.50154043 -67.97120631 207.94212245 -55 209 C-39.33213624 209.14374187 -25.71619342 205.60480908 -13.74609375 195.00390625 C-0.26150087 181.05873904 0.58755168 163.92824087 0.30859375 145.6484375 C-0.17329205 131.39181614 -4.54943016 119.75648362 -14.3125 109.1875 C-25.1023368 99.25324497 -39.33006977 95.12729563 -53.84765625 95.68359375 C-68.08964438 97.11308698 -80.24154452 102.32668931 -90 113 Z " fill="#FCFCFC" transform="translate(438,114)"/>
<path d="M0 0 C0.64453125 0.47953125 1.2890625 0.9590625 1.953125 1.453125 C2.984375 2.195625 4.015625 2.938125 5.078125 3.703125 C18.29685388 16.34712653 22.76275478 33.52180108 23.29973602 51.27789879 C23.35211938 54.44867105 23.36993741 57.61813176 23.36381531 60.78931808 C23.35924451 63.36252298 23.3735827 65.93507319 23.39221191 68.50820923 C23.43469097 74.87765393 23.44630575 81.24707639 23.45843506 87.61663818 C23.46995244 93.047263 23.49341085 98.47757553 23.53312683 103.90806961 C23.54668113 106.44034223 23.54253524 108.97219158 23.53771973 111.50448608 C23.54705236 113.04645334 23.55721915 114.58841584 23.56835938 116.13037109 C23.56221115 116.83158585 23.55606293 117.5328006 23.54972839 118.25526428 C23.5863877 121.13465152 23.63288129 123.00951834 25.34687805 125.3837738 C27.44184062 126.77848508 28.89494927 126.880703 31.40234375 126.96484375 C32.5483606 127.01451294 32.5483606 127.01451294 33.7175293 127.06518555 C34.68215088 127.09008057 35.64677246 127.11497559 36.640625 127.140625 C41.2503125 127.2953125 41.2503125 127.2953125 45.953125 127.453125 C45.953125 137.353125 45.953125 147.253125 45.953125 157.453125 C41.41762418 157.52242807 36.88399937 157.58202557 32.34838867 157.61791992 C30.80926245 157.63290043 29.27017812 157.6532921 27.73120117 157.67944336 C16.04492246 157.87288712 6.50916803 157.76138285 -2.3828125 149.34765625 C-5.70424851 145.56620915 -6.95709189 142.09914875 -7.234375 137.015625 C-7.1725 136.17 -7.110625 135.324375 -7.046875 134.453125 C-8.696875 134.453125 -10.346875 134.453125 -12.046875 134.453125 C-12.43359375 135.53980469 -12.43359375 135.53980469 -12.828125 136.6484375 C-17.42576406 147.22890174 -26.85079666 154.59579668 -37.359375 158.765625 C-56.80838313 165.13920994 -78.42199428 163.73813649 -97.046875 155.453125 C-110.14319098 148.48947475 -119.00694003 138.93752453 -123.50390625 124.65625 C-126.78591055 111.33934046 -126.16931432 96.34851578 -119.421875 84.203125 C-110.60293135 70.97470953 -97.77498519 63.61597586 -82.4765625 59.92578125 C-77.48068603 58.95391461 -72.77518257 58.32918968 -67.67431641 58.33959961 C-66.43348297 58.33967514 -65.19264954 58.33975067 -63.91421509 58.33982849 C-62.57562214 58.34493387 -61.23702961 58.35014985 -59.8984375 58.35546875 C-58.51695812 58.35733594 -57.13547808 58.35875842 -55.7539978 58.35975647 C-52.13399397 58.36355798 -48.51403083 58.37336784 -44.89404297 58.38446045 C-41.19369049 58.39472565 -37.49333139 58.399265 -33.79296875 58.40429688 C-26.54425236 58.41499242 -19.2955694 58.43204015 -12.046875 58.453125 C-12.18350655 55.90065927 -12.32631949 53.34878762 -12.47265625 50.796875 C-12.51040161 50.07983398 -12.54814697 49.36279297 -12.58703613 48.62402344 C-13.13053038 39.35545816 -15.10276992 31.05885208 -22.046875 24.453125 C-31.61701932 17.63959834 -43.51495524 16.73873253 -54.8984375 17.91015625 C-62.20897131 19.17090588 -68.4928983 21.43662992 -74.046875 26.453125 C-74.706875 26.453125 -75.366875 26.453125 -76.046875 26.453125 C-76.315 27.00097656 -76.583125 27.54882812 -76.859375 28.11328125 C-78.67756787 31.69583891 -80.65640566 35.18875637 -82.609375 38.69921875 C-83.93622244 41.24114116 -85.03503109 43.77271155 -86.046875 46.453125 C-92.94808011 45.79300973 -99.33768337 43.67514494 -105.921875 41.578125 C-107.07429688 41.22621094 -108.22671875 40.87429687 -109.4140625 40.51171875 C-111.05375 39.99158203 -111.05375 39.99158203 -112.7265625 39.4609375 C-113.72413574 39.14785645 -114.72170898 38.83477539 -115.74951172 38.51220703 C-116.5076416 38.16270996 -117.26577148 37.81321289 -118.046875 37.453125 C-119.81901968 32.13669096 -116.43546377 27.27148511 -114.046875 22.453125 C-111.92443858 18.93752534 -109.57818264 15.68423259 -107.046875 12.453125 C-106.22896484 11.38771484 -106.22896484 11.38771484 -105.39453125 10.30078125 C-81.84786862 -18.56465694 -29.17904362 -20.78219653 0 0 Z M-86.046875 95.453125 C-89.84020645 101.33932898 -90.6322644 107.31590005 -89.359375 114.078125 C-87.31676743 121.76096507 -83.44916855 125.21043311 -76.77734375 129.15625 C-66.03107055 134.26034542 -52.24167954 134.03184327 -40.921875 130.828125 C-30.50777688 127.06160474 -21.4811737 120.45985083 -16.234375 110.578125 C-13.27760199 104.13936272 -11.93940766 98.25499257 -12.00390625 91.171875 C-12.01010986 90.28435547 -12.01631348 89.39683594 -12.02270508 88.48242188 C-12.03068115 87.81275391 -12.03865723 87.14308594 -12.046875 86.453125 C-19.28865762 86.35985661 -26.53030772 86.28907533 -33.77257252 86.24587631 C-37.13660425 86.22512779 -40.5002208 86.19704909 -43.86401367 86.15136719 C-47.74408656 86.10249796 -51.62358026 86.08007495 -55.50390625 86.0625 C-57.28895317 86.03153229 -57.28895317 86.03153229 -59.11006165 85.99993896 C-69.29531612 85.99724049 -78.80850891 87.85284061 -86.046875 95.453125 Z " fill="#FCFCFC" transform="translate(1532.046875,191.546875)"/>
<path d="M0 0 C11.97513353 9.20610866 18.99415651 22.81302339 21.12564087 37.6473999 C21.63380555 41.82767109 21.75312599 45.98059349 21.75927734 50.18847656 C21.76435806 50.96350525 21.76943878 51.73853394 21.77467346 52.53704834 C21.78529858 54.20443885 21.79394892 55.87184292 21.80079269 57.53925323 C21.81267295 60.17905417 21.83214326 62.81869813 21.85391235 65.45843506 C21.91525964 72.95823985 21.96969702 80.45802114 22.00292969 87.95800781 C22.02385351 92.55797488 22.05912155 97.15764253 22.10368729 101.75743866 C22.11784722 103.50689937 22.12656971 105.2564129 22.12974167 107.00592804 C22.13464154 109.44730661 22.15776929 111.88788519 22.18505859 114.32910156 C22.18205246 115.05021118 22.17904633 115.7713208 22.1759491 116.51428223 C22.24379595 120.59420945 22.61595373 123.10665412 25.6015625 126 C27.70860841 126.63612368 27.70860841 126.63612368 30.05078125 126.609375 C31.1967981 126.65529785 31.1967981 126.65529785 32.3659668 126.70214844 C33.33058838 126.71793945 34.29520996 126.73373047 35.2890625 126.75 C38.3621875 126.8325 41.4353125 126.915 44.6015625 127 C44.6015625 136.9 44.6015625 146.8 44.6015625 157 C40.06606168 157.06930307 35.53243687 157.12890057 30.99682617 157.16479492 C29.45769995 157.17977543 27.91861562 157.2001671 26.37963867 157.22631836 C5.43530898 157.57301126 5.43530898 157.57301126 -2.890625 149.80859375 C-6.26256627 145.76401135 -8.22117142 141.17150949 -8.6484375 135.9375 C-8.5659375 135.298125 -8.4834375 134.65875 -8.3984375 134 C-13.00003343 135.36933304 -14.66479044 137.28832023 -17.2734375 141.25 C-24.85307563 152.05591532 -35.27577922 158.633619 -48.3984375 161 C-68.39406557 164.26851613 -89.8877248 161.55819112 -106.86328125 150.0078125 C-118.95681054 140.42988638 -124.15698143 129.01254298 -126.3984375 114 C-127.69195617 102.0925405 -124.84882822 88.99667864 -117.45703125 79.5078125 C-106.11035032 66.20752911 -91.50511917 60.32493869 -74.3984375 58 C-69.45310029 57.65213727 -64.54537073 57.64598279 -59.58984375 57.70703125 C-58.24365215 57.71264942 -56.89745428 57.71690895 -55.55125427 57.71989441 C-52.06438258 57.73116907 -48.57790571 57.76047827 -45.09118652 57.79400635 C-41.51071509 57.82509003 -37.93017779 57.8384802 -34.34960938 57.85351562 C-27.36572659 57.88537136 -20.38210117 57.93634725 -13.3984375 58 C-13.53147642 55.27430168 -13.67183577 52.54930961 -13.81640625 49.82421875 C-13.85310425 49.05686401 -13.88980225 48.28950928 -13.9276123 47.49890137 C-14.43836484 38.12671821 -16.76792254 30.7708336 -23.4609375 23.875 C-34.62483662 16.74910695 -47.53593578 15.864578 -60.328125 18.22265625 C-69.61912208 20.57495704 -75.89566924 25.15887294 -81.3984375 33 C-83.7082477 37.18443877 -85.32168634 41.34801683 -86.3984375 46 C-94.02368664 45.48095458 -100.73994887 43.00590279 -107.8984375 40.4375 C-109.10242188 40.01275391 -110.30640625 39.58800781 -111.546875 39.15039062 C-114.50001791 38.10741555 -117.4503365 37.05712481 -120.3984375 36 C-114.11641358 17.83931366 -105.25720703 4.60582471 -88.1171875 -4.80078125 C-60.64339214 -17.98166164 -25.57510043 -17.09920259 0 0 Z M-86.3984375 94 C-90.90392684 100.14656161 -91.36911764 106.5747973 -90.3984375 114 C-88.35761502 121.22137186 -83.55532762 125.61829427 -77.203125 129.2578125 C-66.72539284 133.95472692 -51.24233007 134.02679227 -40.4921875 129.9765625 C-28.54617456 124.40472811 -20.22301738 117.94965893 -15.359375 105.296875 C-13.89551386 100.50854416 -13.34433409 96.31144545 -13.37060547 91.30444336 C-13.37663284 89.81538734 -13.37663284 89.81538734 -13.38278198 88.29624939 C-13.3879483 87.53848709 -13.39311462 86.78072479 -13.3984375 86 C-20.64022012 85.90673161 -27.88187022 85.83595033 -35.12413502 85.79275131 C-38.48816675 85.77200279 -41.8517833 85.74392409 -45.21557617 85.69824219 C-49.09564906 85.64937296 -52.97514276 85.62694995 -56.85546875 85.609375 C-58.64051567 85.57840729 -58.64051567 85.57840729 -60.46162415 85.54681396 C-69.61904921 85.5443878 -79.87322126 86.88158228 -86.3984375 94 Z " fill="#FCFCFC" transform="translate(997.3984375,192)"/>
<path d="M0 0 C10.70290268 9.17391658 16.73027342 21.11383987 19 35 C19.10551453 37.7104789 19.16414236 40.39680291 19.17358398 43.10742188 C19.180271 43.9096669 19.18695801 44.71191193 19.19384766 45.53846741 C19.20785898 47.27465828 19.21976537 49.01086714 19.22979546 50.74708557 C19.24625771 53.49613018 19.26949605 56.24504095 19.29469299 58.99401855 C19.36533615 66.80795591 19.42563003 74.6219464 19.47680664 82.43603516 C19.50861551 87.22051824 19.54988989 92.00484415 19.59700203 96.78919983 C19.61300322 98.61040929 19.62533348 100.43165487 19.63390923 102.25291443 C19.64607767 104.79963134 19.67023217 107.34597899 19.69702148 109.89257812 C19.69761063 110.64285782 19.69819977 111.39313751 19.69880676 112.16615295 C19.75481018 116.18862029 20.07821589 119.42807498 22 123 C24.23707667 124.11853833 25.61376396 124.17919083 28.09765625 124.28125 C29.29938477 124.33732422 29.29938477 124.33732422 30.52539062 124.39453125 C32.22069639 124.46500585 33.91600894 124.53531761 35.61132812 124.60546875 C41.89934885 124.89934885 41.89934885 124.89934885 43 126 C43.08775605 128.14558827 43.10695219 130.29404421 43.09765625 132.44140625 C43.09443359 133.74658203 43.09121094 135.05175781 43.08789062 136.39648438 C43.07953401 137.7851569 43.07106905 139.17382877 43.0625 140.5625 C43.05748666 141.95507656 43.05292347 143.34765481 43.04882812 144.74023438 C43.03699434 148.1601987 43.0205088 151.58007844 43 155 C38.50176644 155.10002059 34.00414808 155.17200172 29.50512695 155.21972656 C27.97962141 155.23965311 26.45419032 155.26680485 24.92895508 155.30175781 C13.91188208 155.5476262 3.48772995 155.44141216 -5.0625 147.5625 C-9.52778824 142.53103884 -10.26375282 138.72569692 -10 132 C-13.75724973 132.38422865 -13.75724973 132.38422865 -16.51953125 134.78515625 C-16.94621094 135.53667969 -17.37289062 136.28820312 -17.8125 137.0625 C-24.4654415 147.66352546 -33.80184505 155.12509611 -46.16015625 158.1015625 C-66.58424689 162.33616346 -88.05702227 160.3159165 -106.33203125 149.8203125 C-116.60795658 142.80921264 -124.63210018 132.58009864 -127.52734375 120.375 C-129.61354751 105.47847067 -128.95964548 90.87997108 -120.3125 78.125 C-110.23889283 65.34283546 -95.8447626 58.94657562 -80.05111694 56.36019897 C-69.15046365 55.07332462 -57.98647286 55.58583429 -47.02319336 55.7253418 C-43.40227764 55.76690476 -39.78124379 55.78466447 -36.16015625 55.8046875 C-29.10649024 55.84706891 -22.05329196 55.91496598 -15 56 C-15.27081709 52.78898758 -15.56141275 49.58005478 -15.85546875 46.37109375 C-15.93148315 45.46693726 -16.00749756 44.56278076 -16.08581543 43.63122559 C-16.86349211 35.33411549 -19.08579334 29.62306775 -24.3125 23.125 C-34.11326038 15.37556156 -45.74354336 14.22960332 -57.93359375 15.53515625 C-67.77179887 17.02655295 -75.66234481 20.1848902 -81.7890625 28.3984375 C-84.89777487 33.37544006 -87.14756469 38.44269407 -89 44 C-95.88985924 43.33098468 -102.29164957 41.25794868 -108.875 39.1875 C-110.02742187 38.84396484 -111.17984375 38.50042969 -112.3671875 38.14648438 C-113.4603125 37.80294922 -114.5534375 37.45941406 -115.6796875 37.10546875 C-117.17604736 36.64370239 -117.17604736 36.64370239 -118.70263672 36.17260742 C-121 35 -121 35 -121.92041016 33.09179688 C-122.05896149 29.45036195 -120.14554913 26.4596812 -118.5 23.3125 C-118.13124756 22.59642578 -117.76249512 21.88035156 -117.38256836 21.14257812 C-108.75642724 4.79089838 -95.36270875 -6.33268677 -77.6875 -11.875 C-52.4881868 -19.66545058 -20.84482648 -16.90121066 0 0 Z M-90 94 C-93.39123549 99.83776966 -94.03733557 106.02354699 -92.34375 112.515625 C-89.95481222 119.39411827 -86.56571318 123.52731099 -80.16796875 126.9921875 C-68.53083481 132.31636643 -52.58088586 131.54177977 -40.79296875 127.25390625 C-30.55614184 122.65807207 -21.94611736 115.06376945 -17.7421875 104.4609375 C-15.70692083 97.71242169 -14.9537805 91.0223235 -15 84 C-22.38943971 83.90682251 -29.77875026 83.83599541 -37.16866112 83.79275131 C-40.60109768 83.77198343 -44.03312875 83.74386788 -47.46533203 83.69824219 C-51.42214908 83.64597903 -55.37880889 83.62696544 -59.3359375 83.609375 C-60.55300385 83.58872986 -61.77007019 83.56808472 -63.02401733 83.54681396 C-73.33697818 83.54412897 -83.12338443 85.7098579 -90 94 Z " fill="#FCFCFC" transform="translate(649,194)"/>
<path d="M0 0 C1.14380127 0.00563965 2.28760254 0.0112793 3.46606445 0.01708984 C25.80633401 0.33698312 44.88573372 7.45471127 61.1875 22.8125 C70.79317141 33.16635184 81.25 49.64658597 81.25 64.3125 C52.92194427 71.56006751 52.92194427 71.56006751 46.25 71.3125 C46.10304688 70.57386719 45.95609375 69.83523437 45.8046875 69.07421875 C43.15317565 57.08146115 38.17259056 45.91148538 27.5625 39.125 C14.76776749 31.91616841 0.42925325 30.83261001 -13.75 34.3125 C-27.00164313 38.5118493 -36.38487982 45.9444465 -42.9375 58.1875 C-46.40246571 65.56498949 -48.32304795 73.1874731 -48.75 81.3125 C-48.80285156 82.26640625 -48.85570312 83.2203125 -48.91015625 84.203125 C-49.39641461 101.37015912 -45.49803374 117.37158899 -33.75 130.3125 C-21.17293174 140.64038452 -6.65065644 143.58502823 9.25 142.3125 C19.96247346 140.63523273 30.35104414 136.84086787 37.03515625 127.93359375 C42.167464 120.27327029 45.59034849 112.39177002 47.25 103.3125 C59.05155372 105.56497929 70.69079083 108.01987678 82.25 111.3125 C78.68038122 130.94540331 67.26474655 149.55478486 50.95410156 161.17919922 C37.9492951 169.82795446 22.87647482 174.73104977 7.25 175.3125 C6.24324219 175.3640625 5.23648437 175.415625 4.19921875 175.46875 C-20.07385017 176.14066886 -42.53366431 169.44095351 -60.41015625 152.609375 C-61.56837891 151.47242188 -61.56837891 151.47242188 -62.75 150.3125 C-63.79994141 149.29929687 -63.79994141 149.29929687 -64.87109375 148.265625 C-80.48092732 132.07764945 -85.16583924 109.34611319 -85.0625 87.5625 C-85.05758545 86.33329834 -85.0526709 85.10409668 -85.04760742 83.83764648 C-84.74754433 60.51120346 -77.7503388 40.60605161 -61.75 23.3125 C-44.9511639 7.06573833 -23.06869055 -0.119465 0 0 Z " fill="#FCFCFC" transform="translate(1155.75,178.6875)"/>
<path d="M0 0 C11.88 0 23.76 0 36 0 C36 17.82 36 35.64 36 54 C51.75184806 53.96039171 51.75184806 53.96039171 67.50366211 53.90991211 C69.46988877 53.9069931 71.43611604 53.90444451 73.40234375 53.90234375 C74.94927917 53.8946698 74.94927917 53.8946698 76.52746582 53.88684082 C77.50187622 53.88671997 78.47628662 53.88659912 79.48022461 53.88647461 C80.33071884 53.884254 81.18121307 53.88203339 82.05747986 53.87974548 C84 54 84 54 85 55 C85.08775605 57.14558827 85.10695219 59.29404421 85.09765625 61.44140625 C85.09515869 62.61646729 85.09266113 63.79152832 85.09008789 65.00219727 C85.08098389 66.50709717 85.07187988 68.01199707 85.0625 69.5625 C85.041875 74.326875 85.02125 79.09125 85 84 C68.83 84 52.66 84 36 84 C36.06158306 102.05582065 36.06158306 102.05582065 36.16015625 120.11132812 C36.20856235 127.47241493 36.25257991 134.8333492 36.27099609 142.19458008 C36.28610872 148.12751293 36.32045815 154.06004757 36.36830902 159.99280357 C36.3831786 162.25944246 36.39104419 164.52613819 36.39188385 166.7928257 C36.39423847 169.96103302 36.42119706 173.12812624 36.45410156 176.29614258 C36.4490712 177.23913208 36.44404083 178.18212158 36.43885803 179.15368652 C36.39445252 184.03933949 36.39445252 184.03933949 38.78771973 188.07946777 C42.33441027 189.55524956 45.92131882 189.48190542 49.703125 189.51171875 C50.54091492 189.52966995 51.37870483 189.54762115 52.24188232 189.56611633 C54.91120407 189.62019056 57.58034731 189.65410532 60.25 189.6875 C62.06252482 189.72067568 63.8750261 189.75516557 65.6875 189.79101562 C70.12502527 189.87838448 74.56174023 189.93847537 79 190 C79 199.9 79 209.8 79 220 C71.65276328 220.09219258 64.30756089 220.17172659 56.96020508 220.21972656 C54.46469291 220.23975138 51.96922712 220.26697941 49.47387695 220.30175781 C45.87179059 220.3506777 42.27032854 220.37306113 38.66796875 220.390625 C37.56543259 220.41127014 36.46289642 220.43191528 35.32695007 220.45318604 C25.05944052 220.45611177 16.25708323 218.16280131 8.71875 210.91796875 C0.9715128 202.27275633 -0.30886107 193.35496037 -0.22705078 182.0859375 C-0.22734283 181.0216301 -0.22763489 179.95732269 -0.22793579 178.86076355 C-0.22654962 175.36542424 -0.2110219 171.87030178 -0.1953125 168.375 C-0.19157984 165.94262814 -0.18873406 163.51025477 -0.18673706 161.07788086 C-0.17912055 154.69268605 -0.15948905 148.30758301 -0.1373291 141.92242432 C-0.11682796 135.40011842 -0.10772622 128.87779762 -0.09765625 122.35546875 C-0.07624131 109.57026581 -0.04107528 96.78515491 0 84 C-14.85 84 -29.7 84 -45 84 C-45 74.1 -45 64.2 -45 54 C-30.15 54 -15.3 54 0 54 C0 36.18 0 18.36 0 0 Z " fill="#FBFBFB" transform="translate(750,129)"/>
<path d="M0 0 C0 11.88 0 23.76 0 36 C-3.11050781 37.05316406 -6.22101563 38.10632813 -9.42578125 39.19140625 C-32.71595812 47.08492935 -55.98347946 55.03583114 -79.1887207 63.17602539 C-87.77104565 66.18550313 -96.35714971 69.16767809 -105 72 C-105.33 73.65 -105.66 75.3 -106 77 C-105.44801941 77.11138306 -104.89603882 77.22276611 -104.32733154 77.33752441 C-98.91426726 78.47788773 -93.78042708 79.97574805 -88.578125 81.84375 C-87.77944 82.12527924 -86.980755 82.40680847 -86.15786743 82.6968689 C-84.42641256 83.30748238 -82.69573259 83.92029676 -80.96575928 84.53509521 C-76.2390032 86.21450384 -71.50635818 87.87712052 -66.7734375 89.5390625 C-65.76592438 89.89308136 -64.75841125 90.24710022 -63.72036743 90.61184692 C-55.63512555 93.44504948 -47.52898289 96.21400611 -39.4140625 98.9609375 C-38.2014978 99.3714032 -36.98893311 99.7818689 -35.73962402 100.20477295 C-30.91909675 101.83506763 -26.09791978 103.46339301 -21.27502441 105.08666992 C-17.90913891 106.21956463 -14.54436865 107.35572202 -11.1796875 108.4921875 C-10.16194244 108.83317474 -9.14419739 109.17416199 -8.09561157 109.52548218 C-7.17186737 109.83788849 -6.24812317 110.1502948 -5.29638672 110.47216797 C-4.48676483 110.74447235 -3.67714294 111.01677673 -2.84298706 111.29733276 C-1 112 -1 112 0 113 C0.08851529 115.59359322 0.11525945 118.16039691 0.09765625 120.75390625 C0.09553383 121.91707619 0.09553383 121.91707619 0.09336853 123.10374451 C0.08775345 125.59003494 0.07519846 128.0762366 0.0625 130.5625 C0.05748694 132.24413933 0.0529237 133.92578006 0.04882812 135.60742188 C0.03777913 139.73831566 0.02050445 143.86914276 0 148 C-4.72323469 147.25037317 -9.02807195 145.64369853 -13.49609375 144 C-14.33978012 143.69280533 -15.18346649 143.38561066 -16.05271912 143.06910706 C-18.84899747 142.04973149 -21.64327004 141.02497588 -24.4375 140 C-26.41610198 139.27705323 -28.39478177 138.55431938 -30.37353516 137.83178711 C-48.97249222 131.03397013 -67.54664549 124.16861376 -86.11582947 117.28996277 C-95.42958466 113.83996095 -104.74589891 110.39689766 -114.0625 106.95458984 C-123.04185018 103.63688986 -132.02089546 100.31836472 -141 97 C-141 82.15 -141 67.3 -141 52 C-133.72044623 48.96685259 -126.5112932 46.00112549 -119.11328125 43.3125 C-118.19723618 42.97701141 -117.2811911 42.64152283 -116.33738708 42.29586792 C-114.36145643 41.57253238 -112.38509011 40.85038601 -110.4083252 40.1293335 C-107.23842694 38.97297871 -104.06974228 37.8133533 -100.90136719 36.65283203 C-97.51418152 35.41218713 -94.12693185 34.17172047 -90.73934937 32.93215942 C-78.93142076 28.61139568 -67.12960351 24.27409047 -55.33045292 19.92942429 C-51.09753705 18.37078686 -46.86391827 16.81407005 -42.63012695 15.2578125 C-40.35227124 14.41955628 -38.07451822 13.58102094 -35.796875 12.7421875 C-34.16663643 12.14189728 -34.16663643 12.14189728 -32.50346375 11.52947998 C-24.40163301 8.5376549 -16.32759565 5.47636129 -8.27996826 2.34152222 C-7.47762756 2.03175446 -6.67528687 1.72198669 -5.84863281 1.40283203 C-4.80005096 0.99437546 -4.80005096 0.99437546 -3.73028564 0.57766724 C-2 0 -2 0 0 0 Z " fill="#FCFCFC" transform="translate(252,192)"/>
<path d="M0 0 C11.24845399 3.3745362 11.24845399 3.3745362 15.03930664 4.79907227 C15.90332092 5.12182632 16.76733521 5.44458038 17.65753174 5.77711487 C18.56589783 6.12008102 19.47426392 6.46304718 20.41015625 6.81640625 C21.39497986 7.18503281 22.37980347 7.55365936 23.39447021 7.93345642 C25.51361785 8.72691265 27.63224563 9.52175841 29.75039673 10.31787109 C35.45071473 12.45994819 41.15521056 14.59084759 46.859375 16.72265625 C48.03123856 17.160867 49.20310211 17.59907776 50.41047668 18.05056763 C62.52811691 22.5783507 74.66783433 27.04531126 86.8125 31.5 C88.85750458 32.25064744 90.90250785 33.00129844 92.94750977 33.75195312 C101.09764494 36.74241244 109.24925106 39.72875035 117.40641785 42.69998169 C120.28569052 43.74878418 123.16437093 44.79920713 126.0430603 45.84960938 C127.94172246 46.54127016 129.84157102 47.22967144 131.74145508 47.91796875 C132.8373999 48.31757813 133.93334473 48.7171875 135.0625 49.12890625 C136.00222656 49.46994385 136.94195313 49.81098145 137.91015625 50.16235352 C140 51 140 51 141 52 C141.0928726 53.41225046 141.11746772 54.82908934 141.11352539 56.24438477 C141.11344986 57.14524307 141.11337433 58.04610138 141.11329651 58.97425842 C141.10813522 59.95341721 141.10297394 60.93257599 141.09765625 61.94140625 C141.09553383 63.43751686 141.09553383 63.43751686 141.09336853 64.96385193 C141.08775114 68.16343124 141.07519571 71.36294169 141.0625 74.5625 C141.05748724 76.72591045 141.05292395 78.88932199 141.04882812 81.05273438 C141.03777607 86.36851325 141.02102104 91.68425171 141 97 C139.2212146 97.65295044 139.2212146 97.65295044 137.40649414 98.3190918 C122.26970206 103.87587353 107.13433064 109.4365179 92 115 C90.78018433 115.44841248 89.56036865 115.89682495 88.30358887 116.35882568 C80.90222259 119.07989829 73.50135782 121.80232958 66.10110474 124.52642822 C63.66080988 125.42470001 61.22044134 126.32277165 58.77999878 127.22064209 C47.302356 131.44418576 35.82624225 135.6701644 24.38671875 139.99609375 C23.61232956 140.28861023 22.83794037 140.58112671 22.04008484 140.88250732 C18.60381049 142.18162178 15.16988722 143.48638651 11.73999023 144.80224609 C10.03178101 145.4512085 10.03178101 145.4512085 8.2890625 146.11328125 C6.84587646 146.66689331 6.84587646 146.66689331 5.37353516 147.23168945 C3 148 3 148 0 148 C0 136.45 0 124.9 0 113 C11.24908718 108.50036513 11.24908718 108.50036513 15.99584961 106.90039062 C17.06447739 106.53862732 18.13310516 106.17686401 19.2341156 105.80413818 C20.92613853 105.23593353 20.92613853 105.23593353 22.65234375 104.65625 C24.49366745 104.03389198 26.33499086 103.41153311 28.176301 102.78913498 C30.76744216 101.91405717 33.35944435 101.04154422 35.95141602 100.16893005 C41.27462147 98.37602898 46.59597575 96.57763325 51.91753006 94.77983856 C53.24054671 94.33292787 54.56360325 93.88613523 55.88669968 93.43946075 C64.12275419 90.65878158 72.35155656 87.85841029 80.56640625 85.015625 C81.39929672 84.72776123 82.23218719 84.43989746 83.09031677 84.14331055 C86.82393752 82.85209087 90.55568959 81.55581875 94.28491211 80.25195312 C95.56488406 79.80842821 96.84490941 79.36505736 98.125 78.921875 C99.20007812 78.54643555 100.27515625 78.17099609 101.3828125 77.78417969 C104 77 104 77 107 77 C107 75.35 107 73.7 107 72 C106.48554825 71.85291092 105.9710965 71.70582184 105.4410553 71.55427551 C96.58339603 68.96208354 87.86195007 65.96806555 79.12109375 63.01171875 C77.38253026 62.4249204 75.64392783 61.83823739 73.9052887 61.25166321 C70.26975102 60.02471426 66.63460659 58.79660944 62.99975586 57.56762695 C58.39057101 56.00927628 53.78054373 54.4534361 49.1702261 52.89844036 C45.5792068 51.6869886 41.98858887 50.47435075 38.39808846 49.26136208 C36.70131044 48.68824811 35.00442875 48.11544095 33.30743217 47.54297447 C22.17182978 43.78536102 11.07512189 39.93264469 0 36 C0 24.12 0 12.24 0 0 Z " fill="#FCFCFC" transform="translate(1896,192)"/>
<path d="M0 0 C11.22 0 22.44 0 34 0 C35 1 35 1 35.11352539 2.85766602 C35.10828857 3.64842529 35.10305176 4.43918457 35.09765625 5.25390625 C35.09443359 6.10791016 35.09121094 6.96191406 35.08789062 7.84179688 C35.07532227 9.18854492 35.07532227 9.18854492 35.0625 10.5625 C35.05798828 11.46419922 35.05347656 12.36589844 35.04882812 13.29492188 C35.03700225 15.53001314 35.0205222 17.76497437 35 20 C38.05761002 19.47411895 38.05761002 19.47411895 40.203125 17.3984375 C40.54859375 16.73070312 40.8940625 16.06296875 41.25 15.375 C45.94677373 7.45717601 51.80739809 3.55804197 60.49389648 0.79394531 C66.88252741 -0.65273861 73.23552003 -0.41282598 79.75 -0.25 C84.4525 -0.1675 89.155 -0.085 94 0 C94 10.56 94 21.12 94 32 C79.75 32.25 79.75 32.25 75.33496094 32.29785156 C64.00366578 32.58981604 53.75321509 34.44031635 44.90625 41.95703125 C36.66089512 50.79375379 35.70828509 62.97034498 35.68115234 74.49853516 C35.66608391 75.99302185 35.66608391 75.99302185 35.65071106 77.5177002 C35.62009193 80.77481568 35.60290349 84.03184979 35.5859375 87.2890625 C35.56720872 89.56164235 35.54763405 91.83421538 35.5272522 94.10678101 C35.4761057 100.06113646 35.4363867 106.01551442 35.39910889 111.9699707 C35.35895925 118.0568592 35.30791707 124.1436555 35.2578125 130.23046875 C35.16126032 142.15358725 35.07779749 154.07674437 35 166 C23.45 166 11.9 166 0 166 C0 111.22 0 56.44 0 0 Z " fill="#FCFCFC" transform="translate(1285,183)"/>
<path d="M0 0 C6.07205106 6.07205106 9.05428038 13.39834015 9.375 21.9375 C9.08218506 30.49568205 6.53065984 38.50177926 0.36328125 44.625 C-5.67616809 50.07491524 -10.72737106 51.51098339 -18.8515625 51.390625 C-25.37224407 50.58160744 -30.41457176 47.58542824 -35 43 C-35.33 52.9 -35.66 62.8 -36 73 C-39.3 73 -42.6 73 -46 73 C-47.68232339 71.31767661 -47.12575392 69.24576976 -47.13552856 67.00016785 C-47.13350433 66.2853273 -47.1314801 65.57048676 -47.12939453 64.83398438 C-47.13114685 64.08441971 -47.13289917 63.33485504 -47.13470459 62.56257629 C-47.1391232 60.07294431 -47.1361851 57.58338277 -47.1328125 55.09375 C-47.13348554 53.37121568 -47.13445556 51.64868145 -47.13571167 49.92614746 C-47.13718865 46.31127012 -47.13503407 42.69641745 -47.13037109 39.08154297 C-47.1246738 34.43733507 -47.1279528 29.79318496 -47.13394356 25.14897919 C-47.13754916 21.59063274 -47.13641059 18.0323001 -47.13381577 14.47395325 C-47.13314649 12.76105238 -47.13397493 11.04815028 -47.13629532 9.33525085 C-47.13882183 6.94547178 -47.1349813 4.55578759 -47.12939453 2.16601562 C-47.13141876 1.45117508 -47.13344299 0.73633453 -47.13552856 -0.00016785 C-47.11426269 -4.88573731 -47.11426269 -4.88573731 -46 -6 C-43.32941149 -6.14115161 -40.67567762 -6.04247107 -38 -6 C-37.34 -3.69 -36.68 -1.38 -36 1 C-35.443125 0.59007812 -34.88625 0.18015625 -34.3125 -0.2421875 C-22.48299719 -8.59477563 -11.75642998 -9.19720712 0 0 Z M-34.69140625 9.5859375 C-36.75270742 13.38857668 -36.47317496 17.11995013 -36.4375 21.375 C-36.45748047 22.21289062 -36.47746094 23.05078125 -36.49804688 23.9140625 C-36.49370806 29.43302946 -35.70055982 32.65150823 -32 37 C-26.45584563 41.18640228 -21.94530711 42.71301632 -15 42 C-9.83935032 40.17859423 -7.17296091 37.40689015 -4 33 C-1.24616417 27.17457805 -0.84608926 20.88789245 -2.6875 14.68359375 C-5.12533612 9.33051194 -8.6930827 5.65345865 -14 3 C-22.78990297 1.96415285 -28.28675687 3.58065425 -34.69140625 9.5859375 Z " fill="#F8F8F8" transform="translate(1698,569)"/>
<path d="M0 0 C7.4022205 5.179028 11.23717165 11.86881274 13.2890625 20.6015625 C14.45480838 29.33140947 12.56403591 37.76597027 7.4765625 44.9765625 C2.86201739 50.60018504 -2.42172236 53.74856924 -9.7109375 54.6015625 C-16.91507101 54.8080504 -22.08484385 53.09724011 -27.7109375 48.6015625 C-28.7009375 47.6115625 -29.6909375 46.6215625 -30.7109375 45.6015625 C-31.0409375 55.5015625 -31.3709375 65.4015625 -31.7109375 75.6015625 C-35.3409375 75.6015625 -38.9709375 75.6015625 -42.7109375 75.6015625 C-42.7109375 49.8615625 -42.7109375 24.1215625 -42.7109375 -2.3984375 C-39.4109375 -2.3984375 -36.1109375 -2.3984375 -32.7109375 -2.3984375 C-32.3809375 -0.0884375 -32.0509375 2.2215625 -31.7109375 4.6015625 C-31.27523438 4.19164062 -30.83953125 3.78171875 -30.390625 3.359375 C-21.42665109 -4.7508871 -10.67216773 -6.06450166 0 0 Z M-30.66137695 13.76416016 C-32.68014084 17.29828833 -32.53570098 20.99540739 -32.4609375 24.9765625 C-32.450625 25.82347656 -32.4403125 26.67039062 -32.4296875 27.54296875 C-32.22335932 32.29588577 -31.81693424 35.79742887 -28.7109375 39.6015625 C-24.53774181 43.22057124 -20.19962662 45.45702171 -14.63671875 45.6875 C-9.68959952 45.3294228 -6.37733753 43.86058475 -2.7109375 40.6015625 C1.88147832 34.88224781 2.98515789 29.59036441 2.64453125 22.3359375 C1.84676904 16.19930512 -1.11297248 12.55795101 -5.7109375 8.6015625 C-15.16791079 2.5070686 -23.98179741 5.48072319 -30.66137695 13.76416016 Z " fill="#F8F8F8" transform="translate(1834.7109375,460.3984375)"/>
<path d="M0 0 C5.39346988 -0.02464849 10.78690725 -0.04283531 16.18041992 -0.05493164 C18.01668875 -0.05997231 19.85295354 -0.06680477 21.68920898 -0.07543945 C24.32276401 -0.08751672 26.95626616 -0.09323081 29.58984375 -0.09765625 C30.41588608 -0.10281754 31.24192841 -0.10797882 32.09300232 -0.11329651 C34.06236368 -0.11349205 36.03161614 -0.06204152 38 0 C39 1 39 1 39.12025452 2.86659241 C39.11803391 3.68155685 39.11581329 4.4965213 39.11352539 5.33618164 C39.11344986 6.2570607 39.11337433 7.17793976 39.11329651 8.12672424 C39.10813522 9.12775681 39.10297394 10.12878937 39.09765625 11.16015625 C39.0962413 12.17975937 39.09482635 13.19936249 39.09336853 14.24986267 C39.08775097 17.52077107 39.0751955 20.79161213 39.0625 24.0625 C39.05748726 26.27408756 39.05292396 28.48567618 39.04882812 30.69726562 C39.03777584 36.13153357 39.02102063 41.56576197 39 47 C41.31 47 43.62 47 46 47 C46 54.26 46 61.52 46 69 C43.03 69 40.06 69 37 69 C37 64.71 37 60.42 37 56 C23.47 56 9.94 56 -4 56 C-4 60.29 -4 64.58 -4 69 C-6.97 69 -9.94 69 -13 69 C-13 61.74 -13 54.48 -13 47 C-11.02 46.34 -9.04 45.68 -7 45 C1.84163354 35.48779313 -0.68957443 12.20874273 0 0 Z M9 10 C8.89042969 11.61648438 8.78085938 13.23296875 8.66796875 14.8984375 C8.50839806 17.05733503 8.34820883 19.2161869 8.1875 21.375 C8.11724609 22.43589844 8.04699219 23.49679687 7.97460938 24.58984375 C7.45073365 31.42118324 6.2608058 37.53457594 4 44 C3.67 44.99 3.34 45.98 3 47 C11.25 47 19.5 47 28 47 C28 34.79 28 22.58 28 10 C21.73 10 15.46 10 9 10 Z " fill="#F7F7F7" transform="translate(1427,563)"/>
<path d="M0 0 C12.87 0 25.74 0 39 0 C39 15.18 39 30.36 39 46 C41.31 46 43.62 46 46 46 C46 53.59 46 61.18 46 69 C43.03 69 40.06 69 37 69 C37 64.71 37 60.42 37 56 C23.8 56 10.6 56 -3 56 C-3 59.96 -3 63.92 -3 68 C-4 69 -4 69 -5.8125 69.1328125 C-6.534375 69.13023437 -7.25625 69.12765625 -8 69.125 C-8.721875 69.12757813 -9.44375 69.13015625 -10.1875 69.1328125 C-12 69 -12 69 -13 68 C-13.08685603 66.43827255 -13.10702219 64.87270656 -13.09765625 63.30859375 C-13.09443359 62.36435547 -13.09121094 61.42011719 -13.08789062 60.44726562 C-13.07951172 59.45404297 -13.07113281 58.46082031 -13.0625 57.4375 C-13.05798828 56.44041016 -13.05347656 55.44332031 -13.04882812 54.41601562 C-13.03700007 51.94395151 -13.02051849 49.47200482 -13 47 C-11.88625 46.773125 -10.7725 46.54625 -9.625 46.3125 C-5.93074287 45.40261415 -5.93074287 45.40261415 -4.66015625 42.80078125 C-4.44230469 41.87652344 -4.22445313 40.95226562 -4 40 C-3.73058594 38.96230469 -3.46117187 37.92460937 -3.18359375 36.85546875 C-0.68606673 24.57705057 -0.35588786 12.52725281 0 0 Z M10 9 C9.81824219 10.83304687 9.63648438 12.66609375 9.44921875 14.5546875 C9.19581786 16.9948442 8.94188327 19.43494552 8.6875 21.875 C8.56955078 23.07898438 8.45160156 24.28296875 8.33007812 25.5234375 C8.20439453 26.709375 8.07871094 27.8953125 7.94921875 29.1171875 C7.83924561 30.19597168 7.72927246 31.27475586 7.6159668 32.38623047 C6.82703693 37.01474407 5.34917554 41.50274819 4 46 C12.25 46 20.5 46 29 46 C29 33.79 29 21.58 29 9 C22.73 9 16.46 9 10 9 Z " fill="#F5F5F5" transform="translate(1299,458)"/>
<path d="M0 0 C4.87461475 -0.09924823 9.74863497 -0.17164581 14.62402344 -0.21972656 C16.28070325 -0.23978009 17.93731282 -0.26703029 19.59375 -0.30175781 C21.98194758 -0.35055512 24.36920547 -0.37303064 26.7578125 -0.390625 C27.85973434 -0.42159271 27.85973434 -0.42159271 28.98391724 -0.45318604 C34.15737502 -0.45541806 36.99725765 0.78185834 41 4 C44.29974175 7.29974175 44.76592013 10.39642925 45 15 C44.04122625 20.05535248 42.45433253 23.20023422 39 27 C39.94875 27.7425 40.8975 28.485 41.875 29.25 C45.05873353 31.74161755 46.70350901 34.10383671 47.3359375 38.1484375 C47.43182051 43.61376895 46.75591353 46.74988733 43 51 C37.00293922 55.7210904 32.23638201 56.12615746 24.765625 56.1328125 C23.74767853 56.13424759 23.74767853 56.13424759 22.70916748 56.13571167 C21.28381253 56.13638898 19.85845441 56.13456614 18.43310547 56.13037109 C16.24309472 56.12498301 14.05328595 56.13034818 11.86328125 56.13671875 C10.47656205 56.13605854 9.08984297 56.13477857 7.703125 56.1328125 C6.44145508 56.13168457 5.17978516 56.13055664 3.87988281 56.12939453 C1 56 1 56 0 55 C-0.0935919 53.28134591 -0.11744611 51.55884256 -0.11352539 49.83764648 C-0.11344986 48.73658066 -0.11337433 47.63551483 -0.11329651 46.50108337 C-0.10813522 45.3031868 -0.10297394 44.10529022 -0.09765625 42.87109375 C-0.0962413 41.65172623 -0.09482635 40.4323587 -0.09336853 39.17604065 C-0.08774967 35.2631693 -0.07519396 31.35035419 -0.0625 27.4375 C-0.05748743 24.79231853 -0.0529241 22.14713617 -0.04882812 19.50195312 C-0.03777411 13.00128274 -0.02101764 6.50064539 0 0 Z M10 7 C10 12.61 10 18.22 10 24 C13.06345144 24.10822792 16.1230601 24.18741479 19.1875 24.25 C20.05181641 24.28351562 20.91613281 24.31703125 21.80664062 24.3515625 C25.99969731 24.41582391 28.36829832 24.37335189 32.046875 22.19921875 C34.77097433 19.1318829 35.07138545 17.06897088 35 13 C32.91374661 9.57258371 31.8255689 8.27518963 28 7 C26.59175107 6.91978001 25.18002769 6.89234023 23.76953125 6.90234375 C22.56586914 6.90717773 22.56586914 6.90717773 21.33789062 6.91210938 C20.08782227 6.92467773 20.08782227 6.92467773 18.8125 6.9375 C17.5450293 6.94426758 17.5450293 6.94426758 16.25195312 6.95117188 C14.16793845 6.96294597 12.08396023 6.9808811 10 7 Z M10 31 C10 36.61 10 42.22 10 48 C13.41687783 48.0539507 16.83290364 48.09365049 20.25 48.125 C21.70212891 48.15013672 21.70212891 48.15013672 23.18359375 48.17578125 C24.58544922 48.18544922 24.58544922 48.18544922 26.015625 48.1953125 C27.30388184 48.21102295 27.30388184 48.21102295 28.61816406 48.22705078 C31.21306642 47.97968924 32.79282671 47.36289602 35 46 C37.06466502 43.34543069 36.99684937 41.9117824 36.875 38.5 C35.85706308 34.42825233 35.45619909 33.34491383 32 31 C28.23987043 30.50203066 24.53434722 30.62513575 20.75 30.75 C19.203125 30.77707031 19.203125 30.77707031 17.625 30.8046875 C15.0829355 30.85176277 12.54134933 30.92350454 10 31 Z " fill="#F8F8F8" transform="translate(1710,669)"/>
<path d="M0 0 C5.65125 -0.0825 11.3025 -0.165 17.125 -0.25 C18.89762207 -0.28641602 20.67024414 -0.32283203 22.49658203 -0.36035156 C23.9169799 -0.37204468 25.33739128 -0.38223503 26.7578125 -0.390625 C27.48282959 -0.41108887 28.20784668 -0.43155273 28.95483398 -0.45263672 C34.1382708 -0.45616647 36.9976698 0.75697846 41 4 C44.42061153 7.87669307 44.44442751 11.66376435 44.296875 16.62890625 C43.91370973 19.68918678 42.89900564 21.58972361 41 24 C40.34 24.99 39.68 25.98 39 27 C39.94875 27.721875 40.8975 28.44375 41.875 29.1875 C45.85067557 32.53494382 46.84077009 35.24847098 47.3125 40.4375 C46.86558495 45.53233162 45.3681393 48.592771 41.8125 52.25 C33.71707895 57.28715088 24.16997763 56.2330283 15 56.125 C10.05 56.08375 5.1 56.0425 0 56 C0 37.52 0 19.04 0 0 Z M10 7 C10 12.61 10 18.22 10 24 C13.06345144 24.10822792 16.1230601 24.18741479 19.1875 24.25 C20.05181641 24.28351563 20.91613281 24.31703125 21.80664062 24.3515625 C26.02184428 24.41616332 28.36537087 24.38110251 32.05078125 22.16796875 C34.55701926 19.38046956 35 17.73592122 35 14 C33.34668422 10.17126872 31.81983817 8.54332529 28 7 C25.8784414 6.72821919 25.8784414 6.72821919 23.671875 6.8046875 C22.87265625 6.81113281 22.0734375 6.81757813 21.25 6.82421875 C20.425 6.84097656 19.6 6.85773438 18.75 6.875 C17.48929688 6.88853516 17.48929688 6.88853516 16.203125 6.90234375 C14.13529396 6.92584183 12.06761005 6.96171092 10 7 Z M10 31 C10 36.61 10 42.22 10 48 C13.39668836 48.1081174 16.78992439 48.18737188 20.1875 48.25 C21.14720703 48.28351563 22.10691406 48.31703125 23.09570312 48.3515625 C27.5125512 48.41269535 30.22891658 48.44448418 34.1171875 46.203125 C36.70673116 43.17303657 36.92963213 40.94060066 37 37 C35.89791992 33.60191974 35.07902124 33.05268083 32 31 C29.57954562 30.72456155 29.57954562 30.72456155 26.89453125 30.8046875 C25.91162109 30.81113281 24.92871094 30.81757813 23.91601562 30.82421875 C22.37977539 30.84935547 22.37977539 30.84935547 20.8125 30.875 C19.25885742 30.88853516 19.25885742 30.88853516 17.67382812 30.90234375 C15.11578694 30.92592017 12.55786447 30.96179124 10 31 Z " fill="#F8F8F8" transform="translate(1419,458)"/>
<path d="M0 0 C0.8146875 0.00257813 1.629375 0.00515625 2.46875 0.0078125 C3.2834375 0.00523437 4.098125 0.00265625 4.9375 0 C6.96875 0.1328125 6.96875 0.1328125 7.96875 1.1328125 C8.12892166 3.94257768 8.22825534 6.73054846 8.28515625 9.54296875 C8.30593735 10.38500351 8.32671844 11.22703827 8.34812927 12.09458923 C8.41371812 14.79474429 8.47255276 17.49499967 8.53125 20.1953125 C8.57442637 22.02149491 8.61804036 23.84766704 8.66210938 25.67382812 C8.76940894 30.16005242 8.87064966 34.646378 8.96875 39.1328125 C9.32455643 38.6380542 9.68036285 38.1432959 10.04695129 37.63354492 C16.54244955 28.60331491 23.06944234 19.59670362 29.65625 10.6328125 C30.2558252 9.81449951 30.85540039 8.99618652 31.47314453 8.15307617 C32.03243652 7.39357666 32.59172852 6.63407715 33.16796875 5.8515625 C33.66127686 5.18060547 34.15458496 4.50964844 34.6628418 3.81835938 C35.96875 2.1328125 35.96875 2.1328125 37.96875 0.1328125 C40.93875 0.1328125 43.90875 0.1328125 46.96875 0.1328125 C46.96875 18.6128125 46.96875 37.0928125 46.96875 56.1328125 C43.66875 56.1328125 40.36875 56.1328125 36.96875 56.1328125 C36.63875 43.2628125 36.30875 30.3928125 35.96875 17.1328125 C34.1125 19.7109375 32.25625 22.2890625 30.34375 24.9453125 C25.35206804 31.8625691 20.33236135 38.75882825 15.28125 45.6328125 C14.38188721 46.86028198 14.38188721 46.86028198 13.46435547 48.11254883 C12.90506348 48.87204834 12.34577148 49.63154785 11.76953125 50.4140625 C11.27622314 51.08501953 10.78291504 51.75597656 10.2746582 52.44726562 C8.96875 54.1328125 8.96875 54.1328125 6.96875 56.1328125 C4.5859375 56.328125 4.5859375 56.328125 1.84375 56.2578125 C0.93367188 56.23976563 0.02359375 56.22171875 -0.9140625 56.203125 C-1.61273437 56.17992187 -2.31140625 56.15671875 -3.03125 56.1328125 C-3.05651563 48.31828498 -3.07408105 40.50376792 -3.08618164 32.68920898 C-3.09122383 30.02839769 -3.09805736 27.36758918 -3.10668945 24.70678711 C-3.11876009 20.89175734 -3.12447929 17.07676406 -3.12890625 13.26171875 C-3.13406754 12.06382217 -3.13922882 10.8659256 -3.14454651 9.63172913 C-3.14462204 8.5306633 -3.14469757 7.42959747 -3.14477539 6.29516602 C-3.146996 5.32031754 -3.14921661 4.34546906 -3.15150452 3.34107971 C-2.99526056 0.47192834 -2.86407092 0.18726618 0 0 Z " fill="#F8F8F8" transform="translate(1295.03125,562.8671875)"/>
<path d="M0 0 C3.3 0 6.6 0 10 0 C10.33 13.2 10.66 26.4 11 40 C18.12167814 30.36055686 25.23266123 20.71569998 32.25 11 C32.79809326 10.24154785 33.34618652 9.4830957 33.91088867 8.70166016 C35.98476272 5.82509147 38.03254252 2.95118622 40 0 C42.12890625 -0.328125 42.12890625 -0.328125 44.5625 -0.25 C45.36816406 -0.23453125 46.17382812 -0.2190625 47.00390625 -0.203125 C49 0 49 0 50 1 C50.0935919 2.71865409 50.11744611 4.44115744 50.11352539 6.16235352 C50.11344986 7.26341934 50.11337433 8.36448517 50.11329651 9.49891663 C50.10813522 10.6968132 50.10297394 11.89470978 50.09765625 13.12890625 C50.0962413 14.34827377 50.09482635 15.5676413 50.09336853 16.82395935 C50.08774967 20.7368307 50.07519396 24.64964581 50.0625 28.5625 C50.05748743 31.20768147 50.0529241 33.85286383 50.04882812 36.49804688 C50.03777411 42.99871974 50.02049683 49.49935032 50 56 C46.37 56 42.74 56 39 56 C38.67 43.46 38.34 30.92 38 18 C34.7 22.62 31.4 27.24 28 32 C25.54990649 35.36089982 23.09555118 38.7168447 20.625 42.0625 C20.03589844 42.86365234 19.44679688 43.66480469 18.83984375 44.49023438 C17.71784863 46.01186147 16.58601406 47.52630491 15.44238281 49.03173828 C13.8562598 51.1253003 13.8562598 51.1253003 12.2109375 54.05859375 C10 56 10 56 0 56 C0 37.52 0 19.04 0 0 Z " fill="#F8F8F8" transform="translate(1718,563)"/>
<path d="M0 0 C7.10456277 4.78064037 10.83316481 10.7955837 13.62890625 18.80078125 C14.19495226 22.15534863 14 25.59801082 14 29 C-1.18 29 -16.36 29 -32 29 C-28.96051459 38.54606067 -28.96051459 38.54606067 -22 44 C-17.27801454 46.31075884 -13.03119306 46.35716191 -8 45 C-4.08717592 43.31541821 -1.40985787 41.6147868 1 38 C3.64 38.33 6.28 38.66 9 39 C9 43.83273193 8.01652422 44.89437136 4.9140625 48.3203125 C-0.44611459 53.02414137 -7.2420954 54.70526238 -14.1875 55.25 C-22.69522026 54.6921167 -29.88131832 52.05054491 -36 46 C-42.1649063 38.28210204 -44.06037976 29.74475581 -43 20 C-41.05610441 12.10801671 -36.82689925 5.11267335 -29.91015625 0.65234375 C-20.81693318 -4.07206823 -9.12963513 -5.3367387 0 0 Z M-29.80078125 12.890625 C-31.52526479 15.62417477 -31.52526479 15.62417477 -32 22 C-20.12 22 -8.24 22 4 22 C2.92208846 15.53253077 1.47184957 12.57279425 -3 8 C-13.08338517 1.91191839 -22.26164307 4.57976401 -29.80078125 12.890625 Z " fill="#F9F9F9" transform="translate(1517,460)"/>
<path d="M0 0 C7.55419369 5.46767763 11.748017 10.99206798 14 20 C14 22.97 14 25.94 14 29 C-1.18 29 -16.36 29 -32 29 C-27.89612558 39.76842193 -27.89612558 39.76842193 -19.125 45.375 C-13.61749861 46.47650028 -9.08054147 45.79918669 -4.1875 43.1875 C-1.3863105 41.26511505 0.25944297 39.86679981 2 37 C4.64 37.99 7.28 38.98 10 40 C8.60177491 45.28218367 5.2996591 47.94891266 1 51 C-6.53145449 55.20023424 -15.54633692 56.0824544 -23.875 53.8515625 C-31.03136513 50.98375441 -37.6218597 44.81012528 -41.03515625 37.90625 C-44.0213982 30.01701546 -44.02142208 22.05198551 -41.0390625 14.1640625 C-37.29789214 6.37230167 -31.77945715 0.96801177 -23.8125 -2.3125 C-15.80102905 -3.75719148 -7.20017303 -4.33169363 0 0 Z M-29.4375 12.375 C-31.5307863 15.50866393 -31.5307863 15.50866393 -32 22 C-20.12 22 -8.24 22 4 22 C2.85893467 15.15360803 1.4716312 11.86633376 -4.0625 7.6875 C-13.79159168 2.09844733 -21.84080889 4.97309584 -29.4375 12.375 Z " fill="#F9F9F9" transform="translate(1395,460)"/>
<path d="M0 0 C6.23471338 4.72689402 9.5611357 10.68340709 12 18 C12 21.3 12 24.6 12 28 C-3.18 28 -18.36 28 -34 28 C-29.90014666 38.73955768 -29.90014666 38.73955768 -21.1875 44.375 C-15.39274767 45.51122595 -10.7572853 44.95851926 -5.5625 42.125 C-2.84519628 40.07805275 -2.84519628 40.07805275 -1 37 C1.97 37.33 4.94 37.66 8 38 C7.52905569 42.49751817 6.15077695 44.27657006 2.75 47.1875 C1.59757812 48.19876953 1.59757812 48.19876953 0.421875 49.23046875 C-5.87442083 53.83082683 -13.6480916 54.49571707 -21.27734375 53.7890625 C-29.63164752 52.03548587 -36.25157767 46.94456765 -41 40 C-45.179496 32.35935888 -46.06735404 24.55295005 -43.9375 16.125 C-41.14414799 7.58903595 -36.05231694 1.93617634 -28.11328125 -2.125 C-18.96658928 -5.91217006 -8.47651961 -4.9801389 0 0 Z M-30.375 10.4375 C-32.64485923 14.0168934 -34 16.73074286 -34 21 C-22.12 21 -10.24 21 2 21 C0.95824701 13.70772907 0.11330153 11.64518237 -5 7 C-13.50836548 1.13868156 -23.42776488 3.3074429 -30.375 10.4375 Z " fill="#F9F9F9" transform="translate(1770,461)"/>
<path d="M0 0 C3.3 0 6.6 0 10 0 C10.33 12.87 10.66 25.74 11 39 C12.85625 36.421875 14.7125 33.84375 16.625 31.1875 C22.22250593 23.4217016 27.8833705 15.70452635 33.59228516 8.02026367 C34.1547998 7.26076416 34.71731445 6.50126465 35.296875 5.71875 C35.79541992 5.04779297 36.29396484 4.37683594 36.80761719 3.68554688 C38.06133735 2.00353626 38.06133735 2.00353626 39 0 C42.3 0 45.6 0 49 0 C49 18.48 49 36.96 49 56 C45.7 56 42.4 56 39 56 C38.67 43.13 38.34 30.26 38 17 C36.14375 19.578125 34.2875 22.15625 32.375 24.8125 C27.38331804 31.7297566 22.36361135 38.62601575 17.3125 45.5 C16.41313721 46.72746948 16.41313721 46.72746948 15.49560547 47.97973633 C14.93631348 48.73923584 14.37702148 49.49873535 13.80078125 50.28125 C13.30747314 50.95220703 12.81416504 51.62316406 12.3059082 52.31445312 C11 54 11 54 9 56 C6.03 56 3.06 56 0 56 C0 37.52 0 19.04 0 0 Z " fill="#F9F9F9" transform="translate(1477,669)"/>
<path d="M0 0 C3.3 0 6.6 0 10 0 C10.33 12.87 10.66 25.74 11 39 C17.98165146 29.74720891 24.88791128 20.45613018 31.63354492 11.02978516 C32.63957204 9.62719526 33.65442914 8.23087951 34.6796875 6.84228516 C35.8027402 5.27524454 36.82028047 3.63345516 37.8125 1.98046875 C40 0 40 0 49 0 C49 18.48 49 36.96 49 56 C45.7 56 42.4 56 39 56 C38.67 43.46 38.34 30.92 38 18 C29.46038516 29.09519731 29.46038516 29.09519731 21.1875 40.375 C20.65447266 41.11621094 20.12144531 41.85742188 19.57226562 42.62109375 C19.04697266 43.35199219 18.52167969 44.08289063 17.98046875 44.8359375 C17.46919434 45.53170898 16.95791992 46.22748047 16.43115234 46.94433594 C14.97298701 48.960359 14.97298701 48.960359 13.85400391 51.09472656 C12.73828125 53.0390625 12.73828125 53.0390625 10 56 C6.7 56 3.4 56 0 56 C0 37.52 0 19.04 0 0 Z " fill="#F9F9F9" transform="translate(1783,563)"/>
<path d="M0 0 C4.36362439 3.68483837 7.19453072 7.58359215 9 13 C9.15179014 15.3555448 9.24899289 17.71475123 9.31640625 20.07421875 C9.33718735 20.7580513 9.35796844 21.44188385 9.37937927 22.1464386 C9.44466154 24.3266921 9.50366017 26.50706405 9.5625 28.6875 C9.60570553 30.16732986 9.64932047 31.64714783 9.69335938 33.12695312 C9.80032083 36.75117622 9.90164823 40.37553189 10 44 C10.99 44.495 10.99 44.495 12 45 C12 47.97 12 50.94 12 54 C4.89006342 54.7230444 4.89006342 54.7230444 2.35546875 52.6640625 C1 51 1 51 -1 48 C-1.4846875 48.33773437 -1.969375 48.67546875 -2.46875 49.0234375 C-10.12540935 54.11806084 -16.26067254 55.63977416 -25.453125 54.53515625 C-30.77367711 53.41718748 -34.70290902 50.06489918 -38.01953125 45.8359375 C-40.01410801 42.10107265 -40.21795489 38.1683872 -40 34 C-38.34832114 28.63204372 -34.65867712 25.00326369 -30 22 C-24.91685239 19.78312065 -20.31355083 19.72821577 -14.875 19.8125 C-14.07707031 19.81314453 -13.27914063 19.81378906 -12.45703125 19.81445312 C-8.78162243 19.84206471 -5.5567338 20.00094547 -2 21 C-2.17445235 14.82716914 -2.17445235 14.82716914 -4.9375 9.5 C-9.86119501 5.9191309 -15.10182931 6.36272639 -21 7 C-25.1711205 8.34643393 -29.07686275 10.05234321 -33 12 C-36.02536969 7.64346764 -36.02536969 7.64346764 -35.9140625 4.8203125 C-33.79062895 0.5915944 -27.91723345 -0.6472179 -23.75 -2.25 C-15.4179847 -3.91640306 -7.63926086 -3.88664149 0 0 Z M-28.9375 31.75 C-30.57023814 35.20756312 -30.01926859 37.36885564 -29 41 C-26.96349052 43.92748237 -25.40291372 45.56710091 -21.94921875 46.6328125 C-16.42242554 47.53008117 -11.86557146 46.78789824 -7 44 C-4.45217219 41.7774268 -2.51066334 40.02132669 -1 37 C-0.9310528 35.62657169 -0.91532292 34.24997898 -0.9375 32.875 C-0.958125 31.59625 -0.97875 30.3175 -1 29 C-5.46258539 27.29251687 -9.22787848 26.70319777 -14 26.6875 C-15.175625 26.67074219 -16.35125 26.65398438 -17.5625 26.63671875 C-22.17301372 27.12396622 -25.50075251 28.64584098 -28.9375 31.75 Z " fill="#F9F9F9" transform="translate(1391,671)"/>
<path d="M0 0 C3.63 0 7.26 0 11 0 C11 7.26 11 14.52 11 22 C19.91 22 28.82 22 38 22 C38 14.74 38 7.48 38 0 C41.63 0 45.26 0 49 0 C49.02463956 7.81453214 49.04283105 15.62904188 49.05493164 23.44360352 C49.05997383 26.10441481 49.06680736 28.76522332 49.07543945 31.42602539 C49.08751009 35.24105516 49.09322929 39.05604844 49.09765625 42.87109375 C49.10281754 44.06899033 49.10797882 45.2668869 49.11329651 46.50108337 C49.11337204 47.6021492 49.11344757 48.70321503 49.11352539 49.83764648 C49.115746 50.81249496 49.11796661 51.78734344 49.12025452 52.79173279 C49 55 49 55 48 56 C46.50261876 56.0979057 45.00057108 56.12974864 43.5 56.125 C42.6853125 56.12757813 41.870625 56.13015625 41.03125 56.1328125 C39 56 39 56 38 55 C37.91286169 53.29227642 37.89299993 51.58101351 37.90234375 49.87109375 C37.90484131 48.93966553 37.90733887 48.0082373 37.90991211 47.04858398 C37.91901611 45.85692627 37.92812012 44.66526855 37.9375 43.4375 C37.958125 39.663125 37.97875 35.88875 38 32 C29.09 32 20.18 32 11 32 C11.03958834 39.52432774 11.03958834 39.52432774 11.09008789 47.04858398 C11.09258545 47.98001221 11.09508301 48.91144043 11.09765625 49.87109375 C11.10289307 50.82943115 11.10812988 51.78776855 11.11352539 52.77514648 C11 55 11 55 10 56 C8.50261876 56.0979057 7.00057108 56.12974864 5.5 56.125 C4.6853125 56.12757813 3.870625 56.13015625 3.03125 56.1328125 C1 56 1 56 0 55 C-0.0935919 53.28134591 -0.11744611 51.55884256 -0.11352539 49.83764648 C-0.11344986 48.73658066 -0.11337433 47.63551483 -0.11329651 46.50108337 C-0.10813522 45.3031868 -0.10297394 44.10529022 -0.09765625 42.87109375 C-0.0962413 41.65172623 -0.09482635 40.4323587 -0.09336853 39.17604065 C-0.08774967 35.2631693 -0.07519396 31.35035419 -0.0625 27.4375 C-0.05748743 24.79231853 -0.0529241 22.14713617 -0.04882812 19.50195312 C-0.03777411 13.00128026 -0.02049683 6.50064968 0 0 Z " fill="#F7F7F7" transform="translate(1292,669)"/>
<path d="M0 0 C6.93727146 4.8845316 11.32286686 10.59880527 13 19 C13.87665596 28.80130101 12.39188764 36.88114811 6.375 44.8125 C0.72276703 50.89620113 -7.08425937 53.61445172 -15.1875 54.25 C-24.32633981 53.65073182 -30.26396053 50.8763257 -36.86328125 44.453125 C-42.45205928 38.03675826 -44.45592594 30.45131015 -44 22 C-42.54215447 14.24897034 -40.30256705 7.06975723 -34 2 C-23.48132985 -4.98805564 -11.15547483 -7.04228299 0 0 Z M-29.7421875 13.25390625 C-33.48201314 18.44552755 -33.76039322 23.7647756 -33 30 C-31.19329456 35.91285416 -28.05359633 39.56355449 -23 43 C-18.28255745 45.25616818 -13.99852461 45.46958557 -9 44 C-3.85225228 41.57753048 -0.9675878 38.21526675 1.28125 33.0390625 C3.43048742 26.9417694 3.22300049 21.9522964 1 16 C-1.75901058 10.58809462 -5.45778844 7.3579591 -11 5 C-19.23169271 3.36599358 -24.82279652 7.05959457 -29.7421875 13.25390625 Z " fill="#F9F9F9" transform="translate(1686,672)"/>
<path d="M0 0 C6.93727146 4.8845316 11.32286686 10.59880527 13 19 C13.87665596 28.80130101 12.39188764 36.88114811 6.375 44.8125 C0.5274932 51.01173653 -6.94985008 53.6845355 -15.3359375 54.0625 C-24.37207315 53.85050855 -30.10390992 50.81978737 -36.50390625 44.51953125 C-42.06695082 38.32545476 -44.16298917 31.17274247 -44 23 C-42.96415398 14.5589569 -40.25722489 7.87290398 -34 2 C-23.72435916 -5.22587223 -10.95456901 -6.91545418 0 0 Z M-29.7421875 13.25390625 C-33.48201314 18.44552755 -33.76039322 23.7647756 -33 30 C-31.22747427 35.80099329 -28.13557615 39.70547945 -23 43 C-17.2531987 45.19175451 -12.77468662 45.44313665 -7 43 C-1.96342018 39.83749639 1.0432385 35.56019414 2.57421875 29.86328125 C3.62835885 23.36841804 2.34423442 17.80213285 -1.10546875 12.20703125 C-4.23627736 8.10354424 -7.78092406 5.46447589 -12.94921875 4.71875 C-20.5162899 4.37282675 -25.14020486 7.45926319 -29.7421875 13.25390625 Z " fill="#F9F9F9" transform="translate(1643,461)"/>
<path d="M0 0 C15.51 0 31.02 0 47 0 C47.02290171 7.81457074 47.04283103 15.629026 47.05493164 23.44360352 C47.05997383 26.10441481 47.06680736 28.76522332 47.07543945 31.42602539 C47.08751009 35.24105516 47.09322929 39.05604844 47.09765625 42.87109375 C47.10281754 44.06899033 47.10797882 45.2668869 47.11329651 46.50108337 C47.11337204 47.6021492 47.11344757 48.70321503 47.11352539 49.83764648 C47.115746 50.81249496 47.11796661 51.78734344 47.12025452 52.79173279 C47 55 47 55 46 56 C44.50261876 56.0979057 43.00057108 56.12974864 41.5 56.125 C40.6853125 56.12757813 39.870625 56.13015625 39.03125 56.1328125 C37 56 37 56 36 55 C35.90704185 53.55710213 35.88253487 52.10970215 35.88647461 50.66381836 C35.88655014 49.7429393 35.88662567 48.82206024 35.88670349 47.87327576 C35.89186478 46.87224319 35.89702606 45.87121063 35.90234375 44.83984375 C35.9037587 43.82024063 35.90517365 42.80063751 35.90663147 41.75013733 C35.91224903 38.47922893 35.9248045 35.20838787 35.9375 31.9375 C35.94251274 29.72591244 35.94707604 27.51432382 35.95117188 25.30273438 C35.9613752 19.86844248 35.98094715 14.43429702 36 9 C27.42 9 18.84 9 10 9 C10 24.51 10 40.02 10 56 C6.7 56 3.4 56 0 56 C0 37.52 0 19.04 0 0 Z " fill="#F8F8F8" transform="translate(1415,669)"/>
<path d="M0 0 C15.51 0 31.02 0 47 0 C47 18.48 47 36.96 47 56 C43.7 56 40.4 56 37 56 C37 40.49 37 24.98 37 9 C28.42 9 19.84 9 11 9 C11.01160156 12.30902344 11.02320313 15.61804688 11.03515625 19.02734375 C11.04294581 22.21769108 11.04902314 25.40803737 11.05493164 28.59838867 C11.05997317 30.82267732 11.06680623 33.04696263 11.07543945 35.27124023 C11.08751298 38.46078309 11.09322996 41.65028229 11.09765625 44.83984375 C11.10281754 45.84087631 11.10797882 46.84190887 11.11329651 47.87327576 C11.11337204 48.79415482 11.11344757 49.71503387 11.11352539 50.66381836 C11.115746 51.47878281 11.11796661 52.29374725 11.12025452 53.13340759 C11 55 11 55 10 56 C8.50261876 56.0979057 7.00057108 56.12974864 5.5 56.125 C4.6853125 56.12757813 3.870625 56.13015625 3.03125 56.1328125 C1 56 1 56 0 55 C-0.0935919 53.28134591 -0.11744611 51.55884256 -0.11352539 49.83764648 C-0.11344986 48.73658066 -0.11337433 47.63551483 -0.11329651 46.50108337 C-0.10813522 45.3031868 -0.10297394 44.10529022 -0.09765625 42.87109375 C-0.0962413 41.65172623 -0.09482635 40.4323587 -0.09336853 39.17604065 C-0.08774967 35.2631693 -0.07519396 31.35035419 -0.0625 27.4375 C-0.05748743 24.79231853 -0.0529241 22.14713617 -0.04882812 19.50195312 C-0.03862296 13.00126274 -0.01905121 6.50069467 0 0 Z " fill="#F9F9F9" transform="translate(1667,458)"/>
<path d="M0 0 C3.3 0 6.6 0 10 0 C10 7.59 10 15.18 10 23 C19.24 23 28.48 23 38 23 C38 15.41 38 7.82 38 0 C41.3 0 44.6 0 48 0 C48 18.48 48 36.96 48 56 C44.7 56 41.4 56 38 56 C38 48.08 38 40.16 38 32 C28.76 32 19.52 32 10 32 C10 39.92 10 47.84 10 56 C6.7 56 3.4 56 0 56 C0 37.52 0 19.04 0 0 Z " fill="#F9F9F9" transform="translate(1357,563)"/>
<path d="M0 0 C12.54 0 25.08 0 38 0 C38 18.15 38 36.3 38 55 C34.7 55 31.4 55 28 55 C28 39.82 28 24.64 28 9 C21.73 9 15.46 9 9 9 C9.04125 10.65 9.0825 12.3 9.125 14 C9.09776337 25.5347113 8.86503042 40.43960922 1.5 49.93359375 C-2.61527811 53.90598026 -7.31267232 55.59724933 -13 56 C-14 55 -14 55 -14.09765625 52.93359375 C-14.08605469 52.10988281 -14.07445312 51.28617187 -14.0625 50.4375 C-14.05347656 49.61121094 -14.04445313 48.78492188 -14.03515625 47.93359375 C-14.02355469 47.29550781 -14.01195312 46.65742188 -14 46 C-12.9275 45.731875 -11.855 45.46375 -10.75 45.1875 C-8.01325006 44.02964426 -7.1309817 43.2383247 -5.6796875 40.59765625 C-2.13847756 31.0363894 -1.7690026 21.55066267 -1.39453125 11.47460938 C-1.35714844 10.57162109 -1.31976562 9.66863281 -1.28125 8.73828125 C-1.23581055 7.51685425 -1.23581055 7.51685425 -1.18945312 6.27075195 C-1 4 -1 4 0 0 Z " fill="#F6F6F7" transform="translate(1550,458)"/>
<path d="M0 0 C3.63 0 7.26 0 11 0 C13.26638389 5.31768078 15.52653715 10.63795008 17.78100586 15.96069336 C18.54851151 17.77033461 19.3177024 19.5792621 20.08862305 21.38745117 C21.19765997 23.98950493 22.3005727 26.59408159 23.40234375 29.19921875 C23.74716293 30.00461594 24.09198212 30.81001312 24.44725037 31.63981628 C26.03417412 35.40777776 27.42421953 38.91946885 28 43 C28.66 43 29.32 43 30 43 C30.14550293 42.3930127 30.29100586 41.78602539 30.44091797 41.16064453 C32.47362377 33.18686069 35.29510854 25.62570951 38.29833984 17.98046875 C39.13630845 15.84619784 39.96521209 13.70856223 40.79296875 11.5703125 C44.85119946 1.14880054 44.85119946 1.14880054 46 0 C47.51928038 -0.07179964 49.04167482 -0.08392007 50.5625 -0.0625 C51.38878906 -0.05347656 52.21507812 -0.04445313 53.06640625 -0.03515625 C53.70449219 -0.02355469 54.34257813 -0.01195312 55 0 C54.42743208 4.0864483 53.5171718 7.6294211 51.9621582 11.44775391 C51.54114334 12.48968903 51.12012848 13.53162415 50.68635559 14.60513306 C50.22911606 15.71770477 49.77187653 16.83027649 49.30078125 17.9765625 C48.82811325 19.13819916 48.35544525 20.29983582 47.86845398 21.49667358 C46.86685345 23.95397612 45.86289164 26.41014265 44.85473633 28.86474609 C43.83058453 31.35885408 42.81129761 33.85484724 41.79711914 36.35302734 C40.32450265 39.97973838 38.845061 43.60358686 37.36328125 47.2265625 C36.69260368 48.877202 36.69260368 48.877202 36.00837708 50.56118774 C26.39251154 73.91636371 26.39251154 73.91636371 19 78 C13.99601575 79.40462716 10.77105745 78.97824333 6 77 C6.54723683 73.62537285 7.0549 71.91765 9 69 C10.11375 69.04125 11.2275 69.0825 12.375 69.125 C16.0627823 69.39096153 16.0627823 69.39096153 18.25 66.9375 C21.64802102 61.23367901 23.60993133 57.57865341 22 51 C20.83364025 47.93152084 19.47928486 44.96088162 18.10546875 41.98046875 C17.71684158 41.1224617 17.32821442 40.26445465 16.92781067 39.38044739 C15.68767948 36.6463895 14.43782602 33.91690844 13.1875 31.1875 C12.35806455 29.36423212 11.52928192 27.54066712 10.70117188 25.71679688 C9.1683901 22.34211196 7.63126894 18.96946801 6.09057617 15.59838867 C5.74699066 14.84262543 5.40340515 14.08686218 5.04940796 13.30819702 C4.31746597 11.69827373 3.58184508 10.09002014 2.84341431 8.48306274 C2.4765451 7.67565643 2.1096759 6.86825012 1.73168945 6.03637695 C1.39917679 5.30925003 1.06666412 4.58212311 0.72407532 3.83296204 C0 2 0 2 0 0 Z " fill="#F8F8F8" transform="translate(1477,563)"/>
<path d="M0 0 C3.3 0 6.6 0 10 0 C10 7.26 10 14.52 10 22 C16.80315216 20.35222298 16.80315216 20.35222298 20.7109375 15.9375 C21.31550781 15.14085937 21.92007812 14.34421875 22.54296875 13.5234375 C23.14753906 12.69070313 23.75210937 11.85796875 24.375 11 C25.00277344 10.16726563 25.63054687 9.33453125 26.27734375 8.4765625 C29.3995481 4.40290405 29.3995481 4.40290405 32 0 C35.96 0 39.92 0 44 0 C42.10799277 3.78401446 39.9033031 6.88743679 37.3125 10.1875 C36.86986816 10.75686279 36.42723633 11.32622559 35.97119141 11.9128418 C34.65034579 13.61083302 33.32523661 15.30543515 32 17 C30.62473298 18.77062597 29.24969048 20.54142638 27.875 22.3125 C26.91703899 23.54195687 25.95886875 24.77125097 25 26 C26.37454213 28.99015909 27.97765055 31.37318066 30.08203125 33.8984375 C30.68466797 34.62546875 31.28730469 35.3525 31.90820312 36.1015625 C32.53662109 36.85179687 33.16503906 37.60203125 33.8125 38.375 C34.42931641 39.1175 35.04613281 39.86 35.68164062 40.625 C36.28814453 41.35460937 36.89464844 42.08421875 37.51953125 42.8359375 C38.10943848 43.54588867 38.6993457 44.25583984 39.30712891 44.98730469 C40.3782092 46.2607379 41.46234283 47.52340153 42.56396484 48.77050781 C46 52.69221449 46 52.69221449 46 56 C42.0752978 56.88818212 38.91179607 57.0240558 35 56 C30.64827783 52.1819796 27.36825095 47.68409685 24 43 C22.57593808 41.07332799 21.13997767 39.15534143 19.6875 37.25 C19.11386719 36.45078125 18.54023437 35.6515625 17.94921875 34.828125 C15.69987126 32.37969903 15.69987126 32.37969903 10 32 C10 39.92 10 47.84 10 56 C6.7 56 3.4 56 0 56 C0 37.52 0 19.04 0 0 Z " fill="#F9F9F9" transform="translate(1593,669)"/>
<path d="M0 0 C3 3.4573991 3 3.4573991 3 7 C-0.3 7.99 -3.6 8.98 -7 10 C-7.86625 8.824375 -7.86625 8.824375 -8.75 7.625 C-11.52709024 4.38506139 -13.37194616 3.18682585 -17.62109375 2.69921875 C-24.78459852 2.64420725 -24.78459852 2.64420725 -31 6 C-31.66 6 -32.32 6 -33 6 C-36.9757672 13.66755103 -38.60812109 20.79143125 -36.3828125 29.3828125 C-34.40935738 33.97589831 -31.57653408 36.7520408 -27.21484375 39.15625 C-22.12596937 41.09486881 -17.70522932 40.64348276 -12.6875 38.75 C-9.93407545 37.13499407 -9.93407545 37.13499407 -8.0625 34.75 C-6 33 -6 33 -2.4375 33.1875 C1 34 1 34 4 35 C2.63251633 40.64087012 -1.48316863 43.73918591 -6 47 C-12.39311852 50.85209044 -19.75311368 50.79137777 -27 50 C-34.16975756 48.08590183 -40.57591056 43.91245523 -44.5078125 37.56640625 C-48.9055647 29.11015701 -50.31448809 21.23867607 -47.8125 11.9375 C-44.949358 3.3216856 -40.13709075 -1.89890626 -32 -6 C-21.03129215 -10.14292293 -8.66706008 -7.84162578 0 0 Z " fill="#F9F9F9" transform="translate(1585,570)"/>
<path d="M0 0 C15.84 0 31.68 0 48 0 C48 3.3 48 6.6 48 10 C41.73 10 35.46 10 29 10 C29 25.18 29 40.36 29 56 C25.7 56 22.4 56 19 56 C19 40.82 19 25.64 19 10 C12.73 10 6.46 10 0 10 C0 6.7 0 3.4 0 0 Z " fill="#F5F5F5" transform="translate(1594,563)"/>
<path d="M0 0 C15.84 0 31.68 0 48 0 C48 2.97 48 5.94 48 9 C41.73 9 35.46 9 29 9 C29 24.51 29 40.02 29 56 C25.7 56 22.4 56 19 56 C19 40.49 19 24.98 19 9 C12.73 9 6.46 9 0 9 C0 6.03 0 3.06 0 0 Z " fill="#F9F9F9" transform="translate(1536,669)"/>
</svg>
