<?xml version="1.0" encoding="UTF-8"?>
<svg version="1.1" xmlns="http://www.w3.org/2000/svg" width="400" height="400">
<path d="M0 0 C132 0 264 0 400 0 C400 132 400 264 400 400 C268 400 136 400 0 400 C0 268 0 136 0 0 Z " fill="#040404" transform="translate(0,0)"/>
<path d="M0 0 C132 0 264 0 400 0 C400 132 400 264 400 400 C268 400 136 400 0 400 C0 268 0 136 0 0 Z M119 46 C117.4840625 46.61875 117.4840625 46.61875 115.9375 47.25 C95.70674788 55.65090554 75.88533579 74.70024361 63 92 C62.59974609 92.53061035 62.19949219 93.0612207 61.78710938 93.60791016 C52.31529868 106.21880405 44.84367983 119.2942832 39 134 C38.46439453 135.28003906 38.46439453 135.28003906 37.91796875 136.5859375 C30.98713835 154.09249716 27.60643466 173.69930805 27.6875 192.4375 C27.69096436 193.74775146 27.69442871 195.05800293 27.69799805 196.40795898 C27.82065199 207.48408478 28.90609344 218.1348675 31 229 C31.30744141 230.71703125 31.30744141 230.71703125 31.62109375 232.46875 C34.88255046 248.51268612 41.27395359 263.64694138 49 278 C49.45246094 278.87011719 49.90492187 279.74023438 50.37109375 280.63671875 C65.82339157 309.66677334 91.98542305 333.10720316 121 348 C121.90621094 348.46792969 122.81242187 348.93585938 123.74609375 349.41796875 C139.03101664 356.78620771 155.29384914 361.33054223 172 364 C173.08949951 364.1750708 174.17899902 364.3501416 175.30151367 364.53051758 C195.46827657 367.09046774 217.32159775 365.82376419 237 361 C237.74765625 360.82339844 238.4953125 360.64679688 239.265625 360.46484375 C256.01327833 356.39841713 272.52954823 349.34462119 287 340 C287.96679688 339.39800781 288.93359375 338.79601562 289.9296875 338.17578125 C319.77979267 319.06396067 341.04968763 291.28351021 355 259 C355.50273437 257.83855469 356.00546875 256.67710937 356.5234375 255.48046875 C364.14148641 236.75853643 366.40089884 217.48491596 366.3125 197.4375 C366.31026428 196.18466721 366.31026428 196.18466721 366.3079834 194.90652466 C366.25166169 177.34066736 365.04388579 160.64482284 359 144 C358.47711323 142.48202944 357.95503986 140.96377855 357.43359375 139.4453125 C354.04945918 129.76354363 350.21370172 120.85598399 345 112 C344.53078125 111.15566406 344.0615625 110.31132813 343.578125 109.44140625 C337.67167951 99.07194436 330.0188621 89.87051256 321.94140625 81.1328125 C320 79 320 79 317.625 75.9375 C305.13436143 61.95988065 285.91388552 49.82681762 269 42 C268.21882812 41.61328125 267.43765625 41.2265625 266.6328125 40.828125 C226.87493656 21.71603034 156.03005464 16.52709937 119 46 Z " fill="#FDFDFD" transform="translate(0,0)"/>
<path d="M0 0 C0.80147461 0.0319043 1.60294922 0.06380859 2.42871094 0.09667969 C31.77591152 1.58632067 62.37429234 14.36030955 85.15625 32.71484375 C87.55756472 34.64447165 89.99492077 36.45999003 92.5 38.25 C95.94557659 40.814318 98.34528581 43.62779548 101 47 C102.14662109 48.14662109 102.14662109 48.14662109 103.31640625 49.31640625 C112.55664025 58.55664025 119.74834519 68.56517608 126 80 C126.34659668 80.62213379 126.69319336 81.24426758 127.05029297 81.88525391 C133.21751533 93.06388759 137.53535843 104.7255285 141 117 C141.2273584 117.804375 141.4547168 118.60875 141.68896484 119.4375 C151.32024464 155.44560524 145.20379225 197.78720241 127 230 C126.0098559 231.67254071 125.01376975 233.34167293 124 235 C121.54041828 232.60873999 119.20224261 230.25837525 117.0859375 227.5546875 C110.68800565 219.71901816 101.92739535 215.05280563 93.06982422 210.5012207 C92.31459473 210.10378662 91.55936523 209.70635254 90.78125 209.296875 C90.10126953 208.94979492 89.42128906 208.60271484 88.72070312 208.24511719 C86.64514938 206.74322671 86.12329317 205.2657976 85 203 C81.75297258 201.40711863 78.6042507 200.1707665 75.125 199.1875 C74.42375 198.795625 73.7225 198.40375 73 198 C72.66666667 196 72.33333333 194 72 192 C69.60470331 190.67518454 69.60470331 190.67518454 67 190 C66.34 189.34 65.68 188.68 65 188 C63.68 188 62.36 188 61 188 C60.9175 187.21625 60.835 186.4325 60.75 185.625 C60.37875 184.325625 60.37875 184.325625 60 183 C58.68352881 182.30062468 57.34977849 181.63270867 56 181 C55.25 178.875 55.25 178.875 55 177 C53.02 176.67 51.04 176.34 49 176 C48.93941406 175.25234375 48.87882813 174.5046875 48.81640625 173.734375 C48.73261719 172.74953125 48.64882813 171.7646875 48.5625 170.75 C48.44068359 169.28820312 48.44068359 169.28820312 48.31640625 167.796875 C48.08226251 165.07925174 48.08226251 165.07925174 47.40234375 162.828125 C47 161 47 161 48 158 C48.08291953 156.0079697 48.10738177 154.01326287 48.09765625 152.01953125 C48.09443359 150.85615234 48.09121094 149.69277344 48.08789062 148.49414062 C48.07951172 147.27919922 48.07113281 146.06425781 48.0625 144.8125 C48.05573242 142.97268555 48.05573242 142.97268555 48.04882812 141.09570312 C48.03703065 138.06375332 48.02056921 135.03190094 48 132 C48.82790039 132.06856201 49.65580078 132.13712402 50.50878906 132.20776367 C59.59592065 132.91441405 68.63397717 133.24553607 77.75 133.3125 C78.41660645 133.32708252 79.08321289 133.34166504 79.77001953 133.35668945 C88.29272954 133.54151682 95.41822364 133.16870702 103 129 C104.38552759 127.80589977 104.38552759 127.80589977 104.625 124.4375 C104.58247466 121.46604154 104.20546689 120.26022576 102.34375 117.90234375 C91.63018604 108.1130133 78.42182112 102.23197839 64.7265625 97.89453125 C62.09991603 97.03278048 59.5546082 96.05435647 57 95 C58.33330922 83.01554241 63.72558057 72.70266647 70.4609375 62.90234375 C72.21551335 59.59358778 72.44098099 57.69193389 72 54 C65.13321174 42.47360542 49.50263732 38.75069315 37.54736328 34.84082031 C35.12495367 34.04124405 32.71591709 33.21094948 30.30859375 32.3671875 C20.99416991 29.12642701 11.67721286 26.4731853 2.02636719 24.43798828 C0.09627309 24.02080891 -1.82345706 23.55650783 -3.7421875 23.08984375 C-12.16602016 21.20717845 -20.25994211 20.69313315 -28.875 20.625 C-29.92107422 20.61114258 -30.96714844 20.59728516 -32.04492188 20.58300781 C-40.09888383 20.63164903 -48.81042461 21.2765851 -55 27 C-55.84680595 33.03349238 -54.41706925 37.1417852 -51.875 42.60546875 C-50.91803774 45.22429851 -50.84279341 47.23414652 -51 50 C-50.01 50 -49.02 50 -48 50 C-46.66906475 57.98561151 -46.66906475 57.98561151 -49 62 C-49.144375 63.093125 -49.28875 64.18625 -49.4375 65.3125 C-50.05963166 69.39091865 -51.25722337 72.28712806 -53 76 C-51.35 76 -49.7 76 -48 76 C-48 76.33 -48 76.66 -48 77 C-49.19991577 77.029729 -49.19991577 77.029729 -50.42407227 77.06005859 C-69.3598395 77.55338337 -87.4841259 78.72052217 -106 83 C-106.33 84.65 -106.66 86.3 -107 88 C-98.64047555 95.90765826 -87.85934076 98.90966296 -77 102 C-77 103.32 -77 104.64 -77 106 C-76.01 104.515 -76.01 104.515 -75 103 C-73.109375 103.21484375 -73.109375 103.21484375 -71 104 C-69.953125 106.06640625 -69.953125 106.06640625 -69.25 108.5625 C-69.00765625 109.38878906 -68.7653125 110.21507812 -68.515625 111.06640625 C-68.34546875 111.70449219 -68.1753125 112.34257812 -68 113 C-65.52733235 112.65555119 -65.52733235 112.65555119 -63 112 C-62.67 111.34 -62.34 110.68 -62 110 C-61.01 110 -60.02 110 -59 110 C-58.01 108.02 -58.01 108.02 -57 106 C-56.875 108.375 -56.875 108.375 -57 111 C-57.66 111.66 -58.32 112.32 -59 113 C-59 113.99 -59 114.98 -59 116 C-59.23324777 117.69310437 -59.50785757 119.38077471 -59.8125 121.0625 C-60.03873047 122.37927734 -60.03873047 122.37927734 -60.26953125 123.72265625 C-61 126 -61 126 -64 128 C-64 117 -64 117 -63 116 C-64.98 115.505 -64.98 115.505 -67 115 C-67.66 117.64 -68.32 120.28 -69 123 C-69.66 123 -70.32 123 -71 123 C-71.04898438 122.01257813 -71.09796875 121.02515625 -71.1484375 120.0078125 C-71.26058594 118.08582031 -71.26058594 118.08582031 -71.375 116.125 C-71.47941406 114.21074219 -71.47941406 114.21074219 -71.5859375 112.2578125 C-71.67241106 108.91938301 -71.67241106 108.91938301 -74 107 C-75.65497356 110.30994713 -75.10084335 113.99123 -75.0625 117.625 C-75.05798828 118.42679687 -75.05347656 119.22859375 -75.04882812 120.0546875 C-75.03703168 122.03649006 -75.01909605 124.01825433 -75 126 C-77 125 -77 125 -78 123 C-78 124.98 -78 126.96 -78 129 C-79.32837891 129.67482422 -79.32837891 129.67482422 -80.68359375 130.36328125 C-87.98286274 134.12958439 -95.07353947 138.14486033 -102 142.5625 C-102.69279053 142.99667236 -103.38558105 143.43084473 -104.09936523 143.87817383 C-108.35140351 146.63479838 -111.8462007 149.66412857 -115.34326172 153.32714844 C-116.86764911 154.86636188 -118.42574363 156.18321399 -120.1328125 157.51171875 C-123.37480427 160.32527292 -125.53894485 163.24882402 -127.875 166.8125 C-128.2771875 167.40998047 -128.679375 168.00746094 -129.09375 168.62304688 C-130.07056653 170.07664291 -131.03646423 171.53756682 -132 173 C-131.45730469 172.30519531 -130.91460937 171.61039063 -130.35546875 170.89453125 C-121.33830506 159.81373806 -111.61426747 149.60663223 -99.375 142.125 C-98.75326904 141.74311523 -98.13153809 141.36123047 -97.4909668 140.96777344 C-92.6337722 138.10764719 -87.81590152 135.9400872 -82.0625 136.0625 C-79.15999429 136.95102216 -77.47275719 137.94052214 -75 139.625 C-72.11050657 141.53659604 -71.28079269 142 -67.6875 142 C-64.93961577 140.97753145 -63.81257227 140.24413709 -62 138 C-61.00615367 136.99388396 -60.0069106 135.99304131 -59 135 C-54.26471261 140.19502403 -50.81617881 144.6473742 -48.9375 151.5 C-47.71929099 156.12761893 -47.71929099 156.12761893 -43.8125 158.75 C-37.02394031 159.19515146 -30.71630329 159.14320056 -24 158 C-23.67 159.98 -23.34 161.96 -23 164 C-27.9257671 166.32958315 -32.01787883 167.50673378 -37.5 168.0625 C-38.24411133 168.13992432 -38.98822266 168.21734863 -39.75488281 168.29711914 C-45.02230613 168.81110265 -50.29512845 169.15055818 -55.578125 169.4609375 C-56.2474707 169.50079269 -56.91681641 169.54064789 -57.60644531 169.58171082 C-60.95662073 169.77993851 -64.30601322 169.9644879 -67.65820312 170.12719727 C-79.61659233 170.79180657 -90.88661071 172.83953154 -102.0625 177.1875 C-110.38991837 180.40439313 -110.38991837 180.40439313 -115 180 C-114.5244921 176.29103836 -113.68196142 172.94782043 -112.4375 169.4375 C-111.29903988 166.16580878 -110.66091356 163.50389316 -111 160 C-115.585657 160.09358484 -118.13513354 160.67799536 -121.5 163.875 C-126.42844215 169.26651725 -130.03629783 175.59226391 -133.66796875 181.89453125 C-134.45107422 183.24611328 -134.45107422 183.24611328 -135.25 184.625 C-135.70890625 185.44226563 -136.1678125 186.25953125 -136.640625 187.1015625 C-138 189 -138 189 -141 190 C-142.32540066 192.36741944 -143.4664932 194.65485994 -144.5625 197.125 C-144.86607422 197.77726563 -145.16964844 198.42953125 -145.48242188 199.1015625 C-147.40785133 203.3299566 -148.82669489 207.50524909 -150 212 C-149.34 212 -148.68 212 -148 212 C-148 211.34 -148 210.68 -148 210 C-139.68470938 202.55088549 -129.83481777 197.15117832 -120 192 C-118.7315625 191.33291016 -118.7315625 191.33291016 -117.4375 190.65234375 C-108.35304504 186.26041056 -98.01402431 184.52705391 -88 184 C-86.71029297 183.92072266 -86.71029297 183.92072266 -85.39453125 183.83984375 C-77.88932611 183.59075325 -71.22404507 185.08372699 -64 187 C-62.49233642 187.39119938 -60.98451465 187.78178943 -59.4765625 188.171875 C-54.64575343 189.42824825 -49.82246114 190.71201967 -45 192 C-43.48310841 192.4037792 -41.96618257 192.80742976 -40.44921875 193.2109375 C-36.96549437 194.13819348 -33.48251382 195.06820632 -30 196 C-31.53442902 203.41096567 -36.29709481 207.72854358 -42.39404297 211.78857422 C-43.67813469 212.61435566 -44.9685296 213.43044851 -46.26611328 214.23486328 C-55.02446169 219.70343517 -60.9035319 225.46957056 -65.875 234.5625 C-66.34679687 235.38685547 -66.81859375 236.21121094 -67.3046875 237.06054688 C-71.86715751 245.16800424 -73.55550924 252.55883696 -74.59179688 261.71875 C-74.90441115 263.92715959 -75.21265588 265.91210601 -76 268 C-78.54296875 269.359375 -78.54296875 269.359375 -81 270 C-82.18823797 273.56471391 -82.26274852 276.2558336 -82 280 C-80.62831762 282.19038423 -80.62831762 282.19038423 -79 284 C-77.49953656 287.81936147 -77.93270334 291.96220046 -78 296 C-82.58111511 295.42844311 -86.06260639 293.49301857 -89.9375 291.125 C-90.58920166 290.73006348 -91.24090332 290.33512695 -91.91235352 289.92822266 C-99.04569687 285.50288391 -105.55659529 280.36387035 -112 275 C-113.22589844 273.98873047 -113.22589844 273.98873047 -114.4765625 272.95703125 C-118.45227688 269.58437467 -121.71366239 266.0375005 -125 262 C-125.99 261.34 -126.98 260.68 -128 260 C-128 259.34 -128 258.68 -128 258 C-128.66 258 -129.32 258 -130 258 C-131.65359668 255.92922536 -133.18152549 253.86236043 -134.6875 251.6875 C-135.13448242 251.0495752 -135.58146484 250.41165039 -136.04199219 249.75439453 C-161.28586372 213.50144047 -172.08131454 170.94772478 -164.85546875 127.02734375 C-162.54574108 115.23712875 -159.16405307 103.85326407 -154 93 C-153.71431152 92.37158203 -153.42862305 91.74316406 -153.13427734 91.09570312 C-145.82144695 75.0240694 -135.76415103 61.10225352 -124 48 C-123.13181641 47.02353516 -123.13181641 47.02353516 -122.24609375 46.02734375 C-90.67072133 12.55270081 -44.95709549 -1.81596979 0 0 Z " fill="#FBFBFB" transform="translate(208,40)"/>
<path d="M0 0 C1.68997323 1.64302953 3.35216394 3.31471312 5 5 C5.680625 5.680625 6.36125 6.36125 7.0625 7.0625 C9.09617293 10.14581058 9.81666038 12.65142541 10.8125 16.1875 C12.18738915 20.98142661 12.18738915 20.98142661 16.1875 23.75 C22.97605969 24.19515146 29.28369671 24.14320056 36 23 C36.495 25.97 36.495 25.97 37 29 C32.0742329 31.32958315 27.98212117 32.50673378 22.5 33.0625 C21.75588867 33.13992432 21.01177734 33.21734863 20.24511719 33.29711914 C14.97769387 33.81110265 9.70487155 34.15055818 4.421875 34.4609375 C3.7525293 34.50079269 3.08318359 34.54064789 2.39355469 34.58171082 C-0.95662073 34.77993851 -4.30601322 34.9644879 -7.65820312 35.12719727 C-19.61659233 35.79180657 -30.88661071 37.83953154 -42.0625 42.1875 C-50.38991837 45.40439313 -50.38991837 45.40439313 -55 45 C-54.5244921 41.29103836 -53.68196142 37.94782043 -52.4375 34.4375 C-51.29903988 31.16580878 -50.66091356 28.50389316 -51 25 C-55.585657 25.09358484 -58.13513354 25.67799536 -61.5 28.875 C-65.68930888 33.45793522 -68.82915937 38.68630817 -72 44 C-72.58523437 44.96679688 -73.17046875 45.93359375 -73.7734375 46.9296875 C-75.19210199 49.28080752 -76.60080602 51.63725852 -78 54 C-78.99 53.67 -79.98 53.34 -81 53 C-79.94912082 50.93155482 -78.88374228 48.87047291 -77.8125 46.8125 C-77.22082031 45.66394531 -76.62914063 44.51539063 -76.01953125 43.33203125 C-73.9873462 39.97912246 -71.82982323 37.68788852 -69 35 C-67.74704769 33.45650803 -66.51740987 31.89378085 -65.3125 30.3125 C-58.55127151 21.8484436 -51.49268978 15.0093246 -42.4375 9.0625 C-41.39348022 8.37136108 -41.39348022 8.37136108 -40.32836914 7.66625977 C-34.72028632 4.11493425 -28.69514158 1 -21.9375 1 C-19.17297744 1.94111406 -17.39328157 3.00535009 -15 4.625 C-12.11050657 6.53659604 -11.28079269 7 -7.6875 7 C-3.60541875 5.48108605 -2.3891264 3.58368959 0 0 Z " fill="#F8F8F8" transform="translate(148,175)"/>
<path d="M0 0 C0.495 0.495 0.495 0.495 1 1 C0.5993371 8.07837792 -1.62039898 14.35925297 -4 21 C-1.41579532 20.25290765 1.16734071 19.50240258 3.75 18.75 C4.53205811 18.52401123 5.31411621 18.29802246 6.11987305 18.06518555 C10.42852238 16.80663319 14.61624486 15.41251095 18.8125 13.8125 C31.39221245 9.53851241 45.84717483 9.60802839 59 10 C57.68 10.33 56.36 10.66 55 11 C55 12.32 55 13.64 55 15 C54.3201001 15.02505615 53.6402002 15.0501123 52.93969727 15.07592773 C49.81382721 15.19305822 46.68817372 15.31524656 43.5625 15.4375 C42.49322266 15.47681641 41.42394531 15.51613281 40.32226562 15.55664062 C34.16902064 15.80126504 28.11085425 16.23534 22 17 C22.66 18.32 23.32 19.64 24 21 C23.34 21.66 22.68 22.32 22 23 C22.495 24.485 22.495 24.485 23 26 C21.98421875 26.09796875 20.9684375 26.1959375 19.921875 26.296875 C0.14839585 28.36380602 -18.18842315 35.96709607 -33.06640625 49.3828125 C-35 51 -35 51 -37 51 C-37 51.66 -37 52.32 -37 53 C-37.66 53 -38.32 53 -39 53 C-37.67296379 44.44798884 -34.01880768 37.55406899 -30 30 C-29.01 30 -28.02 30 -27 30 C-26.76539062 29.33613281 -26.53078125 28.67226562 -26.2890625 27.98828125 C-21.84233638 17.6799616 -12.76835347 -0.65478736 0 0 Z " fill="#080808" transform="translate(97,199)"/>
<path d="M0 0 C-1.32 0.33 -2.64 0.66 -4 1 C-4 2.32 -4 3.64 -4 5 C-4.64324219 5.0093457 -5.28648437 5.01869141 -5.94921875 5.02832031 C-22.31895077 5.32605795 -37.01709978 6.38829577 -52.08203125 13.36328125 C-54 14 -54 14 -57 13 C-52.71 11.02 -48.42 9.04 -44 7 C-44 6.34 -44 5.68 -44 5 C-30.13518004 -0.08376732 -14.6357381 -0.43616438 0 0 Z " fill="#353535" transform="translate(156,209)"/>
<path d="M0 0 C1.859375 1.03515625 1.859375 1.03515625 2.90625 3.1015625 C3.13828125 3.92527344 3.3703125 4.74898437 3.609375 5.59765625 C3.85171875 6.42394531 4.0940625 7.25023437 4.34375 8.1015625 C4.51390625 8.73964844 4.6840625 9.37773437 4.859375 10.03515625 C7.33204265 9.69070744 7.33204265 9.69070744 9.859375 9.03515625 C10.189375 8.37515625 10.519375 7.71515625 10.859375 7.03515625 C11.849375 7.03515625 12.839375 7.03515625 13.859375 7.03515625 C14.519375 5.71515625 15.179375 4.39515625 15.859375 3.03515625 C15.984375 5.41015625 15.984375 5.41015625 15.859375 8.03515625 C15.199375 8.69515625 14.539375 9.35515625 13.859375 10.03515625 C13.859375 11.02515625 13.859375 12.01515625 13.859375 13.03515625 C13.62612723 14.72826062 13.35151743 16.41593096 13.046875 18.09765625 C12.89605469 18.97550781 12.74523437 19.85335937 12.58984375 20.7578125 C11.859375 23.03515625 11.859375 23.03515625 8.859375 25.03515625 C8.859375 14.03515625 8.859375 14.03515625 9.859375 13.03515625 C8.539375 12.70515625 7.219375 12.37515625 5.859375 12.03515625 C5.199375 14.67515625 4.539375 17.31515625 3.859375 20.03515625 C3.199375 20.03515625 2.539375 20.03515625 1.859375 20.03515625 C1.81039062 19.04773438 1.76140625 18.0603125 1.7109375 17.04296875 C1.63617188 15.76164063 1.56140625 14.4803125 1.484375 13.16015625 C1.37996094 11.24589844 1.37996094 11.24589844 1.2734375 9.29296875 C1.18696394 5.95453926 1.18696394 5.95453926 -1.140625 4.03515625 C-2.79559856 7.34510338 -2.24146835 11.02638625 -2.203125 14.66015625 C-2.19635742 15.86285156 -2.19635742 15.86285156 -2.18945312 17.08984375 C-2.17765668 19.07164631 -2.15972105 21.05341058 -2.140625 23.03515625 C-4.140625 22.03515625 -4.140625 22.03515625 -5.140625 19.03515625 C-5.47174227 16.54753166 -5.74003832 14.09484056 -5.953125 11.59765625 C-6.02982422 10.92927734 -6.10652344 10.26089844 -6.18554688 9.57226562 C-6.46842502 6.13342168 -6.37707177 4.3799966 -4.40234375 1.5 C-2.140625 0.03515625 -2.140625 0.03515625 0 0 Z " fill="#BABABA" transform="translate(135.140625,142.96484375)"/>
<path d="M0 0 C0.66 0.66 1.32 1.32 2 2 C1.01 2.33 0.02 2.66 -1 3 C-0.505 3.99 -0.505 3.99 0 5 C-0.65484375 5.1959375 -1.3096875 5.391875 -1.984375 5.59375 C-20.82204789 11.76654676 -36.08805437 26.80808067 -47 43 C-47.33 42.34 -47.66 41.68 -48 41 C-36.67629736 24.20374805 -19.82268006 6.60756002 0 0 Z " fill="#2B2B2B" transform="translate(123,172)"/>
<path d="M0 0 C0 2.33333333 0 4.66666667 0 7 C-1.66289063 7.19916016 -1.66289063 7.19916016 -3.359375 7.40234375 C-4.8229327 7.58059757 -6.28647349 7.75899028 -7.75 7.9375 C-8.47960937 8.02451172 -9.20921875 8.11152344 -9.9609375 8.20117188 C-13.37584442 8.62027409 -16.67603543 9.117274 -20 10 C-19.34 9.01 -18.68 8.02 -18 7 C-18 6.01 -18 5.02 -18 4 C-15.94409546 3.13007846 -13.87994664 2.27962311 -11.8125 1.4375 C-10.66394531 0.96183594 -9.51539062 0.48617187 -8.33203125 -0.00390625 C-4.94860873 -1.01536316 -3.31583059 -1.04283184 0 0 Z " fill="#101010" transform="translate(120,218)"/>
<path d="M0 0 C0 3.51716303 -0.82445585 4.37121748 -3 7 C-2.01 7.66 -1.02 8.32 0 9 C-1.010625 9.185625 -2.02125 9.37125 -3.0625 9.5625 C-11.98963571 12.18495838 -16.54170468 21.52879277 -21 29 C-21.58523437 29.96679688 -22.17046875 30.93359375 -22.7734375 31.9296875 C-24.19210199 34.28080752 -25.60080602 36.63725852 -27 39 C-27.99 38.67 -28.98 38.34 -30 38 C-28.94912082 35.93155482 -27.88374228 33.87047291 -26.8125 31.8125 C-26.22082031 30.66394531 -25.62914063 29.51539063 -25.01953125 28.33203125 C-22.9873462 24.97912246 -20.82982323 22.68788852 -18 20 C-16.74704769 18.45650803 -15.51740987 16.89378085 -14.3125 15.3125 C-9.9567185 9.77407802 -5.06920548 4.88222659 0 0 Z " fill="#A5A5A5" transform="translate(97,190)"/>
<path d="M0 0 C0.92232422 0.00451172 1.84464844 0.00902344 2.79492188 0.01367188 C5.05085048 0.02536062 7.30663967 0.04174545 9.5625 0.0625 C9.5625 0.3925 9.5625 0.7225 9.5625 1.0625 C8.97984375 1.10213867 8.3971875 1.14177734 7.796875 1.18261719 C-7.62925781 2.28015258 -22.31145536 3.84751548 -36.51953125 10.42578125 C-38.4375 11.0625 -38.4375 11.0625 -41.4375 10.0625 C-27.63592397 3.28239349 -15.38704268 -0.1440112 0 0 Z " fill="#CBCBCB" transform="translate(140.4375,211.9375)"/>
<path d="M0 0 C0.33 0 0.66 0 1 0 C1.125 2.375 1.125 2.375 1 5 C0.34 5.66 -0.32 6.32 -1 7 C-1 7.99 -1 8.98 -1 10 C-1.23324777 11.69310437 -1.50785757 13.38077471 -1.8125 15.0625 C-1.96332031 15.94035156 -2.11414063 16.81820312 -2.26953125 17.72265625 C-3 20 -3 20 -6 22 C-6 11 -6 11 -5 10 C-6.89179203 9.3185177 -6.89179203 9.3185177 -9 9 C-9.66 9.66 -10.32 10.32 -11 11 C-11 9.02 -11 7.04 -11 5 C-10.67 5.66 -10.34 6.32 -10 7 C-7.52733235 6.65555119 -7.52733235 6.65555119 -5 6 C-4.67 5.34 -4.34 4.68 -4 4 C-3.01 4 -2.02 4 -1 4 C-0.67 2.68 -0.34 1.36 0 0 Z " fill="#7C7C7C" transform="translate(150,146)"/>
<path d="M0 0 C1.48828125 1.08203125 1.48828125 1.08203125 3 3 C3.29296875 6.13671875 3.29296875 6.13671875 3.1875 9.6875 C3.14689453 11.45673828 3.14689453 11.45673828 3.10546875 13.26171875 C3.07066406 14.16535156 3.03585938 15.06898438 3 16 C2.01 16.33 1.02 16.66 0 17 C-0.66 16.67 -1.32 16.34 -2 16 C-2.05402274 13.89611431 -2.09280256 11.79183286 -2.125 9.6875 C-2.14820313 8.51574219 -2.17140625 7.34398437 -2.1953125 6.13671875 C-2 3 -2 3 0 0 Z " fill="#090909" transform="translate(134,146)"/>
<path d="M0 0 C1.45945288 0.08708669 2.91765868 0.19526907 4.375 0.3125 C5.59316406 0.39951172 5.59316406 0.39951172 6.8359375 0.48828125 C9 1 9 1 11 4 C10 6 10 6 7 8 C7 8.33 7 8.66 7 9 C5.02 9 3.04 9 1 9 C-1.125 2.25 -1.125 2.25 0 0 Z " fill="#060606" transform="translate(139,144)"/>
<path d="M0 0 C0.33 1.98 0.66 3.96 1 6 C-5.4 9.07692308 -5.4 9.07692308 -8.4375 8.6875 C-8.953125 8.460625 -9.46875 8.23375 -10 8 C-9.67 7.67 -9.34 7.34 -9 7 C-9.99 6.34 -10.98 5.68 -12 5 C-10.68 4.67 -9.36 4.34 -8 4 C-9.32 3.34 -10.64 2.68 -12 2 C-10.7625 1.67 -9.525 1.34 -8.25 1 C-7.55390625 0.814375 -6.8578125 0.62875 -6.140625 0.4375 C-4 0 -4 0 0 0 Z " fill="#E8E8E8" transform="translate(184,198)"/>
<path d="M0 0 C0.33 0 0.66 0 1 0 C0.83037667 6.66157067 -0.50241514 11.90447033 -5 17 C-8 18 -8 18 -11 17 C-9.75587233 13.55472339 -8.45185936 10.74608248 -6 8 C-5.01 7.67 -4.02 7.34 -3 7 C-1.28432339 3.49705129 -1.28432339 3.49705129 0 0 Z " fill="#262626" transform="translate(187,292)"/>
<path d="M0 0 C1.65 0 3.3 0 5 0 C5.061875 0.78375 5.12375 1.5675 5.1875 2.375 C5.455625 3.24125 5.72375 4.1075 6 5 C7.65204456 5.70211894 9.31923769 6.36971413 11 7 C11.625 9.0625 11.625 9.0625 12 11 C12.99 11.33 13.98 11.66 15 12 C14.34 12 13.68 12 13 12 C12.34 13.32 11.68 14.64 11 16 C10.79375 15.38125 10.5875 14.7625 10.375 14.125 C8.45224112 11.15346355 6.33405473 10.86975341 3 10 C2.95758277 7.66705225 2.95907063 5.33297433 3 3 C3.33 2.67 3.66 2.34 4 2 C2.68 1.34 1.36 0.68 0 0 Z " fill="#2F2F2F" transform="translate(258,216)"/>
<path d="M0 0 C2.87888144 1.11425146 5.31642625 2.438648 8 4 C8 4.99 8 5.98 8 7 C7.5153125 6.71125 7.030625 6.4225 6.53125 6.125 C1.37741993 3.27057104 -2.11005223 2.24000674 -8 3 C-13.62403148 5.64660305 -16.10975938 9.73106578 -19 15 C-20 12 -20 12 -18.5 8.625 C-14.09826782 1.54917796 -8.3261247 -1.60554964 0 0 Z " fill="#BDBDBD" transform="translate(171,141)"/>
<path d="M0 0 C1.86785156 0.01353516 1.86785156 0.01353516 3.7734375 0.02734375 C5.18496094 0.04474609 5.18496094 0.04474609 6.625 0.0625 C5.305 0.3925 3.985 0.7225 2.625 1.0625 C2.625 2.3825 2.625 3.7025 2.625 5.0625 C-1.335 5.0625 -5.295 5.0625 -9.375 5.0625 C-8.055 4.4025 -6.735 3.7425 -5.375 3.0625 C-8.015 2.7325 -10.655 2.4025 -13.375 2.0625 C-13.375 1.7325 -13.375 1.4025 -13.375 1.0625 C-8.85684719 0.17972245 -4.59987306 -0.04339503 0 0 Z " fill="#2F2F2F" transform="translate(149.375,208.9375)"/>
<path d="M0 0 C0 3.51716303 -0.82445585 4.37121748 -3 7 C-2.01 7.66 -1.02 8.32 0 9 C-1.5159375 9.2784375 -1.5159375 9.2784375 -3.0625 9.5625 C-7.95004157 10.92346178 -10.71157835 14.32113251 -14 18 C-14.66 18.66 -15.32 19.32 -16 20 C-16 15.7742937 -13.58228496 14.01922973 -10.8125 11.125 C-10.08836914 10.34962891 -10.08836914 10.34962891 -9.34960938 9.55859375 C-6.29791944 6.30618864 -3.16791152 3.13895438 0 0 Z " fill="#CCCCCC" transform="translate(97,190)"/>
<path d="M0 0 C0.99 0.33 1.98 0.66 3 1 C2.39865234 1.54914063 2.39865234 1.54914063 1.78515625 2.109375 C-3.89628603 7.52027241 -8.41281293 13.6653131 -13 20 C-13.33 19.34 -13.66 18.68 -14 18 C-9.70208035 11.62497025 -5.20444273 5.66319301 0 0 Z " fill="#3A3A3A" transform="translate(89,195)"/>
<path d="M0 0 C0.99 0 1.98 0 3 0 C4.33093525 7.98561151 4.33093525 7.98561151 2 12 C1.61250787 14.32495277 1.27017161 16.65851268 1 19 C0.67 19 0.34 19 0 19 C0 12.73 0 6.46 0 0 Z " fill="#8A8A8A" transform="translate(157,90)"/>
<path d="M0 0 C-2.12282669 1.00460531 -4.24833021 2.00355602 -6.375 3 C-8.15003906 3.8353125 -8.15003906 3.8353125 -9.9609375 4.6875 C-13 6 -13 6 -15 6 C-15 6.66 -15 7.32 -15 8 C-15.66 7.67 -16.32 7.34 -17 7 C-16.86328125 5.14453125 -16.86328125 5.14453125 -16 3 C-13.41796875 1.69921875 -13.41796875 1.69921875 -10.1875 0.6875 C-8.60001953 0.16736328 -8.60001953 0.16736328 -6.98046875 -0.36328125 C-4.10871808 -0.97677451 -2.7028499 -1.01438677 0 0 Z " fill="#191919" transform="translate(114,216)"/>
<path d="M0 0 C0.66 0.33 1.32 0.66 2 1 C2 5 2 5 0.5 6.75 C0.005 7.1625 -0.49 7.575 -1 8 C-1.99 7.67 -2.98 7.34 -4 7 C-7.15020361 7.88319294 -7.15020361 7.88319294 -10 9 C-6.83047153 5.73991357 -3.60062011 2.77762123 0 0 Z " fill="#161616" transform="translate(102,55)"/>
<path d="M0 0 C2.31 0 4.62 0 7 0 C7 0.99 7 1.98 7 3 C5.46875 4.38671875 5.46875 4.38671875 3.5 5.6875 C2.52546875 6.34298828 2.52546875 6.34298828 1.53125 7.01171875 C1.0259375 7.33785156 0.520625 7.66398437 0 8 C-0.79953138 4.71303767 -1.09658936 3.28976808 0 0 Z " fill="#EAEAEA" transform="translate(90,57)"/>
<path d="M0 0 C4.43458973 1.3937282 6.87378374 3.60582235 10 7 C6.16119422 7 4.35282349 6.67641174 1 5 C0.34 4.01 -0.32 3.02 -1 2 C-0.67 1.34 -0.34 0.68 0 0 Z " fill="#EBEBEB" transform="translate(281,65)"/>
<path d="M0 0 C0.66 0 1.32 0 2 0 C2 0.66 2 1.32 2 2 C2.66 2.33 3.32 2.66 4 3 C1.69 6.3 -0.62 9.6 -3 13 C-3.99 12.67 -4.98 12.34 -6 12 C-6 11.01 -6 10.02 -6 9 C-4.33333333 7.33333333 -2.66666667 5.66666667 -1 4 C-0.13880866 1.82653432 -0.13880866 1.82653432 0 0 Z " fill="#EAEAEA" transform="translate(58,92)"/>
<path d="M0 0 C0.66 0.66 1.32 1.32 2 2 C0.92319498 3.13125022 -0.16175635 4.25474919 -1.25 5.375 C-1.85328125 6.00148437 -2.4565625 6.62796875 -3.078125 7.2734375 C-4.9700588 8.97310161 -6.68201309 9.98459866 -9 11 C-8.4409112 7.75728494 -7.5867822 6.06942576 -5 4 C-4.34 4 -3.68 4 -3 4 C-3 3.34 -3 2.68 -3 2 C-2.01 1.34 -1.02 0.68 0 0 Z " fill="#E5E5E5" transform="translate(96,186)"/>
<path d="M0 0 C-0.99 0.33 -1.98 0.66 -3 1 C-2.67 1.66 -2.34 2.32 -2 3 C-2.33 3.66 -2.66 4.32 -3 5 C-6.0625 5.625 -6.0625 5.625 -9 6 C-11 2.125 -11 2.125 -11 1 C-3.57142857 -1.42857143 -3.57142857 -1.42857143 0 0 Z " fill="#E6E6E6" transform="translate(127,177)"/>
<path d="M0 0 C2.75 2.4375 2.75 2.4375 5 5 C4.34 6.32 3.68 7.64 3 9 C0.35247996 6.42215154 -1.94432065 4.08351902 -4 1 C-2.3125 0.1875 -2.3125 0.1875 0 0 Z " fill="#E3E3E3" transform="translate(329,266)"/>
<path d="M0 0 C0.99 0.33 1.98 0.66 3 1 C2.01 2.32 1.02 3.64 0 5 C0.33 5.66 0.66 6.32 1 7 C0.01 7 -0.98 7 -2 7 C-2.66 8.32 -3.32 9.64 -4 11 C-4.66 11 -5.32 11 -6 11 C-5.39305845 7.84669446 -4.3583335 5.81111133 -2.4375 3.25 C-1.98246094 2.63640625 -1.52742187 2.0228125 -1.05859375 1.390625 C-0.70925781 0.93171875 -0.35992187 0.4728125 0 0 Z " fill="#0C0C0C" transform="translate(186,301)"/>
<path d="M0 0 C-3 2 -3 2 -5.875 3.625 C-9.73566926 6.55910864 -11.69555136 9.79896974 -14 14 C-15 11 -15 11 -13.375 7.5625 C-9.9147204 1.96917133 -6.78720367 -0.63136778 0 0 Z " fill="#D1D1D1" transform="translate(166,142)"/>
<path d="M0 0 C-1 3 -1 3 -3 4 C-3.99 5.485 -3.99 5.485 -5 7 C-5.66 7 -6.32 7 -7 7 C-8.63676257 8.9600281 -8.63676257 8.9600281 -10 11 C-11.32 10.67 -12.64 10.34 -14 10 C-12.04653795 8.32731078 -10.08770186 6.66178419 -8.125 5 C-7.56941406 4.52304688 -7.01382813 4.04609375 -6.44140625 3.5546875 C-2.2265625 0 -2.2265625 0 0 0 Z " fill="#E1E1E1" transform="translate(104,72)"/>
<path d="M0 0 C1.32 0 2.64 0 4 0 C3.91291331 1.45945288 3.80473093 2.91765868 3.6875 4.375 C3.62949219 5.18710938 3.57148438 5.99921875 3.51171875 6.8359375 C3 9 3 9 0 11 C0 7.33333333 0 3.66666667 0 0 Z " fill="#D0D0D0" transform="translate(144,157)"/>
<path d="M0 0 C3.91593446 0.78318689 7.36406635 2.39179858 11 4 C10.67 5.32 10.34 6.64 10 8 C8.33055479 6.85821872 6.6645052 5.71147095 5 4.5625 C4.071875 3.92441406 3.14375 3.28632813 2.1875 2.62890625 C1.465625 2.09136719 0.74375 1.55382812 0 1 C0 0.67 0 0.34 0 0 Z " fill="#E1E1E1" transform="translate(105,321)"/>
<path d="M0 0 C0.33 0 0.66 0 1 0 C1 1.98 1 3.96 1 6 C-1.64 6.66 -4.28 7.32 -7 8 C-7 7.01 -7 6.02 -7 5 C-6.34 5 -5.68 5 -5 5 C-4.67 4.01 -4.34 3.02 -4 2 C-3.01 2 -2.02 2 -1 2 C-0.67 1.34 -0.34 0.68 0 0 Z " fill="#E9E9E9" transform="translate(131,302)"/>
<path d="M0 0 C1.32 0.33 2.64 0.66 4 1 C3.34 2.65 2.68 4.3 2 6 C0.35 6 -1.3 6 -3 6 C-3.33 5.34 -3.66 4.68 -4 4 C-3.34 3.01 -2.68 2.02 -2 1 C-1.34 1.33 -0.68 1.66 0 2 C0 1.34 0 0.68 0 0 Z " fill="#E7E7E7" transform="translate(60,250)"/>
<path d="M0 0 C2.97 0.495 2.97 0.495 6 1 C2.375 6.75 2.375 6.75 -1 9 C-0.67 6.03 -0.34 3.06 0 0 Z " fill="#101010" transform="translate(140,154)"/>
<path d="M0 0 C0.33 0 0.66 0 1 0 C0.64989059 8.19256018 0.64989059 8.19256018 -2.0625 11.5625 C-2.701875 12.036875 -3.34125 12.51125 -4 13 C-3.71517632 11.58194169 -3.42181856 10.16559621 -3.125 8.75 C-2.96257812 7.96109375 -2.80015625 7.1721875 -2.6328125 6.359375 C-2.00849925 4.03168856 -1.15161458 2.10968048 0 0 Z " fill="#CCCCCC" transform="translate(187,292)"/>
<path d="M0 0 C1.65 1.65 3.3 3.3 5 5 C4.01 5.66 3.02 6.32 2 7 C1.34 6.34 0.68 5.68 0 5 C-0.99 6.32 -1.98 7.64 -3 9 C-3 8.34 -3 7.68 -3 7 C-3.66 6.67 -4.32 6.34 -5 6 C-4.54625 5.566875 -4.0925 5.13375 -3.625 4.6875 C-1.79975666 2.89201658 -1.79975666 2.89201658 0 0 Z " fill="#DEDEDE" transform="translate(148,175)"/>
<path d="M0 0 C0.66 0.99 1.32 1.98 2 3 C1.2884375 4.0828125 1.2884375 4.0828125 0.5625 5.1875 C-0.94152903 7.89475226 -1.56599182 9.96194275 -2 13 C-2.99 11.68 -3.98 10.36 -5 9 C-4.34 8.01 -3.68 7.02 -3 6 C-2.835 5.13375 -2.67 4.2675 -2.5 3.375 C-2.335 2.59125 -2.17 1.8075 -2 1 C-1.34 0.67 -0.68 0.34 0 0 Z " fill="#1D1D1D" transform="translate(153,145)"/>
<path d="M0 0 C2 0.25 2 0.25 4 1 C4.33 1.99 4.66 2.98 5 4 C4.34 4.66 3.68 5.32 3 6 C2.34 5.34 1.68 4.68 1 4 C0.01 5.32 -0.98 6.64 -2 8 C-1.125 1.125 -1.125 1.125 0 0 Z " fill="#CCCCCC" transform="translate(133,143)"/>
<path d="M0 0 C0.66 0.33 1.32 0.66 2 1 C0.89210592 4.32368224 0.51563783 4.61563093 -2.375 6.25 C-3.28378906 6.78367187 -3.28378906 6.78367187 -4.2109375 7.328125 C-6 8 -6 8 -9 7 C-6.3765992 4.08511023 -3.28183606 2.11496102 0 0 Z " fill="#E5E5E5" transform="translate(115,63)"/>
<path d="M0 0 C0 3 0 3 -1 5 C-1.66 5 -2.32 5 -3 5 C-3 5.99 -3 6.98 -3 8 C-5.475 7.01 -5.475 7.01 -8 6 C-5.38485683 3.87961365 -2.80362384 1.86908256 0 0 Z " fill="#1D1D1D" transform="translate(170,248)"/>
<path d="M0 0 C1.32 0.33 2.64 0.66 4 1 C3.979375 1.9075 3.95875 2.815 3.9375 3.75 C3.9889755 6.42672588 4.2215017 8.46988052 5 11 C3.68 11 2.36 11 1 11 C1.03255208 9.01432292 1.06510417 7.02864583 1.09765625 5.04296875 C1.08263217 2.79694539 1.08263217 2.79694539 0 0 Z " fill="#E3E3E3" transform="translate(96,197)"/>
<path d="M0 0 C0.99 0.66 1.98 1.32 3 2 C2.49396008 4.16874252 2.00016187 5.99967627 1 8 C0.01 7.67 -0.98 7.34 -2 7 C-2 5.02 -2 3.04 -2 1 C-1.34 0.67 -0.68 0.34 0 0 Z " fill="#F3F3F3" transform="translate(138,272)"/>
<path d="M0 0 C3.63 1.65 7.26 3.3 11 5 C10.34 5.66 9.68 6.32 9 7 C7.02 6.34 5.04 5.68 3 5 C3 4.34 3 3.68 3 3 C2.01 2.67 1.02 2.34 0 2 C0 1.34 0 0.68 0 0 Z " fill="#DFDFDF" transform="translate(264,55)"/>
<path d="M0 0 C0 0.99 0 1.98 0 3 C-4.75 3.125 -4.75 3.125 -7 2 C-7.99 1.67 -8.98 1.34 -10 1 C-6.21812119 -0.83691257 -4.05431692 -1.15837626 0 0 Z " fill="#1C1C1C" transform="translate(120,218)"/>
<path d="M0 0 C0.66 0.33 1.32 0.66 2 1 C1.625 2.9375 1.625 2.9375 1 5 C-2.20062687 6.60031344 -4.72271806 5.03173691 -8 4 C-8 3.67 -8 3.34 -8 3 C-6.576875 2.814375 -6.576875 2.814375 -5.125 2.625 C-1.91332809 2.28312823 -1.91332809 2.28312823 0 0 Z " fill="#3C3C3C" transform="translate(206,115)"/>
<path d="M0 0 C2.79872437 2.52788007 4.45773019 4.20411134 5 8 C3.35 8 1.7 8 0 8 C0 5.33333333 0 2.66666667 0 0 Z " fill="#DDDDDD" transform="translate(323,104)"/>
<path d="M0 0 C2.475 0.495 2.475 0.495 5 1 C5.33 1.99 5.66 2.98 6 4 C4.68 4.99 3.36 5.98 2 7 C0.5393715 4.35261084 0 3.10551666 0 0 Z " fill="#EDEDED" transform="translate(64,81)"/>
<path d="M0 0 C1.29315061 0.95632999 2.58446853 1.91513851 3.875 2.875 C4.59429687 3.40867187 5.31359375 3.94234375 6.0546875 4.4921875 C8 6 8 6 10 8 C8.35 7.67 6.7 7.34 5 7 C4.67 6.01 4.34 5.02 4 4 C3.01 4.33 2.02 4.66 1 5 C1 4.34 1 3.68 1 3 C0.34 2.67 -0.32 2.34 -1 2 C-0.67 1.34 -0.34 0.68 0 0 Z " fill="#DEDEDE" transform="translate(90,327)"/>
<path d="M0 0 C2.0625 1.75 2.0625 1.75 4 4 C3.9375 6.1875 3.9375 6.1875 3 8 C2.01 8.33 1.02 8.66 0 9 C0.33 7.68 0.66 6.36 1 5 C0.34 5 -0.32 5 -1 5 C-0.67 3.35 -0.34 1.7 0 0 Z " fill="#E6E6E6" transform="translate(125,320)"/>
<path d="M0 0 C0.66 0.66 1.32 1.32 2 2 C1.01 2.33 0.02 2.66 -1 3 C-0.67 3.66 -0.34 4.32 0 5 C-2.31 5.33 -4.62 5.66 -7 6 C-6 3 -6 3 -2.9375 1.3125 C-1.968125 0.879375 -0.99875 0.44625 0 0 Z " fill="#242424" transform="translate(123,172)"/>
<path d="M0 0 C2.23551759 3.35327639 2.17283528 3.90743657 1.625 7.6875 C1.51414062 8.49574219 1.40328125 9.30398438 1.2890625 10.13671875 C1.19367188 10.75160156 1.09828125 11.36648438 1 12 C-1 10 -1 10 -1.1875 6.5625 C-1 3 -1 3 0 0 Z " fill="#242424" transform="translate(126,310)"/>
<path d="M0 0 C1.89213369 2.38573379 3.02391783 4.07175348 4 7 C3.01 8.485 3.01 8.485 2 10 C2 8.68 2 7.36 2 6 C0.68 5.67 -0.64 5.34 -2 5 C-1.34 3.35 -0.68 1.7 0 0 Z " fill="#E8E8E8" transform="translate(50,280)"/>
<path d="M0 0 C0.66 0.33 1.32 0.66 2 1 C0.68 2.65 -0.64 4.3 -2 6 C-2.33 5.67 -2.66 5.34 -3 5 C-3.33 7.31 -3.66 9.62 -4 12 C-4.33 12 -4.66 12 -5 12 C-5.44041451 6.71502591 -5.44041451 6.71502591 -5 4 C-2.5 1.5 -2.5 1.5 0 0 Z " fill="#3D3D3D" transform="translate(157,63)"/>
<path d="M0 0 C0.66 0.33 1.32 0.66 2 1 C1.34 2.65 0.68 4.3 0 6 C-0.66 5.67 -1.32 5.34 -2 5 C-2.99 6.485 -2.99 6.485 -4 8 C-4.66 7.67 -5.32 7.34 -6 7 C-4.02 4.69 -2.04 2.38 0 0 Z " fill="#E2E2E2" transform="translate(334,296)"/>
<path d="M0 0 C3.875 1.75 3.875 1.75 5 4 C4.01 4.99 3.02 5.98 2 7 C1.34 6.67 0.68 6.34 0 6 C0 4.02 0 2.04 0 0 Z " fill="#0E0E0E" transform="translate(320,81)"/>
<path d="M0 0 C1.32 0 2.64 0 4 0 C2.50902342 3.7952131 0.24299151 5.61042731 -3 8 C-1.125 1.125 -1.125 1.125 0 0 Z " fill="#0E0E0E" transform="translate(315,312)"/>
<path d="M0 0 C-0.639375 0.28875 -1.27875 0.5775 -1.9375 0.875 C-4.15206079 1.82823451 -4.15206079 1.82823451 -5 4 C-7.50357861 3.1654738 -9.66785852 2.20628008 -12 1 C-3.96428571 -1.27678571 -3.96428571 -1.27678571 0 0 Z " fill="#CECECE" transform="translate(244,360)"/>
<path d="M0 0 C0.99 0.33 1.98 0.66 3 1 C2.67 1.99 2.34 2.98 2 4 C-0.5625 5.1875 -0.5625 5.1875 -3 6 C-3 4.68 -3 3.36 -3 2 C-2.01 1.34 -1.02 0.68 0 0 Z " fill="#141414" transform="translate(284,337)"/>
<path d="M0 0 C0.66 0 1.32 0 2 0 C2.99 2.31 3.98 4.62 5 7 C3.68 6.67 2.36 6.34 1 6 C1 5.01 1 4.02 1 3 C0.34 3 -0.32 3 -1 3 C-0.67 2.01 -0.34 1.02 0 0 Z " fill="#E6E6E6" transform="translate(44,271)"/>
<path d="M0 0 C0.99 1.32 1.98 2.64 3 4 C1.35 5.65 -0.3 7.3 -2 9 C-2.33 8.34 -2.66 7.68 -3 7 C-2.06421005 4.64018187 -1.06652192 2.30368736 0 0 Z " fill="#DDDDDD" transform="translate(354,259)"/>
<path d="M0 0 C0.99 0.66 1.98 1.32 3 2 C3 2.66 3 3.32 3 4 C1.35 4.66 -0.3 5.32 -2 6 C-2.33 5.34 -2.66 4.68 -3 4 C-2.01 2.68 -1.02 1.36 0 0 Z " fill="#0F0F0F" transform="translate(84,206)"/>
<path d="M0 0 C0.66 1.32 1.32 2.64 2 4 C1.34 4 0.68 4 0 4 C0.66 4.66 1.32 5.32 2 6 C0.68 6.33 -0.64 6.66 -2 7 C-2.66 5.35 -3.32 3.7 -4 2 C-2.68 2 -1.36 2 0 2 C0 1.34 0 0.68 0 0 Z " fill="#131313" transform="translate(182,145)"/>
<path d="M0 0 C1.5 1.3125 1.5 1.3125 3 3 C3 3.99 3 4.98 3 6 C1.35 6 -0.3 6 -2 6 C-1.125 1.125 -1.125 1.125 0 0 Z " fill="#232323" transform="translate(134,146)"/>
<path d="M0 0 C2.31 0.33 4.62 0.66 7 1 C7 1.66 7 2.32 7 3 C4.36 3.33 1.72 3.66 -1 4 C-0.67 2.68 -0.34 1.36 0 0 Z " fill="#515151" transform="translate(139,144)"/>
<path d="M0 0 C-0.66 1.32 -1.32 2.64 -2 4 C-4.31 3.67 -6.62 3.34 -9 3 C-6.40821726 0.40821726 -3.54324677 -1.77162338 0 0 Z " fill="#E6E6E6" transform="translate(143,51)"/>
<path d="M0 0 C2.625 0.9375 2.625 0.9375 5 2 C4.01 2.99 3.02 3.98 2 5 C0.68 3.68 -0.64 2.36 -2 1 C-1.34 0.67 -0.68 0.34 0 0 Z " fill="#E7E7E7" transform="translate(98,313)"/>
<path d="M0 0 C0.33 0.99 0.66 1.98 1 3 C-0.8125 5.6875 -0.8125 5.6875 -3 8 C-3.66 8 -4.32 8 -5 8 C-3.8141763 4.62496331 -2.72426311 2.35277269 0 0 Z " fill="#B9B9B9" transform="translate(181,301)"/>
<path d="M0 0 C0 0.99 0 1.98 0 3 C-1.32 3.33 -2.64 3.66 -4 4 C-4 4.66 -4 5.32 -4 6 C-4.66 5.67 -5.32 5.34 -6 5 C-5.625 3.0625 -5.625 3.0625 -5 1 C-3 0 -3 0 0 0 Z " fill="#242424" transform="translate(103,218)"/>
<path d="M0 0 C2.475 0.99 2.475 0.99 5 2 C3.68 2.99 2.36 3.98 1 5 C0.01 4.01 -0.98 3.02 -2 2 C-1.34 1.34 -0.68 0.68 0 0 Z " fill="#ECECEC" transform="translate(101,187)"/>
<path d="M0 0 C0.33 0 0.66 0 1 0 C1 1.65 1 3.3 1 5 C2.65 5.33 4.3 5.66 6 6 C3.39417629 6.93065133 2.35801776 7.14917407 -0.25 6.0625 C-0.8275 5.711875 -1.405 5.36125 -2 5 C-1.34 3.35 -0.68 1.7 0 0 Z " fill="#626262" transform="translate(258,166)"/>
<path d="M0 0 C0.66 0.33 1.32 0.66 2 1 C1.25 3.4375 1.25 3.4375 0 6 C-2.125 6.8125 -2.125 6.8125 -4 7 C-1.125 1.125 -1.125 1.125 0 0 Z " fill="#ECECEC" transform="translate(46,114)"/>
<path d="M0 0 C0.33 1.32 0.66 2.64 1 4 C-0.8125 5.0625 -0.8125 5.0625 -3 6 C-3.99 5.67 -4.98 5.34 -6 5 C-4.02 3.35 -2.04 1.7 0 0 Z " fill="#DFDFDF" transform="translate(310,322)"/>
<path d="M0 0 C1.231394 2.46278801 1.07159196 4.2795055 1 7 C0.01 7.495 0.01 7.495 -1 8 C-1.99 7.34 -2.98 6.68 -4 6 C-2.68 4.02 -1.36 2.04 0 0 Z " fill="#212121" transform="translate(148,264)"/>
<path d="M0 0 C2.475 0.99 2.475 0.99 5 2 C3.68 3.32 2.36 4.64 1 6 C-0.0625 4.125 -0.0625 4.125 -1 2 C-0.67 1.34 -0.34 0.68 0 0 Z " fill="#EBEBEB" transform="translate(160,249)"/>
<path d="M0 0 C0.33 0.66 0.66 1.32 1 2 C1.66 2.33 2.32 2.66 3 3 C1.68799596 4.35432675 0.35368596 5.68733482 -1 7 C-1.33 7 -1.66 7 -2 7 C-2 5.35 -2 3.7 -2 2 C-1.34 2 -0.68 2 0 2 C0 1.34 0 0.68 0 0 Z " fill="#010101" transform="translate(134,150)"/>
<path d="M0 0 C2 3 2 3 2 5 C1.34 5 0.68 5 0 5 C-0.33 5.99 -0.66 6.98 -1 8 C-1.66 7.67 -2.32 7.34 -3 7 C-1.125 2.25 -1.125 2.25 0 0 Z " fill="#E4E4E4" transform="translate(275,108)"/>
<path d="M0 0 C0.33 0.66 0.66 1.32 1 2 C0.67 2.99 0.34 3.98 0 5 C-1.32303717 5.3721042 -2.65737935 5.70630173 -4 6 C-4.33 6.66 -4.66 7.32 -5 8 C-5 5 -5 5 -2.5 2.3125 C-1.675 1.549375 -0.85 0.78625 0 0 Z " fill="#191919" transform="translate(89,65)"/>
<path d="M0 0 C-0.99 0.495 -0.99 0.495 -2 1 C-2.33 1.66 -2.66 2.32 -3 3 C-4.65 1.68 -6.3 0.36 -8 -1 C-4.37673261 -2.2077558 -3.35853631 -1.54311128 0 0 Z " fill="#E4E4E4" transform="translate(303,147)"/>
<path d="M0 0 C1.32 0.66 2.64 1.32 4 2 C3.67 2.99 3.34 3.98 3 5 C0.9375 5.6875 0.9375 5.6875 -1 6 C-0.67 4.02 -0.34 2.04 0 0 Z " fill="#131313" transform="translate(146,145)"/>
<path d="M0 0 C0.99 0.33 1.98 0.66 3 1 C1.35 2.65 -0.3 4.3 -2 6 C-2.33 5.01 -2.66 4.02 -3 3 C-2.34 3 -1.68 3 -1 3 C-0.67 2.01 -0.34 1.02 0 0 Z " fill="#EDEDED" transform="translate(77,72)"/>
</svg>
