<?xml version="1.0" encoding="UTF-8"?>
<svg version="1.1" xmlns="http://www.w3.org/2000/svg" width="246" height="244">
<path d="M0 0 C81.18 0 162.36 0 246 0 C246 80.52 246 161.04 246 244 C164.82 244 83.64 244 0 244 C0 163.48 0 82.96 0 0 Z " fill="#DEDDDB" transform="translate(0,0)"/>
<path d="M0 0 C39.27 0 78.54 0 119 0 C119 2.64 119 5.28 119 8 C116.36 8 113.72 8 111 8 C111 10.97 111 13.94 111 17 C108.36 17 105.72 17 103 17 C103 14.36 103 11.72 103 9 C97.39 9 91.78 9 86 9 C86 6.36 86 3.72 86 1 C80.72 1 75.44 1 70 1 C70 8.92 70 16.84 70 25 C72.64 25 75.28 25 78 25 C78 27.97 78 30.94 78 34 C75.03 34 72.06 34 69 34 C69 36.64 69 39.28 69 42 C71.97 42 74.94 42 78 42 C78 44.64 78 47.28 78 50 C75.36 50 72.72 50 70 50 C70 52.97 70 55.94 70 59 C72.64 59 75.28 59 78 59 C78 61.64 78 64.28 78 67 C61.5 67 45 67 28 67 C28 69.64 28 72.28 28 75 C30.97 75 33.94 75 37 75 C37 77.64 37 80.28 37 83 C39.31 83 41.62 83 44 83 C44 80.36 44 77.72 44 75 C57.86 75 71.72 75 86 75 C86 77.64 86 80.28 86 83 C80.39 83 74.78 83 69 83 C69 85.64 69 88.28 69 91 C66.69 91 64.38 91 62 91 C62 88.36 62 85.72 62 83 C59.03 83 56.06 83 53 83 C53 85.97 53 88.94 53 92 C55.64 92 58.28 92 61 92 C61 94.64 61 97.28 61 100 C47.47 100 33.94 100 20 100 C20 105.28 20 110.56 20 116 C22.64 116 25.28 116 28 116 C28 113.69 28 111.38 28 109 C38.89 109 49.78 109 61 109 C61 111.31 61 113.62 61 116 C58.36 116 55.72 116 53 116 C53 118.97 53 121.94 53 125 C55.64 125 58.28 125 61 125 C61 127.64 61 130.28 61 133 C58.36 133 55.72 133 53 133 C53 135.97 53 138.94 53 142 C63.89 142 74.78 142 86 142 C86 147.28 86 152.56 86 158 C83.36 158 80.72 158 78 158 C78 155.36 78 152.72 78 150 C67.11 150 56.22 150 45 150 C45 147.03 45 144.06 45 141 C39.39 141 33.78 141 28 141 C28 143.97 28 146.94 28 150 C25.36 150 22.72 150 20 150 C20 144.72 20 139.44 20 134 C28.25 134 36.5 134 45 134 C45 128.06 45 122.12 45 116 C42.03 116 39.06 116 36 116 C36 118.97 36 121.94 36 125 C25.11 125 14.22 125 3 125 C3 127.97 3 130.94 3 134 C5.64 134 8.28 134 11 134 C11 136.31 11 138.62 11 141 C8.36 141 5.72 141 3 141 C3 152.22 3 163.44 3 175 C22.47 175 41.94 175 62 175 C62 172.36 62 169.72 62 167 C69.92 167 77.84 167 86 167 C86 169.64 86 172.28 86 175 C88.64 175 91.28 175 94 175 C94 177.64 94 180.28 94 183 C88.72 183 83.44 183 78 183 C78 180.36 78 177.72 78 175 C75.36 175 72.72 175 70 175 C70 188.86 70 202.72 70 217 C80.89 217 91.78 217 103 217 C103 219.64 103 222.28 103 225 C105.97 225 108.94 225 112 225 C112 222.03 112 219.06 112 216 C109.03 216 106.06 216 103 216 C103 208.08 103 200.16 103 192 C105.64 192 108.28 192 111 192 C111 186.39 111 180.78 111 175 C113.97 175 116.94 175 120 175 C120 183.25 120 191.5 120 200 C117.03 200 114.06 200 111 200 C111 202.64 111 205.28 111 208 C116.61 208 122.22 208 128 208 C128 210.64 128 213.28 128 216 C125.03 216 122.06 216 119 216 C119 218.97 119 221.94 119 225 C121.97 225 124.94 225 128 225 C128 227.64 128 230.28 128 233 C130.64 233 133.28 233 136 233 C136 227.39 136 221.78 136 216 C138.64 216 141.28 216 144 216 C144 213.36 144 210.72 144 208 C141.36 208 138.72 208 136 208 C136 205.03 136 202.06 136 199 C141.28 199 146.56 199 152 199 C152 196.69 152 194.38 152 192 C149.36 192 146.72 192 144 192 C144 189.36 144 186.72 144 184 C141.36 184 138.72 184 136 184 C136 178.39 136 172.78 136 167 C133.36 167 130.72 167 128 167 C128 164.03 128 161.06 128 158 C125.36 158 122.72 158 120 158 C120 160.97 120 163.94 120 167 C117.03 167 114.06 167 111 167 C111 164.03 111 161.06 111 158 C108.36 158 105.72 158 103 158 C103 155.36 103 152.72 103 150 C100.36 150 97.72 150 95 150 C95 141.75 95 133.5 95 125 C92.03 125 89.06 125 86 125 C86 127.64 86 130.28 86 133 C83.36 133 80.72 133 78 133 C78 127.72 78 122.44 78 117 C80.97 117 83.94 117 87 117 C87 114.36 87 111.72 87 109 C92.28 109 97.56 109 103 109 C103 111.64 103 114.28 103 117 C105.64 117 108.28 117 111 117 C111 119.64 111 122.28 111 125 C119.25 125 127.5 125 136 125 C136 122.03 136 119.06 136 116 C138.64 116 141.28 116 144 116 C144 113.69 144 111.38 144 109 C141.36 109 138.72 109 136 109 C136 106.03 136 103.06 136 100 C144.25 100 152.5 100 161 100 C161 102.64 161 105.28 161 108 C163.97 108 166.94 108 170 108 C170 105.36 170 102.72 170 100 C175.28 100 180.56 100 186 100 C186 102.64 186 105.28 186 108 C188.97 108 191.94 108 195 108 C195 110.97 195 113.94 195 117 C183.78 117 172.56 117 161 117 C161 119.64 161 122.28 161 125 C163.97 125 166.94 125 170 125 C170 130.61 170 136.22 170 142 C164.06 142 158.12 142 152 142 C152 139.36 152 136.72 152 134 C149.69 134 147.38 134 145 134 C145 139.28 145 144.56 145 150 C147.64 150 150.28 150 153 150 C153 155.28 153 160.56 153 166 C155.64 166 158.28 166 161 166 C161 168.97 161 171.94 161 175 C163.64 175 166.28 175 169 175 C169 180.28 169 185.56 169 191 C166.36 191 163.72 191 161 191 C161 202.22 161 213.44 161 225 C158.36 225 155.72 225 153 225 C153 230.28 153 235.56 153 241 C161.25 241 169.5 241 178 241 C178 238.36 178 235.72 178 233 C183.28 233 188.56 233 194 233 C194 230.36 194 227.72 194 225 C191.36 225 188.72 225 186 225 C186 219.39 186 213.78 186 208 C196.89 208 207.78 208 219 208 C219 205.36 219 202.72 219 200 C216.36 200 213.72 200 211 200 C211 197.03 211 194.06 211 191 C213.64 191 216.28 191 219 191 C219 185.39 219 179.78 219 174 C224.28 174 229.56 174 235 174 C235 171.69 235 169.38 235 167 C232.36 167 229.72 167 227 167 C227 164.36 227 161.72 227 159 C224.36 159 221.72 159 219 159 C219 156.03 219 153.06 219 150 C216.36 150 213.72 150 211 150 C211 155.61 211 161.22 211 167 C208.03 167 205.06 167 202 167 C202 161.39 202 155.78 202 150 C196.72 150 191.44 150 186 150 C186 152.64 186 155.28 186 158 C183.36 158 180.72 158 178 158 C178 160.97 178 163.94 178 167 C175.03 167 172.06 167 169 167 C169 164.03 169 161.06 169 158 C171.64 158 174.28 158 177 158 C177 147.11 177 136.22 177 125 C182.94 125 188.88 125 195 125 C195 130.28 195 135.56 195 141 C197.31 141 199.62 141 202 141 C202 135.72 202 130.44 202 125 C204.97 125 207.94 125 211 125 C211 122.36 211 119.72 211 117 C213.97 117 216.94 117 220 117 C220 122.28 220 127.56 220 133 C222.31 133 224.62 133 227 133 C227 127.72 227 122.44 227 117 C229.97 117 232.94 117 236 117 C236 122.28 236 127.56 236 133 C238.64 133 241.28 133 244 133 C244 119.47 244 105.94 244 92 C241.36 92 238.72 92 236 92 C236 97.28 236 102.56 236 108 C225.11 108 214.22 108 203 108 C203 105.36 203 102.72 203 100 C208.61 100 214.22 100 220 100 C220 97.36 220 94.72 220 92 C222.64 92 225.28 92 228 92 C228 89.36 228 86.72 228 84 C230.64 84 233.28 84 236 84 C236 81.03 236 78.06 236 75 C238.97 75 241.94 75 245 75 C245.33 74.01 245.66 73.02 246 72 C246 128.76 246 185.52 246 244 C164.82 244 83.64 244 0 244 C0 163.48 0 82.96 0 0 Z " fill="#E3E2DF" transform="translate(0,0)"/>
<path d="M0 0 C11.22 0 22.44 0 34 0 C34 2.64 34 5.28 34 8 C35.14339844 7.98839844 36.28679687 7.97679687 37.46484375 7.96484375 C38.95572754 7.95546712 40.44661309 7.94636679 41.9375 7.9375 C43.06961914 7.92493164 43.06961914 7.92493164 44.22460938 7.91210938 C46.14994313 7.90347559 48.07535581 7.94775667 50 8 C51 9 51 9 51.09765625 10.84765625 C51.06510417 12.8984375 51.03255208 14.94921875 51 17 C48.03 17 45.06 17 42 17 C42 19.64 42 22.28 42 25 C39.36 25 36.72 25 34 25 C34 22.36 34 19.72 34 17 C28.39 17 22.78 17 17 17 C17 22.28 17 27.56 17 33 C14.36 33 11.72 33 9 33 C9 30.36 9 27.72 9 25 C3.39 25 -2.22 25 -8 25 C-8 27.64 -8 30.28 -8 33 C-10.64 33 -13.28 33 -16 33 C-16 35.97 -16 38.94 -16 42 C-13.36 42 -10.72 42 -8 42 C-8 47.28 -8 52.56 -8 58 C-5.36 58 -2.72 58 0 58 C0 55.36 0 52.72 0 50 C2.97 50 5.94 50 9 50 C9 52.97 9 55.94 9 59 C6.36 59 3.72 59 1 59 C1 61.64 1 64.28 1 67 C-4.61 67 -10.22 67 -16 67 C-16 69.64 -16 72.28 -16 75 C-18.64 75 -21.28 75 -24 75 C-24 77.97 -24 80.94 -24 84 C-26.64 84 -29.28 84 -32 84 C-32 86.31 -32 88.62 -32 91 C-29.36 91 -26.72 91 -24 91 C-24 93.97 -24 96.94 -24 100 C-21.36 100 -18.72 100 -16 100 C-16 102.64 -16 105.28 -16 108 C-13.03 108 -10.06 108 -7 108 C-7 110.64 -7 113.28 -7 116 C-2.05 116 2.9 116 8 116 C8 113.69 8 111.38 8 109 C5.69 109 3.38 109 1 109 C1 103.39 1 97.78 1 92 C3.64 92 6.28 92 9 92 C9 83.75 9 75.5 9 67 C11.64 67 14.28 67 17 67 C17 75.25 17 83.5 17 92 C25.25 92 33.5 92 42 92 C42 94.64 42 97.28 42 100 C33.75 100 25.5 100 17 100 C17 102.97 17 105.94 17 109 C19.64 109 22.28 109 25 109 C25 111.31 25 113.62 25 116 C22.36 116 19.72 116 17 116 C17 118.97 17 121.94 17 125 C8.75 125 0.5 125 -8 125 C-8 122.36 -8 119.72 -8 117 C-10.64 117 -13.28 117 -16 117 C-16 114.36 -16 111.72 -16 109 C-21.28 109 -26.56 109 -32 109 C-32 111.64 -32 114.28 -32 117 C-34.97 117 -37.94 117 -41 117 C-41 122.28 -41 127.56 -41 133 C-38.36 133 -35.72 133 -33 133 C-33 130.36 -33 127.72 -33 125 C-30.03 125 -27.06 125 -24 125 C-24 133.25 -24 141.5 -24 150 C-21.36 150 -18.72 150 -16 150 C-16 152.64 -16 155.28 -16 158 C-13.36 158 -10.72 158 -8 158 C-8 160.97 -8 163.94 -8 167 C-5.03 167 -2.06 167 1 167 C1 164.03 1 161.06 1 158 C3.64 158 6.28 158 9 158 C9 160.97 9 163.94 9 167 C11.64 167 14.28 167 17 167 C17 172.61 17 178.22 17 184 C19.64 184 22.28 184 25 184 C25 186.64 25 189.28 25 192 C27.64 192 30.28 192 33 192 C33 194.31 33 196.62 33 199 C27.72 199 22.44 199 17 199 C17 201.97 17 204.94 17 208 C19.64 208 22.28 208 25 208 C25 210.64 25 213.28 25 216 C22.36 216 19.72 216 17 216 C17 221.61 17 227.22 17 233 C14.36 233 11.72 233 9 233 C9 230.36 9 227.72 9 225 C6.03 225 3.06 225 0 225 C0 222.03 0 219.06 0 216 C2.97 216 5.94 216 9 216 C9 213.36 9 210.72 9 208 C3.39 208 -2.22 208 -8 208 C-8 205.36 -8 202.72 -8 200 C-5.03 200 -2.06 200 1 200 C1 191.75 1 183.5 1 175 C-1.97 175 -4.94 175 -8 175 C-8 180.61 -8 186.22 -8 192 C-10.64 192 -13.28 192 -16 192 C-16 199.92 -16 207.84 -16 216 C-13.03 216 -10.06 216 -7 216 C-7 218.97 -7 221.94 -7 225 C-9.97 225 -12.94 225 -16 225 C-16 222.36 -16 219.72 -16 217 C-26.89 217 -37.78 217 -49 217 C-49 203.14 -49 189.28 -49 175 C-46.36 175 -43.72 175 -41 175 C-41 177.64 -41 180.28 -41 183 C-35.72 183 -30.44 183 -25 183 C-25 180.36 -25 177.72 -25 175 C-27.64 175 -30.28 175 -33 175 C-33 172.36 -33 169.72 -33 167 C-40.92 167 -48.84 167 -57 167 C-57 169.64 -57 172.28 -57 175 C-76.47 175 -95.94 175 -116 175 C-116 163.78 -116 152.56 -116 141 C-113.36 141 -110.72 141 -108 141 C-108 138.69 -108 136.38 -108 134 C-110.64 134 -113.28 134 -116 134 C-116 131.03 -116 128.06 -116 125 C-105.11 125 -94.22 125 -83 125 C-83 122.03 -83 119.06 -83 116 C-80.03 116 -77.06 116 -74 116 C-74 121.94 -74 127.88 -74 134 C-82.25 134 -90.5 134 -99 134 C-99 139.28 -99 144.56 -99 150 C-96.36 150 -93.72 150 -91 150 C-91 147.03 -91 144.06 -91 141 C-85.39 141 -79.78 141 -74 141 C-74 143.97 -74 146.94 -74 150 C-63.11 150 -52.22 150 -41 150 C-41 152.64 -41 155.28 -41 158 C-38.36 158 -35.72 158 -33 158 C-33 152.72 -33 147.44 -33 142 C-43.89 142 -54.78 142 -66 142 C-66 139.03 -66 136.06 -66 133 C-63.36 133 -60.72 133 -58 133 C-58 130.36 -58 127.72 -58 125 C-60.64 125 -63.28 125 -66 125 C-66 122.03 -66 119.06 -66 116 C-63.36 116 -60.72 116 -58 116 C-58 113.69 -58 111.38 -58 109 C-68.89 109 -79.78 109 -91 109 C-91 111.31 -91 113.62 -91 116 C-93.64 116 -96.28 116 -99 116 C-99 110.72 -99 105.44 -99 100 C-85.47 100 -71.94 100 -58 100 C-58 97.36 -58 94.72 -58 92 C-60.64 92 -63.28 92 -66 92 C-66 89.03 -66 86.06 -66 83 C-63.03 83 -60.06 83 -57 83 C-57 85.64 -57 88.28 -57 91 C-54.69 91 -52.38 91 -50 91 C-50 88.36 -50 85.72 -50 83 C-44.39 83 -38.78 83 -33 83 C-33 80.36 -33 77.72 -33 75 C-46.86 75 -60.72 75 -75 75 C-75 77.64 -75 80.28 -75 83 C-77.31 83 -79.62 83 -82 83 C-82 80.36 -82 77.72 -82 75 C-84.97 75 -87.94 75 -91 75 C-91 72.36 -91 69.72 -91 67 C-74.5 67 -58 67 -41 67 C-41 64.36 -41 61.72 -41 59 C-43.64 59 -46.28 59 -49 59 C-49 56.03 -49 53.06 -49 50 C-46.36 50 -43.72 50 -41 50 C-41 47.36 -41 44.72 -41 42 C-43.97 42 -46.94 42 -50 42 C-50 39.36 -50 36.72 -50 34 C-47.03 34 -44.06 34 -41 34 C-41 31.03 -41 28.06 -41 25 C-43.64 25 -46.28 25 -49 25 C-49 17.08 -49 9.16 -49 1 C-43.72 1 -38.44 1 -33 1 C-33 3.64 -33 6.28 -33 9 C-27.39 9 -21.78 9 -16 9 C-16 11.64 -16 14.28 -16 17 C-13.36 17 -10.72 17 -8 17 C-8 14.03 -8 11.06 -8 8 C-5.36 8 -2.72 8 0 8 C0 5.36 0 2.72 0 0 Z " fill="#828180" transform="translate(119,0)"/>
<path d="M0 0 C2.97 0 5.94 0 9 0 C9 5.94 9 11.88 9 18 C0.75 18 -7.5 18 -16 18 C-16 23.28 -16 28.56 -16 34 C-13.36 34 -10.72 34 -8 34 C-8 31.03 -8 28.06 -8 25 C-2.39 25 3.22 25 9 25 C9 27.97 9 30.94 9 34 C19.89 34 30.78 34 42 34 C42 36.64 42 39.28 42 42 C44.64 42 47.28 42 50 42 C50 36.72 50 31.44 50 26 C39.11 26 28.22 26 17 26 C17 23.03 17 20.06 17 17 C19.97 17 22.94 17 26 17 C26 14.36 26 11.72 26 9 C28.64 9 31.28 9 34 9 C34 6.36 34 3.72 34 1 C36.64 1 39.28 1 42 1 C42 6.28 42 11.56 42 17 C44.64 17 47.28 17 50 17 C50 14.36 50 11.72 50 9 C52.97 9 55.94 9 59 9 C59 17.25 59 25.5 59 34 C61.64 34 64.28 34 67 34 C67 36.64 67 39.28 67 42 C69.64 42 72.28 42 75 42 C75 44.97 75 47.94 75 51 C77.97 51 80.94 51 84 51 C84 48.03 84 45.06 84 42 C86.64 42 89.28 42 92 42 C92 44.97 92 47.94 92 51 C94.64 51 97.28 51 100 51 C100 56.61 100 62.22 100 68 C102.64 68 105.28 68 108 68 C108 70.64 108 73.28 108 76 C110.64 76 113.28 76 116 76 C116 78.31 116 80.62 116 83 C110.72 83 105.44 83 100 83 C100 85.97 100 88.94 100 92 C102.64 92 105.28 92 108 92 C108 94.64 108 97.28 108 100 C105.36 100 102.72 100 100 100 C100 105.61 100 111.22 100 117 C97.36 117 94.72 117 92 117 C92 114.36 92 111.72 92 109 C89.03 109 86.06 109 83 109 C83 106.03 83 103.06 83 100 C85.97 100 88.94 100 92 100 C92 97.36 92 94.72 92 92 C86.39 92 80.78 92 75 92 C75 89.36 75 86.72 75 84 C77.97 84 80.94 84 84 84 C84 75.75 84 67.5 84 59 C81.03 59 78.06 59 75 59 C75 64.61 75 70.22 75 76 C72.36 76 69.72 76 67 76 C67 83.92 67 91.84 67 100 C69.97 100 72.94 100 76 100 C76 102.97 76 105.94 76 109 C73.03 109 70.06 109 67 109 C67 106.36 67 103.72 67 101 C56.11 101 45.22 101 34 101 C34 87.14 34 73.28 34 59 C36.64 59 39.28 59 42 59 C42 61.64 42 64.28 42 67 C47.28 67 52.56 67 58 67 C58 64.36 58 61.72 58 59 C55.36 59 52.72 59 50 59 C50 56.36 50 53.72 50 51 C42.08 51 34.16 51 26 51 C26 53.64 26 56.28 26 59 C6.53 59 -12.94 59 -33 59 C-33 47.78 -33 36.56 -33 25 C-30.36 25 -27.72 25 -25 25 C-25 22.69 -25 20.38 -25 18 C-27.64 18 -30.28 18 -33 18 C-33 15.03 -33 12.06 -33 9 C-22.11 9 -11.22 9 0 9 C0 6.03 0 3.06 0 0 Z " fill="#70706E" transform="translate(36,116)"/>
<path d="M0 0 C2.64 0 5.28 0 8 0 C8 13.53 8 27.06 8 41 C5.36 41 2.72 41 0 41 C0 35.72 0 30.44 0 25 C-2.97 25 -5.94 25 -9 25 C-9 30.28 -9 35.56 -9 41 C-11.31 41 -13.62 41 -16 41 C-16 35.72 -16 30.44 -16 25 C-18.97 25 -21.94 25 -25 25 C-25 27.64 -25 30.28 -25 33 C-27.97 33 -30.94 33 -34 33 C-34 38.28 -34 43.56 -34 49 C-36.31 49 -38.62 49 -41 49 C-41 43.72 -41 38.44 -41 33 C-46.94 33 -52.88 33 -59 33 C-59 43.89 -59 54.78 -59 66 C-61.64 66 -64.28 66 -67 66 C-67 68.97 -67 71.94 -67 75 C-64.03 75 -61.06 75 -58 75 C-58 72.03 -58 69.06 -58 66 C-55.36 66 -52.72 66 -50 66 C-50 63.36 -50 60.72 -50 58 C-44.72 58 -39.44 58 -34 58 C-34 63.61 -34 69.22 -34 75 C-31.03 75 -28.06 75 -25 75 C-25 69.39 -25 63.78 -25 58 C-22.36 58 -19.72 58 -17 58 C-17 60.97 -17 63.94 -17 67 C-14.36 67 -11.72 67 -9 67 C-9 69.64 -9 72.28 -9 75 C-6.36 75 -3.72 75 -1 75 C-1 77.31 -1 79.62 -1 82 C-6.28 82 -11.56 82 -17 82 C-17 87.61 -17 93.22 -17 99 C-19.64 99 -22.28 99 -25 99 C-25 101.97 -25 104.94 -25 108 C-22.36 108 -19.72 108 -17 108 C-17 110.64 -17 113.28 -17 116 C-27.89 116 -38.78 116 -50 116 C-50 121.61 -50 127.22 -50 133 C-47.36 133 -44.72 133 -42 133 C-42 135.64 -42 138.28 -42 141 C-47.28 141 -52.56 141 -58 141 C-58 143.64 -58 146.28 -58 149 C-66.25 149 -74.5 149 -83 149 C-83 143.72 -83 138.44 -83 133 C-80.36 133 -77.72 133 -75 133 C-75 121.78 -75 110.56 -75 99 C-72.36 99 -69.72 99 -67 99 C-67 93.72 -67 88.44 -67 83 C-69.64 83 -72.28 83 -75 83 C-75 80.03 -75 77.06 -75 74 C-77.64 74 -80.28 74 -83 74 C-83 68.72 -83 63.44 -83 58 C-85.64 58 -88.28 58 -91 58 C-91 52.72 -91 47.44 -91 42 C-88.69 42 -86.38 42 -84 42 C-84 44.64 -84 47.28 -84 50 C-78.06 50 -72.12 50 -66 50 C-66 44.39 -66 38.78 -66 33 C-68.97 33 -71.94 33 -75 33 C-75 30.36 -75 27.72 -75 25 C-63.78 25 -52.56 25 -41 25 C-41 22.03 -41 19.06 -41 16 C-43.97 16 -46.94 16 -50 16 C-50 13.36 -50 10.72 -50 8 C-44.39 8 -38.78 8 -33 8 C-33 10.64 -33 13.28 -33 16 C-22.11 16 -11.22 16 0 16 C0 10.72 0 5.44 0 0 Z " fill="#080706" transform="translate(236,92)"/>
<path d="M0 0 C0.33 0 0.66 0 1 0 C1.0233836 15.65554307 1.04100599 31.3110814 1.05181217 46.96663761 C1.05696353 54.23614652 1.0639841 61.50564455 1.07543945 68.77514648 C1.08542176 75.11289539 1.09186187 81.45063642 1.09408849 87.78839296 C1.09538958 91.1426662 1.09843725 94.49691693 1.10573006 97.85118294 C1.11298966 101.60010233 1.11398885 105.3489751 1.11352539 109.09790039 C1.11712067 110.20417282 1.12071594 111.31044525 1.12442017 112.45024109 C1.11733924 117.74412441 0.93260311 122.78526957 0 128 C-2.97 128 -5.94 128 -9 128 C-9 130.64 -9 133.28 -9 136 C-6.36 136 -3.72 136 -1 136 C-1 144.25 -1 152.5 -1 161 C-3.64 161 -6.28 161 -9 161 C-9 158.36 -9 155.72 -9 153 C-11.64 153 -14.28 153 -17 153 C-17 155.64 -17 158.28 -17 161 C-19.64 161 -22.28 161 -25 161 C-25 163.64 -25 166.28 -25 169 C-30.94 169 -36.88 169 -43 169 C-43.495 160.09 -43.495 160.09 -44 151 C-44.99 151 -45.98 151 -47 151 C-49.39763185 153.39763185 -49.34280586 154.33273498 -49.625 157.625 C-49.74875 159.06875 -49.8725 160.5125 -50 162 C-55.61 162 -61.22 162 -67 162 C-67 161.67 -67 161.34 -67 161 C-61.72 161 -56.44 161 -51 161 C-51 158.36 -51 155.72 -51 153 C-53.64 153 -56.28 153 -59 153 C-59 147.39 -59 141.78 -59 136 C-48.11 136 -37.22 136 -26 136 C-26 133.36 -26 130.72 -26 128 C-28.64 128 -31.28 128 -34 128 C-34 125.03 -34 122.06 -34 119 C-31.36 119 -28.72 119 -26 119 C-26 113.39 -26 107.78 -26 102 C-20.72 102 -15.44 102 -10 102 C-10 99.69 -10 97.38 -10 95 C-12.64 95 -15.28 95 -18 95 C-18 92.36 -18 89.72 -18 87 C-20.64 87 -23.28 87 -26 87 C-26 84.03 -26 81.06 -26 78 C-28.64 78 -31.28 78 -34 78 C-34 83.61 -34 89.22 -34 95 C-36.97 95 -39.94 95 -43 95 C-43 89.39 -43 83.78 -43 78 C-48.28 78 -53.56 78 -59 78 C-59 80.64 -59 83.28 -59 86 C-61.64 86 -64.28 86 -67 86 C-67 88.97 -67 91.94 -67 95 C-69.97 95 -72.94 95 -76 95 C-76 92.03 -76 89.06 -76 86 C-73.36 86 -70.72 86 -68 86 C-68 75.11 -68 64.22 -68 53 C-62.06 53 -56.12 53 -50 53 C-50 58.28 -50 63.56 -50 69 C-47.69 69 -45.38 69 -43 69 C-43 63.72 -43 58.44 -43 53 C-40.03 53 -37.06 53 -34 53 C-34 50.36 -34 47.72 -34 45 C-31.03 45 -28.06 45 -25 45 C-25 50.28 -25 55.56 -25 61 C-22.69 61 -20.38 61 -18 61 C-18 55.72 -18 50.44 -18 45 C-15.03 45 -12.06 45 -9 45 C-9 50.28 -9 55.56 -9 61 C-6.36 61 -3.72 61 -1 61 C-1 47.47 -1 33.94 -1 20 C-3.64 20 -6.28 20 -9 20 C-9 25.28 -9 30.56 -9 36 C-19.89 36 -30.78 36 -42 36 C-42 33.36 -42 30.72 -42 28 C-36.39 28 -30.78 28 -25 28 C-25 25.36 -25 22.72 -25 20 C-22.36 20 -19.72 20 -17 20 C-17 17.36 -17 14.72 -17 12 C-14.36 12 -11.72 12 -9 12 C-9 9.03 -9 6.06 -9 3 C-6.03 3 -3.06 3 0 3 C0 2.01 0 1.02 0 0 Z " fill="#DBDAD7" transform="translate(245,72)"/>
<path d="M0 0 C10.56 0 21.12 0 32 0 C32 8.25 32 16.5 32 25 C30.515 24.505 30.515 24.505 29 24 C29 23.34 29 22.68 29 22 C27.68 22 26.36 22 25 22 C25 25.96 25 29.92 25 34 C22.36 34 19.72 34 17 34 C17 41.92 17 49.84 17 58 C14.03 58 11.06 58 8 58 C8 52.39 8 46.78 8 41 C10.64 41 13.28 41 16 41 C16 38.69 16 36.38 16 34 C10.39 34 4.78 34 -1 34 C-1 31.36 -1 28.72 -1 26 C-3.31 26 -5.62 26 -8 26 C-8 31.28 -8 36.56 -8 42 C-10.64 42 -13.28 42 -16 42 C-16 49.92 -16 57.84 -16 66 C-13.69 66 -11.38 66 -9 66 C-9 60.72 -9 55.44 -9 50 C-6.03 50 -3.06 50 0 50 C0 52.97 0 55.94 0 59 C2.64 59 5.28 59 8 59 C8 64.28 8 69.56 8 75 C5.36 75 2.72 75 0 75 C0 77.97 0 80.94 0 84 C5.28 84 10.56 84 16 84 C16 89.28 16 94.56 16 100 C13.36 100 10.72 100 8 100 C8 97.36 8 94.72 8 92 C-0.25 92 -8.5 92 -17 92 C-17 83.75 -17 75.5 -17 67 C-19.64 67 -22.28 67 -25 67 C-25 75.25 -25 83.5 -25 92 C-27.64 92 -30.28 92 -33 92 C-33 97.61 -33 103.22 -33 109 C-30.69 109 -28.38 109 -26 109 C-26 111.31 -26 113.62 -26 116 C-30.95 116 -35.9 116 -41 116 C-41 113.36 -41 110.72 -41 108 C-43.97 108 -46.94 108 -50 108 C-50 105.36 -50 102.72 -50 100 C-52.64 100 -55.28 100 -58 100 C-58 97.03 -58 94.06 -58 91 C-60.64 91 -63.28 91 -66 91 C-66 88.69 -66 86.38 -66 84 C-63.36 84 -60.72 84 -58 84 C-58 81.03 -58 78.06 -58 75 C-55.36 75 -52.72 75 -50 75 C-50 72.36 -50 69.72 -50 67 C-44.39 67 -38.78 67 -33 67 C-33 64.36 -33 61.72 -33 59 C-30.36 59 -27.72 59 -25 59 C-25 56.03 -25 53.06 -25 50 C-27.97 50 -30.94 50 -34 50 C-34 52.64 -34 55.28 -34 58 C-36.64 58 -39.28 58 -42 58 C-42 52.72 -42 47.44 -42 42 C-44.64 42 -47.28 42 -50 42 C-50 39.03 -50 36.06 -50 33 C-47.36 33 -44.72 33 -42 33 C-42 30.36 -42 27.72 -42 25 C-36.39 25 -30.78 25 -25 25 C-25 27.64 -25 30.28 -25 33 C-22.36 33 -19.72 33 -17 33 C-17 27.72 -17 22.44 -17 17 C-11.39 17 -5.78 17 0 17 C0 19.64 0 22.28 0 25 C2.64 25 5.28 25 8 25 C8 22.36 8 19.72 8 17 C10.97 17 13.94 17 17 17 C16.505 13.04 16.505 13.04 16 9 C10.72 8.67 5.44 8.34 0 8 C0 5.36 0 2.72 0 0 Z " fill="#E5E4E1" transform="translate(153,0)"/>
<path d="M0 0 C8.25 0 16.5 0 25 0 C25 2.64 25 5.28 25 8 C27.97 8 30.94 8 34 8 C34 5.36 34 2.72 34 0 C39.28 0 44.56 0 50 0 C50 2.64 50 5.28 50 8 C52.97 8 55.94 8 59 8 C59 10.97 59 13.94 59 17 C47.78 17 36.56 17 25 17 C25 19.64 25 22.28 25 25 C27.97 25 30.94 25 34 25 C34 30.61 34 36.22 34 42 C28.06 42 22.12 42 16 42 C16 39.36 16 36.72 16 34 C13.69 34 11.38 34 9 34 C9 39.28 9 44.56 9 50 C11.64 50 14.28 50 17 50 C17 55.28 17 60.56 17 66 C19.64 66 22.28 66 25 66 C25 71.61 25 77.22 25 83 C19.72 83 14.44 83 9 83 C9 85.64 9 88.28 9 91 C11.64 91 14.28 91 17 91 C17 93.97 17 96.94 17 100 C11.39 100 5.78 100 0 100 C0 99.67 0 99.34 0 99 C5.28 99 10.56 99 16 99 C16 96.69 16 94.38 16 92 C13.36 92 10.72 92 8 92 C8 89.36 8 86.72 8 84 C5.36 84 2.72 84 0 84 C0 78.39 0 72.78 0 67 C-2.64 67 -5.28 67 -8 67 C-8 64.03 -8 61.06 -8 58 C-10.64 58 -13.28 58 -16 58 C-16 60.97 -16 63.94 -16 67 C-18.97 67 -21.94 67 -25 67 C-25 64.03 -25 61.06 -25 58 C-27.64 58 -30.28 58 -33 58 C-33 55.36 -33 52.72 -33 50 C-35.64 50 -38.28 50 -41 50 C-41 41.75 -41 33.5 -41 25 C-43.97 25 -46.94 25 -50 25 C-50 27.64 -50 30.28 -50 33 C-52.64 33 -55.28 33 -58 33 C-58 27.72 -58 22.44 -58 17 C-55.03 17 -52.06 17 -49 17 C-49 14.36 -49 11.72 -49 9 C-43.72 9 -38.44 9 -33 9 C-33 11.64 -33 14.28 -33 17 C-30.36 17 -27.72 17 -25 17 C-25 19.64 -25 22.28 -25 25 C-16.75 25 -8.5 25 0 25 C0 22.03 0 19.06 0 16 C2.64 16 5.28 16 8 16 C8 13.69 8 11.38 8 9 C5.36 9 2.72 9 0 9 C0 6.03 0 3.06 0 0 Z " fill="#6F6D6C" transform="translate(136,100)"/>
<path d="M0 0 C19.47 0 38.94 0 59 0 C59.020625 9.549375 59.04125 19.09875 59.0625 28.9375 C59.071604 31.95640381 59.08070801 34.97530762 59.09008789 38.08569336 C59.0930068 40.46207637 59.09555541 42.83845988 59.09765625 45.21484375 C59.10277222 46.462052 59.10788818 47.70926025 59.11315918 48.9942627 C59.11334045 50.76041931 59.11334045 50.76041931 59.11352539 52.56225586 C59.115746 53.59039902 59.11796661 54.61854218 59.12025452 55.67784119 C59 58 59 58 58 59 C56.18944975 59.09376053 54.37522799 59.1174411 52.56225586 59.11352539 C50.79609924 59.11334412 50.79609924 59.11334412 48.9942627 59.11315918 C47.12345032 59.10548523 47.12345032 59.10548523 45.21484375 59.09765625 C44.07567505 59.09664917 42.93650635 59.09564209 41.76281738 59.09460449 C37.48770142 59.08935338 33.21259975 59.07539227 28.9375 59.0625 C19.388125 59.041875 9.83875 59.02125 0 59 C0 39.53 0 20.06 0 0 Z " fill="#DCDBD9" transform="translate(3,0)"/>
<path d="M0 0 C19.14 0 38.28 0 58 0 C58 19.47 58 38.94 58 59 C38.86 59 19.72 59 0 59 C0 39.53 0 20.06 0 0 Z " fill="#DDDCDA" transform="translate(3,183)"/>
<path d="M0 0 C0.99 0 1.98 0 3 0 C3 19.47 3 38.94 3 59 C31.71 58.505 31.71 58.505 61 58 C61.33 38.86 61.66 19.72 62 0 C80.81 0 99.62 0 119 0 C119 2.64 119 5.28 119 8 C116.36 8 113.72 8 111 8 C111 10.97 111 13.94 111 17 C108.36 17 105.72 17 103 17 C103 14.36 103 11.72 103 9 C97.39 9 91.78 9 86 9 C86 6.36 86 3.72 86 1 C80.72 1 75.44 1 70 1 C70 8.92 70 16.84 70 25 C72.64 25 75.28 25 78 25 C78 27.97 78 30.94 78 34 C75.03 34 72.06 34 69 34 C69 36.64 69 39.28 69 42 C71.97 42 74.94 42 78 42 C78 44.64 78 47.28 78 50 C75.36 50 72.72 50 70 50 C70 52.97 70 55.94 70 59 C72.64 59 75.28 59 78 59 C78 61.64 78 64.28 78 67 C61.5 67 45 67 28 67 C28 69.64 28 72.28 28 75 C30.97 75 33.94 75 37 75 C37 77.64 37 80.28 37 83 C39.31 83 41.62 83 44 83 C44 80.36 44 77.72 44 75 C57.86 75 71.72 75 86 75 C86 77.64 86 80.28 86 83 C80.39 83 74.78 83 69 83 C69 85.64 69 88.28 69 91 C66.69 91 64.38 91 62 91 C62 88.36 62 85.72 62 83 C59.03 83 56.06 83 53 83 C53 85.97 53 88.94 53 92 C55.64 92 58.28 92 61 92 C61 94.31 61 96.62 61 99 C47.8 99 34.6 99 21 99 C21 96.69 21 94.38 21 92 C23.31 92 25.62 92 28 92 C28 89.03 28 86.06 28 83 C22.72 83 17.44 83 12 83 C12 77.72 12 72.44 12 67 C8.7 67 5.4 67 2 67 C2 77.89 2 88.78 2 100 C1.34 100 0.68 100 0 100 C0 67 0 34 0 0 Z " fill="#E4E3E0" transform="translate(0,0)"/>
<path d="M0 0 C2.64 0 5.28 0 8 0 C8 5.28 8 10.56 8 16 C10.64 16 13.28 16 16 16 C16 13.36 16 10.72 16 8 C18.97 8 21.94 8 25 8 C25 16.25 25 24.5 25 33 C27.64 33 30.28 33 33 33 C33 35.64 33 38.28 33 41 C35.64 41 38.28 41 41 41 C41 43.97 41 46.94 41 50 C43.97 50 46.94 50 50 50 C50 47.03 50 44.06 50 41 C52.64 41 55.28 41 58 41 C58 43.97 58 46.94 58 50 C60.64 50 63.28 50 66 50 C66 55.61 66 61.22 66 67 C68.64 67 71.28 67 74 67 C74 69.64 74 72.28 74 75 C76.64 75 79.28 75 82 75 C82 77.31 82 79.62 82 82 C76.72 82 71.44 82 66 82 C66 84.97 66 87.94 66 91 C68.64 91 71.28 91 74 91 C74 93.64 74 96.28 74 99 C71.36 99 68.72 99 66 99 C66 104.61 66 110.22 66 116 C63.36 116 60.72 116 58 116 C58 113.36 58 110.72 58 108 C55.03 108 52.06 108 49 108 C49 105.03 49 102.06 49 99 C51.97 99 54.94 99 58 99 C58 96.36 58 93.72 58 91 C52.39 91 46.78 91 41 91 C41 88.36 41 85.72 41 83 C43.97 83 46.94 83 50 83 C50 74.75 50 66.5 50 58 C47.03 58 44.06 58 41 58 C41 63.28 41 68.56 41 74 C38.36 74 35.72 74 33 74 C33 71.36 33 68.72 33 66 C30.36 66 27.72 66 25 66 C25 63.36 25 60.72 25 58 C27.64 58 30.28 58 33 58 C33 55.03 33 52.06 33 49 C30.36 49 27.72 49 25 49 C25 46.36 25 43.72 25 41 C22.36 41 19.72 41 17 41 C17 35.72 17 30.44 17 25 C5.78 25 -5.44 25 -17 25 C-17 22.03 -17 19.06 -17 16 C-14.03 16 -11.06 16 -8 16 C-8 13.36 -8 10.72 -8 8 C-5.36 8 -2.72 8 0 8 C0 5.36 0 2.72 0 0 Z " fill="#070606" transform="translate(70,117)"/>
<path d="M0 0 C11.22 0 22.44 0 34 0 C34 2.64 34 5.28 34 8 C35.14339844 7.98839844 36.28679687 7.97679687 37.46484375 7.96484375 C38.95572754 7.95546712 40.44661309 7.94636679 41.9375 7.9375 C43.06961914 7.92493164 43.06961914 7.92493164 44.22460938 7.91210938 C46.14994313 7.90347559 48.07535581 7.94775667 50 8 C51 9 51 9 51.09765625 10.84765625 C51.06510417 12.8984375 51.03255208 14.94921875 51 17 C48.03 17 45.06 17 42 17 C42 19.64 42 22.28 42 25 C39.36 25 36.72 25 34 25 C34 22.36 34 19.72 34 17 C28.39 17 22.78 17 17 17 C17 22.28 17 27.56 17 33 C14.36 33 11.72 33 9 33 C9 30.36 9 27.72 9 25 C3.39 25 -2.22 25 -8 25 C-8 27.64 -8 30.28 -8 33 C-10.64 33 -13.28 33 -16 33 C-16 35.97 -16 38.94 -16 42 C-18.97 42 -21.94 42 -25 42 C-25 47.28 -25 52.56 -25 58 C-27.31 58 -29.62 58 -32 58 C-32 55.36 -32 52.72 -32 50 C-34.97 50 -37.94 50 -41 50 C-41 47.36 -41 44.72 -41 42 C-43.97 42 -46.94 42 -50 42 C-50 39.36 -50 36.72 -50 34 C-47.03 34 -44.06 34 -41 34 C-41 31.03 -41 28.06 -41 25 C-43.64 25 -46.28 25 -49 25 C-49 17.08 -49 9.16 -49 1 C-43.72 1 -38.44 1 -33 1 C-33 3.64 -33 6.28 -33 9 C-27.39 9 -21.78 9 -16 9 C-16 11.64 -16 14.28 -16 17 C-13.36 17 -10.72 17 -8 17 C-8 14.03 -8 11.06 -8 8 C-5.36 8 -2.72 8 0 8 C0 5.36 0 2.72 0 0 Z " fill="#060605" transform="translate(119,0)"/>
<path d="M0 0 C3.3 0 6.6 0 10 0 C10 5.28 10 10.56 10 16 C15.28 16 20.56 16 26 16 C26 18.97 26 21.94 26 25 C23.69 25 21.38 25 19 25 C19.185625 25.598125 19.37125 26.19625 19.5625 26.8125 C20 29 20 29 19 32 C32.2 32 45.4 32 59 32 C59 32.33 59 32.66 59 33 C45.47 33 31.94 33 18 33 C18 38.28 18 43.56 18 49 C20.64 49 23.28 49 26 49 C26 46.69 26 44.38 26 42 C36.89 42 47.78 42 59 42 C59 44.31 59 46.62 59 49 C56.36 49 53.72 49 51 49 C51 51.97 51 54.94 51 58 C53.64 58 56.28 58 59 58 C59 60.64 59 63.28 59 66 C56.36 66 53.72 66 51 66 C51 68.97 51 71.94 51 75 C61.89 75 72.78 75 84 75 C84 80.28 84 85.56 84 91 C81.36 91 78.72 91 76 91 C76 88.36 76 85.72 76 83 C65.11 83 54.22 83 43 83 C43 80.03 43 77.06 43 74 C37.39 74 31.78 74 26 74 C26 76.97 26 79.94 26 83 C23.36 83 20.72 83 18 83 C18 77.72 18 72.44 18 67 C26.25 67 34.5 67 43 67 C43 61.06 43 55.12 43 49 C40.03 49 37.06 49 34 49 C34 51.97 34 54.94 34 58 C23.11 58 12.22 58 1 58 C1 60.97 1 63.94 1 67 C0.01 66.67 -0.98 66.34 -2 66 C-2 55.11 -2 44.22 -2 33 C-1.34 33 -0.68 33 0 33 C0 22.11 0 11.22 0 0 Z " fill="#E4E3E0" transform="translate(2,67)"/>
<path d="M0 0 C2.64 0 5.28 0 8 0 C8 5.28 8 10.56 8 16 C5.36 16 2.72 16 0 16 C0 27.22 0 38.44 0 50 C-2.64 50 -5.28 50 -8 50 C-8 55.28 -8 60.56 -8 66 C0.25 66 8.5 66 17 66 C17 63.69 17 61.38 17 59 C22.61 59 28.22 59 34 59 C33.896875 57.5975 33.79375 56.195 33.6875 54.75 C33.65706817 50.88515746 33.65925455 50.34926408 36.5 47.4375 C37.325 46.963125 38.15 46.48875 39 46 C39.66 46.33 40.32 46.66 41 47 C41 53.27 41 59.54 41 66 C46.94 66 52.88 66 59 66 C59 63.36 59 60.72 59 58 C61.64 58 64.28 58 67 58 C67 55.36 67 52.72 67 50 C69.64 50 72.28 50 75 50 C75 52.64 75 55.28 75 58 C77.64 58 80.28 58 83 58 C83 49.75 83 41.5 83 33 C80.36 33 77.72 33 75 33 C75 30.36 75 27.72 75 25 C77.97 25 80.94 25 84 25 C84 22.69 84 20.38 84 18 C84.33 18 84.66 18 85 18 C85 34.83 85 51.66 85 69 C51.67 69 18.34 69 -16 69 C-16 68.34 -16 67.68 -16 67 C-18.97 67 -21.94 67 -25 67 C-25 58.42 -25 49.84 -25 41 C-22.36 41 -19.72 41 -17 41 C-17 38.36 -17 35.72 -17 33 C-19.64 33 -22.28 33 -25 33 C-25 30.36 -25 27.72 -25 25 C-19.39 25 -13.78 25 -8 25 C-8 22.03 -8 19.06 -8 16 C-10.64 16 -13.28 16 -16 16 C-16 13.36 -16 10.72 -16 8 C-10.72 8 -5.44 8 0 8 C0 5.36 0 2.72 0 0 Z M-14 57 C-14.99 57.495 -14.99 57.495 -16 58 C-16 60.97 -16 63.94 -16 67 C-14.68 67.33 -13.36 67.66 -12 68 C-11.67 67.34 -11.34 66.68 -11 66 C-10.34 66 -9.68 66 -9 66 C-9 63.69 -9 61.38 -9 59 C-10.32 59 -11.64 59 -13 59 C-13.33 58.34 -13.66 57.68 -14 57 Z " fill="#E0DFDD" transform="translate(161,175)"/>
<path d="M0 0 C10.56 0 21.12 0 32 0 C32 8.25 32 16.5 32 25 C31.01 24.67 30.02 24.34 29 24 C29 23.34 29 22.68 29 22 C27.68 22 26.36 22 25 22 C25 25.96 25 29.92 25 34 C22.36 34 19.72 34 17 34 C17 41.92 17 49.84 17 58 C14.03 58 11.06 58 8 58 C8 52.39 8 46.78 8 41 C10.64 41 13.28 41 16 41 C16 38.69 16 36.38 16 34 C10.39 34 4.78 34 -1 34 C-1 31.36 -1 28.72 -1 26 C-3.31 26 -5.62 26 -8 26 C-8 31.28 -8 36.56 -8 42 C-10.64 42 -13.28 42 -16 42 C-16 49.92 -16 57.84 -16 66 C-13.69 66 -11.38 66 -9 66 C-9 60.72 -9 55.44 -9 50 C-6.03 50 -3.06 50 0 50 C0 52.97 0 55.94 0 59 C2.64 59 5.28 59 8 59 C8 64.28 8 69.56 8 75 C5.36 75 2.72 75 0 75 C0 77.97 0 80.94 0 84 C5.28 84 10.56 84 16 84 C16 89.28 16 94.56 16 100 C13.36 100 10.72 100 8 100 C8 97.36 8 94.72 8 92 C-0.25 92 -8.5 92 -17 92 C-17 75.17 -17 58.34 -17 41 C-14.36 41 -11.72 41 -9 41 C-9 35.72 -9 30.44 -9 25 C-3.39 25 2.22 25 8 25 C8 22.36 8 19.72 8 17 C10.97 17 13.94 17 17 17 C16.505 13.04 16.505 13.04 16 9 C10.72 8.67 5.44 8.34 0 8 C0 5.36 0 2.72 0 0 Z " fill="#61605E" transform="translate(153,0)"/>
<path d="M0 0 C2.97 0 5.94 0 9 0 C9 5.94 9 11.88 9 18 C0.75 18 -7.5 18 -16 18 C-16 23.28 -16 28.56 -16 34 C-13.36 34 -10.72 34 -8 34 C-8 31.03 -8 28.06 -8 25 C-2.39 25 3.22 25 9 25 C9 27.97 9 30.94 9 34 C6.03 34 3.06 34 0 34 C0 39.61 0 45.22 0 51 C8.25 51 16.5 51 25 51 C25 53.64 25 56.28 25 59 C5.86 59 -13.28 59 -33 59 C-33 47.78 -33 36.56 -33 25 C-30.36 25 -27.72 25 -25 25 C-25 22.69 -25 20.38 -25 18 C-27.64 18 -30.28 18 -33 18 C-33 15.03 -33 12.06 -33 9 C-22.11 9 -11.22 9 0 9 C0 6.03 0 3.06 0 0 Z " fill="#0E0D0D" transform="translate(36,116)"/>
<path d="M0 0 C13.86 0 27.72 0 42 0 C42 13.86 42 27.72 42 42 C28.14 42 14.28 42 0 42 C0 28.14 0 14.28 0 0 Z " fill="#DCDBD9" transform="translate(194,8)"/>
<path d="M0 0 C19.47 0 38.94 0 59 0 C59.020625 9.549375 59.04125 19.09875 59.0625 28.9375 C59.071604 31.95640381 59.08070801 34.97530762 59.09008789 38.08569336 C59.0930068 40.46207637 59.09555541 42.83845988 59.09765625 45.21484375 C59.10277222 46.462052 59.10788818 47.70926025 59.11315918 48.9942627 C59.11334045 50.76041931 59.11334045 50.76041931 59.11352539 52.56225586 C59.115746 53.59039902 59.11796661 54.61854218 59.12025452 55.67784119 C59 58 59 58 58 59 C56.18944975 59.09376053 54.37522799 59.1174411 52.56225586 59.11352539 C50.79609924 59.11334412 50.79609924 59.11334412 48.9942627 59.11315918 C47.12345032 59.10548523 47.12345032 59.10548523 45.21484375 59.09765625 C44.07567505 59.09664917 42.93650635 59.09564209 41.76281738 59.09460449 C37.48770142 59.08935338 33.21259975 59.07539227 28.9375 59.0625 C19.388125 59.041875 9.83875 59.02125 0 59 C0 39.53 0 20.06 0 0 Z M8 8 C8 21.86 8 35.72 8 50 C21.86 50 35.72 50 50 50 C50 36.14 50 22.28 50 8 C36.14 8 22.28 8 8 8 Z " fill="#111010" transform="translate(3,0)"/>
<path d="M0 0 C19.14 0 38.28 0 58 0 C58 19.47 58 38.94 58 59 C38.86 59 19.72 59 0 59 C0 39.53 0 20.06 0 0 Z M8 8 C8 21.86 8 35.72 8 50 C21.86 50 35.72 50 50 50 C50 36.14 50 22.28 50 8 C36.14 8 22.28 8 8 8 Z " fill="#0D0B0B" transform="translate(3,183)"/>
<path d="M0 0 C19.14 0 38.28 0 58 0 C58 19.47 58 38.94 58 59 C38.86 59 19.72 59 0 59 C0 39.53 0 20.06 0 0 Z M8 8 C8 21.86 8 35.72 8 50 C21.86 50 35.72 50 50 50 C50 36.14 50 22.28 50 8 C36.14 8 22.28 8 8 8 Z " fill="#0C0B0B" transform="translate(186,0)"/>
<path d="M0 0 C5.61 0 11.22 0 17 0 C17 5.28 17 10.56 17 16 C19.64 16 22.28 16 25 16 C25 13.36 25 10.72 25 8 C27.97 8 30.94 8 34 8 C34 10.97 34 13.94 34 17 C31.36 17 28.72 17 26 17 C26 19.64 26 22.28 26 25 C20.39 25 14.78 25 9 25 C9 27.64 9 30.28 9 33 C6.36 33 3.72 33 1 33 C1 35.64 1 38.28 1 41 C-1.97 41 -4.94 41 -8 41 C-8 38.36 -8 35.72 -8 33 C-21.86 33 -35.72 33 -50 33 C-50 35.64 -50 38.28 -50 41 C-52.31 41 -54.62 41 -57 41 C-57 38.36 -57 35.72 -57 33 C-59.97 33 -62.94 33 -66 33 C-66 30.36 -66 27.72 -66 25 C-49.5 25 -33 25 -16 25 C-16 22.36 -16 19.72 -16 17 C-18.64 17 -21.28 17 -24 17 C-24 14.03 -24 11.06 -24 8 C-18.39 8 -12.78 8 -7 8 C-7 10.64 -7 13.28 -7 16 C-4.69 16 -2.38 16 0 16 C0 10.72 0 5.44 0 0 Z " fill="#706F6E" transform="translate(94,42)"/>
<path d="M0 0 C2.31 0 4.62 0 7 0 C7 2.64 7 5.28 7 8 C12.61 8 18.22 8 24 8 C24 10.31 24 12.62 24 15 C21.36 15 18.72 15 16 15 C16 20.61 16 26.22 16 32 C18.97 32 21.94 32 25 32 C25 26.72 25 21.44 25 16 C27.64 16 30.28 16 33 16 C33 24.25 33 32.5 33 41 C30.36 41 27.72 41 25 41 C25 46.28 25 51.56 25 57 C27.64 57 30.28 57 33 57 C33 59.64 33 62.28 33 65 C35.64 65 38.28 65 41 65 C41 62.36 41 59.72 41 57 C43.97 57 46.94 57 50 57 C50 59.97 50 62.94 50 66 C47.03 66 44.06 66 41 66 C41 68.64 41 71.28 41 74 C35.72 74 30.44 74 25 74 C25 76.64 25 79.28 25 82 C22.03 82 19.06 82 16 82 C16 79.36 16 76.72 16 74 C18.64 74 21.28 74 24 74 C24 68.72 24 63.44 24 58 C18.72 58 13.44 58 8 58 C8 55.03 8 52.06 8 49 C10.64 49 13.28 49 16 49 C16 43.72 16 38.44 16 33 C13.36 33 10.72 33 8 33 C8 30.03 8 27.06 8 24 C5.03 24 2.06 24 -1 24 C-1 29.28 -1 34.56 -1 40 C-3.31 40 -5.62 40 -8 40 C-8 32.08 -8 24.16 -8 16 C-5.36 16 -2.72 16 0 16 C0 10.72 0 5.44 0 0 Z " fill="#0A0909" transform="translate(145,26)"/>
<path d="M0 0 C8.25 0 16.5 0 25 0 C25 2.64 25 5.28 25 8 C27.97 8 30.94 8 34 8 C34 5.36 34 2.72 34 0 C39.28 0 44.56 0 50 0 C50 2.64 50 5.28 50 8 C52.97 8 55.94 8 59 8 C59 10.97 59 13.94 59 17 C47.78 17 36.56 17 25 17 C25 19.64 25 22.28 25 25 C27.64 25 30.28 25 33 25 C33 30.28 33 35.56 33 41 C27.72 41 22.44 41 17 41 C17 38.36 17 35.72 17 33 C14.36 33 11.72 33 9 33 C9 30.36 9 27.72 9 25 C6.03 25 3.06 25 0 25 C0 22.03 0 19.06 0 16 C2.64 16 5.28 16 8 16 C8 13.69 8 11.38 8 9 C5.36 9 2.72 9 0 9 C0 6.03 0 3.06 0 0 Z " fill="#DDDCDA" transform="translate(136,100)"/>
<path d="M0 0 C2.64 0 5.28 0 8 0 C8 2.97 8 5.94 8 9 C13.28 9 18.56 9 24 9 C24 11.64 24 14.28 24 17 C26.64 17 29.28 17 32 17 C32 24.92 32 32.84 32 41 C21.44 41 10.88 41 0 41 C0 27.47 0 13.94 0 0 Z " fill="#060605" transform="translate(70,175)"/>
<path d="M0 0 C2.64 0 5.28 0 8 0 C8 8.25 8 16.5 8 25 C16.25 25 24.5 25 33 25 C33 27.64 33 30.28 33 33 C24.75 33 16.5 33 8 33 C8 35.97 8 38.94 8 42 C10.64 42 13.28 42 16 42 C16 44.31 16 46.62 16 49 C13.36 49 10.72 49 8 49 C8 51.97 8 54.94 8 58 C-0.25 58 -8.5 58 -17 58 C-17 55.36 -17 52.72 -17 50 C-11.39 50 -5.78 50 0 50 C0 47.03 0 44.06 0 41 C-2.64 41 -5.28 41 -8 41 C-8 35.72 -8 30.44 -8 25 C-5.36 25 -2.72 25 0 25 C0 16.75 0 8.5 0 0 Z " fill="#060504" transform="translate(128,67)"/>
<path d="M0 0 C5.28 0 10.56 0 16 0 C16 2.64 16 5.28 16 8 C18.64 8 21.28 8 24 8 C24 10.64 24 13.28 24 16 C32.25 16 40.5 16 49 16 C49 18.64 49 21.28 49 24 C43.39 24 37.78 24 32 24 C32 26.64 32 29.28 32 32 C29.69 32 27.38 32 25 32 C25 29.36 25 26.72 25 24 C22.03 24 19.06 24 16 24 C16 29.61 16 35.22 16 41 C13.36 41 10.72 41 8 41 C8 32.75 8 24.5 8 16 C5.03 16 2.06 16 -1 16 C-1 18.64 -1 21.28 -1 24 C-3.64 24 -6.28 24 -9 24 C-9 18.72 -9 13.44 -9 8 C-6.03 8 -3.06 8 0 8 C0 5.36 0 2.72 0 0 Z " fill="#E7E6E4" transform="translate(87,109)"/>
<path d="M0 0 C0.33 0 0.66 0 1 0 C1 16.83 1 33.66 1 51 C-28.7 51 -58.4 51 -89 51 C-89 50.34 -89 49.68 -89 49 C-81.74 49 -74.48 49 -67 49 C-67 46.36 -67 43.72 -67 41 C-61.39 41 -55.78 41 -50 41 C-50.103125 39.5975 -50.20625 38.195 -50.3125 36.75 C-50.34293183 32.88515746 -50.34074545 32.34926408 -47.5 29.4375 C-46.675 28.963125 -45.85 28.48875 -45 28 C-44.34 28.33 -43.68 28.66 -43 29 C-43 35.27 -43 41.54 -43 48 C-37.06 48 -31.12 48 -25 48 C-25 45.36 -25 42.72 -25 40 C-22.36 40 -19.72 40 -17 40 C-17 37.36 -17 34.72 -17 32 C-14.36 32 -11.72 32 -9 32 C-9 34.64 -9 37.28 -9 40 C-6.36 40 -3.72 40 -1 40 C-1 31.75 -1 23.5 -1 15 C-3.64 15 -6.28 15 -9 15 C-9 12.36 -9 9.72 -9 7 C-6.03 7 -3.06 7 0 7 C0 4.69 0 2.38 0 0 Z " fill="#DFDEDC" transform="translate(245,193)"/>
<path d="M0 0 C11.22 0 22.44 0 34 0 C34 2.64 34 5.28 34 8 C35.14339844 7.98839844 36.28679687 7.97679687 37.46484375 7.96484375 C38.95572754 7.95546712 40.44661309 7.94636679 41.9375 7.9375 C43.06961914 7.92493164 43.06961914 7.92493164 44.22460938 7.91210938 C46.14994313 7.90347559 48.07535581 7.94775667 50 8 C51 9 51 9 51.09765625 10.84765625 C51.06510417 12.8984375 51.03255208 14.94921875 51 17 C48.03 17 45.06 17 42 17 C42 19.64 42 22.28 42 25 C39.36 25 36.72 25 34 25 C34 22.36 34 19.72 34 17 C22.78 17 11.56 17 0 17 C0 14.36 0 11.72 0 9 C-2.31 9 -4.62 9 -7 9 C-7 11.64 -7 14.28 -7 17 C-7.33 17 -7.66 17 -8 17 C-8 14.03 -8 11.06 -8 8 C-5.36 8 -2.72 8 0 8 C0 5.36 0 2.72 0 0 Z " fill="#6D6B6A" transform="translate(119,0)"/>
<path d="M0 0 C2.64 0 5.28 0 8 0 C8 8.25 8 16.5 8 25 C5.36 25 2.72 25 0 25 C0 22.36 0 19.72 0 17 C-2.64 17 -5.28 17 -8 17 C-8 19.64 -8 22.28 -8 25 C-10.64 25 -13.28 25 -16 25 C-16 27.64 -16 30.28 -16 33 C-21.61 33 -27.22 33 -33 33 C-33 25.08 -33 17.16 -33 9 C-30.36 9 -27.72 9 -25 9 C-25 11.31 -25 13.62 -25 16 C-22.36 16 -19.72 16 -17 16 C-17 13.36 -17 10.72 -17 8 C-11.39 8 -5.78 8 0 8 C0 5.36 0 2.72 0 0 Z " fill="#0D0B0B" transform="translate(236,208)"/>
<path d="M0 0 C10.56 0 21.12 0 32 0 C32 8.25 32 16.5 32 25 C31.01 24.67 30.02 24.34 29 24 C29 23.34 29 22.68 29 22 C27.68 22 26.36 22 25 22 C25 22.99 25 23.98 25 25 C22.03 25 19.06 25 16 25 C16 27.64 16 30.28 16 33 C10.72 33 5.44 33 0 33 C0 30.36 0 27.72 0 25 C2.64 25 5.28 25 8 25 C8 22.36 8 19.72 8 17 C10.97 17 13.94 17 17 17 C16.67 14.36 16.34 11.72 16 9 C10.72 8.67 5.44 8.34 0 8 C0 5.36 0 2.72 0 0 Z " fill="#E9E8E6" transform="translate(153,0)"/>
<path d="M0 0 C2.64 0 5.28 0 8 0 C8 5.28 8 10.56 8 16 C10.64 16 13.28 16 16 16 C16 21.61 16 27.22 16 33 C10.72 33 5.44 33 0 33 C0 35.64 0 38.28 0 41 C2.64 41 5.28 41 8 41 C8 43.97 8 46.94 8 50 C2.39 50 -3.22 50 -9 50 C-9 49.67 -9 49.34 -9 49 C-3.72 49 1.56 49 7 49 C7 46.69 7 44.38 7 42 C4.36 42 1.72 42 -1 42 C-1 39.36 -1 36.72 -1 34 C-3.64 34 -6.28 34 -9 34 C-9 28.39 -9 22.78 -9 17 C-11.64 17 -14.28 17 -17 17 C-17 14.03 -17 11.06 -17 8 C-14.36 8 -11.72 8 -9 8 C-9 10.64 -9 13.28 -9 16 C-6.36 16 -3.72 16 -1 16 C-0.67 10.72 -0.34 5.44 0 0 Z " fill="#747271" transform="translate(145,150)"/>
<path d="M0 0 C0.33 0 0.66 0 1 0 C1 20.13 1 40.26 1 61 C0.67 61 0.34 61 0 61 C0 47.47 0 33.94 0 20 C-2.97 20 -5.94 20 -9 20 C-9 25.28 -9 30.56 -9 36 C-19.89 36 -30.78 36 -42 36 C-42 33.36 -42 30.72 -42 28 C-36.39 28 -30.78 28 -25 28 C-25 25.36 -25 22.72 -25 20 C-22.36 20 -19.72 20 -17 20 C-17 17.36 -17 14.72 -17 12 C-14.36 12 -11.72 12 -9 12 C-9 9.03 -9 6.06 -9 3 C-6.03 3 -3.06 3 0 3 C0 2.01 0 1.02 0 0 Z " fill="#E6E5E3" transform="translate(245,72)"/>
<path d="M0 0 C8.58 0 17.16 0 26 0 C26 8.25 26 16.5 26 25 C17.42 25 8.84 25 0 25 C0 16.75 0 8.5 0 0 Z " fill="#0E0D0D" transform="translate(202,17)"/>
<path d="M0 0 C5.61 0 11.22 0 17 0 C17 5.61 17 11.22 17 17 C19.64 17 22.28 17 25 17 C25 19.64 25 22.28 25 25 C19.72 25 14.44 25 9 25 C9 27.64 9 30.28 9 33 C6.36 33 3.72 33 1 33 C1 35.97 1 38.94 1 42 C-1.97 42 -4.94 42 -8 42 C-8 39.03 -8 36.06 -8 33 C-5.36 33 -2.72 33 0 33 C0 22.11 0 11.22 0 0 Z " fill="#E7E6E4" transform="translate(177,125)"/>
<path d="M0 0 C2.64 0 5.28 0 8 0 C8 5.28 8 10.56 8 16 C10.64 16 13.28 16 16 16 C16 13.36 16 10.72 16 8 C18.97 8 21.94 8 25 8 C25 16.25 25 24.5 25 33 C24.67 33 24.34 33 24 33 C23.67 28.71 23.34 24.42 23 20 C22.67 20.66 22.34 21.32 22 22 C21.01 22.33 20.02 22.66 19 23 C18.67 23.66 18.34 24.32 18 25 C6.45 25 -5.1 25 -17 25 C-17 22.03 -17 19.06 -17 16 C-14.03 16 -11.06 16 -8 16 C-8 13.36 -8 10.72 -8 8 C-5.36 8 -2.72 8 0 8 C0 5.36 0 2.72 0 0 Z " fill="#111010" transform="translate(70,117)"/>
<path d="M0 0 C8.25 0 16.5 0 25 0 C25 8.25 25 16.5 25 25 C16.75 25 8.5 25 0 25 C0 16.75 0 8.5 0 0 Z " fill="#080707" transform="translate(20,200)"/>
<path d="M0 0 C8.25 0 16.5 0 25 0 C25 8.25 25 16.5 25 25 C16.75 25 8.5 25 0 25 C0 16.75 0 8.5 0 0 Z " fill="#E2E1DF" transform="translate(178,175)"/>
<path d="M0 0 C8.25 0 16.5 0 25 0 C25 8.25 25 16.5 25 25 C16.75 25 8.5 25 0 25 C0 16.75 0 8.5 0 0 Z " fill="#080707" transform="translate(20,17)"/>
<path d="M0 0 C2.31 0 4.62 0 7 0 C7 2.64 7 5.28 7 8 C12.61 8 18.22 8 24 8 C24 10.31 24 12.62 24 15 C21.36 15 18.72 15 16 15 C16 20.61 16 26.22 16 32 C13.36 32 10.72 32 8 32 C8 29.36 8 26.72 8 24 C5.03 24 2.06 24 -1 24 C-1 29.28 -1 34.56 -1 40 C-3.31 40 -5.62 40 -8 40 C-8 32.08 -8 24.16 -8 16 C-5.36 16 -2.72 16 0 16 C0 10.72 0 5.44 0 0 Z " fill="#040302" transform="translate(145,26)"/>
<path d="M0 0 C2.64 0 5.28 0 8 0 C8 5.28 8 10.56 8 16 C-5.86 16 -19.72 16 -34 16 C-34 18.64 -34 21.28 -34 24 C-36.31 24 -38.62 24 -41 24 C-41 21.36 -41 18.72 -41 16 C-43.97 16 -46.94 16 -50 16 C-50 13.36 -50 10.72 -50 8 C-33.5 8 -17 8 0 8 C0 5.36 0 2.72 0 0 Z " fill="#060404" transform="translate(78,59)"/>
<path d="M0 0 C2.31 0 4.62 0 7 0 C7 7.92 7 15.84 7 24 C4.69 24 2.38 24 0 24 C0 21.36 0 18.72 0 16 C-11.22 16 -22.44 16 -34 16 C-34 18.64 -34 21.28 -34 24 C-36.64 24 -39.28 24 -42 24 C-42 18.72 -42 13.44 -42 8 C-28.14 8 -14.28 8 0 8 C0 5.36 0 2.72 0 0 Z " fill="#060404" transform="translate(62,92)"/>
<path d="M0 0 C0.33 0 0.66 0 1 0 C1.14577422 5.47273633 1.28798399 10.94555112 1.42724609 16.41845703 C1.47482928 18.2703689 1.52329566 20.12225835 1.57275391 21.97412109 C1.83983095 31.99768599 2.05265158 42.01955303 2.09375 52.046875 C2.1002356 52.87471497 2.10672119 53.70255493 2.11340332 54.55548096 C2.11648842 58.50801366 1.98266162 62.14120823 1 66 C-1.97 66 -4.94 66 -8 66 C-8 60.39 -8 54.78 -8 49 C-13.28 49 -18.56 49 -24 49 C-24 46.69 -24 44.38 -24 42 C-21.36 42 -18.72 42 -16 42 C-16 36.39 -16 30.78 -16 25 C-13.36 25 -10.72 25 -8 25 C-8 30.28 -8 35.56 -8 41 C-5.36 41 -2.72 41 0 41 C0 27.47 0 13.94 0 0 Z " fill="#DEDDDA" transform="translate(244,92)"/>
<path d="M0 0 C2.64 0 5.28 0 8 0 C8.33 2.64 8.66 5.28 9 8 C11.31 8.33 13.62 8.66 16 9 C16.33 11.31 16.66 13.62 17 16 C22.28 16.33 27.56 16.66 33 17 C33 22.28 33 27.56 33 33 C30.36 33 27.72 33 25 33 C25 30.36 25 27.72 25 25 C16.75 25 8.5 25 0 25 C0 16.75 0 8.5 0 0 Z " fill="#E2E0DF" transform="translate(136,67)"/>
<path d="M0 0 C10.89 0 21.78 0 33 0 C33 2.64 33 5.28 33 8 C35.64 8 38.28 8 41 8 C41 10.64 41 13.28 41 16 C33.08 16 25.16 16 17 16 C17 13.36 17 10.72 17 8 C11.39 8 5.78 8 0 8 C0 5.36 0 2.72 0 0 Z " fill="#060404" transform="translate(45,150)"/>
<path d="M0 0 C5.28 0 10.56 0 16 0 C16 2.64 16 5.28 16 8 C18.97 8 21.94 8 25 8 C25 10.97 25 13.94 25 17 C13.78 17 2.56 17 -9 17 C-9 16.01 -9 15.02 -9 14 C-10.32 14 -11.64 14 -13 14 C-11.5 11 -11.5 11 -10 8 C-6.7 8 -3.4 8 0 8 C0 5.36 0 2.72 0 0 Z " fill="#D8D7D6" transform="translate(170,100)"/>
<path d="M0 0 C0.33 0 0.66 0 1 0 C1 8.25 1 16.5 1 25 C-1.64 25 -4.28 25 -7 25 C-7 30.28 -7 35.56 -7 41 C-4.36 41 -1.72 41 1 41 C1 43.64 1 46.28 1 49 C3.64 49 6.28 49 9 49 C9 46.36 9 43.72 9 41 C11.97 41 14.94 41 18 41 C18 43.97 18 46.94 18 50 C15.03 50 12.06 50 9 50 C9 52.64 9 55.28 9 58 C3.72 58 -1.56 58 -7 58 C-7 60.64 -7 63.28 -7 66 C-9.97 66 -12.94 66 -16 66 C-16 63.36 -16 60.72 -16 58 C-13.36 58 -10.72 58 -8 58 C-8 52.72 -8 47.44 -8 42 C-13.28 42 -18.56 42 -24 42 C-24 41.67 -24 41.34 -24 41 C-18.72 41 -13.44 41 -8 41 C-8 35.39 -8 29.78 -8 24 C-5.36 24 -2.72 24 0 24 C0 16.08 0 8.16 0 0 Z " fill="#6D6C6A" transform="translate(177,42)"/>
<path d="M0 0 C2.97 0 5.94 0 9 0 C9 5.28 9 10.56 9 16 C14.28 16 19.56 16 25 16 C25 18.97 25 21.94 25 25 C19.72 25 14.44 25 9 25 C9 27.64 9 30.28 9 33 C6.03 33 3.06 33 0 33 C0 22.11 0 11.22 0 0 Z " fill="#151413" transform="translate(3,67)"/>
<path d="M0 0 C16.5 0 33 0 50 0 C50 2.64 50 5.28 50 8 C47.36 8 44.72 8 42 8 C42 10.97 42 13.94 42 17 C39.36 17 36.72 17 34 17 C34 14.36 34 11.72 34 9 C28.39 9 22.78 9 17 9 C17 6.36 17 3.72 17 1 C11.72 1 6.44 1 1 1 C1 8.92 1 16.84 1 25 C0.67 25 0.34 25 0 25 C0 16.75 0 8.5 0 0 Z " fill="#D5D5D3" transform="translate(69,0)"/>
<path d="M0 0 C2.31 0 4.62 0 7 0 C7 2.64 7 5.28 7 8 C12.94 8 18.88 8 25 8 C25 10.64 25 13.28 25 16 C22.03 16 19.06 16 16 16 C16 18.64 16 21.28 16 24 C13.36 24 10.72 24 8 24 C8 21.36 8 18.72 8 16 C2.39 16 -3.22 16 -9 16 C-9 13.36 -9 10.72 -9 8 C-6.03 8 -3.06 8 0 8 C0 5.36 0 2.72 0 0 Z " fill="#0B0A0A" transform="translate(145,1)"/>
<path d="M0 0 C5.28 0 10.56 0 16 0 C16 5.28 16 10.56 16 16 C18.64 16 21.28 16 24 16 C24 21.28 24 26.56 24 32 C21.36 32 18.72 32 16 32 C16 29.36 16 26.72 16 24 C13.36 24 10.72 24 8 24 C8 18.39 8 12.78 8 7 C5.36 7 2.72 7 0 7 C0 4.69 0 2.38 0 0 Z " fill="#060403" transform="translate(120,134)"/>
<path d="M0 0 C7.92 0 15.84 0 24 0 C24 2.64 24 5.28 24 8 C21.36 8 18.72 8 16 8 C16 10.64 16 13.28 16 16 C13.03 16 10.06 16 7 16 C7 18.64 7 21.28 7 24 C4.69 24 2.38 24 0 24 C0 16.08 0 8.16 0 0 Z " fill="#030303" transform="translate(220,67)"/>
<path d="M0 0 C0.99 0.33 1.98 0.66 3 1 C3.02505615 1.55985596 3.0501123 2.11971191 3.07592773 2.6965332 C3.19203745 5.23541305 3.3146958 7.77393553 3.4375 10.3125 C3.47681641 11.19357422 3.51613281 12.07464844 3.55664062 12.98242188 C3.59853516 13.82998047 3.64042969 14.67753906 3.68359375 15.55078125 C3.73858032 16.72120972 3.73858032 16.72120972 3.79467773 17.9152832 C3.94125263 20.19329101 3.94125263 20.19329101 5 23 C-10.84 23 -26.68 23 -43 23 C-43 22.34 -43 21.68 -43 21 C-35.74 21 -28.48 21 -21 21 C-21 18.36 -21 15.72 -21 13 C-15.39 13 -9.78 13 -4 13 C-4.0825 11.5975 -4.165 10.195 -4.25 8.75 C-4.27235825 5.20062842 -4.26167468 4.33527068 -2 1.4375 C-1.34 0.963125 -0.68 0.48875 0 0 Z " fill="#EAE9E6" transform="translate(199,221)"/>
<path d="M0 0 C2.64 0 5.28 0 8 0 C8 5.28 8 10.56 8 16 C10.64 16 13.28 16 16 16 C16 13.36 16 10.72 16 8 C18.97 8 21.94 8 25 8 C25 10.97 25 13.94 25 17 C22.36 17 19.72 17 17 17 C17 19.64 17 22.28 17 25 C11.39 25 5.78 25 0 25 C0 16.75 0 8.5 0 0 Z " fill="#040302" transform="translate(103,42)"/>
<path d="M0 0 C0.33 0 0.66 0 1 0 C1 5.28 1 10.56 1 16 C3.31 16 5.62 16 8 16 C8 10.72 8 5.44 8 0 C8.33 0 8.66 0 9 0 C9 5.61 9 11.22 9 17 C6.36 17 3.72 17 1 17 C1 19.31 1 21.62 1 24 C6.28 24 11.56 24 17 24 C17 26.97 17 29.94 17 33 C11.72 33 6.44 33 1 33 C1 35.64 1 38.28 1 41 C3.64 41 6.28 41 9 41 C9 43.64 9 46.28 9 49 C11.64 49 14.28 49 17 49 C17 51.97 17 54.94 17 58 C11.72 58 6.44 58 1 58 C1 63.61 1 69.22 1 75 C-1.97 75 -4.94 75 -8 75 C-8 74.67 -8 74.34 -8 74 C-5.36 74 -2.72 74 0 74 C0 68.39 0 62.78 0 57 C5.28 57 10.56 57 16 57 C16 54.69 16 52.38 16 50 C13.36 50 10.72 50 8 50 C8 47.36 8 44.72 8 42 C5.36 42 2.72 42 0 42 C0 39.03 0 36.06 0 33 C-2.64 33 -5.28 33 -8 33 C-8 30.36 -8 27.72 -8 25 C-5.36 25 -2.72 25 0 25 C0 22.36 0 19.72 0 17 C-2.64 17 -5.28 17 -8 17 C-8 16.67 -8 16.34 -8 16 C-5.36 16 -2.72 16 0 16 C0 10.72 0 5.44 0 0 Z " fill="#6C6B69" transform="translate(219,117)"/>
<path d="M0 0 C2.64 0 5.28 0 8 0 C8 5.28 8 10.56 8 16 C5.36 16 2.72 16 0 16 C0 18.97 0 21.94 0 25 C-2.97 25 -5.94 25 -9 25 C-9 22.03 -9 19.06 -9 16 C-11.64 16 -14.28 16 -17 16 C-17 13.36 -17 10.72 -17 8 C-11.39 8 -5.78 8 0 8 C0 5.36 0 2.72 0 0 Z " fill="#EAE9E7" transform="translate(120,142)"/>
<path d="M0 0 C2.31 0 4.62 0 7 0 C7.33 8.25 7.66 16.5 8 25 C10.31 25.33 12.62 25.66 15 26 C15 28.31 15 30.62 15 33 C12.03 33 9.06 33 6 33 C5.34 34.32 4.68 35.64 4 37 C3.67 37.66 3.34 38.32 3 39 C3.99 39.33 4.98 39.66 6 40 C5.67 40.99 5.34 41.98 5 43 C4.01 43 3.02 43 2 43 C2.33 43.99 2.66 44.98 3 46 C2.01 46 1.02 46 0 46 C0 30.82 0 15.64 0 0 Z " fill="#EAE9E7" transform="translate(62,0)"/>
<path d="M0 0 C2.64 0 5.28 0 8 0 C8 5.28 8 10.56 8 16 C5.36 16 2.72 16 0 16 C0 19.63 0 23.26 0 27 C-3.20395416 27 -5.09399739 26.25664978 -8 25 C-8 22.03 -8 19.06 -8 16 C-10.64 16 -13.28 16 -16 16 C-16 13.36 -16 10.72 -16 8 C-10.72 8 -5.44 8 0 8 C0 5.36 0 2.72 0 0 Z " fill="#E2E1DF" transform="translate(161,175)"/>
<path d="M0 0 C2.64 0 5.28 0 8 0 C8 8.25 8 16.5 8 25 C10.64 25 13.28 25 16 25 C16 27.64 16 30.28 16 33 C10.72 33 5.44 33 0 33 C0 22.11 0 11.22 0 0 Z " fill="#060404" transform="translate(203,67)"/>
<path d="M0 0 C5.28 0 10.56 0 16 0 C16 5.28 16 10.56 16 16 C13.36 16 10.72 16 8 16 C8 18.64 8 21.28 8 24 C5.36 24 2.72 24 0 24 C0 16.08 0 8.16 0 0 Z " fill="#E9E7E5" transform="translate(70,92)"/>
<path d="M0 0 C2.64 0 5.28 0 8 0 C8 8.25 8 16.5 8 25 C5.03 25 2.06 25 -1 25 C-1 27.64 -1 30.28 -1 33 C-3.31 33 -5.62 33 -8 33 C-8 27.72 -8 22.44 -8 17 C-5.36 17 -2.72 17 0 17 C0 11.39 0 5.78 0 0 Z " fill="#E4E3E1" transform="translate(95,42)"/>
<path d="M0 0 C7.92 0 15.84 0 24 0 C24 2.64 24 5.28 24 8 C26.64 8 29.28 8 32 8 C32 10.64 32 13.28 32 16 C26.72 16 21.44 16 16 16 C16 13.36 16 10.72 16 8 C15.07316406 8.08378906 14.14632812 8.16757813 13.19140625 8.25390625 C11.99386719 8.35574219 10.79632813 8.45757812 9.5625 8.5625 C7.77005859 8.71912109 7.77005859 8.71912109 5.94140625 8.87890625 C4.97074219 8.91886719 4.00007813 8.95882812 3 9 C2.67 8.67 2.34 8.34 2 8 C1.34 7.67 0.68 7.34 0 7 C0 4.69 0 2.38 0 0 Z " fill="#E7E6E3" transform="translate(62,167)"/>
<path d="M0 0 C0.66 0 1.32 0 2 0 C2.33 16.83 2.66 33.66 3 51 C22.14 51 41.28 51 61 51 C61.33 47.04 61.66 43.08 62 39 C62.99 39 63.98 39 65 39 C65 39.66 65 40.32 65 41 C65.66 41.66 66.32 42.32 67 43 C66.01 43.99 66.01 43.99 65 45 C66.32 44.67 67.64 44.34 69 44 C69.3125 47.3125 69.3125 47.3125 69 51 C65.25883009 54.02066348 62.27529706 54.36849288 57.55737305 54.34057617 C56.27642258 54.34034958 54.99547211 54.34012299 53.67570496 54.33988953 C52.28770596 54.32457193 50.89971057 54.30892398 49.51171875 54.29296875 C48.08397366 54.28736926 46.65622278 54.28310083 45.22846985 54.28010559 C41.48171912 54.26868449 37.73532064 54.2392414 33.9887085 54.20599365 C29.48746774 54.16981945 24.9861088 54.15611854 20.4847641 54.13863373 C13.65626487 54.10960184 6.82853761 54.05209678 0 54 C0 36.18 0 18.36 0 0 Z " fill="#EAE9E6" transform="translate(0,190)"/>
<path d="M0 0 C2.64 0 5.28 0 8 0 C8 2.64 8 5.28 8 8 C10.97 8 13.94 8 17 8 C17 10.97 17 13.94 17 17 C14.03 17 11.06 17 8 17 C8 14.36 8 11.72 8 9 C5.69 9 3.38 9 1 9 C1.34227572 11.97065509 1.34227572 11.97065509 2 15 C2.66 15.33 3.32 15.66 4 16 C3.67 16.66 3.34 17.32 3 18 C3.66 18.33 4.32 18.66 5 19 C-1.27 19 -7.54 19 -14 19 C-12.68 18.01 -11.36 17.02 -10 16 C-9.31149171 13.9683434 -9.31149171 13.9683434 -9.25 11.8125 C-9.1675 10.554375 -9.085 9.29625 -9 8 C-6.03 8 -3.06 8 0 8 C0 5.36 0 2.72 0 0 Z " fill="#DFDEDB" transform="translate(78,225)"/>
<path d="M0 0 C11.22 0 22.44 0 34 0 C34 2.64 34 5.28 34 8 C39.28 8 44.56 8 50 8 C50 5.69 50 3.38 50 1 C52.64 1 55.28 1 58 1 C58 3.64 58 6.28 58 9 C52.72 9 47.44 9 42 9 C42 11.64 42 14.28 42 17 C39.36 17 36.72 17 34 17 C34 19.64 34 22.28 34 25 C33.67 25 33.34 25 33 25 C33 22.36 33 19.72 33 17 C30.36 17 27.72 17 25 17 C25 14.03 25 11.06 25 8 C27.64 8 30.28 8 33 8 C33 5.69 33 3.38 33 1 C22.11 1 11.22 1 0 1 C0 0.67 0 0.34 0 0 Z " fill="#7F7E7D" transform="translate(28,108)"/>
<path d="M0 0 C2.97 0 5.94 0 9 0 C9 2.64 9 5.28 9 8 C11.31 8 13.62 8 16 8 C16 5.36 16 2.72 16 0 C21.61 0 27.22 0 33 0 C33 2.97 33 5.94 33 9 C27.72 9 22.44 9 17 9 C17 16.92 17 24.84 17 33 C16.67 33 16.34 33 16 33 C16 25.08 16 17.16 16 9 C13.69 9 11.38 9 9 9 C9 11.64 9 14.28 9 17 C8.67 17 8.34 17 8 17 C8 14.36 8 11.72 8 9 C5.36 9 2.72 9 0 9 C0 6.03 0 3.06 0 0 Z " fill="#6A6867" transform="translate(53,83)"/>
<path d="M0 0 C8.25 0 16.5 0 25 0 C25 5.28 25 10.56 25 16 C22.36 16 19.72 16 17 16 C17 13.03 17 10.06 17 7 C9.74 7 2.48 7 -5 7 C-5 6.34 -5 5.68 -5 5 C-4.01 4.67 -3.02 4.34 -2 4 C-1.34 2.68 -0.68 1.36 0 0 Z " fill="#E9E8E5" transform="translate(61,142)"/>
<path d="M0 0 C2.64 0 5.28 0 8 0 C8 5.28 8 10.56 8 16 C5.36 16 2.72 16 0 16 C0 18.64 0 21.28 0 24 C-2.64 24 -5.28 24 -8 24 C-8 18.72 -8 13.44 -8 8 C-5.36 8 -2.72 8 0 8 C0 5.36 0 2.72 0 0 Z " fill="#E7E6E5" transform="translate(211,117)"/>
<path d="M0 0 C8.25 0 16.5 0 25 0 C25 2.64 25 5.28 25 8 C27.64 8 30.28 8 33 8 C33 8.33 33 8.66 33 9 C30.36 9 27.72 9 25 9 C25 16.92 25 24.84 25 33 C27.97 33 30.94 33 34 33 C34 35.97 34 38.94 34 42 C31.03 42 28.06 42 25 42 C25 39.36 25 36.72 25 34 C14.11 34 3.22 34 -8 34 C-8 33.67 -8 33.34 -8 33 C2.56 33 13.12 33 24 33 C24 25.08 24 17.16 24 9 C21.36 9 18.72 9 16 9 C16 6.36 16 3.72 16 1 C10.72 1 5.44 1 0 1 C0 0.67 0 0.34 0 0 Z " fill="#656462" transform="translate(78,183)"/>
<path d="M0 0 C2.31 0 4.62 0 7 0 C7.33 2.31 7.66 4.62 8 7 C10.64 7.33 13.28 7.66 16 8 C16 13.28 16 18.56 16 24 C13.36 24 10.72 24 8 24 C8 21.03 8 18.06 8 15 C5.36 15 2.72 15 0 15 C0 10.05 0 5.1 0 0 Z " fill="#E8E7E6" transform="translate(145,51)"/>
<path d="M0 0 C2.64 0 5.28 0 8 0 C8 2.97 8 5.94 8 9 C13.28 9 18.56 9 24 9 C24 11.31 24 13.62 24 16 C16.08 16 8.16 16 0 16 C0 10.72 0 5.44 0 0 Z " fill="#E6E5E4" transform="translate(37,150)"/>
<path d="M0 0 C7.26 0 14.52 0 22 0 C22 2.31 22 4.62 22 7 C17.38 7 12.76 7 8 7 C8 9.97 8 12.94 8 16 C5.36 16 2.72 16 0 16 C0 10.72 0 5.44 0 0 Z " fill="#EAE9E6" transform="translate(20,134)"/>
<path d="M0 0 C2.97 0 5.94 0 9 0 C9 8.25 9 16.5 9 25 C6.03 25 3.06 25 0 25 C0 16.75 0 8.5 0 0 Z " fill="#D3D2D0" transform="translate(169,208)"/>
<path d="M0 0 C2.64 0 5.28 0 8 0 C8 2.97 8 5.94 8 9 C10.64 9 13.28 9 16 9 C16 11.64 16 14.28 16 17 C10.72 17 5.44 17 0 17 C0 11.39 0 5.78 0 0 Z " fill="#0C0A0A" transform="translate(103,133)"/>
<path d="M0 0 C0 6.93 0 13.86 0 21 C0.66 21.33 1.32 21.66 2 22 C2.625 24.5625 2.625 24.5625 3 27 C-0.21451269 28.60725635 -3.43612536 28.05748185 -7 28 C-7.11591764 23.89606988 -7.18715601 19.79255894 -7.25 15.6875 C-7.28351563 14.52025391 -7.31703125 13.35300781 -7.3515625 12.15039062 C-7.36445313 11.03212891 -7.37734375 9.91386719 -7.390625 8.76171875 C-7.41157227 7.73006592 -7.43251953 6.69841309 -7.45410156 5.63549805 C-7 3 -7 3 -5.16308594 1.13989258 C-3 0 -3 0 0 0 Z " fill="#EAE8E8" transform="translate(202,21)"/>
<path d="M0 0 C5.28 0 10.56 0 16 0 C17.125 12.625 17.125 12.625 16 16 C13.36 16 10.72 16 8 16 C8 13.36 8 10.72 8 8 C5.36 8 2.72 8 0 8 C0 5.36 0 2.72 0 0 Z " fill="#E7E6E4" transform="translate(220,150)"/>
<path d="M0 0 C2.64 0 5.28 0 8 0 C8 5.28 8 10.56 8 16 C2.72 16 -2.56 16 -8 16 C-8 13.36 -8 10.72 -8 8 C-5.36 8 -2.72 8 0 8 C0 5.36 0 2.72 0 0 Z " fill="#E4E2E2" transform="translate(161,125)"/>
<path d="M0 0 C2.31 0 4.62 0 7 0 C7 2.64 7 5.28 7 8 C9.97 8 12.94 8 16 8 C16 10.64 16 13.28 16 16 C10.72 16 5.44 16 0 16 C0 10.72 0 5.44 0 0 Z " fill="#040302" transform="translate(145,167)"/>
<path d="M0 0 C2.31 0 4.62 0 7 0 C7 2.64 7 5.28 7 8 C9.97 8 12.94 8 16 8 C16 10.64 16 13.28 16 16 C10.72 16 5.44 16 0 16 C0 10.72 0 5.44 0 0 Z " fill="#080606" transform="translate(87,92)"/>
<path d="M0 0 C2.31 0 4.62 0 7 0 C7 2.64 7 5.28 7 8 C9.97 8 12.94 8 16 8 C16 10.64 16 13.28 16 16 C10.72 16 5.44 16 0 16 C0 10.72 0 5.44 0 0 Z " fill="#060504" transform="translate(170,84)"/>
<path d="M0 0 C5.61 0 11.22 0 17 0 C17 2.64 17 5.28 17 8 C16.67 8 16.34 8 16 8 C16 5.69 16 3.38 16 1 C11.05 1 6.1 1 1 1 C1.24631557 5.05085679 1.24631557 5.05085679 2 9 C3.92064793 10.5899433 3.92064793 10.5899433 6 11 C5.01 11.33 4.02 11.66 3 12 C3 12.66 3 13.32 3 14 C3.99 14.33 4.98 14.66 6 15 C5.67 15.99 5.34 16.98 5 18 C4.01 18 3.02 18 2 18 C1.67 22.95 1.34 27.9 1 33 C0.67 33 0.34 33 0 33 C0 27.72 0 22.44 0 17 C-2.64 17 -5.28 17 -8 17 C-8 14.03 -8 11.06 -8 8 C-5.36 8 -2.72 8 0 8 C0 5.36 0 2.72 0 0 Z " fill="#BFBEBB" transform="translate(111,25)"/>
<path d="M0 0 C3.63 0.33 7.26 0.66 11 1 C11 3.31 11 5.62 11 8 C8.36 8.33 5.72 8.66 3 9 C2.67 18.9 2.34 28.8 2 39 C1.34 39 0.68 39 0 39 C0 26.13 0 13.26 0 0 Z " fill="#EAE9E7" transform="translate(0,133)"/>
<path d="M0 0 C2.64 0 5.28 0 8 0 C8 2.64 8 5.28 8 8 C10.64 8 13.28 8 16 8 C16 8.33 16 8.66 16 9 C13.69 9.33 11.38 9.66 9 10 C8.87625 10.804375 8.7525 11.60875 8.625 12.4375 C8.41875 13.283125 8.2125 14.12875 8 15 C6 16 6 16 0 16 C0 10.72 0 5.44 0 0 Z " fill="#E3E1E0" transform="translate(170,67)"/>
<path d="M0 0 C2.64 0 5.28 0 8 0 C8 5.28 8 10.56 8 16 C5.36 16 2.72 16 0 16 C0 10.72 0 5.44 0 0 Z " fill="#E6E5E2" transform="translate(78,192)"/>
<path d="M0 0 C2.64 0 5.28 0 8 0 C8 5.28 8 10.56 8 16 C5.36 16 2.72 16 0 16 C0 10.72 0 5.44 0 0 Z " fill="#E1DFDD" transform="translate(203,150)"/>
<path d="M0 0 C5.28 0 10.56 0 16 0 C16 2.64 16 5.28 16 8 C10.72 8 5.44 8 0 8 C0 5.36 0 2.72 0 0 Z " fill="#0C0B0A" transform="translate(220,142)"/>
<path d="M0 0 C2.64 0 5.28 0 8 0 C8 5.28 8 10.56 8 16 C5.36 16 2.72 16 0 16 C0 10.72 0 5.44 0 0 Z " fill="#E1E0DF" transform="translate(161,42)"/>
<path d="M0 0 C5.28 0 10.56 0 16 0 C16 2.64 16 5.28 16 8 C10.72 8 5.44 8 0 8 C0 5.36 0 2.72 0 0 Z " fill="#E0DFDE" transform="translate(120,9)"/>
<path d="M0 0 C2.97 0 5.94 0 9 0 C9 2.64 9 5.28 9 8 C8.67 8 8.34 8 8 8 C8 5.69 8 3.38 8 1 C5.69 1 3.38 1 1 1 C1 5.95 1 10.9 1 16 C3.64 16 6.28 16 9 16 C9 21.61 9 27.22 9 33 C8.67 33 8.34 33 8 33 C8 30.69 8 28.38 8 26 C6.2984375 26.0309375 6.2984375 26.0309375 4.5625 26.0625 C1 26 1 26 0 25 C-0.08737645 23.14630389 -0.10698153 21.28932459 -0.09765625 19.43359375 C-0.09443359 18.30888672 -0.09121094 17.18417969 -0.08789062 16.02539062 C-0.07951172 14.84138672 -0.07113281 13.65738281 -0.0625 12.4375 C-0.05798828 11.24962891 -0.05347656 10.06175781 -0.04882812 8.83789062 C-0.03699675 5.89187774 -0.02051287 2.94596319 0 0 Z " fill="#8F8E8D" transform="translate(144,50)"/>
<path d="M0 0 C5.61 0 11.22 0 17 0 C15.35 1.32 13.7 2.64 12 4 C9.44582534 7.57584453 9.42642826 11.7357174 9 16 C11.31 16 13.62 16 16 16 C16 13.36 16 10.72 16 8 C16.33 8 16.66 8 17 8 C17 10.97 17 13.94 17 17 C14.03 17 11.06 17 8 17 C8 14.03 8 11.06 8 8 C5.36 8 2.72 8 0 8 C0 5.36 0 2.72 0 0 Z " fill="#D3D2D0" transform="translate(103,150)"/>
<path d="M0 0 C4.62 0 9.24 0 14 0 C12.515 2.475 12.515 2.475 11 5 C12.65 4.67 14.3 4.34 16 4 C14.61964507 6.85059343 13.10703513 9.55880904 11.4375 12.25 C11.00308594 12.95640625 10.56867188 13.6628125 10.12109375 14.390625 C9.56615234 15.18726563 9.56615234 15.18726563 9 16 C8.67 16 8.34 16 8 16 C8 13.03 8 10.06 8 7 C5.36 7 2.72 7 0 7 C0 4.69 0 2.38 0 0 Z " fill="#EAE9E8" transform="translate(145,184)"/>
<path d="M0 0 C0.33 0 0.66 0 1 0 C1 13.86 1 27.72 1 42 C-1.97 42 -4.94 42 -8 42 C-8 39.03 -8 36.06 -8 33 C-5.36 33 -2.72 33 0 33 C0 22.11 0 11.22 0 0 Z " fill="#6B6A69" transform="translate(177,125)"/>
<path d="M0 0 C2.97 0 5.94 0 9 0 C9 2.97 9 5.94 9 9 C6.36 9 3.72 9 1 9 C1 11.64 1 14.28 1 17 C-4.61 17 -10.22 17 -16 17 C-16 16.67 -16 16.34 -16 16 C-10.72 16 -5.44 16 0 16 C0 13.69 0 11.38 0 9 C-2.64 9 -5.28 9 -8 9 C-8 8.67 -8 8.34 -8 8 C-5.36 8 -2.72 8 0 8 C0 5.36 0 2.72 0 0 Z " fill="#121110" transform="translate(119,50)"/>
<path d="M0 0 C2.31 0 4.62 0 7 0 C7 5.28 7 10.56 7 16 C4.69 16 2.38 16 0 16 C0 10.72 0 5.44 0 0 Z " fill="#E9E8E7" transform="translate(137,167)"/>
<path d="M0 0 C2.31 0 4.62 0 7 0 C7 5.28 7 10.56 7 16 C4.69 16 2.38 16 0 16 C0 10.72 0 5.44 0 0 Z " fill="#E9E8E6" transform="translate(145,150)"/>
<path d="M0 0 C5.28 0 10.56 0 16 0 C16 2.31 16 4.62 16 7 C10.72 7 5.44 7 0 7 C0 4.69 0 2.38 0 0 Z " fill="#010000" transform="translate(70,84)"/>
<path d="M0 0 C5.28 0 10.56 0 16 0 C16 2.31 16 4.62 16 7 C10.72 7 5.44 7 0 7 C0 4.69 0 2.38 0 0 Z " fill="#050302" transform="translate(120,1)"/>
<path d="M0 0 C0.33 0 0.66 0 1 0 C1 12.87 1 25.74 1 39 C0.67 39 0.34 39 0 39 C0 31.08 0 23.16 0 15 C-2.97 15 -5.94 15 -9 15 C-9 12.36 -9 9.72 -9 7 C-6.03 7 -3.06 7 0 7 C0 4.69 0 2.38 0 0 Z " fill="#E7E6E5" transform="translate(245,193)"/>
<path d="M0 0 C2.31 0 4.62 0 7 0 C7 4.95 7 9.9 7 15 C4.69 15 2.38 15 0 15 C0 10.05 0 5.1 0 0 Z " fill="#EAE9E7" transform="translate(137,134)"/>
<path d="M0 0 C3.3 0.33 6.6 0.66 10 1 C10 3.31 10 5.62 10 8 C5.05 8 0.1 8 -5 8 C-5 6.02 -5 4.04 -5 2 C-4.34 1.67 -3.68 1.34 -3 1 C-2.01 1.33 -1.02 1.66 0 2 C0 1.34 0 0.68 0 0 Z " fill="#EAE8E7" transform="translate(117,108)"/>
<path d="M0 0 C5.61 0 11.22 0 17 0 C16.67 1.98 16.34 3.96 16 6 C15.4225 5.79375 14.845 5.5875 14.25 5.375 C12.00873368 4.76607751 12.00873368 4.76607751 10.25 5.9375 C6.8270458 7.55389504 3.76077557 7.12535919 0 7 C0 4.69 0 2.38 0 0 Z " fill="#EAE9E7" transform="translate(137,101)"/>
<path d="M0 0 C0.33 0 0.66 0 1 0 C1 5.28 1 10.56 1 16 C8.92 16 16.84 16 25 16 C25 13.69 25 11.38 25 9 C19.72 9 14.44 9 9 9 C9 8.67 9 8.34 9 8 C14.61 8 20.22 8 26 8 C26 10.64 26 13.28 26 16 C33.92 16 41.84 16 50 16 C50 16.33 50 16.66 50 17 C42.08 17 34.16 17 26 17 C26 19.64 26 22.28 26 25 C25.67 25 25.34 25 25 25 C25 22.36 25 19.72 25 17 C16.75 17 8.5 17 0 17 C0 11.39 0 5.78 0 0 Z " fill="#807F7D" transform="translate(36,150)"/>
<path d="M0 0 C2.64 0 5.28 0 8 0 C8 5.28 8 10.56 8 16 C7.34 15.01 6.68 14.02 6 13 C5.34 13 4.68 13 4 13 C4 12.34 4 11.68 4 11 C3.34 11 2.68 11 2 11 C0.57741188 7.17679443 -0.24042276 4.08718695 0 0 Z " fill="#DFDDDC" transform="translate(120,142)"/>
<path d="M0 0 C0.33 0 0.66 0 1 0 C1 2.64 1 5.28 1 8 C3.31 8 5.62 8 8 8 C8 5.36 8 2.72 8 0 C16.25 0 24.5 0 33 0 C33 0.33 33 0.66 33 1 C30.69 1 28.38 1 26 1 C26 5.95 26 10.9 26 16 C28.31 16 30.62 16 33 16 C33 16.33 33 16.66 33 17 C30.36 17 27.72 17 25 17 C25 11.72 25 6.44 25 1 C19.72 1 14.44 1 9 1 C9 3.31 9 5.62 9 8 C11.64 8 14.28 8 17 8 C17 8.33 17 8.66 17 9 C14.36 9 11.72 9 9 9 C9 11.64 9 14.28 9 17 C8.67 17 8.34 17 8 17 C8 14.36 8 11.72 8 9 C5.36 9 2.72 9 0 9 C0 6.03 0 3.06 0 0 Z " fill="#878584" transform="translate(111,133)"/>
<path d="M0 0 C2.97 0.33 5.94 0.66 9 1 C9 1.66 9 2.32 9 3 C9.99 3.33 10.98 3.66 12 4 C11.67 5.32 11.34 6.64 11 8 C7.7 8 4.4 8 1 8 C1 7.34 1 6.68 1 6 C-0.32 6 -1.64 6 -3 6 C-2 4 -1 2 0 0 Z " fill="#EAE9E7" transform="translate(160,108)"/>
<path d="M0 0 C2.97 0 5.94 0 9 0 C9 2.97 9 5.94 9 9 C6.03 9 3.06 9 0 9 C0 6.03 0 3.06 0 0 Z " fill="#292825" transform="translate(86,233)"/>
<path d="M0 0 C2.97 0 5.94 0 9 0 C9 2.97 9 5.94 9 9 C6.03 9 3.06 9 0 9 C0 6.03 0 3.06 0 0 Z " fill="#2A2926" transform="translate(3,108)"/>
<path d="M0 0 C2.97 0 5.94 0 9 0 C9 2.97 9 5.94 9 9 C2.84765625 9.09765625 2.84765625 9.09765625 1 9 C0 8 0 8 -0.09765625 6.15234375 C-0.06510417 4.1015625 -0.03255208 2.05078125 0 0 Z " fill="#272624" transform="translate(119,233)"/>
<path d="M0 0 C2.97 0 5.94 0 9 0 C9.09765625 6.15234375 9.09765625 6.15234375 9 8 C8 9 8 9 6.15234375 9.09765625 C4.1015625 9.06510417 2.05078125 9.03255208 0 9 C0 6.03 0 3.06 0 0 Z " fill="#262524" transform="translate(186,183)"/>
<path d="M0 0 C2.64 0 5.28 0 8 0 C8 2.97 8 5.94 8 9 C5.36 9 2.72 9 0 9 C0 6.03 0 3.06 0 0 Z " fill="#1A1918" transform="translate(236,191)"/>
<path d="M0 0 C2.64 0 5.28 0 8 0 C8 2.64 8 5.28 8 8 C5.36 8 2.72 8 0 8 C0 5.36 0 2.72 0 0 Z " fill="#11100E" transform="translate(136,233)"/>
<path d="M0 0 C2.64 0 5.28 0 8 0 C8 2.64 8 5.28 8 8 C5.36 8 2.72 8 0 8 C0 5.36 0 2.72 0 0 Z " fill="#0E0D0B" transform="translate(70,233)"/>
<path d="M0 0 C2.64 0 5.28 0 8 0 C8 2.64 8 5.28 8 8 C5.36 8 2.72 8 0 8 C0 5.36 0 2.72 0 0 Z " fill="#0D0C0B" transform="translate(78,225)"/>
<path d="M0 0 C2.64 0 5.28 0 8 0 C8 2.64 8 5.28 8 8 C5.36 8 2.72 8 0 8 C0 5.36 0 2.72 0 0 Z " fill="#0E0D0B" transform="translate(103,217)"/>
<path d="M0 0 C2.64 0 5.28 0 8 0 C8 2.64 8 5.28 8 8 C5.36 8 2.72 8 0 8 C0 5.36 0 2.72 0 0 Z " fill="#0A0908" transform="translate(228,200)"/>
<path d="M0 0 C2.64 0 5.28 0 8 0 C8 2.64 8 5.28 8 8 C5.36 8 2.72 8 0 8 C0 5.36 0 2.72 0 0 Z " fill="#D6D4D3" transform="translate(95,183)"/>
<path d="M0 0 C2.64 0 5.28 0 8 0 C8 2.64 8 5.28 8 8 C5.36 8 2.72 8 0 8 C0 5.36 0 2.72 0 0 Z " fill="#D5D4D3" transform="translate(95,167)"/>
<path d="M0 0 C2.64 0 5.28 0 8 0 C8 2.64 8 5.28 8 8 C5.36 8 2.72 8 0 8 C0 5.36 0 2.72 0 0 Z " fill="#E1E1DF" transform="translate(153,167)"/>
<path d="M0 0 C2.64 0 5.28 0 8 0 C8 2.64 8 5.28 8 8 C5.36 8 2.72 8 0 8 C0 5.36 0 2.72 0 0 Z " fill="#DDDBDA" transform="translate(186,158)"/>
<path d="M0 0 C2.64 0 5.28 0 8 0 C8 2.64 8 5.28 8 8 C5.36 8 2.72 8 0 8 C0 5.36 0 2.72 0 0 Z " fill="#E0DEDD" transform="translate(128,158)"/>
<path d="M0 0 C2.64 0 5.28 0 8 0 C8 2.64 8 5.28 8 8 C5.36 8 2.72 8 0 8 C0 5.36 0 2.72 0 0 Z " fill="#080705" transform="translate(236,150)"/>
<path d="M0 0 C2.64 0 5.28 0 8 0 C8 2.64 8 5.28 8 8 C5.36 8 2.72 8 0 8 C0 5.36 0 2.72 0 0 Z " fill="#E0DFDE" transform="translate(211,142)"/>
<path d="M0 0 C2.64 0 5.28 0 8 0 C8 2.64 8 5.28 8 8 C5.36 8 2.72 8 0 8 C0 5.36 0 2.72 0 0 Z " fill="#0D0C0A" transform="translate(203,142)"/>
<path d="M0 0 C2.64 0 5.28 0 8 0 C8 2.64 8 5.28 8 8 C5.36 8 2.72 8 0 8 C0 5.36 0 2.72 0 0 Z " fill="#090806" transform="translate(153,125)"/>
<path d="M0 0 C2.64 0 5.28 0 8 0 C8 2.64 8 5.28 8 8 C5.36 8 2.72 8 0 8 C0 5.36 0 2.72 0 0 Z " fill="#0E0D0E" transform="translate(136,125)"/>
<path d="M0 0 C2.64 0 5.28 0 8 0 C8 2.64 8 5.28 8 8 C5.36 8 2.72 8 0 8 C0 5.36 0 2.72 0 0 Z " fill="#0D0C0B" transform="translate(53,117)"/>
<path d="M0 0 C2.64 0 5.28 0 8 0 C8 2.64 8 5.28 8 8 C5.36 8 2.72 8 0 8 C0 5.36 0 2.72 0 0 Z " fill="#0F0D0C" transform="translate(161,100)"/>
<path d="M0 0 C2.64 0 5.28 0 8 0 C8 2.64 8 5.28 8 8 C5.36 8 2.72 8 0 8 C0 5.36 0 2.72 0 0 Z " fill="#11100E" transform="translate(111,75)"/>
<path d="M0 0 C2.64 0 5.28 0 8 0 C8 2.64 8 5.28 8 8 C5.36 8 2.72 8 0 8 C0 5.36 0 2.72 0 0 Z " fill="#0A0807" transform="translate(178,67)"/>
<path d="M0 0 C2.64 0 5.28 0 8 0 C8 2.64 8 5.28 8 8 C5.36 8 2.72 8 0 8 C0 5.36 0 2.72 0 0 Z " fill="#0D0B0A" transform="translate(95,67)"/>
<path d="M0 0 C2.64 0 5.28 0 8 0 C8 2.64 8 5.28 8 8 C5.36 8 2.72 8 0 8 C0 5.36 0 2.72 0 0 Z " fill="#E0DFDE" transform="translate(78,50)"/>
<path d="M0 0 C2.64 0 5.28 0 8 0 C8 2.64 8 5.28 8 8 C5.36 8 2.72 8 0 8 C0 5.36 0 2.72 0 0 Z " fill="#0E0C0B" transform="translate(70,50)"/>
<path d="M0 0 C2.64 0 5.28 0 8 0 C8 2.64 8 5.28 8 8 C5.36 8 2.72 8 0 8 C0 5.36 0 2.72 0 0 Z " fill="#DEDFDD" transform="translate(86,17)"/>
<path d="M0 0 C1.32 0.33 2.64 0.66 4 1 C4 3.97 4 6.94 4 10 C1.03 10 -1.94 10 -5 10 C-4.34 8.68 -3.68 7.36 -3 6 C-2.649375 5.113125 -2.29875 4.22625 -1.9375 3.3125 C-1 1 -1 1 0 0 Z M1 1 C2 3 2 3 2 3 Z " fill="#EBE9E8" transform="translate(48,39)"/>
<path d="M0 0 C0.66 0 1.32 0 2 0 C2 3.63 2 7.26 2 11 C1.01 11.495 1.01 11.495 0 12 C-0.66 11.01 -1.32 10.02 -2 9 C-2.66 9 -3.32 9 -4 9 C-4.33 9.99 -4.66 10.98 -5 12 C-5 9.36 -5 6.72 -5 4 C-3.35 3.34 -1.7 2.68 0 2 C0 1.34 0 0.68 0 0 Z M-8 12 C-7.01 12 -6.02 12 -5 12 C-5 12.66 -5 13.32 -5 14 C-5.99 13.67 -6.98 13.34 -8 13 C-8 12.67 -8 12.34 -8 12 Z " fill="#EBE9E8" transform="translate(125,72)"/>
<path d="M0 0 C0.33 0.66 0.66 1.32 1 2 C2.32 2 3.64 2 5 2 C5 4.31 5 6.62 5 9 C4.01 9 3.02 9 2 9 C2 9.66 2 10.32 2 11 C0.68 10.67 -0.64 10.34 -2 10 C-2 7.03 -2 4.06 -2 1 C-1.34 0.67 -0.68 0.34 0 0 Z M-3 10 C-2.67 10.66 -2.34 11.32 -2 12 C-2.66 11.67 -3.32 11.34 -4 11 C-3.67 10.67 -3.34 10.34 -3 10 Z " fill="#EBEAE7" transform="translate(147,232)"/>
<path d="M0 0 C2.31 0 4.62 0 7 0 C7 2.97 7 5.94 7 9 C4.69 9 2.38 9 0 9 C0 6.03 0 3.06 0 0 Z " fill="#EBEAE7" transform="translate(203,157)"/>
<path d="M0 0 C2.64 0 5.28 0 8 0 C8 2.31 8 4.62 8 7 C5.36 7 2.72 7 0 7 C0 4.69 0 2.38 0 0 Z " fill="#090706" transform="translate(211,134)"/>
<path d="M0 0 C2.31 0 4.62 0 7 0 C7 2.64 7 5.28 7 8 C4.69 8 2.38 8 0 8 C0 5.36 0 2.72 0 0 Z " fill="#E5E4E1" transform="translate(62,117)"/>
<path d="M0 0 C2.64 0 5.28 0 8 0 C8 2.31 8 4.62 8 7 C5.36 7 2.72 7 0 7 C0 4.69 0 2.38 0 0 Z " fill="#060504" transform="translate(103,109)"/>
<path d="M0 0 C2.64 0 5.28 0 8 0 C8 2.31 8 4.62 8 7 C5.36 7 2.72 7 0 7 C0 4.69 0 2.38 0 0 Z " fill="#060504" transform="translate(78,109)"/>
<path d="M0 0 C2.64 0 5.28 0 8 0 C8 2.31 8 4.62 8 7 C5.36 7 2.72 7 0 7 C0 4.69 0 2.38 0 0 Z " fill="#0A0908" transform="translate(186,84)"/>
<path d="M0 0 C2.64 0 5.28 0 8 0 C8 2.31 8 4.62 8 7 C5.36 7 2.72 7 0 7 C0 4.69 0 2.38 0 0 Z " fill="#090807" transform="translate(53,84)"/>
<path d="M0 0 C2.31 0 4.62 0 7 0 C7 2.64 7 5.28 7 8 C4.69 8 2.38 8 0 8 C0 5.36 0 2.72 0 0 Z " fill="#070605" transform="translate(145,67)"/>
<path d="M0 0 C2.31 0 4.62 0 7 0 C7 2.64 7 5.28 7 8 C4.69 8 2.38 8 0 8 C0 5.36 0 2.72 0 0 Z " fill="#EAE9E7" transform="translate(137,0)"/>
<path d="M0 0 C9.9 0.33 19.8 0.66 30 1 C30 1.33 30 1.66 30 2 C22.74 2 15.48 2 8 2 C8 2.66 8 3.32 8 4 C4.37 4 0.74 4 -3 4 C-3 3.34 -3 2.68 -3 2 C-1.68 2.33 -0.36 2.66 1 3 C0.67 2.01 0.34 1.02 0 0 Z " fill="#BBBAB8" transform="translate(148,240)"/>
<path d="M0 0 C2.31 0 4.62 0 7 0 C7 2.31 7 4.62 7 7 C4.69 7 2.38 7 0 7 C0 4.69 0 2.38 0 0 Z " fill="#030201" transform="translate(87,167)"/>
<path d="M0 0 C2.31 0 4.62 0 7 0 C7 2.31 7 4.62 7 7 C4.69 7 2.38 7 0 7 C0 4.69 0 2.38 0 0 Z " fill="#EAE9E8" transform="translate(170,159)"/>
<path d="M0 0 C2.31 0 4.62 0 7 0 C7 2.31 7 4.62 7 7 C4.69 7 2.38 7 0 7 C0 4.69 0 2.38 0 0 Z " fill="#E9E9E8" transform="translate(87,159)"/>
<path d="M0 0 C2.31 0 4.62 0 7 0 C7 2.31 7 4.62 7 7 C4.69 7 2.38 7 0 7 C0 4.69 0 2.38 0 0 Z " fill="#020000" transform="translate(87,76)"/>
<path d="M0 0 C0.33 0 0.66 0 1 0 C1 2.64 1 5.28 1 8 C3.64 8 6.28 8 9 8 C9 8.33 9 8.66 9 9 C6.36 9 3.72 9 1 9 C1 11.64 1 14.28 1 17 C-4.61 17 -10.22 17 -16 17 C-16 16.67 -16 16.34 -16 16 C-10.72 16 -5.44 16 0 16 C0 13.69 0 11.38 0 9 C-2.64 9 -5.28 9 -8 9 C-8 8.67 -8 8.34 -8 8 C-5.36 8 -2.72 8 0 8 C0 5.36 0 2.72 0 0 Z " fill="#696867" transform="translate(119,50)"/>
<path d="M0 0 C2.64 0 5.28 0 8 0 C7.34 2.31 6.68 4.62 6 7 C4.02 7 2.04 7 0 7 C0 4.69 0 2.38 0 0 Z " fill="#E8E7E5" transform="translate(103,34)"/>
<path d="M0 0 C2.31 0 4.62 0 7 0 C7 2.31 7 4.62 7 7 C4.69 7 2.38 7 0 7 C0 4.69 0 2.38 0 0 Z " fill="#040202" transform="translate(170,26)"/>
<path d="M0 0 C1.98 0 3.96 0 6 0 C5.34 2.31 4.68 4.62 4 7 C2.68 7 1.36 7 0 7 C0 4.69 0 2.38 0 0 Z " fill="#EAE9E7" transform="translate(120,9)"/>
<path d="M0 0 C0.33 0.66 0.66 1.32 1 2 C1.66 1.67 2.32 1.34 3 1 C3 2.65 3 4.3 3 6 C0.69 6 -1.62 6 -4 6 C-4 4.35 -4 2.7 -4 1 C-2 0 -2 0 0 0 Z " fill="#ECEAE9" transform="translate(216,85)"/>
<path d="M0 0 C0.33 0 0.66 0 1 0 C1 2.64 1 5.28 1 8 C-1.31 8 -3.62 8 -6 8 C-6 6.35 -6 4.7 -6 3 C-5.01 3.33 -4.02 3.66 -3 4 C-2.34 3.67 -1.68 3.34 -1 3 C-0.67 2.01 -0.34 1.02 0 0 Z " fill="#EBE9E8" transform="translate(168,50)"/>
<path d="M0 0 C0.33 2.31 0.66 4.62 1 7 C-1.64 7 -4.28 7 -7 7 C-6.04004484 4.12013451 -3.56234645 0 0 0 Z " fill="#0A0908" transform="translate(243,68)"/>
<path d="M0 0 C0.66 0 1.32 0 2 0 C1.67 4.62 1.34 9.24 1 14 C0.67 14 0.34 14 0 14 C0 11.03 0 8.06 0 5 C-0.66 5 -1.32 5 -2 5 C-1.125 1.125 -1.125 1.125 0 0 Z " fill="#D3D2CF" transform="translate(244,186)"/>
<path d="M0 0 C0.33 0 0.66 0 1 0 C1 2.64 1 5.28 1 8 C3.64 8 6.28 8 9 8 C9 8.33 9 8.66 9 9 C6.36 9 3.72 9 1 9 C1 9.66 1 10.32 1 11 C-0.98 11 -2.96 11 -5 11 C-4.360625 10.67 -3.72125 10.34 -3.0625 10 C0.0552764 6.97670168 -0.27956936 4.26343276 0 0 Z " fill="#B2B1AE" transform="translate(69,233)"/>
<path d="M0 0 C2.375 0.25 2.375 0.25 5 1 C6.3125 3.0625 6.3125 3.0625 7 5 C4.69 5 2.38 5 0 5 C0 3.35 0 1.7 0 0 Z " fill="#EBEAEA" transform="translate(112,53)"/>
<path d="M0 0 C0.33 0 0.66 0 1 0 C1 2.64 1 5.28 1 8 C-1.31 8 -3.62 8 -6 8 C-5.34 6.68 -4.68 5.36 -4 4 C-3.01 4 -2.02 4 -1 4 C-0.67 2.68 -0.34 1.36 0 0 Z " fill="#D6D5D4" transform="translate(152,17)"/>
<path d="M0 0 C1.01320312 0.17789063 1.01320312 0.17789063 2.046875 0.359375 C2.046875 2.999375 2.046875 5.639375 2.046875 8.359375 C1.716875 8.359375 1.386875 8.359375 1.046875 8.359375 C1.046875 6.049375 1.046875 3.739375 1.046875 1.359375 C-0.37015013 1.50168308 -1.7867346 1.64838246 -3.203125 1.796875 C-3.99203125 1.87808594 -4.7809375 1.95929688 -5.59375 2.04296875 C-7.77677139 2.33572493 -9.8304432 2.78001919 -11.953125 3.359375 C-8.63472464 -1.61822554 -5.34517294 -0.77242384 0 0 Z " fill="#282727" transform="translate(175.953125,232.640625)"/>
<path d="M0 0 C0 2.64 0 5.28 0 8 C-2.64 8 -5.28 8 -8 8 C-8 7.67 -8 7.34 -8 7 C-6.35 7 -4.7 7 -3 7 C-3 5.02 -3 3.04 -3 1 C-1 0 -1 0 0 0 Z " fill="#D4D3D3" transform="translate(28,142)"/>
<path d="M0 0 C2.475 0.495 2.475 0.495 5 1 C5 2.65 5 4.3 5 6 C3.35 5.67 1.7 5.34 0 5 C0 3.35 0 1.7 0 0 Z " fill="#ECECEB" transform="translate(95,167)"/>
<path d="M0 0 C0.99 0.33 1.98 0.66 3 1 C3 1.66 3 2.32 3 3 C3.66 3 4.32 3 5 3 C5 3.66 5 4.32 5 5 C4.01 5.33 3.02 5.66 2 6 C1.34 6.66 0.68 7.32 0 8 C0 5.36 0 2.72 0 0 Z " fill="#DAD9D6" transform="translate(186,67)"/>
<path d="M0 0 C0 1.65 0 3.3 0 5 C-1.65 4.67 -3.3 4.34 -5 4 C-4.67 3.01 -4.34 2.02 -4 1 C-2 0 -2 0 0 0 Z " fill="#EBEAE8" transform="translate(169,186)"/>
<path d="M0 0 C2.475 0.495 2.475 0.495 5 1 C4.34 1.66 3.68 2.32 3 3 C3.33 3.99 3.66 4.98 4 6 C2.68 5.67 1.36 5.34 0 5 C0 3.35 0 1.7 0 0 Z " fill="#EDECEA" transform="translate(95,184)"/>
<path d="M0 0 C0.66 0 1.32 0 2 0 C2 2.31 2 4.62 2 7 C0.35 7 -1.3 7 -3 7 C-2.505 6.401875 -2.01 5.80375 -1.5 5.1875 C0.28276418 3.02970006 0.28276418 3.02970006 0 0 Z " fill="#030201" transform="translate(84,225)"/>
<path d="M0 0 C2.64 0 5.28 0 8 0 C6.68 0.33 5.36 0.66 4 1 C4 1.66 4 2.32 4 3 C3.01 3 2.02 3 1 3 C0.67 3.66 0.34 4.32 0 5 C0 3.35 0 1.7 0 0 Z " fill="#CECCCB" transform="translate(153,25)"/>
</svg>
