<svg xmlns="http://www.w3.org/2000/svg" viewBox="0 0 360 360">

    <g transform="translate(0.000000,244.000000) scale(0.100000,-0.100000)">
        <path d="M30 2150 c0 -159 1 -291 3 -291 7 -5 541 -6 557 -2 19 5 20 15 20
294 l0 289 -290 0 -290 0 0 -290z m500 -5 l0 -205 -204 0 -205 0 -3 193 c-2
105 -1 198 1 205 2 9 52 12 207 12 l204 0 0 -205z"/>
        <path d="M200 2145 l0 -125 125 0 125 0 0 125 0 125 -125 0 -125 0 0 -125z"/>
        <path d="M700 2315 l0 -125 40 0 40 0 0 -40 0 -40 -40 0 -40 0 0 -45 0 -45 40
0 40 0 0 -40 0 -40 -40 0 c-40 0 -40 0 -40 -39 0 -39 1 -40 38 -43 36 -3 37
-4 40 -45 l3 -43 -250 0 -251 0 0 -40 0 -40 40 0 40 0 0 -40 0 -40 45 0 45 0
0 40 0 40 205 0 205 0 0 -40 0 -40 -79 0 -80 0 -3 -42 c-3 -43 -3 -43 -43 -43
-40 0 -40 0 -43 43 -3 42 -3 42 -43 42 l-39 0 0 -45 0 -45 40 0 40 0 0 -40 0
-40 -205 0 -205 0 0 -85 0 -85 39 0 c40 0 40 0 43 43 l3 42 163 3 162 2 0 -45
0 -45 -40 0 -40 0 0 -40 0 -40 40 0 40 0 0 -40 0 -40 -40 0 -40 0 0 -45 0 -45
165 0 165 0 0 -80 0 -80 -40 0 -40 0 0 40 0 40 -165 0 -165 0 0 40 0 40 -85 0
-85 0 0 -40 0 -40 -40 0 -40 0 0 85 0 85 125 0 125 0 0 80 0 80 -45 0 -45 0 0
-40 0 -40 -165 0 -165 0 0 -40 0 -40 40 0 40 0 0 -45 0 -45 -40 0 -40 0 0
-165 0 -165 290 0 290 0 0 40 0 40 125 0 125 0 0 -40 0 -40 45 0 45 0 0 -40 0
-40 -85 0 -85 0 0 40 0 40 -40 0 -40 0 0 -205 0 -205 98 -1 c53 0 126 -1 162
-2 l65 -2 3 -42 c3 -43 3 -43 43 -43 l39 0 0 45 0 45 -40 0 -40 0 0 120 0 120
40 0 40 0 0 85 0 85 40 0 c33 0 40 -3 41 -20 0 -11 0 -54 0 -95 0 -148 4 -135
-41 -135 l-40 0 0 -40 0 -40 85 0 85 0 0 -39 c0 -40 0 -40 -42 -43 -43 -3 -43
-3 -43 -43 0 -40 0 -40 43 -43 42 -3 42 -3 42 -42 0 -39 0 -39 -42 -42 -41 -3
-43 -4 -46 -41 l-2 -37 45 0 45 0 0 40 0 40 40 0 40 0 0 -40 0 -40 46 0 45 0
-3 38 c-3 36 -4 37 -46 40 l-43 3 3 82 3 82 43 3 c43 3 43 3 40 40 -3 36 -4
37 -45 40 -43 3 -43 3 -43 43 l0 39 86 0 85 0 -3 43 c-3 41 -4 42 -40 45 -37
3 -38 4 -38 43 l0 39 80 0 80 0 0 40 0 40 40 0 40 0 0 -79 0 -80 -37 -3 -38
-3 -3 -167 -2 -168 -40 0 -40 0 0 -80 0 -80 125 0 125 0 0 40 0 40 80 0 80 0
0 39 c0 39 -1 40 -37 43 l-38 3 -3 83 -3 82 166 0 165 0 0 40 0 40 -40 0 -40
0 0 40 0 40 40 0 40 0 0 85 0 85 86 0 85 0 -3 43 c-3 43 -2 42 -60 46 -12 1
-18 12 -20 39 -3 36 -4 37 -45 40 -43 3 -43 3 -43 43 l0 39 85 0 85 0 0 -40 0
-40 40 0 40 0 0 40 0 40 -40 0 c-40 0 -40 0 -40 40 l0 39 -82 3 -83 3 -3 43
-3 42 45 0 46 0 0 80 0 80 40 0 40 0 0 -80 0 -80 40 0 40 0 0 205 0 205 -40 0
-40 0 0 -80 0 -80 -165 0 -165 0 0 40 0 40 80 0 80 0 0 39 c0 40 0 40 43 43
42 3 42 3 45 46 3 42 3 42 43 42 39 0 39 0 39 40 l0 40 40 0 40 0 0 40 0 40
-125 0 -125 0 0 -126 0 -125 -37 3 -38 3 -3 123 -3 122 -39 0 -40 0 0 -165 0
-165 -85 0 -85 0 0 40 0 40 40 0 40 0 0 45 0 45 -40 0 -40 0 0 -45 0 -45 -39
0 c-40 0 -40 0 -43 43 -3 42 -3 42 -45 45 l-43 3 0 -85 0 -86 85 0 85 0 0 -40
0 -40 40 0 40 0 0 -45 0 -45 -165 0 -165 0 0 -40 0 -40 -40 0 -40 0 0 -40 c0
-40 0 -40 -39 -40 -39 0 -40 1 -43 38 -3 36 -4 37 -45 40 -43 3 -43 3 -43 42
0 39 0 39 43 42 42 3 42 3 42 43 0 40 0 40 -42 43 -43 3 -43 3 -43 43 l0 39
125 0 125 0 0 -40 c0 -40 0 -40 39 -40 31 0 41 4 46 20 13 39 -3 60 -46 60
-39 0 -39 0 -39 40 l0 39 -122 3 -123 3 -3 123 -3 122 41 0 40 0 0 -40 0 -40
45 0 45 0 0 -40 0 -40 79 0 c92 0 95 3 89 98 l-3 57 43 3 42 3 0 -40 0 -41 40
0 40 0 0 40 0 40 -40 0 -40 0 0 124 0 125 -41 3 c-41 3 -42 4 -43 40 -1 36 0
37 39 40 39 3 40 4 43 46 l3 43 -43 -3 c-42 -3 -43 -4 -46 -40 l-3 -38 -80 0
-79 0 0 40 0 40 40 0 40 0 0 40 c0 40 0 40 39 40 31 0 40 4 44 21 3 12 2 32
-3 44 -8 22 -14 23 -82 22 l-73 -1 -3 43 -3 42 -42 -3 c-41 -3 -42 -4 -45 -43
l-3 -40 -39 3 c-39 4 -40 5 -40 43 l0 40 -82 -3 -83 -3 -3 -42 c-3 -39 -5 -41
-30 -39 -43 5 -52 -3 -52 -45 0 -39 0 -39 -40 -39 l-40 0 0 40 c0 22 -3 41 -7
41 -5 1 -39 3 -78 5 -38 2 -73 3 -77 3 -5 1 -8 19 -8 41 l0 40 -80 0 -80 0 0
-125z m660 -5 l0 -40 85 0 85 0 0 -39 c0 -40 0 -40 -42 -43 l-43 -3 -3 -82 -3
-83 -39 0 -40 0 0 -125 0 -125 -40 0 -39 0 -3 -122 -3 -123 -43 -3 -43 -3 3
-77 3 -77 40 -5 c39 -5 40 -6 40 -45 l0 -40 -82 -3 -83 -3 0 -39 0 -40 125 0
125 0 0 -40 0 -40 40 0 40 0 0 -85 0 -85 -40 0 -40 0 0 85 0 86 -82 -3 -83 -3
0 -40 0 -40 -40 0 c-40 0 -40 0 -43 43 -3 42 -3 42 -43 42 l-39 0 0 -85 0 -86
83 3 82 3 3 37 c3 37 4 38 43 38 l39 0 0 -80 0 -80 40 0 40 0 0 -40 0 -40 -40
0 -40 0 0 41 0 40 -42 -3 c-41 -3 -43 -5 -46 -38 -4 -41 -12 -48 -52 -42 -27
4 -30 8 -30 43 0 39 0 39 -40 39 l-40 0 0 40 0 40 -40 0 -40 0 0 125 0 125
-45 0 -45 0 0 -40 0 -40 -40 0 -40 0 0 80 0 80 -39 0 c-39 0 -40 -1 -43 -37
-3 -37 -4 -38 -45 -41 l-43 -3 0 40 0 41 45 0 45 0 0 125 0 125 79 0 80 0 3
43 c3 42 3 42 46 45 42 3 42 3 42 43 l0 39 -45 0 -46 0 3 83 3 82 43 3 42 3 0
80 0 79 40 0 40 0 0 40 c0 40 0 40 39 40 40 0 40 0 43 43 l3 42 83 3 82 3 0
-46 0 -45 40 0 40 0 0 85 0 85 -80 0 -80 0 0 40 0 40 80 0 80 0 0 -40z m-410
-80 l0 -40 -45 0 -45 0 0 40 0 40 45 0 45 0 0 -40z m740 -290 l0 -80 -40 0
-40 0 0 -85 0 -85 -40 0 -40 0 0 40 0 40 -40 0 -40 0 0 85 0 85 40 0 c40 0 40
0 40 -39 0 -32 4 -39 23 -43 52 -9 57 -2 57 83 l0 79 40 0 40 0 0 -80z m-830
-40 l0 -40 -40 0 -40 0 0 40 0 40 40 0 40 0 0 -40z m1330 -710 l0 -80 -40 0
-40 0 0 -45 0 -45 40 0 40 0 0 -40 0 -40 -40 0 -40 0 0 -80 0 -80 -40 0 -40 0
0 80 0 80 -85 0 -85 0 0 -40 0 -40 40 0 40 0 0 -40 0 -40 -40 0 -40 0 0 40 0
40 -40 0 -40 0 0 -40 0 -40 -44 0 -45 0 2 38 c3 36 4 37 45 40 l42 3 0 165 0
164 80 0 79 0 3 -82 3 -83 43 -3 42 -3 0 85 0 86 40 0 40 0 0 40 0 40 40 0 40
0 0 -80z m-500 -84 l0 -84 -80 -1 -80 -1 0 45 0 45 40 0 40 0 0 40 0 40 40 0
40 0 0 -84z m-1240 -206 l0 -40 80 0 80 0 0 -40 0 -40 -125 0 -125 0 0 80 0
80 45 0 45 0 0 -40z m1080 -38 c0 -43 -2 -81 -5 -83 -2 -3 -20 -3 -40 -1 l-35
4 0 79 0 79 40 0 40 0 0 -78z m-582 -44 l3 -38 -45 0 -46 0 0 41 0 40 43 -3
c41 -3 42 -4 45 -40z m82 -88 l0 -40 -40 0 -40 0 0 40 0 40 40 0 40 0 0 -40z
m410 -40 l0 -80 -40 0 -40 0 0 80 0 80 40 0 40 0 0 -80z m170 40 l0 -40 -40 0
-40 0 0 40 0 40 40 0 40 0 0 -40z m418 -162 l-3 -123 -122 -3 -123 -3 0 126 0
125 125 0 126 0 -3 -122z m-998 2 l0 -40 -40 0 -40 0 0 40 0 40 40 0 40 0 0
-40z m-170 -130 l0 -80 -40 0 -40 0 0 80 0 80 40 0 40 0 0 -80z m918 -208 l3
-123 -42 3 -42 3 0 115 c1 63 2 119 2 123 1 5 18 7 39 5 l37 -3 3 -123z"/>
        <path d="M1030 1895 l0 -125 -40 0 -40 0 0 -40 0 -40 40 0 c40 0 40 0 40 40
l0 39 83 3 82 3 5 40 c4 29 10 40 23 41 57 3 57 2 57 45 l0 40 -42 -3 c-42 -3
-43 -4 -43 -38 0 -34 -2 -35 -43 -38 l-42 -3 0 80 0 81 -40 0 -40 0 0 -125z"/>
        <path d="M1110 1651 l0 -41 46 0 45 0 -3 38 c-3 36 -4 37 -45 40 l-43 3 0 -40z"/>
        <path d="M860 1440 l0 -80 -40 0 -40 0 0 -45 0 -45 39 0 c40 0 40 0 43 43 l3
42 83 3 82 3 0 -46 0 -45 40 0 40 0 0 45 0 45 -40 0 -40 0 0 40 0 40 -40 0
-40 0 0 40 0 40 -45 0 -45 0 0 -80z"/>
        <path d="M2030 980 l0 -40 40 0 40 0 0 40 0 40 -40 0 -40 0 0 -40z"/>
        <path d="M1862 568 c3 -42 4 -43 41 -46 l37 -3 0 45 0 46 -41 0 -40 0 3 -42z"/>
        <path d="M1860 2151 c0 -278 1 -289 20 -294 10 -3 140 -4 287 -3 l268 1 3 293
2 292 -290 0 -290 0 0 -289z m500 -6 l0 -205 -210 0 -210 0 0 205 0 205 210 0
210 0 0 -205z"/>
        <path d="M2030 2145 l0 -126 123 3 122 3 3 123 3 122 -126 0 -125 0 0 -125z"/>
        <path d="M30 1604 l0 -165 43 3 c37 3 42 6 43 28 1 51 0 50 84 50 l80 0 0 45
0 45 -80 0 -80 0 -1 63 c-1 34 -1 70 0 80 2 14 -6 17 -43 17 l-46 0 0 -166z"/>
        <path d="M30 1315 l0 -46 43 3 c42 3 42 3 42 43 0 40 0 40 -42 43 l-43 3 0
-46z"/>
        <path d="M30 320 l0 -290 290 0 290 0 0 290 0 290 -290 0 -290 0 0 -290z m500
-5 l0 -205 -204 0 c-186 0 -204 2 -207 18 -2 9 -3 101 -1 205 l3 187 205 0
204 0 0 -205z"/>
        <path d="M200 315 l0 -126 123 3 122 3 3 123 3 122 -126 0 -125 0 0 -125z"/>
        <path d="M2360 485 l0 -45 -40 0 -40 0 0 -40 0 -40 40 0 c40 0 40 0 40 -40 l0
-39 -82 -3 -83 -3 -3 -42 c-3 -43 -3 -43 -43 -43 l-39 0 0 45 0 45 -40 0 -40
0 0 -125 0 -125 79 0 80 0 3 37 c3 37 4 38 46 41 42 3 42 3 42 43 0 39 0 39
40 39 l40 0 0 -40 0 -40 40 0 40 0 0 125 0 125 -40 0 -40 0 0 40 0 40 40 0 40
0 0 45 0 45 -40 0 -40 0 0 -45z"/>
        <path d="M780 150 l0 -40 -40 0 -40 0 0 -40 0 -40 40 0 40 0 0 40 0 40 40 0
40 0 0 -40 0 -40 45 0 45 0 0 40 0 40 -45 0 -45 0 0 40 0 40 -40 0 -40 0 0
-40z"/>
    </g>
</svg>
