<svg xmlns="http://www.w3.org/2000/svg">
    <symbol id="next" viewBox="0 0 360 360">
        <g transform="matrix(-1 0 0 -1 360 360)">
            <g transform="translate(0.000000,360.000000) scale(0.100000,-0.100000)">
                <path d="M1565 3584 c-926 -125 -1601 -926 -1562 -1854 20 -470 195 -868 527
                -1200 301 -301 659 -473 1082 -519 640 -70 1275 216 1653 744 445 623 445
                1467 0 2090 -387 541 -1047 828 -1700 739z m448 -189 c354 -47 665 -202 923
                -459 633 -634 633 -1638 0 -2272 -497 -496 -1238 -615 -1865 -300 -286 144
                -563 421 -707 707 -315 627 -196 1368 300 1865 360 359 849 526 1349 459z" />
                <path d="M1545 2340 c-495 -495 -500 -500 -500 -540 0 -40 5 -45 500 -540 485
                -485 502 -500 538 -500 71 0 117 72 86 133 -6 12 -210 221 -453 465 l-441 442
                441 443 c243 243 447 453 454 466 30 58 -20 131 -89 131 -34 0 -61 -26 -536
                -500z" />
            </g>
        </g>
    </symbol>

    <symbol id="prev" viewBox="0 0 360 360">
        <g transform="translate(0.000000,360.000000) scale(0.100000,-0.100000)">
            <path d="M1565 3584 c-926 -125 -1601 -926 -1562 -1854 20 -470 195 -868 527
            -1200 301 -301 659 -473 1082 -519 640 -70 1275 216 1653 744 445 623 445
            1467 0 2090 -387 541 -1047 828 -1700 739z m448 -189 c354 -47 665 -202 923
            -459 633 -634 633 -1638 0 -2272 -497 -496 -1238 -615 -1865 -300 -286 144
            -563 421 -707 707 -315 627 -196 1368 300 1865 360 359 849 526 1349 459z"/>
            <path d="M1545 2340 c-495 -495 -500 -500 -500 -540 0 -40 5 -45 500 -540 485
            -485 502 -500 538 -500 71 0 117 72 86 133 -6 12 -210 221 -453 465 l-441 442
            441 443 c243 243 447 453 454 466 30 58 -20 131 -89 131 -34 0 -61 -26 -536
            -500z"/>
        </g>
    </symbol>
</svg>
