<?xml version="1.0" encoding="UTF-8"?>
<svg id="_Слой_1" data-name=" Слой 1" xmlns="http://www.w3.org/2000/svg" viewBox="0 0 250 50">
  <defs>
    <style>
      .cls-1 {
        fill: none;
      }

      .cls-1, .cls-2 {
        stroke-width: 0px;
      }

      .cls-2 {
        fill: #010101;
      }
    </style>
  </defs>
  <g>
    <polygon class="cls-2" points="96.57 37.23 90.8 37.23 90.8 10.54 79.38 10.54 79.38 37.23 74.03 37.23 74.03 5.47 113.41 5.47 113.41 37.23 107.78 37.23 107.78 10.54 96.57 10.54 96.57 37.23"/>
    <path class="cls-2" d="m123.22,24.27v7.88h17.13v5.07h-22.77V5.47h22.63v18.8h-16.99Zm0-5.21h11.85v-8.52h-11.85v8.52Z"/>
    <polygon class="cls-2" points="161.68 37.23 161.68 10.54 149.9 10.54 149.9 37.23 144.54 37.23 144.54 5.47 167.31 5.47 167.31 37.23 161.68 37.23"/>
    <polygon class="cls-2" points="192.4 37.23 179 37.23 179 10.54 170.94 10.54 170.94 5.47 179 5.47 184.35 5.47 192.4 5.47 192.4 10.54 184.35 10.54 184.35 32.16 192.4 32.16 192.4 37.23"/>
    <path class="cls-2" d="m196.37,5.47h22.77v31.75h-22.77V5.47Zm17.49,5.07h-11.85v21.61h11.85V10.54Z"/>
    <polygon class="cls-2" points="237.15 10.54 228.96 10.54 228.96 37.23 223.32 37.23 223.32 5.47 242.5 5.47 242.5 16.35 237.15 16.35 237.15 10.54"/>
    <g>
      <path class="cls-2" d="m36.35,16.2v-.51h-2.91c2.63-4.62,4.75-7.57,6.36-8.87,1.61-1.31,2.67-1.19,3.21-.62,1.53,1.64-1.72,1.78-1.72,3.33,0,2.04,2.54,1.94,3.47.07.44-.89.39-1.98-.16-2.81-.43-.65-1.24-1.31-2.74-1.31-3.6,0-7.34,3.44-11.8,10.21h-3.52v.51h3.16c-3.78,5.87-11.25,20.45-15.63,25.27-2.82,3.1-5.63,3.14-6.34,1.95l-.23.92c1.22.24,5.97,1.65,14.03-9.13,2.15-2.88,11.55-19.01,11.55-19.01h3.27Z"/>
      <path class="cls-2" d="m60.08,20.91c1.13-.72,2.79-1.67,4.97-2.87,2.91-1.64,4.36-2.89,4.36-3.74s-1.7-1.03-4.26.03c-2.06.85-4.65,2.74-5.69,6.18-1.3.82-2.66,1.58-4.5,2.99l2.91-4.73c1.05-1.75,1.3-3.09.36-3.82-.4-.31-1.54-.88-3.8.21-.89.43-1.74,1.07-2.56,1.92l.24.12c4.15-3.5,3.48-.49,1.45,2.55l-2.15,3.41c-1.23,1.68-7.22,9.26-12.44,9.26-2.73,0-6.65-1.48-3.44-8.05,0,0,11.8-.31,13.96-5.61.51-1.26.09-2.75-1.08-3.44-.72-.43-1.83-.75-3.5-.75-6.21,0-10.22,4.04-12.03,7.05-6.26,10.44,5.22,16.03,15.11,6.96l-2.64,4.2h5.85v-.1c-1.06-.11-1.11-1.19-.47-2.31l3.13-5.08c1.29-1.2,5.44-3.9,5.44-3.9,0,0-.47,4,4.77,4,1.04,0,3.76-.35,5.26-2.2h-.76c-2.4,2.49-9.57,1.99-8.5-2.26m-19.71-3.15c6.82-6.51,11.88-.3,1.49,4.8-2.66,1.3-6.04,1.21-6.04,1.21,1.16-2.26,2.64-4.18,4.55-6.01"/>
    </g>
  </g>
  <rect class="cls-1" width="250" height="50"/>
</svg>