<?xml version="1.0" encoding="UTF-8"?>
<svg version="1.1" xmlns="http://www.w3.org/2000/svg" width="400" height="400">
<path d="M0 0 C21.78 0 43.56 0 66 0 C66 15.51 66 31.02 66 47 C63.75487738 48.12256131 62.48543351 48.13413762 60 48.125 C58.948125 48.12886719 58.948125 48.12886719 57.875 48.1328125 C56 48 56 48 54 47 C54 34.46 54 21.92 54 9 C49.05 9 44.1 9 39 9 C39 21.54 39 34.08 39 47 C35.85658007 48.57170996 32.44228549 48.23175783 29 48 C27.515 47.505 27.515 47.505 26 47 C26 34.79 26 22.58 26 10 C19.07 9.505 19.07 9.505 12 9 C12 21.54 12 34.08 12 47 C8.49852959 48.1671568 5.67329964 48.13357453 2 48 C1.34 47.67 0.68 47.34 0 47 C0 31.49 0 15.98 0 0 Z " fill="#FFFFFF" transform="translate(117,172)"/>
<path d="M0 0 C4.29 0 8.58 0 13 0 C13 2.97 13 5.94 13 9 C10.69 9.33 8.38 9.66 6 10 C5.34 8.35 4.68 6.7 4 5 C2.02 7.31 0.04 9.62 -2 12 C-0.68 12.66 0.64 13.32 2 14 C2.721875 13.71125 3.44375 13.4225 4.1875 13.125 C8.99299228 11.20280309 14.11963139 11.37321046 19 13 C19 13.66 19 14.32 19 15 C19.66 15 20.32 15 21 15 C21 17.31 21 19.62 21 22 C20.34 22 19.68 22 19 22 C19 22.66 19 23.32 19 24 C12.09176345 27.08697772 5.48620682 28.91834274 -2 30 C-2 31.98 -2 33.96 -2 36 C1.79661153 37.15549047 3.84727428 37.49427749 7.55078125 35.90625 C12.29015082 33.153905 15.80435108 30.5271693 19 26 C19.66 26 20.32 26 21 26 C22.20628008 23.66785852 23.1654738 21.50357861 24 19 C23.34 19 22.68 19 22 19 C22 17.68 22 16.36 22 15 C26.77830905 12.08639692 29.55106131 11.80123349 35 13 C35.495 14.98 35.495 14.98 36 17 C36.53625 16.38125 37.0725 15.7625 37.625 15.125 C41.96111406 11.245319 46.32529522 10.72977596 52 11 C52.495 12.98 52.495 12.98 53 15 C52.34 15 51.68 15 51 15 C51 15.66 51 16.32 51 17 C49.71802734 17.59748047 49.71802734 17.59748047 48.41015625 18.20703125 C47.30542969 18.73683594 46.20070313 19.26664063 45.0625 19.8125 C43.96035156 20.33457031 42.85820313 20.85664063 41.72265625 21.39453125 C38.71259223 22.76794721 38.71259223 22.76794721 38 26 C42.95 25.67 47.9 25.34 53 25 C53 25.99 53 26.98 53 28 C48.11408198 30.3931027 44.55860161 31.70745839 39 31 C35.5625 29 35.5625 29 33 27 C27.91226512 29.32582166 25.34086309 33.05928471 23 38 C23 38.99 23 39.98 23 41 C19.04 41 15.08 41 11 41 C11 40.34 11 39.68 11 39 C10.34 39 9.68 39 9 39 C9 39.66 9 40.32 9 41 C2.113402 42.03361236 -2.89092461 42.63944917 -9 39 C-11.02350324 35.96474514 -11.32124018 34.80573798 -11.625 31.3125 C-11.69976562 30.50425781 -11.77453125 29.69601563 -11.8515625 28.86328125 C-11.90054688 28.24839844 -11.94953125 27.63351563 -12 27 C-12.65226562 28.00160156 -13.30453125 29.00320312 -13.9765625 30.03515625 C-26.51851658 49.17016898 -26.51851658 49.17016898 -36 55 C-36.66 55 -37.32 55 -38 55 C-38 55.66 -38 56.32 -38 57 C-41.63 57 -45.26 57 -49 57 C-49 55.68 -49 54.36 -49 53 C-48.278125 53.226875 -47.55625 53.45375 -46.8125 53.6875 C-43.18304825 54.09077242 -41.86938531 53.17142672 -39 51 C-38.34 50.01 -37.68 49.02 -37 48 C-36.34 48 -35.68 48 -35 48 C-34.74992187 47.28585938 -34.49984375 46.57171875 -34.2421875 45.8359375 C-32.87596229 42.71681957 -31.18239882 40.33455542 -29.125 37.625 C-26.07459978 33.5229275 -23.45590205 29.47325017 -21 25 C-19.70267115 22.97292367 -18.35749417 20.98775932 -17 19 C-17.66 18.67 -18.32 18.34 -19 18 C-19 16.35 -19 14.7 -19 13 C-17.96875 12.979375 -16.9375 12.95875 -15.875 12.9375 C-11.23642034 11.81526299 -10.14933165 10.36109871 -7.34765625 6.72265625 C-5.7865779 4.72719088 -4.16518606 3.31457725 -2 2 C-1.34 2 -0.68 2 0 2 C0 1.34 0 0.68 0 0 Z M6 2 C6.33 2.66 6.66 3.32 7 4 C7.33 3.34 7.66 2.68 8 2 C7.34 2 6.68 2 6 2 Z M5 19 C2.58855519 21.53099205 2.58855519 21.53099205 1 24 C3.48957835 24.91191297 4.60705494 25.15965671 7.10546875 24.14453125 C7.79253906 23.70496094 8.47960937 23.26539063 9.1875 22.8125 C9.88230469 22.38582031 10.57710937 21.95914063 11.29296875 21.51953125 C13.28877098 19.74294757 13.62642278 18.60388898 14 16 C10.68854411 16 7.83028459 17.38629654 5 19 Z M-7 18 C-7 18.99 -7 19.98 -7 21 C-6.34 20.01 -5.68 19.02 -5 18 C-5.66 18 -6.32 18 -7 18 Z M-10 22 C-9 24 -9 24 -9 24 Z M-11 24 C-10 26 -10 26 -10 26 Z " fill="#FFFFFF" transform="translate(60,172)"/>
<path d="M0 0 C13.2 0 26.4 0 40 0 C40 9.57 40 19.14 40 29 C31.09 29 22.18 29 13 29 C13 31.97 13 34.94 13 38 C22.24 38 31.48 38 41 38 C41 40.64 41 43.28 41 46 C37.23230509 48.5117966 34.26248867 48.27138552 29.90234375 48.23046875 C28.71723961 48.22978142 28.71723961 48.22978142 27.50819397 48.2290802 C25.83967586 48.22606142 24.17116049 48.21818629 22.50268555 48.20581055 C19.94374655 48.18754459 17.38516929 48.18530098 14.82617188 48.18554688 C13.20572603 48.18063185 11.58528264 48.1748036 9.96484375 48.16796875 C9.19712143 48.16685593 8.42939911 48.1657431 7.63841248 48.16459656 C2.23215987 48.11607994 2.23215987 48.11607994 0 47 C0 31.49 0 15.98 0 0 Z M13 9 C12.67 12.3 12.34 15.6 12 19 C17.61 19 23.22 19 29 19 C29 15.7 29 12.4 29 9 C23.72 9 18.44 9 13 9 Z " fill="#FFFFFF" transform="translate(186,172)"/>
<path d="M0 0 C13.2 0 26.4 0 40 0 C40 15.51 40 31.02 40 47 C36.32913724 48.22362092 32.94275551 48.14321271 29.12109375 48.1328125 C28.35322037 48.13376923 27.58534698 48.13472595 26.79420471 48.13571167 C25.17277952 48.13639159 23.55135159 48.13455043 21.92993164 48.13037109 C19.44346027 48.12501284 16.95716893 48.13032617 14.47070312 48.13671875 C12.89583293 48.13605808 11.32096285 48.13477714 9.74609375 48.1328125 C9.00024521 48.13483673 8.25439667 48.13686096 7.48594666 48.13894653 C2.22993247 48.11496623 2.22993247 48.11496623 0 47 C0 31.49 0 15.98 0 0 Z M12 9 C12 18.57 12 28.14 12 38 C16.95 38 21.9 38 27 38 C28.35048039 35.29903923 28.12963577 33.17273483 28.1328125 30.15234375 C28.13410156 28.99025391 28.13539063 27.82816406 28.13671875 26.63085938 C28.13091797 24.80264648 28.13091797 24.80264648 28.125 22.9375 C28.12886719 21.71482422 28.13273437 20.49214844 28.13671875 19.23242188 C28.13478516 17.4912207 28.13478516 17.4912207 28.1328125 15.71484375 C28.13168457 14.64355225 28.13055664 13.57226074 28.12939453 12.46850586 C28.27897746 10.05593649 28.27897746 10.05593649 27 9 C24.4672235 8.92679837 21.96896082 8.90772431 19.4375 8.9375 C16.983125 8.958125 14.52875 8.97875 12 9 Z " fill="#FFFFFF" transform="translate(313,172)"/>
<path d="M0 0 C13.53 0 27.06 0 41 0 C41 15.51 41 31.02 41 47 C38.63386544 48.18306728 37.13219264 48.13354608 34.5 48.125 C33.7059375 48.12757813 32.911875 48.13015625 32.09375 48.1328125 C30 48 30 48 28 47 C28 34.46 28 21.92 28 9 C22.72 9 17.44 9 12 9 C12.00523682 10.145896 12.01047363 11.29179199 12.01586914 12.47241211 C12.03391717 16.70840682 12.04543128 20.94439812 12.05493164 25.18041992 C12.05997231 27.01668875 12.06680477 28.85295354 12.07543945 30.68920898 C12.08751672 33.32276401 12.09323081 35.95626616 12.09765625 38.58984375 C12.10281754 39.41588608 12.10797882 40.24192841 12.11329651 41.09300232 C12.11349205 43.06236368 12.06204152 45.03161614 12 47 C10.12356239 48.87643761 7.50194299 48.17984987 5.0078125 48.23046875 C3 48 3 48 0 46 C-0.36076355 44.01315308 -0.36076355 44.01315308 -0.34057617 41.55029297 C-0.34034958 40.62948944 -0.34012299 39.70868591 -0.33988953 38.75997925 C-0.31666374 37.26617233 -0.31666374 37.26617233 -0.29296875 35.7421875 C-0.28872391 34.72399933 -0.28447906 33.70581116 -0.28010559 32.6567688 C-0.26327579 29.39591327 -0.22561546 26.13566959 -0.1875 22.875 C-0.17245874 20.66797766 -0.15876937 18.46094566 -0.14648438 16.25390625 C-0.11590652 10.83551057 -0.05719232 5.41844233 0 0 Z " fill="#FFFFFF" transform="translate(229,172)"/>
<path d="M0 0 C12.87 0 25.74 0 39 0 C39 2.97 39 5.94 39 9 C34.71 9 30.42 9 26 9 C26 18.57 26 28.14 26 38 C30.29 38 34.58 38 39 38 C39 40.97 39 43.94 39 47 C36.57108818 48.21445591 34.99280557 48.12924198 32.28125 48.1328125 C31.34925781 48.13410156 30.41726563 48.13539063 29.45703125 48.13671875 C28.48121094 48.13285156 27.50539063 48.12898438 26.5 48.125 C25.03626953 48.13080078 25.03626953 48.13080078 23.54296875 48.13671875 C22.14498047 48.13478516 22.14498047 48.13478516 20.71875 48.1328125 C19.86216797 48.13168457 19.00558594 48.13055664 18.12304688 48.12939453 C16 48 16 48 14 47 C14 34.79 14 22.58 14 10 C7.07 9.505 7.07 9.505 0 9 C0 6.03 0 3.06 0 0 Z " fill="#FFFFFF" transform="translate(271,172)"/>
<path d="M0 0 C10.89 0 21.78 0 33 0 C33 5.94 33 11.88 33 18 C29.37 18 25.74 18 22 18 C22 15.03 22 12.06 22 9 C18.37 9 14.74 9 11 9 C11.00523682 10.145896 11.01047363 11.29179199 11.01586914 12.47241211 C11.03391717 16.70840682 11.04543128 20.94439812 11.05493164 25.18041992 C11.05997231 27.01668875 11.06680477 28.85295354 11.07543945 30.68920898 C11.08751672 33.32276401 11.09323081 35.95626616 11.09765625 38.58984375 C11.10281754 39.41588608 11.10797882 40.24192841 11.11329651 41.09300232 C11.11349205 43.06236368 11.06204152 45.03161614 11 47 C9.10114904 48.89885096 6.42752097 48.12367506 3.91015625 48.1328125 C2 48 2 48 0 47 C0 31.49 0 15.98 0 0 Z " fill="#FFFFFF" transform="translate(356,172)"/>
</svg>
