<?xml version="1.0" encoding="UTF-8"?>
<svg id="_Слой_1" data-name="Слой 1" xmlns="http://www.w3.org/2000/svg" viewBox="0 0 1000 900">
  <defs>
    <style>
      .cls-1 {
        fill: none;
      }

      .cls-1, .cls-2 {
        stroke-width: 0px;
      }

      .cls-2 {
        fill: #fff;
      }
    </style>
  </defs>
  <g>
    <path class="cls-1" d="m738.2,493.8c3.5-3.8,5.3-8.5,5.3-14.1,0-4.9-1.8-9-5.4-12.1-3.6-3.2-8.3-4.7-14-4.7h-48.7v36.7h49.7c5.2,0,9.6-1.9,13.1-5.8Z"/>
    <path class="cls-1" d="m725.1,528.2h-49.7v37.2h51c5.5,0,10.2-1.6,13.8-5,3.7-3.3,5.6-7.4,5.6-12.3,0-5.7-2-10.4-6-14.2-3.9-3.8-8.9-5.7-14.7-5.7Z"/>
    <path class="cls-1" d="m497.1,199.6c16.2,0,29.9-6,41.3-18.1s17.1-26.5,17.1-43.3c0-14.3-4.6-26-13.9-35.2-9.2-9.2-20.9-13.8-35.1-13.8-16.2,0-29.9,5.9-41.3,17.8-11.4,11.9-17.1,26.3-17.1,43.2,0,14.5,4.6,26.3,13.9,35.6,9.2,9.2,20.9,13.8,35.1,13.8Z"/>
    <path class="cls-1" d="m696.8,139.1c5.8-5.2,8.8-11.7,8.8-19.4s-2.9-13.8-8.7-18.8-13-7.5-21.8-7.5h-37.6v53.6h37.6c8.6-.1,15.9-2.7,21.7-7.9Z"/>
    <path class="cls-2" d="m229.8,412.8c19.1,0,35.1-6.4,48-19,12.9-12.7,19.4-28.8,19.4-48.1v-97h-30v94.7c0,12.3-3.5,22-10.5,29s-16,10.5-26.9,10.5-19.9-3.5-26.9-10.5-10.5-16.7-10.5-29v-94.7h-30v97c0,19.4,6.5,35.4,19.4,48.1,12.9,12.6,28.9,19,48,19Z"/>
    <polygon class="cls-2" points="290.9 159.2 366.4 159.2 366.4 225.5 396.4 225.5 396.4 63.8 366.4 63.8 366.4 129.6 290.9 129.6 290.9 63.8 260.8 63.8 260.8 225.5 290.9 225.5 290.9 159.2"/>
    <polygon class="cls-2" points="105.5 314.4 105.5 314.4 105.5 314.4 30 314.4 30 248.5 0 248.5 0 410.2 30 410.2 30 343.9 105.5 343.9 105.5 410.2 135.6 410.2 135.6 248.5 105.5 248.5 105.5 314.4"/>
    <path class="cls-2" d="m496.6,229.6c16.2,0,31.1-4.2,44.8-12.6s24.5-19.7,32.5-33.9c7.9-14.2,11.9-29.5,11.9-45.8,0-22.5-7.5-41.1-22.6-55.9-15.1-14.8-33.9-22.2-56.4-22.2-16,0-30.9,4.1-44.6,12.3-13.7,8.2-24.5,19.4-32.3,33.5s-11.8,29.4-11.8,46.1c0,22.5,7.5,41.2,22.5,56.1,15,14.9,33.7,22.4,56,22.4Zm-31.4-122.6c11.4-11.8,25.2-17.8,41.3-17.8,14.2,0,25.9,4.6,35.1,13.8,9.2,9.2,13.9,20.9,13.9,35.2,0,16.8-5.7,31.2-17.1,43.3-11.4,12.1-25.2,18.1-41.3,18.1-14.2,0-25.9-4.6-35.1-13.8s-13.9-21.1-13.9-35.6c0-17,5.7-31.4,17.1-43.2Z"/>
    <path class="cls-2" d="m637.5,176.5h37.6c16.8,0,31.1-5.5,42.9-16.5,11.8-11,17.7-24.4,17.7-40.3s-5.5-29.3-16.6-39.9c-11.1-10.6-25-15.9-41.6-15.9h-70v161.6h30v-49h0Zm0-29.6v-53.6h37.6c8.8,0,16,2.5,21.8,7.5s8.7,11.3,8.7,18.8-2.9,14.2-8.8,19.4c-5.9,5.2-13.1,7.8-21.7,7.8h-37.6v.1h0Z"/>
    <polygon class="cls-2" points="781.1 362.6 781.1 362.6 710.2 248.6 675.5 248.6 675.5 410.2 705.6 410.2 705.6 295.4 776.5 410.2 811.1 410.2 811.1 248.5 781.1 248.5 781.1 362.6"/>
    <rect class="cls-2" x="618.7" y="248.5" width="30" height="161.6"/>
    <path class="cls-2" d="m752.8,513.2c6.5-3.7,11.5-8.9,15.2-15.7s5.5-14.2,5.5-22.2c0-12.2-4.4-22.2-13.3-30.2-8.9-7.9-20-11.9-33.4-11.9h-81.5v161.8h83.8c13.2,0,24.3-4.1,33.2-12.3s13.4-18.4,13.4-30.6c0-8.5-2-16.1-6.1-23-3.9-6.9-9.6-12.2-16.8-15.9Zm-77.4-50.3h48.7c5.7,0,10.4,1.6,14,4.7,3.6,3.2,5.4,7.2,5.4,12.1,0,5.5-1.8,10.2-5.3,14.1-3.5,3.9-7.9,5.8-13.2,5.8h-49.7v-36.7h.1Zm64.9,97.5c-3.7,3.3-8.3,5-13.8,5h-51v-37.2h49.7c5.9,0,10.8,1.9,14.8,5.7s6,8.5,6,14.2c-.1,4.9-2,9-5.7,12.3Z"/>
    <path class="cls-2" d="m999.3,317.8h-91.5v27h59.3c-2.2,11.7-7.9,21.2-17.3,28.5-9.4,7.3-20.5,11-33.2,11-14.8,0-27.4-5.2-37.8-15.6s-15.6-23.6-15.6-39.6,5.2-29.2,15.6-39.6c10.4-10.4,23-15.6,37.8-15.6,10.3,0,19.7,2.7,28.2,8s14.9,12.7,19.4,22.1l26.8-13.9c-6.8-14.3-16.8-25.6-30.1-33.8-13.3-8.2-28-12.4-44.2-12.4-11.4,0-22.2,2.1-32.3,6.4-10.2,4.2-19,10-26.6,17.4-7.5,7.4-13.5,16.4-17.9,27.1s-6.6,22.1-6.6,34.3,2.2,23.6,6.6,34.3,10.4,19.7,17.9,27.1,16.4,13.2,26.6,17.4c10.2,4.2,20.9,6.4,32.3,6.4,15.2,0,29.2-3.5,41.9-10.5s22.8-16.8,30.2-29.3c7.5-12.5,11.2-26.6,11.2-42.1,0-6.5-.2-11.3-.7-14.6Z"/>
    <path class="cls-2" d="m588.6,528c0,12.3-3.5,22-10.5,29s-16,10.5-26.9,10.5-19.9-3.5-26.9-10.5-10.5-16.7-10.5-29v-94.7h-30v97c0,19.4,6.5,35.4,19.4,48.1,12.9,12.7,28.9,19.1,48,19.1s35.1-6.3,48-19.1c13-12.7,19.4-28.8,19.4-48.1v-97h-30v94.7Z"/>
    <path class="cls-2" d="m292.2,559.8c-8.9,6.2-19,9.3-30.2,9.3-15.1,0-27.8-5.2-38.2-15.7s-15.6-23.6-15.6-39.5,5.2-29,15.6-39.5c10.4-10.5,23.1-15.7,38.2-15.7,10.9,0,20.8,2.9,29.6,8.8,8.8,5.9,15.4,14,19.8,24.3l30-10.9c-7.2-16.2-18-28.9-32.1-38.2-14.2-9.3-29.9-14-47.1-14-15.6,0-29.8,3.7-42.6,11.1-12.9,7.4-23,17.6-30.4,30.6s-11.1,27.5-11.1,43.5,3.7,30.5,11.1,43.5c7.4,13,17.5,23.2,30.4,30.6,12.9,7.4,27.1,11.1,42.6,11.1,17.7,0,33.8-4.9,48.1-14.7,14.4-9.8,25.1-23,32.2-39.8l-30.2-10.6c-4.5,10.9-11.1,19.5-20.1,25.8Z"/>
    <polygon class="cls-2" points="412.5 433.3 382.2 433.3 353.3 595 467.2 595 472.5 565.6 388.9 565.6 412.5 433.3"/>
    <polygon class="cls-2" points="519.2 410.2 531.9 410.2 549.2 410.2 574.4 410.2 574.4 380.6 549.2 380.6 549.2 278.1 598.4 278.1 598.4 248.5 479.2 248.5 460.5 248.5 449 248.5 428.4 365.9 379.2 248.5 343 248.5 314.6 410.2 345.1 410.2 365.6 292.2 414.6 410.2 450.8 410.2 474.1 278.1 519.2 278.1 519.2 410.2"/>
    <g>
      <path class="cls-2" d="m281.6,771v-56.3h7.5v9.2h-.4c1.1-3.1,2.9-5.5,5.5-7.3s5.8-2.6,9.4-2.6c3.8,0,7,.9,9.8,2.6s4.9,4.2,6.5,7.4c1.5,3.2,2.3,6.9,2.3,11.3s-.8,8.1-2.3,11.3-3.6,5.7-6.4,7.5-6.1,2.6-9.9,2.6c-3.5,0-6.6-.9-9.1-2.6s-4.4-4.1-5.5-6.9h.5v23.8h-7.9Zm20.3-20.7c3.8,0,6.8-1.3,9-4,2.2-2.6,3.3-6.3,3.3-11.1s-1.1-8.4-3.3-11c-2.2-2.6-5.2-3.9-9-3.9s-6.8,1.3-9.1,3.9c-2.2,2.6-3.4,6.3-3.4,11s1.1,8.5,3.4,11.1c2.2,2.6,5.3,4,9.1,4Z"/>
      <path class="cls-2" d="m353.7,756.6c-4.6,0-8.5-.8-11.8-2.6s-5.8-4.2-7.6-7.3c-1.8-3.2-2.6-7-2.6-11.4s.8-7.9,2.5-11.1,4.1-5.7,7.1-7.5c3.1-1.8,6.6-2.7,10.7-2.7s7.3.8,10,2.5,4.9,4.1,6.4,7.1c1.5,3.1,2.2,6.7,2.2,11v2.7h-32.8v-5.2h27.4l-1.4,1.4c0-4.4-1-7.8-3-10.2-2-2.3-4.9-3.5-8.6-3.5-2.6,0-4.9.6-6.8,1.8s-3.4,2.9-4.5,5.1c-1,2.2-1.5,4.8-1.5,7.8v.7c0,3.4.6,6.1,1.7,8.3s2.8,3.9,5,5c2.2,1.2,4.8,1.7,7.9,1.7,2.4,0,4.7-.3,7-1s4.5-1.8,6.5-3.5l2.6,5.6c-2,1.7-4.5,3-7.4,4-3.2.9-6.1,1.3-9,1.3Z"/>
      <path class="cls-2" d="m400.4,756.6c-4.2,0-7.9-.9-11-2.6-3.1-1.8-5.5-4.3-7.2-7.5s-2.5-7-2.5-11.3.8-8.1,2.5-11.3,4.1-5.6,7.2-7.3,6.8-2.6,11-2.6c2.7,0,5.4.5,7.9,1.4s4.7,2.2,6.3,3.7l-2.7,5.8c-1.6-1.4-3.3-2.5-5.2-3.2-1.9-.8-3.8-1.1-5.7-1.1-4.2,0-7.5,1.3-9.8,3.8s-3.5,6.2-3.5,10.9,1.2,8.3,3.5,11c2.3,2.6,5.6,3.9,9.8,3.9,1.8,0,3.6-.3,5.6-1s3.7-1.8,5.2-3.2l2.7,5.8c-1.6,1.6-3.7,2.8-6.3,3.7-2.5.7-5.1,1.1-7.8,1.1Z"/>
      <path class="cls-2" d="m432.8,755.9v-34.8h-15v-6.5h38.2v6.5h-15.1v34.8h-8.1Z"/>
      <path class="cls-2" d="m481.6,756.6c-4.1,0-7.7-.9-10.8-2.6-3-1.8-5.4-4.2-7-7.5s-2.5-7-2.5-11.3.8-8.1,2.5-11.2c1.6-3.2,4-5.7,7-7.4s6.6-2.6,10.8-2.6,7.7.9,10.8,2.6,5.4,4.2,7,7.4,2.5,6.9,2.5,11.2-.8,8.1-2.5,11.3c-1.6,3.2-4,5.7-7,7.5-3.1,1.8-6.7,2.6-10.8,2.6Zm0-6.4c3.8,0,6.8-1.3,9-3.9s3.3-6.3,3.3-11-1.1-8.4-3.3-11-5.2-3.9-9-3.9-6.8,1.3-9,3.9-3.3,6.2-3.3,11,1.1,8.4,3.3,11c2.2,2.6,5.2,3.9,9,3.9Z"/>
      <path class="cls-2" d="m513.8,755.9v-41.2h8v16.9h7.4l13.3-16.9h8.7l-15.7,20.1-1.8-2.3c1.6.2,3,.6,4.2,1.2,1.2.6,2.3,1.6,3.4,2.8,1.1,1.2,2.2,2.8,3.4,4.8l8.7,14.5h-8.6l-7.4-12.2c-.8-1.5-1.7-2.6-2.5-3.4s-1.8-1.4-2.8-1.8-2.4-.5-3.9-.5h-6.3v18h-8.1Z"/>
      <path class="cls-2" d="m558.8,756.9l-2.8-6.2c2-.8,3.6-1.8,4.9-3.1s2.3-2.8,3.1-4.8c.8-1.9,1.3-4.3,1.6-7,.3-2.8.5-6.1.5-10v-11.2h31.5v41.2h-8.1v-34.8h-16v4.9c0,4.6-.2,8.6-.8,12.1-.5,3.5-1.3,6.4-2.4,8.9-1.1,2.5-2.6,4.5-4.5,6.1-2,1.7-4.3,3-7,3.9Z"/>
      <path class="cls-2" d="m616.3,771l7.9-17.9v4.6l-18.3-43.1h8.6l13.6,34.2h-1.3l13.7-34.2h8.3l-24.1,56.4h-8.4Z"/>
      <path class="cls-2" d="m675.4,756.6c-4.2,0-7.8-.9-11-2.7-3.1-1.8-5.5-4.4-7.2-7.9s-2.5-7.8-2.5-12.8v-6.3c0-2.9.2-5.6.7-8.1s1.2-4.8,2.1-6.8c1-2.1,2.3-3.9,3.9-5.6s3.6-3.1,5.9-4.3c2.3-1.2,5-2.3,8.2-3.1l14.8-3.9,2.4,6.5-16.7,4.2c-4.6,1.2-8,3.3-10.4,6.3-2.3,3-3.5,6.7-3.5,11.2v2.9h-.7c.7-2.3,1.7-4.3,3.2-6s3.2-3,5.3-3.9,4.5-1.4,7.2-1.4,5.2.5,7.4,1.4c2.2,1,4.2,2.3,5.8,4.2,1.6,1.8,2.9,4,3.8,6.5s1.4,5.4,1.4,8.6c0,4.3-.8,8-2.6,11.2-1.7,3.2-4.1,5.6-7,7.3-2.8,1.7-6.4,2.5-10.5,2.5Zm-.2-6.3c3.9,0,6.9-1.2,9.1-3.7,2.2-2.5,3.3-6,3.3-10.7s-1.1-8.2-3.3-10.8c-2.2-2.5-5.2-3.8-9.1-3.8s-6.8,1.3-9,3.8-3.3,5.9-3.3,10.2c0,4.9,1.1,8.7,3.3,11.2,2.1,2.5,5.1,3.8,9,3.8Z"/>
      <path class="cls-2" d="m128.4,840.6c-4.2,0-7.8-.9-10.9-2.6-3.1-1.8-5.5-4.3-7.2-7.5s-2.5-7-2.5-11.3.8-8.1,2.5-11.3,4.1-5.6,7.2-7.3,6.8-2.6,10.9-2.6c2.7,0,5.4.5,7.9,1.4s4.7,2.2,6.3,3.7l-2.7,5.8c-1.6-1.4-3.3-2.5-5.2-3.2-1.9-.8-3.8-1.1-5.7-1.1-4.2,0-7.5,1.3-9.8,3.8s-3.5,6.2-3.5,10.9,1.2,8.3,3.5,11c2.3,2.6,5.6,3.9,9.8,3.9,1.8,0,3.6-.3,5.6-1,1.9-.7,3.7-1.8,5.2-3.2l2.7,5.8c-1.6,1.6-3.7,2.8-6.3,3.7s-5.1,1.1-7.8,1.1Z"/>
      <path class="cls-2" d="m171.6,840.6c-4.6,0-8.5-.8-11.8-2.6s-5.8-4.2-7.6-7.3c-1.8-3.2-2.6-7-2.6-11.4s.8-7.9,2.5-11.1c1.7-3.2,4.1-5.7,7.1-7.5,3.1-1.8,6.6-2.7,10.7-2.7s7.3.8,10,2.5,4.9,4.1,6.4,7.1c1.5,3.1,2.2,6.7,2.2,11v2.7h-32.8v-5.3h27.4l-1.4,1.4c0-4.4-1-7.8-3-10.2-2-2.3-4.9-3.5-8.6-3.5-2.6,0-4.9.6-6.8,1.8s-3.4,2.9-4.4,5.1c-1,2.2-1.6,4.8-1.6,7.8v.7c0,3.4.6,6.1,1.7,8.3,1.1,2.2,2.8,3.9,4.9,5,2.2,1.2,4.8,1.7,7.9,1.7,2.4,0,4.7-.3,7-1s4.4-1.8,6.5-3.5l2.6,5.6c-2,1.7-4.5,3-7.4,4-3,.9-5.9,1.4-8.9,1.4Z"/>
      <path class="cls-2" d="m198,840.8l-2.9-6.2c2-.8,3.6-1.8,4.9-3.1,1.3-1.3,2.4-2.8,3.1-4.8.8-1.9,1.3-4.3,1.6-7,.3-2.8.5-6.1.5-10v-11.2h31.5v41.2h-8.1v-34.8h-16v4.9c0,4.6-.2,8.6-.8,12.1-.5,3.5-1.3,6.4-2.4,8.9-1.1,2.5-2.6,4.5-4.5,6.1-1.9,1.8-4.2,3-6.9,3.9Z"/>
      <path class="cls-2" d="m270.5,840.6c-4.6,0-8.5-.8-11.8-2.6-3.3-1.7-5.8-4.2-7.6-7.3-1.8-3.2-2.6-7-2.6-11.4s.8-7.9,2.5-11.1c1.7-3.2,4.1-5.7,7.1-7.5,3.1-1.8,6.6-2.7,10.7-2.7s7.3.8,10,2.5,4.9,4.1,6.4,7.1c1.5,3.1,2.2,6.7,2.2,11v2.7h-32.8v-5.3h27.4l-1.4,1.4c0-4.4-1-7.8-3-10.2-2-2.3-4.9-3.5-8.6-3.5-2.6,0-4.9.6-6.8,1.8s-3.4,2.9-4.5,5.1c-1,2.2-1.5,4.8-1.5,7.8v.7c0,3.4.6,6.1,1.7,8.3s2.8,3.9,5,5c2.2,1.2,4.8,1.7,7.9,1.7,2.4,0,4.7-.3,7-1s4.5-1.8,6.5-3.5l2.6,5.6c-2,1.7-4.5,3-7.4,4-3.2.9-6.1,1.4-9,1.4Z"/>
      <path class="cls-2" d="m299,839.8v-41.2h8v16.9h7.4l13.4-16.9h8.6l-15.7,20.1-1.8-2.3c1.6.2,3,.6,4.2,1.2,1.2.6,2.3,1.6,3.4,2.8s2.2,2.8,3.4,4.8l8.7,14.5h-8.6l-7.4-12.2c-.8-1.5-1.7-2.6-2.5-3.4s-1.8-1.4-2.8-1.8-2.4-.5-3.9-.5h-6.4v18h-8Z"/>
      <path class="cls-2" d="m354.9,839.8v-34.8h-15v-6.5h38.1v6.5h-15.1v34.8h-8Z"/>
      <path class="cls-2" d="m386,839.8v-41.2h7.4v32.4h-1.3l24.2-32.4h7.1v41.2h-7.4v-32.5h1.3l-24.2,32.5h-7.1Z"/>
      <path class="cls-2" d="m437.7,839.8v-41.2h21.4c3.4,0,6.2.4,8.4,1.3,2.2.8,3.8,2.1,4.8,3.7,1,1.6,1.5,3.6,1.5,5.9s-.8,4.5-2.4,6.2-3.7,2.8-6.3,3.3v-.6c2.1.2,3.9.7,5.5,1.6,1.5.9,2.7,2.1,3.4,3.5.8,1.4,1.2,3.1,1.2,4.9,0,3.5-1.3,6.3-4,8.3s-6.5,3.1-11.4,3.1h-22.1Zm7.6-23.6h13.3c2.5,0,4.4-.5,5.8-1.6s2.1-2.6,2.1-4.7-.7-3.5-2.1-4.5-3.3-1.5-5.8-1.5h-13.3v12.3Zm0,18.3h14c2.7,0,4.8-.5,6.2-1.6,1.5-1.1,2.2-2.7,2.2-4.8s-.7-3.8-2.2-4.9c-1.5-1.1-3.6-1.6-6.2-1.6h-14v12.9Z"/>
      <path class="cls-2" d="m486.7,839.8v-41.2h8v16.8h21.9v-16.8h8v41.2h-8v-18h-21.9v18h-8Z"/>
      <path class="cls-2" d="m556.7,840.6c-4.1,0-7.7-.9-10.8-2.6s-5.4-4.2-7-7.5c-1.7-3.2-2.5-7-2.5-11.3s.8-8.1,2.5-11.2c1.7-3.2,4-5.7,7-7.4s6.6-2.6,10.8-2.6,7.7.9,10.8,2.6c3,1.8,5.4,4.2,7,7.4,1.7,3.2,2.5,6.9,2.5,11.2s-.8,8.1-2.5,11.3-4,5.7-7,7.5c-3,1.7-6.6,2.6-10.8,2.6Zm0-6.5c3.8,0,6.8-1.3,9-3.9s3.3-6.3,3.3-11-1.1-8.4-3.3-11-5.2-3.9-9-3.9-6.8,1.3-9,3.9-3.3,6.2-3.3,11,1.1,8.4,3.3,11c2.2,2.6,5.2,3.9,9,3.9Z"/>
      <path class="cls-2" d="m589,839.8v-41.2h30v6.5h-22.1v34.8h-7.9v-.1Z"/>
      <path class="cls-2" d="m645.6,840.6c-4.1,0-7.7-.9-10.8-2.6s-5.4-4.2-7-7.5c-1.7-3.2-2.5-7-2.5-11.3s.8-8.1,2.5-11.2c1.7-3.2,4-5.7,7-7.4s6.6-2.6,10.8-2.6,7.7.9,10.8,2.6c3,1.8,5.4,4.2,7,7.4,1.7,3.2,2.5,6.9,2.5,11.2s-.8,8.1-2.5,11.3-4,5.7-7,7.5c-3.1,1.7-6.7,2.6-10.8,2.6Zm0-6.5c3.8,0,6.8-1.3,9-3.9s3.3-6.3,3.3-11-1.1-8.4-3.3-11-5.2-3.9-9-3.9-6.8,1.3-9,3.9-3.3,6.2-3.3,11,1.1,8.4,3.3,11c2.2,2.6,5.2,3.9,9,3.9Z"/>
      <path class="cls-2" d="m700.6,839.8v-41.2h37.4v41.2h-8v-34.8h-21.5v34.8h-7.9Z"/>
      <path class="cls-2" d="m752.3,839.8v-41.2h7.4v32.4h-1.3l24.2-32.4h7.1v41.2h-7.4v-32.5h1.3l-24.2,32.5h-7.1Z"/>
      <path class="cls-2" d="m804,839.8v-41.2h21.4c3.4,0,6.2.4,8.4,1.3s3.8,2.1,4.8,3.7c1,1.6,1.5,3.6,1.5,5.9s-.8,4.5-2.3,6.2c-1.6,1.7-3.7,2.8-6.3,3.3v-.6c2.1.2,3.9.7,5.5,1.6,1.5.9,2.7,2.1,3.4,3.5.8,1.4,1.2,3.1,1.2,4.9,0,3.5-1.3,6.3-4,8.3s-6.5,3.1-11.4,3.1h-22.2Zm7.5-23.6h13.3c2.5,0,4.4-.5,5.8-1.6s2.1-2.6,2.1-4.7-.7-3.5-2.1-4.5-3.3-1.5-5.8-1.5h-13.3v12.3Zm0,18.3h14c2.7,0,4.8-.5,6.2-1.6,1.5-1.1,2.2-2.7,2.2-4.8s-.7-3.8-2.2-4.9c-1.5-1.1-3.6-1.6-6.2-1.6h-14v12.9Z"/>
      <path class="cls-2" d="m866.5,840.6c-2.9,0-5.5-.6-7.8-1.7-2.3-1.1-4.1-2.6-5.5-4.5-1.3-1.9-2-4-2-6.4,0-3.1.8-5.5,2.5-7.3s4.3-3.1,8-3.9c3.6-.8,8.4-1.1,14.3-1.1h5v5.1h-4.7c-3.1,0-5.8.1-8,.3s-4,.6-5.3,1.1-2.3,1.2-2.9,2.1c-.6.9-.9,2-.9,3.2,0,2.2.8,3.9,2.4,5.2,1.6,1.3,3.7,1.9,6.4,1.9,2.2,0,4.2-.5,6-1.5s3.2-2.5,4.2-4.2c1-1.8,1.5-3.8,1.5-6v-9.6c0-3.2-.8-5.6-2.3-7-1.6-1.4-4-2.1-7.4-2.1-2.4,0-4.8.3-7.2,1s-4.8,1.8-7.3,3.3l-2.5-5.7c1.6-1.1,3.3-2,5.3-2.7s4-1.3,6.1-1.7,4.2-.6,6.2-.6c3.7,0,6.8.6,9.3,1.7,2.5,1.2,4.4,2.9,5.7,5.3,1.3,2.4,1.9,5.5,1.9,9.3v25.7h-7.2v-9.2h.3c-.6,1.9-1.5,3.6-2.8,5.1s-2.9,2.7-4.8,3.5c-1.9,1-4.1,1.4-6.5,1.4Z"/>
    </g>
  </g>
  <rect class="cls-1" x="0" width="1000" height="900"/>
</svg>