<?xml version="1.0" encoding="UTF-8"?>
<svg id="_Слой_1" data-name="Слой 1" xmlns="http://www.w3.org/2000/svg" viewBox="0 0 550 550">
  <defs>
    <style>
      .cls-1, .cls-2, .cls-3, .cls-4 {
        fill: none;
      }

      .cls-1, .cls-5, .cls-6 {
        stroke-width: 0px;
      }

      .cls-2 {
        stroke-width: 2.3px;
      }

      .cls-2, .cls-3, .cls-4 {
        stroke: #fff;
      }

      .cls-2, .cls-4 {
        stroke-linejoin: round;
      }

      .cls-5 {
        fill-rule: evenodd;
      }

      .cls-5, .cls-6 {
        fill: #fff;
      }

      .cls-3 {
        stroke-miterlimit: 22.93;
        stroke-width: 2.26px;
      }

      .cls-4 {
        stroke-width: 2.39px;
      }
    </style>
  </defs>
  <g>
    <g>
      <path class="cls-5" d="m277.66,115.05c87.25,0,157.99,70.73,157.99,157.99s-70.73,157.99-157.99,157.99-157.99-70.73-157.99-157.99c0-.6.02-1.19.02-1.79.95,84.47,69.71,152.66,154.41,152.66s154.43-69.14,154.43-154.43-68.19-153.46-152.66-154.41c.6,0,1.19-.02,1.79-.02Z"/>
      <path class="cls-3" d="m277.66,115.05c87.25,0,157.99,70.73,157.99,157.99s-70.73,157.99-157.99,157.99-157.99-70.73-157.99-157.99c0-.6.02-1.19.02-1.79.95,84.47,69.71,152.66,154.41,152.66s154.43-69.14,154.43-154.43-68.19-153.46-152.66-154.41c.6,0,1.19-.02,1.79-.02Z"/>
      <path class="cls-6" d="m382.5,161.08c-27.74-27.74-66.07-44.9-108.4-44.9s-80.66,17.16-108.4,44.9c-27.74,27.74-44.9,66.07-44.9,108.4s17.16,80.66,44.9,108.4c27.74,27.74,66.07,44.9,108.4,44.9s80.66-17.16,108.4-44.9c27.74-27.74,44.9-66.07,44.9-108.4s-17.16-80.66-44.9-108.4m-108.4-47.16c42.96,0,81.85,17.41,110,45.56,28.15,28.15,45.56,67.04,45.56,110s-17.41,81.85-45.56,110c-28.15,28.15-67.04,45.56-110,45.56s-81.85-17.41-110-45.56c-28.15-28.15-45.56-67.04-45.56-110s17.41-81.85,45.56-110c28.15-28.15,67.04-45.56,110-45.56Z"/>
      <path class="cls-6" d="m374.84,168.74c-25.78-25.78-61.4-41.73-100.74-41.73s-74.96,15.95-100.74,41.73c-25.78,25.78-41.73,61.4-41.73,100.74s15.95,74.96,41.73,100.74c25.78,25.78,61.4,41.73,100.74,41.73s74.96-15.95,100.74-41.73c25.78-25.78,41.73-61.4,41.73-100.74s-15.95-74.96-41.73-100.74m-100.74-43.99c39.96,0,76.15,16.2,102.33,42.39,26.19,26.19,42.39,62.37,42.39,102.34s-16.2,76.15-42.39,102.34c-26.19,26.19-62.37,42.39-102.33,42.39s-76.15-16.2-102.34-42.39c-26.19-26.19-42.39-62.37-42.39-102.34s16.2-76.15,42.39-102.34c26.19-26.19,62.37-42.39,102.34-42.39Z"/>
      <path class="cls-6" d="m329.47,334.64c2.75-3.01,5.07-6.4,6.91-10.14,3.18-6.48,4.94-14.02,5.03-22.48.09-9.11-1.19-16.81-3.87-23.22-.13-.32-.27-.63-.41-.94-2.11-3.46-4.68-6.55-7.65-9.26v66.04Zm-38.19-80.92c-.65-.07-1.3-.13-1.95-.19-7.08-.58-14.45-.14-21.03,1.72.6-.1,1.21-.19,1.82-.28,3.54-.51,7.32-.88,11.15-1.08,3.31-.17,6.69-.24,10.01-.17Zm-25.21-18.97c6.34-1.24,13-1.65,19.59-1.42,6.5.24,12.92,1.11,18.87,2.45v-51.04c-2.37-.67-4.8-1.2-7.21-1.6-4.52-.74-8.99-1.04-13.07-1.01-6.58.05-12.66,1.26-18.19,3.18v49.43Zm-33.17,22.15c2.16-4.13,4.95-7.64,8.24-10.59v-45.76c-3.51,3.17-6.28,6.17-8.24,8.41v47.94Zm1.14,41.6c-.4-.57-.78-1.15-1.14-1.75v34.7c2.33,1.69,5.08,3.59,8.23,5.53v-30.7c0-.11,0-.21.02-.31-2.29-1.86-5.44-5.11-7.11-7.47Zm32.04-11.14c.31-.49.58-1.03.79-1.63,1.21-3.34,3.31-5.57,5.46-6.61,1.18-.57,2.39-.81,3.54-.71,4.07.33,8,5.73,8.02,9.51,0,.45-.02.93-.08,1.43-.34,3.05-1.91,8.53-5.78,13.23-2.74,3.32-6.6,6.28-11.95,7.78v37.51c2.77.84,5.38,1.47,8.13,1.93,3.46.58,7.14.89,11.64,1.01h.03c3.96.09,7.76-.1,11.39-.57,2.49-.32,4.91-.77,7.25-1.35v-73.82c-1.65-.3-3.48-.53-5.41-.68-4.52-.37-9.55-.37-14.48-.11-4.73.25-9.21.65-12.88,1.14-2.28.3-4.22.63-5.67.97v10.99Zm4.71-129.49c-1.05,1.89-1.9,3.58-2.57,5.11,4.38-.73,8.91-1.16,13.55-1.19,4.94-.04,9.55.21,13.84.69,2.79.32,5.46.74,8.03,1.26l-.08-.25c-.76-2.24-1.96-4.86-3.73-8.05-.33-.6-.84-1.46-1.33-2.29-2.24-3.8-4.33-7.35-2.26-9.94.27-.34.59-.63.96-.88,1.36-.92,3.23-1.03,5.32-.3,1.42.49,3.08,1.42,4.81,2.78.07.04.13.09.2.14,1.18.94,2.41,2.1,3.64,3.47,1.93,1.74,3.95,4.01,5.84,6.83.59.88,1.13,1.74,1.62,2.59.83-.84,1.77-1.66,2.83-2.43,3.16-2.3,7.41-4.23,12.81-5.13,1.96-.33,3.69.04,4.87.83,2.2,1.48,5.23,4.74,3.98,7.68-.57,1.34-1.91,2.74-4.22,3.86-2.52,1.23-4.47,3.1-5.92,5.03-2.39,3.19-3.43,6.21-3.5,6.99,2.31,1.73,4.38,3.59,6.21,5.58h0c1.75,1.63,3.32,3.34,4.72,5.14,2.82,3.62,4.93,7.56,6.32,11.72,1.37,4.08,2.04,8.35,2.02,12.7-.02,4.33-.74,8.74-2.14,13.11-1.49,4.67-3.77,9.31-6.82,13.79-.04.07-.08.14-.13.2-2.04,2.97-4.41,5.86-7.11,8.63,9.48,4.94,17.12,11.53,22.54,20.04.91,1.43,1.76,2.91,2.54,4.44,5.9,9.46,9.28,20.96,9.12,34.61v.02s0,0,0,0c-.28,14.98-3.97,27.37-10.37,37.25-6.47,9.97-15.67,17.33-26.92,22.19,0,4.96.13,8.21,2.86,12.84,2.42,4.1,8.17,4.89,10.13,9.5.45,1.05.49,2.1.19,3.06-.3.96-.92,1.77-1.8,2.36-1.23.82-3.05,1.2-5.12.86-6.08-1.01-10.43-3.43-13.51-6.29-.63-.59-1.21-1.2-1.74-1.81-.23-.2-.46-.4-.68-.6-.66-.61-1.26-1.25-1.81-1.89-1.11,1.95-2.39,3.86-3.66,5.57-4.67,6.27-9.65,9.5-12.79,10.38-1.48.41-2.81.39-3.84-.02-1.92-.75-5.09-4.69-4.92-6.54.15-1.58,1.31-3.68,3.81-6.02,2.42-2.26,4.16-5.14,5.38-7.99,1.08-2.53,1.75-5,2.12-6.99-1.53.17-3.08.3-4.65.41-3.72.25-7.59.32-11.59.22-4.65-.12-9.08-.49-13.3-1.06-2.91-.39-5.74-.88-8.46-1.45v.22c0,1.81.8,6.13,2.83,10.68,1.34,2.99,3.2,6.01,5.69,8.34,2.51,2.34,3.64,4.47,3.73,6.09.12,1.98-.8,3.37-2.55,4.07-1.05.42-2.39.48-3.89.11-2.73-.67-6.75-2.99-10.73-7.37-1.61-1.46-3.26-3.24-4.86-5.38-.78-1.05-1.55-2.18-2.26-3.36-.97,1.32-2.16,2.65-3.59,3.91-3.14,2.76-7.49,5.2-13.38,6.42-2.1.44-3.96.08-5.22-.76-2.24-1.49-5.24-4.77-4.09-7.75.56-1.46,1.99-3.01,4.53-4.24,2.61-1.27,4.48-3.3,5.79-5.44,2.44-3.96,3.03-8.1,3.03-8.93v-4.79c-2.59-1.18-4.99-2.38-7.2-3.57-2.46-1.33-4.73-2.67-6.78-3.98-2.64,2.98-6.04,5.46-10.2,7.22-4.61,1.94-10.15,2.99-16.6,2.8-8.45-.25-14.21-3.73-17.86-8-1.39-1.19-2.56-2.49-3.55-3.85-1.74-2.4-2.88-4.96-3.51-7.28-.66-2.44-.76-4.73-.43-6.39.9-4.4,6.39-5.64,8.83-3.03,2.22,2.37,2.89,8.74,6.12,10.67,5.13,3.06,10.08,2.21,14-2.62,2.22-2.73,3.63-6.28,3.89-9.57.03-.38.05-.72.05-1.02,0-.09-.01-.18-.01-.27v-131.56c0-.48-.02-.95-.05-1.39v-.04c-.24-3-.95-6.17-2.74-8.21-.75-.85-2.03-.97-3.19-.97-.19,0-.35,0-.5.02-3.78.3-5.51,3.55-6.51,6.39-.37,1.04-1.02,2.01-1.83,2.73-.08.08-.17.16-.26.23-1.11.86-2.49,1.32-3.98,1.1h0s-.01-.01-.01-.01c-.3-.05-.6-.12-.89-.22-1.54-.54-4.82-4.2-5.17-5.92-.28-1.38-.2-3.25.34-5.24.5-1.86,1.41-3.91,2.81-5.83,2.84-3.91,7.68-7.32,15.15-7.54,5.08-.15,9.44.68,13.07,2.21,3.07,1.3,5.61,3.09,7.64,5.24,5.02-3.44,11.61-7.45,19.36-11.03-.16-.99-1.11-3.84-3.29-6.81-3.15-4.51-7.97-4.03-9.99-8.82-.43-1.02-.47-2.03-.18-2.96.29-.95.89-1.73,1.75-2.31,1.17-.79,2.91-1.15,4.87-.82,5.33.89,9.49,2.88,12.59,5.26.06.04.11.09.17.14,1.22.96,2.28,1.98,3.18,3.03l.23.2c.82-1.76,1.87-3.65,3.19-5.6,2.31-3.44,4.79-6.06,7.07-7.88.06-.05.13-.1.2-.14,1.73-1.36,3.39-2.29,4.81-2.78,2.09-.73,3.88-.49,5.32.3,6.19,3.38,3.98,8.37,1.12,13.23h0s0,.01,0,.01c-.54.92-1.09,1.86-1.33,2.29h0s0,.01,0,.01Z"/>
      <path class="cls-6" d="m307.15,370.15c-.76,4.73-3.08,12.42-8.55,17.52-7.84,7.3,1.76,8.17,10.93-4.14,2.89-3.87,5.77-8.77,6.41-12.7.59,4.44,4.29,14.31,17.85,16.57,3.89.65,5.61-2.28.47-4.79-7.88-3.84-9.8-13.34-10.12-16.45l-.12.04h-.01s0,.01,0,.01l-.49.17c-.07.02-.14.04-.21.06l-.06.02h-.01s0,.01,0,.01l-.39.13-.15.04-.42.13h-.02s0,.01,0,.01l-.56.18-.15.04-.12.04h-.01s0,.01,0,.01l-.26.08c-.07.02-.14.04-.2.05l-.46.14h-.03s0,.01,0,.01l-.65.19-.14.03-.13.04c-.07.02-.13.03-.2.05l-.51.14h-.02s0,.01,0,.01l-.62.16-.13.03-.14.04h-.01s0,.01,0,.01l-.26.07-.14.03-.53.13c-.06.02-.13.03-.19.04l-.49.12h-.01s0,.01,0,.01l-.27.06c-.06.02-.13.03-.19.04l-.63.14h-.04s0,.01,0,.01l-.8.18-.11.02-.18.04-.14.03-.57.12h-.02s0,.01,0,.01l-.67.13-.18.03-.12.02-.12.02-.86.16h-.03s0,.01,0,.01l-.81.14c-.11.02-.22.04-.33.06-1.01.17-2.04.33-3.07.47"/>
      <path class="cls-6" d="m265.79,154.02c-2.38,4.3-3.79,7.61-4.51,10.38-5.83,1.42-11.34,3.33-16.41,5.47l-1.06.45c-.86-3.14-3.85-9.99-10.48-13.22-4.7-2.29-3.13-4.97.43-4.38,11.11,1.85,16.42,8.9,17.36,13.34.31-2.79,1.87-7.01,4.94-11.58,5.56-8.26,12.06-11.34,13.59-9.43,1.03,1.28-1.82,5.3-3.85,8.97"/>
      <path class="cls-6" d="m329.47,206.33c.19,1.83.18,3.64,0,5.42v27.79c5.75-6.28,9.73-13.07,11.92-19.92,2.61-8.17,2.67-16.41.13-23.98-2.16-6.44-6.17-12.32-12.05-17.19v27.89Zm-101.95,124.82v-125.68c6.89-8.06,26.12-28.48,54.31-28.68,7.02-.05,15.16.82,22.71,3.19v-11.24s-.01,0-.01,0c0-.57-.04-1.17-.13-1.8-6.67-1.47-14.21-2.25-22.62-2.19-26.25.19-48.92,13.48-60.57,21.81-3.7-5.22-10.38-8.77-20.09-8.49-14.88.44-17.3,15.44-14.65,16.37,1.57.55,3.12-.97,3.36-2.61.75-4.99,5.04-7.46,8.91-7.76,7.56-.59,12.1,8.05,12.1,15.96v131.56c.13,8.35-6.64,18.93-15.92,18.2-5.04-.39-10.6-3.6-11.58-10.08-.32-2.13-2.33-4.1-4.37-3.39-3.44,1.21-.29,20.69,19.03,21.26,12.6.37,21.28-4.23,26.08-11.01,4.46,2.98,10.16,6.3,17.04,9.34v-15.46c-5.78-3.43-10.32-6.84-13.61-9.3Z"/>
      <path class="cls-6" d="m260.7,187.16v48.87c-3.43.97-6.72,2.2-9.81,3.74-2.4,1.2-4.68,2.58-6.8,4.15v-45.72c3.6-3.55,10.31-8.62,16.61-11.04"/>
      <path class="cls-6" d="m307.49,168.73v89.69c-7.43-1.69-17.01-2.05-26.07-1.57-7.52.4-14.92,1.49-20.71,2.98v-1.54c-5.74,3.1-10.22,7.83-12.25,14.62-.56,1.85-.94,3.87-1.11,6.06-.22,2.75.33,7,2.54,10.36.11.16.22.32.33.48,1.17.84,2.57,1.47,4.25,1.79,1.79.34,4.08.29,6.25-.37v-19.48c3.12-1.19,11.76-2.33,21.35-2.84,9.56-.5,19.48-.05,25.42,2.08v77.1s.26-.08.26-.08h.02s.29-.09.29-.09l.11-.03.42-.13h0s.55-.19.55-.19l.55-.19.11-.03.41-.14h0s.28-.11.28-.11l.06-.02h0s.49-.18.49-.18l.18-.06.3-.11.09-.03.2-.08.08-.03.28-.11h0s.41-.17.41-.17l.17-.06.09-.04.09-.03.15-.06h0s.38-.17.38-.17l.05-.02.3-.13.08-.03.2-.09.07-.03h0s.42-.19.42-.19h0s.45-.21.45-.21l.16-.07.15-.07h0s.76-.37.76-.37l.12-.06.1-.05.26-.13.1-.05.55-.29h0s.39-.22.39-.22h0s.62-.34.62-.34l.08-.04.13-.07.25-.14.04-.02h0s.31-.18.31-.18h0s.33-.19.33-.19l.16-.09.26-.16h0s.62-.4.62-.4l.16-.09.25-.16h0s.54-.36.54-.36h0s.23-.16.23-.16l.1-.06.12-.08h0s.65-.46.65-.46l.12-.08c.54-.39,1.07-.78,1.59-1.19v-167.28c0-1.42,3-10.82,11.08-14.75,4.7-2.29,3.13-4.97-.43-4.38-11.11,1.85-16.74,8.42-17.68,12.86-.31-2.79-1.86-7.01-4.94-11.58-5.56-8.26-12.06-11.34-13.59-9.43-1.03,1.28,1.82,5.3,3.85,8.97,3.74,6.76,5.09,11.07,5.09,14.71"/>
      <path class="cls-6" d="m266.08,350.95c6.11,1.77,11.64,2.59,19.7,2.8,8.28.2,15.95-.83,22.82-2.94h.02s.29-.09.29-.09c.38-.12.76-.24,1.14-.37h0c.38-.13.75-.26,1.12-.39l.28-.1.09-.03c.33-.12.65-.24.97-.36l.04-.02.27-.11c.27-.11.54-.22.82-.33l.27-.11.27-.11c.25-.11.51-.22.76-.33l.04-.02.27-.12.08-.04c.3-.14.6-.27.9-.41l.07-.03.26-.12h.02c.25-.13.5-.25.76-.38l.26-.13.26-.13c.24-.12.48-.25.72-.38l.42-.22c.21-.11.41-.23.61-.34l.25-.14.25-.14.06-.04c.22-.13.44-.25.65-.38l.48-.29.62-.39.43-.28.61-.4.23-.16.23-.16h.02c.22-.16.44-.32.65-.47h.01c12.57-8.93,20.08-23.17,20.26-41.27.19-19.05-5.41-32.31-17.08-40.9v-14.87c21.75,9.78,34.45,27.32,34.12,55.93-.56,29.65-14.88,48.57-37.31,57.52h0c-.32.13-.64.25-.96.38h0s-.24.1-.24.1l-.24.09c-.32.12-.64.24-.96.35h-.02s-.25.1-.25.1l-.25.09h-.02c-.33.12-.65.23-.98.34l-.25.08-.39.13c-.37.12-.74.24-1.11.35h-.01s-.25.08-.25.08l-.26.08c-.43.13-.86.25-1.29.38l-.26.07-.07.02c-.41.11-.82.22-1.23.33l-.26.07-.26.07c-.44.11-.88.22-1.32.33l-.27.06c-.53.12-1.06.24-1.6.36h-.01s-.27.06-.27.06h-.02c-.45.1-.89.19-1.35.28l-.27.05c-.64.12-1.28.24-1.93.35h0c-6.88,1.18-14.23,1.67-21.97,1.47-7.81-.2-13.25-.67-19.41-1.96v-12.88Z"/>
      <path class="cls-6" d="m260.71,311.3v55.15c0,3.46,2.42,14.62,9.47,21.18,7.83,7.3-2.32,8.33-11.5-3.99-2.89-3.87-5.49-8.89-6.13-12.82-.75,3.91-5.09,13.46-18.49,16.24-3.86.8-5.61-2.28-.47-4.79,8.84-4.3,10.49-15.47,10.49-17.02v-57.24c2.8,1.64,6.04,2.73,9.71,3.12l.11.02c1.51.17,3,.25,4.44.24.81,0,1.6-.04,2.37-.1"/>
      <path class="cls-6" d="m304.45,251.36c-21.63-6.48-60.09-4.18-62.47,24.95-.45,5.54,1.82,16.23,11.93,18.18,5.01.96,13.17-.62,15.74-7.75,2.4-6.64,8.84-7.25,8.87-1.22.03,4.48-4.89,22.74-26.71,20.28-14.46-1.48-21.28-15.25-20.77-29.41,1.42-39.13,43.49-44.54,73.4-37.58v12.56Z"/>
    </g>
    <path class="cls-6" d="m520.08,239.71l-20.17,3.6-.85-4.77c-.24-1.36.02-2.59.78-3.69.76-1.1,1.83-1.77,3.19-2.01l10.5-1.87c1.31-.23,2.54.03,3.66.79,1.12.76,1.8,1.83,2.04,3.19l.85,4.77Zm-55.87,7.52l1.19,6.68,1.84-.33-.44-2.45,53.61-9.57.44,2.45,1.84-.33-1.62-9.07c-.33-1.86-1.28-3.32-2.82-4.38-1.54-1.06-3.23-1.43-5.04-1.1l-10.5,1.87c-2.53.45-4.26,1.89-5.14,4.29-1.75-1.93-3.85-2.68-6.3-2.24l-26.84,4.79-.43-2.38-1.84.33,1.18,6.6,1.84-.33-.43-2.38,26.84-4.79c1.31-.23,2.52.03,3.62.79,1.1.76,1.77,1.83,2.01,3.19l.85,4.77-31.6,5.64-.43-2.38-1.84.33Zm49.4-44.96l-1.83-6.45-1.79.51.66,2.33-52.38,14.87-.66-2.33-1.79.51,1.83,6.45,1.79-.51-.66-2.33,9.26-2.63,30.81,1.39-37.4,10.62-.66-2.33-1.79.51,1.85,6.53,1.79-.51-.68-2.4,52.38-14.87.68,2.4,1.79-.51-1.85-6.53-1.79.51.66,2.33-9.26,2.63-30.81-1.39,37.4-10.62.66,2.33,1.79-.51Zm-65.08-7.69l1.7-.77-1-2.21,29.25-13.23,4.02,8.89-29.25,13.23-1-2.21-1.7.77,2.8,6.19,1.7-.77-1.03-2.27,49.62-22.43,1.03,2.27,1.7-.77-2.8-6.19-1.7.77,1,2.21-18.67,8.44-4.02-8.89,18.67-8.44,1,2.21,1.7-.77-2.76-6.11-1.7.77,1,2.21-49.62,22.43-1-2.21-1.7.77,2.76,6.11Zm36.11-42.14c1.59-1.02,2.58-2.43,2.97-4.21.4-1.85.11-3.55-.89-5.11-1.05-1.63-2.47-2.61-4.26-2.93-1.8-.43-3.51-.14-5.1.88l-41.71,26.74-1.31-2.04-1.57,1.01,1.81,2.82,1.81,2.82,1.57-1.01-1.31-2.04,27.03-17.33,5.26,8.21-27.03,17.33-1.31-2.04-1.57,1.01,1.82,2.83,1.85,2.88,1.57-1.01-1.34-2.1,41.71-26.74Zm-6.28-9.79c1.12-.72,2.36-.94,3.7-.65,1.34.29,2.37,1.01,3.09,2.13.73,1.13.92,2.34.61,3.64-.29,1.34-1,2.37-2.13,3.09l-13.11,8.4-5.26-8.21,13.11-8.41Zm-55.03,8.68l25.24-19.84,3.04,3.86c.83,1.06,1.16,2.24,1,3.57-.16,1.33-.77,2.41-1.82,3.23l-17.57,13.81c-1.09.85-2.29,1.2-3.62,1.05-1.33-.16-2.4-.76-3.23-1.82l-3.03-3.86Zm41.66-35.11l-42.82,33.65-1.5-1.9-1.47,1.15,2.82,3.59,2.86,3.64c1.15,1.46,2.64,2.28,4.48,2.51,1.84.22,3.51-.25,5-1.42l17.57-13.81c1.96-1.54,2.8-3.61,2.51-6.21,2.38.95,4.6.62,6.63-.97l8.38-6.59c1.45-1.14,2.29-2.64,2.53-4.5.23-1.86-.21-3.52-1.35-4.97l-2.86-3.64-2.82-3.59-1.47,1.15,1.5,1.9Zm1.15,1.47l3.04,3.86c.83,1.06,1.15,2.25.97,3.59-.18,1.34-.8,2.43-1.84,3.25l-8.38,6.59c-1.09.85-2.3,1.2-3.62,1.05-1.33-.16-2.4-.76-3.23-1.82l-3.03-3.86,16.11-12.66Zm-15.91-10.66c1.3-1.37,1.92-2.99,1.84-4.84-.02-1.86-.71-3.45-2.08-4.75-1.33-1.27-2.95-1.88-4.84-1.84-1.82.04-3.39.75-4.69,2.12l-30.8,32.3c-1.3,1.37-1.93,2.97-1.89,4.79.04,1.89.73,3.47,2.07,4.74,1.37,1.3,2.98,1.92,4.85,1.85,1.83.01,3.41-.67,4.74-2.07l30.8-32.3Zm-8.42-8.03c.92-.97,2.07-1.47,3.44-1.5,1.3-.1,2.45.33,3.45,1.29.97.93,1.47,2.07,1.5,3.44.03,1.37-.42,2.54-1.34,3.51l-30.8,32.3c-.92.97-2.07,1.47-3.44,1.5-1.37.03-2.53-.41-3.51-1.34-1-.95-1.49-2.09-1.45-3.39-.03-1.37.42-2.54,1.34-3.51l30.8-32.3Zm-54.57,21.27l5.71,4.49,5.77,4.53-2.99,3.81,1.53,1.2,2.99-3.81,1.15-1.47-1.96-1.54,30.65-39c1.12-1.42,1.59-3.07,1.43-4.96-.3-1.87-1.14-3.36-2.56-4.48-1.49-1.17-3.14-1.64-4.95-1.42-1.87.22-3.39,1.06-4.53,2.52l-30.65,39-1.9-1.5-1.15,1.47-2.99,3.81,1.47,1.15,2.99-3.81Zm33.71-38.97c.83-1.06,1.9-1.64,3.24-1.78,1.36-.16,2.57.17,3.62,1,1.06.83,1.64,1.9,1.77,3.24.18,1.33-.13,2.51-.96,3.57l-30.65,39-7.67-6.03,30.65-39Zm-22.93-20.72l.93-1.62-2.1-1.21-1.62-.93-2.1-1.21-.93,1.62,2.1,1.21-7.76,13.5c-.97,1.68-1.18,3.4-.64,5.14.41,1.77,1.46,3.15,3.13,4.12,1.64.94,3.39,1.14,5.23.61l-14.59,25.37c-.67,1.16-1.66,1.92-2.98,2.28-1.28.38-2.49.24-3.66-.43-1.16-.67-1.92-1.66-2.28-2.98-.36-1.32-.2-2.57.47-3.72l2.41-4.2-1.62-.93-2.41,4.2c-.97,1.68-1.17,3.39-.64,5.14.41,1.78,1.46,3.15,3.13,4.12,1.61.92,3.31,1.13,5.15.64,1.76-.47,3.11-1.53,4.06-3.17l16.93-29.45,7.76-13.5,2.16,1.24.93-1.62-2.16-1.24-1.63-.94-2.1-1.21-.93,1.62,2.1,1.21-7.76,13.5c-.67,1.16-1.66,1.92-2.98,2.28-1.28.38-2.49.24-3.66-.43-1.16-.67-1.92-1.66-2.28-2.98-.36-1.32-.2-2.57.47-3.72l7.76-13.5,2.1,1.21Zm-26.63,3.63c-.51,1.29-1.37,2.2-2.6,2.73-1.23.53-2.45.55-3.7.06l-4.57-1.8,7.52-19.06,4.57,1.8c1.25.49,2.13,1.36,2.65,2.61.52,1.25.54,2.5.05,3.74l-3.91,9.92Zm-21.77,35.22l.68-1.73-2.25-.89,11.78-29.87,4.57,1.8c1.72.68,3.43.64,5.14-.09,1.7-.74,2.9-1.99,3.6-3.75l3.91-9.92c.68-1.71.65-3.44-.09-5.16-.74-1.73-1.95-2.93-3.68-3.61l-8.56-3.37-.68,1.74,2.25.89-19.98,50.66-2.25-.89-.68,1.74,6.24,2.46Zm1.99-54.2c.52-1.82.3-3.53-.63-5.14-.88-1.64-2.23-2.72-4.05-3.24-1.77-.5-3.49-.29-5.14.63-1.59.89-2.65,2.24-3.17,4.06l-12.19,42.93c-.52,1.82-.33,3.53.56,5.12.92,1.65,2.27,2.73,4.04,3.23,1.82.52,3.53.3,5.15-.63,1.63-.84,2.7-2.18,3.23-4.04l12.19-42.93Zm-11.19-3.18c.36-1.28,1.15-2.26,2.34-2.93,1.11-.69,2.33-.85,3.66-.47,1.29.37,2.26,1.15,2.93,2.34.67,1.2.82,2.44.45,3.73l-12.19,42.93c-.36,1.28-1.15,2.26-2.34,2.93-1.19.67-2.43.82-3.72.45-1.33-.38-2.29-1.15-2.86-2.32-.67-1.2-.82-2.44-.45-3.73l12.19-42.93Zm-27.5,11.83l4.84.86c1.32.24,2.36.9,3.12,2,.76,1.1,1.03,2.31.79,3.62l-3.93,22c-.24,1.36-.91,2.42-2.01,3.19-1.1.76-2.29,1.03-3.62.79l-4.84-.86,5.64-31.6Zm3.93-22l9.6,1.71-1.72,9.61,1.85.33,2.04-11.45-15.67-2.8-.33,1.84,2.38.43-9.57,53.61-2.38-.43-.33,1.84,4.5.8,4.56.81c1.82.33,3.49-.05,5.02-1.11,1.52-1.06,2.45-2.52,2.79-4.38l3.93-22c.32-1.77-.06-3.43-1.12-4.97-1.07-1.56-2.49-2.48-4.32-2.81l-4.84-.86,3.6-20.17Zm-16.44,2.78c.14-1.88-.41-3.52-1.64-4.91-1.19-1.43-2.73-2.22-4.62-2.36-1.84-.14-3.48.41-4.91,1.64-1.38,1.18-2.15,2.73-2.29,4.61l-3.38,44.5c-.14,1.88.38,3.52,1.57,4.9,1.23,1.43,2.77,2.22,4.6,2.36,1.88.14,3.52-.41,4.92-1.64,1.43-1.15,2.22-2.67,2.36-4.6l3.38-44.5Zm-11.6-.88c.1-1.33.67-2.45,1.71-3.34.95-.9,2.11-1.3,3.49-1.19,1.34.1,2.45.67,3.34,1.71.89,1.04,1.29,2.23,1.19,3.56l-3.38,44.5c-.1,1.33-.67,2.45-1.71,3.34-1.04.89-2.22,1.29-3.56,1.18-1.38-.1-2.47-.67-3.27-1.7-.89-1.04-1.29-2.23-1.19-3.56l3.38-44.5Zm-34.85.76c-.24-1.87-1.11-3.37-2.59-4.48-1.46-1.16-3.12-1.63-5-1.39-1.83.23-3.32,1.1-4.48,2.59-1.11,1.44-1.56,3.1-1.32,4.98l5.63,44.27c.24,1.87,1.08,3.37,2.52,4.49,1.49,1.16,3.16,1.62,4.99,1.39,1.87-.24,3.37-1.11,4.49-2.59,1.17-1.41,1.63-3.06,1.39-4.98l-5.63-44.27Zm-11.54,1.47c-.17-1.32.17-2.53,1-3.62.75-1.07,1.81-1.69,3.18-1.87,1.34-.17,2.53.17,3.61,1,1.08.84,1.71,1.93,1.88,3.25l5.63,44.27c.17,1.32-.17,2.53-1,3.62-.84,1.08-1.91,1.71-3.25,1.88-1.37.17-2.56-.16-3.55-1.01-1.08-.84-1.71-1.93-1.88-3.25l-5.63-44.28Zm-13.42,53.11l-7.22-31.28,4.79-1.11c1.31-.3,2.52-.1,3.65.61,1.13.71,1.85,1.72,2.15,3.02l5.03,21.78c.31,1.35.11,2.58-.59,3.72-.71,1.13-1.71,1.85-3.02,2.15l-4.79,1.1Zm-14.07-52.64l12.25,53.06-2.36.54.42,1.82,4.45-1.03,4.51-1.04c1.81-.42,3.19-1.41,4.18-2.99.98-1.57,1.27-3.28.84-5.13l-5.03-21.78c-.56-2.43-2.08-4.06-4.55-4.91,1.87-1.75,2.52-3.9,1.94-6.41l-2.4-10.39c-.41-1.79-1.42-3.2-2.99-4.2-1.59-1-3.27-1.31-5.08-.89l-4.51,1.04-4.45,1.03.42,1.82,2.36-.55Zm1.82-.42l4.79-1.1c1.31-.3,2.52-.09,3.66.64,1.14.73,1.86,1.75,2.16,3.05l2.4,10.39c.31,1.35.11,2.59-.59,3.72-.71,1.13-1.71,1.85-3.02,2.15l-4.79,1.11-4.61-19.96Zm-2.76,59.52l-.68-1.74-2.25.89-19.98-50.66,5.15-2.03,1.8,4.57,1.73-.68-2.49-6.31-15.51,6.12,2.49,6.31,1.74-.68-1.8-4.57,5.15-2.03,19.98,50.66-2.25.89.68,1.74,6.24-2.46Zm-50.39-33.72c-.61-1.19-.7-2.44-.29-3.74.34-1.26,1.13-2.21,2.36-2.84,1.2-.61,2.44-.7,3.74-.29,1.3.42,2.26,1.23,2.87,2.42l7.51,14.66,1.67-.86-7.51-14.66c-.86-1.68-2.19-2.79-3.96-3.33-1.77-.6-3.49-.47-5.17.39-1.64.84-2.75,2.17-3.33,3.96-.56,1.73-.41,3.45.45,5.13l20.35,39.72c.86,1.68,2.17,2.8,3.9,3.36,1.8.58,3.52.45,5.16-.39,1.68-.86,2.79-2.19,3.34-3.97.62-1.72.49-3.44-.39-5.16l-7.54-14.72-1.67.86,7.54,14.72c.61,1.19.7,2.44.28,3.74-.42,1.3-1.22,2.26-2.42,2.87-1.23.63-2.46.72-3.68.25-1.3-.42-2.26-1.23-2.87-2.42l-20.35-39.72Zm2.1,59.26l5.92-4.21,5.98-4.25,2.81,3.95,1.59-1.13-2.81-3.95-1.08-1.52-2.03,1.44-28.75-40.42c-1.05-1.47-2.5-2.4-4.35-2.77-1.88-.24-3.55.15-5.02,1.19-1.54,1.1-2.46,2.55-2.77,4.34-.31,1.86.06,3.55,1.14,5.06l28.75,40.42-1.97,1.4,1.08,1.52,2.81,3.95,1.52-1.08-2.81-3.94Zm-27.86-43.35c-.78-1.1-1.04-2.29-.79-3.61.23-1.35.89-2.42,1.98-3.19,1.1-.78,2.29-1.04,3.6-.78,1.33.2,2.37.83,3.15,1.93l28.75,40.42-7.95,5.65-28.75-40.42Zm-12.33,9.26c-1.24-1.43-2.79-2.19-4.64-2.29-1.86-.16-3.5.38-4.93,1.61-1.39,1.21-2.16,2.76-2.29,4.64-.13,1.82.42,3.45,1.66,4.87l29.22,33.73c1.24,1.43,2.77,2.21,4.59,2.34,1.88.14,3.53-.4,4.92-1.61,1.43-1.24,2.19-2.79,2.3-4.65.19-1.82-.34-3.46-1.61-4.92l-29.22-33.73Zm-8.79,7.62c-.87-1.01-1.27-2.2-1.17-3.57.03-1.3.57-2.41,1.61-3.32,1.02-.88,2.2-1.26,3.57-1.17,1.37.1,2.49.66,3.36,1.66l29.22,33.73c.87,1.01,1.27,2.2,1.17,3.57-.1,1.37-.65,2.48-1.66,3.36-1.04.9-2.22,1.28-3.51,1.12-1.37-.1-2.49-.66-3.36-1.66l-29.22-33.73Zm18.26,51.57l-23.24-22.15,3.39-3.56c.93-.97,2.05-1.47,3.39-1.5,1.34-.03,2.49.42,3.46,1.34l16.18,15.42c1,.95,1.51,2.09,1.55,3.44.03,1.34-.41,2.48-1.34,3.46l-3.39,3.56Zm-40.7-36.23l39.41,37.58-1.67,1.75,1.35,1.29,3.15-3.31,3.19-3.35c1.28-1.34,1.88-2.93,1.85-4.8-.04-1.85-.75-3.44-2.12-4.74l-16.18-15.42c-1.8-1.72-3.97-2.25-6.5-1.6.6-2.49-.04-4.64-1.91-6.42l-7.72-7.36c-1.33-1.27-2.94-1.89-4.81-1.86-1.88.04-3.45.71-4.73,2.05l-3.19,3.35-3.15,3.31,1.35,1.29,1.67-1.75Zm1.29-1.35l3.39-3.56c.93-.97,2.06-1.46,3.41-1.48,1.35-.02,2.52.44,3.48,1.36l7.72,7.36c1,.95,1.52,2.1,1.55,3.44.03,1.34-.41,2.48-1.34,3.46l-3.39,3.56-14.83-14.14Zm20.18,54.07c1.54,1.09,3.21,1.49,5.01,1.19,1.86-.31,3.33-1.22,4.4-2.72,1.1-1.54,1.47-3.23,1.14-5.06-.25-1.81-1.15-3.28-2.72-4.4l-18.21-12.95c-1.5-1.07-3.19-1.44-5.05-1.13-.33.06-.86.21-1.61.48.06-.64.03-1.2-.08-1.68-.24-1.81-1.15-3.28-2.73-4.4l-8.69-6.18c-1.54-1.1-3.23-1.47-5.05-1.13-1.84.29-3.31,1.19-4.41,2.73-1.07,1.5-1.44,3.19-1.13,5.05.3,1.79,1.23,3.25,2.76,4.34l1.08-1.52c-1.09-.77-1.75-1.84-1.98-3.19-.28-1.27-.02-2.48.78-3.6.78-1.1,1.84-1.75,3.19-1.98,1.35-.23,2.57.05,3.66.82l8.69,6.18c1.09.77,1.75,1.84,1.98,3.19.23,1.35-.04,2.56-.82,3.66l1.52,1.08c.78-1.1,1.84-1.75,3.19-1.98,1.31-.26,2.52,0,3.6.78l18.21,12.95c1.09.77,1.75,1.84,1.98,3.19.23,1.35-.04,2.56-.82,3.66-.8,1.13-1.85,1.77-3.15,1.92-1.35.23-2.57-.05-3.66-.82l-1.08,1.52Zm-54.52-9.64l-3.34,5.81,1.62.93,1.21-2.1,47.21,27.15-1.21,2.1,1.62.93,3.34-5.81-1.62-.93-1.21,2.1-8.34-4.8-20.5-23.04,33.71,19.38-1.21,2.1,1.62.93,3.38-5.89-1.62-.93-1.24,2.16-47.21-27.15,1.24-2.16-1.62-.93-3.38,5.89,1.62.93,1.21-2.1,8.34,4.8,20.5,23.04-33.71-19.38,1.21-2.1-1.62-.93Zm-3.77,21.85c-1.76-.69-3.49-.65-5.17.12-1.72.72-2.93,1.96-3.62,3.71-.68,1.71-.63,3.44.12,5.17.72,1.67,1.97,2.86,3.73,3.55l41.52,16.37c1.76.69,3.48.67,5.15-.05,1.73-.75,2.94-1.99,3.62-3.7.69-1.76.65-3.49-.11-5.19-.67-1.7-1.9-2.91-3.7-3.62l-41.52-16.37Zm-4.27,10.82c-1.24-.49-2.14-1.36-2.69-2.62-.58-1.17-.61-2.4-.11-3.69.49-1.25,1.36-2.14,2.62-2.69,1.26-.54,2.51-.57,3.75-.08l41.52,16.37c1.24.49,2.14,1.36,2.69,2.62.54,1.26.58,2.5.08,3.75-.51,1.29-1.37,2.16-2.59,2.62-1.26.54-2.51.57-3.75.08l-41.52-16.37Zm4.98,17.18c1.33.38,2.32,1.15,2.98,2.32.65,1.17.8,2.39.43,3.68l-1.34,4.73-19.71-5.59,1.34-4.73c.37-1.29,1.14-2.25,2.33-2.9,1.19-.64,2.43-.78,3.72-.42l10.26,2.91Zm37.2,18.18l-1.79-.51-.66,2.33-30.88-8.77,1.34-4.73c.51-1.78.3-3.47-.6-5.1-.9-1.62-2.27-2.69-4.08-3.21l-10.26-2.91c-1.77-.5-3.49-.3-5.13.59-1.65.91-2.72,2.23-3.23,4.02l-2.51,8.85,1.8.51.66-2.33,52.38,14.87-.66,2.33,1.79.51,1.83-6.45Zm-5.42,24.31l-1.84-.33-.43,2.38-53.61-9.57.85-4.77.86-4.84,53.61,9.57-.43,2.38,1.84.33,1.19-6.68-1.84-.33-.44,2.45-53.61-9.57.44-2.45-1.84-.33-1.62,9.1-1.61,9.02,1.84.33.43-2.38,53.61,9.57-.43,2.38,1.84.33,1.18-6.6Z"/>
    <path class="cls-4" d="m520.08,239.71l-20.17,3.6-.85-4.77c-.24-1.36.02-2.59.78-3.69.76-1.1,1.83-1.77,3.19-2.01l10.5-1.87c1.31-.23,2.54.03,3.66.79,1.12.76,1.8,1.83,2.04,3.19l.85,4.77Zm-55.87,7.52l1.19,6.68,1.84-.33-.44-2.45,53.61-9.57.44,2.45,1.84-.33-1.62-9.07c-.33-1.86-1.28-3.32-2.82-4.38-1.54-1.06-3.23-1.43-5.04-1.1l-10.5,1.87c-2.53.45-4.26,1.89-5.14,4.29-1.75-1.93-3.85-2.68-6.3-2.24l-26.84,4.79-.43-2.38-1.84.33,1.18,6.6,1.84-.33-.43-2.38,26.84-4.79c1.31-.23,2.52.03,3.62.79,1.1.76,1.77,1.83,2.01,3.19l.85,4.77-31.6,5.64-.43-2.38-1.84.33Zm49.4-44.96l-1.83-6.45-1.79.51.66,2.33-52.38,14.87-.66-2.33-1.79.51,1.83,6.45,1.79-.51-.66-2.33,9.26-2.63,30.81,1.39-37.4,10.62-.66-2.33-1.79.51,1.85,6.53,1.79-.51-.68-2.4,52.38-14.87.68,2.4,1.79-.51-1.85-6.53-1.79.51.66,2.33-9.26,2.63-30.81-1.39,37.4-10.62.66,2.33,1.79-.51Zm-65.08-7.69l1.7-.77-1-2.21,29.25-13.23,4.02,8.89-29.25,13.23-1-2.21-1.7.77,2.8,6.19,1.7-.77-1.03-2.27,49.62-22.43,1.03,2.27,1.7-.77-2.8-6.19-1.7.77,1,2.21-18.67,8.44-4.02-8.89,18.67-8.44,1,2.21,1.7-.77-2.76-6.11-1.7.77,1,2.21-49.62,22.43-1-2.21-1.7.77,2.76,6.11Zm36.11-42.14c1.59-1.02,2.58-2.43,2.97-4.21.4-1.85.11-3.55-.89-5.11-1.05-1.63-2.47-2.61-4.26-2.93-1.8-.43-3.51-.14-5.1.88l-41.71,26.74-1.31-2.04-1.57,1.01,1.81,2.82,1.81,2.82,1.57-1.01-1.31-2.04,27.03-17.33,5.26,8.21-27.03,17.33-1.31-2.04-1.57,1.01,1.82,2.83,1.85,2.88,1.57-1.01-1.34-2.1,41.71-26.74Zm-6.28-9.79c1.12-.72,2.36-.94,3.7-.65,1.34.29,2.37,1.01,3.09,2.13.73,1.13.92,2.34.61,3.64-.29,1.34-1,2.37-2.13,3.09l-13.11,8.4-5.26-8.21,13.11-8.41Zm-55.03,8.68l25.24-19.84,3.04,3.86c.83,1.06,1.16,2.24,1,3.57-.16,1.33-.77,2.41-1.82,3.23l-17.57,13.81c-1.09.85-2.29,1.2-3.62,1.05-1.33-.16-2.4-.76-3.23-1.82l-3.03-3.86Zm41.66-35.11l-42.82,33.65-1.5-1.9-1.47,1.15,2.82,3.59,2.86,3.64c1.15,1.46,2.64,2.28,4.48,2.51,1.84.22,3.51-.25,5-1.42l17.57-13.81c1.96-1.54,2.8-3.61,2.51-6.21,2.38.95,4.6.62,6.63-.97l8.38-6.59c1.45-1.14,2.29-2.64,2.53-4.5.23-1.86-.21-3.52-1.35-4.97l-2.86-3.64-2.82-3.59-1.47,1.15,1.5,1.9Zm1.15,1.47l3.04,3.86c.83,1.06,1.15,2.25.97,3.59-.18,1.34-.8,2.43-1.84,3.25l-8.38,6.59c-1.09.85-2.3,1.2-3.62,1.05-1.33-.16-2.4-.76-3.23-1.82l-3.03-3.86,16.11-12.66Zm-15.91-10.66c1.3-1.37,1.92-2.99,1.84-4.84-.02-1.86-.71-3.45-2.08-4.75-1.33-1.27-2.95-1.88-4.84-1.84-1.82.04-3.39.75-4.69,2.12l-30.8,32.3c-1.3,1.37-1.93,2.97-1.89,4.79.04,1.89.73,3.47,2.07,4.74,1.37,1.3,2.98,1.92,4.85,1.85,1.83.01,3.41-.67,4.74-2.07l30.8-32.3Zm-8.42-8.03c.92-.97,2.07-1.47,3.44-1.5,1.3-.1,2.45.33,3.45,1.29.97.93,1.47,2.07,1.5,3.44.03,1.37-.42,2.54-1.34,3.51l-30.8,32.3c-.92.97-2.07,1.47-3.44,1.5-1.37.03-2.53-.41-3.51-1.34-1-.95-1.49-2.09-1.45-3.39-.03-1.37.42-2.54,1.34-3.51l30.8-32.3Zm-54.57,21.27l5.71,4.49,5.77,4.53-2.99,3.81,1.53,1.2,2.99-3.81,1.15-1.47-1.96-1.54,30.65-39c1.12-1.42,1.59-3.07,1.43-4.96-.3-1.87-1.14-3.36-2.56-4.48-1.49-1.17-3.14-1.64-4.95-1.42-1.87.22-3.39,1.06-4.53,2.52l-30.65,39-1.9-1.5-1.15,1.47-2.99,3.81,1.47,1.15,2.99-3.81Zm33.71-38.97c.83-1.06,1.9-1.64,3.24-1.78,1.36-.16,2.57.17,3.62,1,1.06.83,1.64,1.9,1.77,3.24.18,1.33-.13,2.51-.96,3.57l-30.65,39-7.67-6.03,30.65-39Zm-22.93-20.72l.93-1.62-2.1-1.21-1.62-.93-2.1-1.21-.93,1.62,2.1,1.21-7.76,13.5c-.97,1.68-1.18,3.4-.64,5.14.41,1.77,1.46,3.15,3.13,4.12,1.64.94,3.39,1.14,5.23.61l-14.59,25.37c-.67,1.16-1.66,1.92-2.98,2.28-1.28.38-2.49.24-3.66-.43-1.16-.67-1.92-1.66-2.28-2.98-.36-1.32-.2-2.57.47-3.72l2.41-4.2-1.62-.93-2.41,4.2c-.97,1.68-1.17,3.39-.64,5.14.41,1.78,1.46,3.15,3.13,4.12,1.61.92,3.31,1.13,5.15.64,1.76-.47,3.11-1.53,4.06-3.17l16.93-29.45,7.76-13.5,2.16,1.24.93-1.62-2.16-1.24-1.63-.94-2.1-1.21-.93,1.62,2.1,1.21-7.76,13.5c-.67,1.16-1.66,1.92-2.98,2.28-1.28.38-2.49.24-3.66-.43-1.16-.67-1.92-1.66-2.28-2.98-.36-1.32-.2-2.57.47-3.72l7.76-13.5,2.1,1.21Zm-26.63,3.63c-.51,1.29-1.37,2.2-2.6,2.73-1.23.53-2.45.55-3.7.06l-4.57-1.8,7.52-19.06,4.57,1.8c1.25.49,2.13,1.36,2.65,2.61.52,1.25.54,2.5.05,3.74l-3.91,9.92Zm-21.77,35.22l.68-1.73-2.25-.89,11.78-29.87,4.57,1.8c1.72.68,3.43.64,5.14-.09,1.7-.74,2.9-1.99,3.6-3.75l3.91-9.92c.68-1.71.65-3.44-.09-5.16-.74-1.73-1.95-2.93-3.68-3.61l-8.56-3.37-.68,1.74,2.25.89-19.98,50.66-2.25-.89-.68,1.74,6.24,2.46Zm1.99-54.2c.52-1.82.3-3.53-.63-5.14-.88-1.64-2.23-2.72-4.05-3.24-1.77-.5-3.49-.29-5.14.63-1.59.89-2.65,2.24-3.17,4.06l-12.19,42.93c-.52,1.82-.33,3.53.56,5.12.92,1.65,2.27,2.73,4.04,3.23,1.82.52,3.53.3,5.15-.63,1.63-.84,2.7-2.18,3.23-4.04l12.19-42.93Zm-11.19-3.18c.36-1.28,1.15-2.26,2.34-2.93,1.11-.69,2.33-.85,3.66-.47,1.29.37,2.26,1.15,2.93,2.34.67,1.2.82,2.44.45,3.73l-12.19,42.93c-.36,1.28-1.15,2.26-2.34,2.93-1.19.67-2.43.82-3.72.45-1.33-.38-2.29-1.15-2.86-2.32-.67-1.2-.82-2.44-.45-3.73l12.19-42.93Zm-27.5,11.83l4.84.86c1.32.24,2.36.9,3.12,2,.76,1.1,1.03,2.31.79,3.62l-3.93,22c-.24,1.36-.91,2.42-2.01,3.19-1.1.76-2.29,1.03-3.62.79l-4.84-.86,5.64-31.6Zm3.93-22l9.6,1.71-1.72,9.61,1.85.33,2.04-11.45-15.67-2.8-.33,1.84,2.38.43-9.57,53.61-2.38-.43-.33,1.84,4.5.8,4.56.81c1.82.33,3.49-.05,5.02-1.11,1.52-1.06,2.45-2.52,2.79-4.38l3.93-22c.32-1.77-.06-3.43-1.12-4.97-1.07-1.56-2.49-2.48-4.32-2.81l-4.84-.86,3.6-20.17Zm-16.44,2.78c.14-1.88-.41-3.52-1.64-4.91-1.19-1.43-2.73-2.22-4.62-2.36-1.84-.14-3.48.41-4.91,1.64-1.38,1.18-2.15,2.73-2.29,4.61l-3.38,44.5c-.14,1.88.38,3.52,1.57,4.9,1.23,1.43,2.77,2.22,4.6,2.36,1.88.14,3.52-.41,4.92-1.64,1.43-1.15,2.22-2.67,2.36-4.6l3.38-44.5Zm-11.6-.88c.1-1.33.67-2.45,1.71-3.34.95-.9,2.11-1.3,3.49-1.19,1.34.1,2.45.67,3.34,1.71.89,1.04,1.29,2.23,1.19,3.56l-3.38,44.5c-.1,1.33-.67,2.45-1.71,3.34-1.04.89-2.22,1.29-3.56,1.18-1.38-.1-2.47-.67-3.27-1.7-.89-1.04-1.29-2.23-1.19-3.56l3.38-44.5Zm-34.85.76c-.24-1.87-1.11-3.37-2.59-4.48-1.46-1.16-3.12-1.63-5-1.39-1.83.23-3.32,1.1-4.48,2.59-1.11,1.44-1.56,3.1-1.32,4.98l5.63,44.27c.24,1.87,1.08,3.37,2.52,4.49,1.49,1.16,3.16,1.62,4.99,1.39,1.87-.24,3.37-1.11,4.49-2.59,1.17-1.41,1.63-3.06,1.39-4.98l-5.63-44.27Zm-11.54,1.47c-.17-1.32.17-2.53,1-3.62.75-1.07,1.81-1.69,3.18-1.87,1.34-.17,2.53.17,3.61,1,1.08.84,1.71,1.93,1.88,3.25l5.63,44.27c.17,1.32-.17,2.53-1,3.62-.84,1.08-1.91,1.71-3.25,1.88-1.37.17-2.56-.16-3.55-1.01-1.08-.84-1.71-1.93-1.88-3.25l-5.63-44.28Zm-13.42,53.11l-7.22-31.28,4.79-1.11c1.31-.3,2.52-.1,3.65.61,1.13.71,1.85,1.72,2.15,3.02l5.03,21.78c.31,1.35.11,2.58-.59,3.72-.71,1.13-1.71,1.85-3.02,2.15l-4.79,1.1Zm-14.07-52.64l12.25,53.06-2.36.54.42,1.82,4.45-1.03,4.51-1.04c1.81-.42,3.19-1.41,4.18-2.99.98-1.57,1.27-3.28.84-5.13l-5.03-21.78c-.56-2.43-2.08-4.06-4.55-4.91,1.87-1.75,2.52-3.9,1.94-6.41l-2.4-10.39c-.41-1.79-1.42-3.2-2.99-4.2-1.59-1-3.27-1.31-5.08-.89l-4.51,1.04-4.45,1.03.42,1.82,2.36-.55Zm1.82-.42l4.79-1.1c1.31-.3,2.52-.09,3.66.64,1.14.73,1.86,1.75,2.16,3.05l2.4,10.39c.31,1.35.11,2.59-.59,3.72-.71,1.13-1.71,1.85-3.02,2.15l-4.79,1.11-4.61-19.96Zm-2.76,59.52l-.68-1.74-2.25.89-19.98-50.66,5.15-2.03,1.8,4.57,1.73-.68-2.49-6.31-15.51,6.12,2.49,6.31,1.74-.68-1.8-4.57,5.15-2.03,19.98,50.66-2.25.89.68,1.74,6.24-2.46Zm-50.39-33.72c-.61-1.19-.7-2.44-.29-3.74.34-1.26,1.13-2.21,2.36-2.84,1.2-.61,2.44-.7,3.74-.29,1.3.42,2.26,1.23,2.87,2.42l7.51,14.66,1.67-.86-7.51-14.66c-.86-1.68-2.19-2.79-3.96-3.33-1.77-.6-3.49-.47-5.17.39-1.64.84-2.75,2.17-3.33,3.96-.56,1.73-.41,3.45.45,5.13l20.35,39.72c.86,1.68,2.17,2.8,3.9,3.36,1.8.58,3.52.45,5.16-.39,1.68-.86,2.79-2.19,3.34-3.97.62-1.72.49-3.44-.39-5.16l-7.54-14.72-1.67.86,7.54,14.72c.61,1.19.7,2.44.28,3.74-.42,1.3-1.22,2.26-2.42,2.87-1.23.63-2.46.72-3.68.25-1.3-.42-2.26-1.23-2.87-2.42l-20.35-39.72Zm2.1,59.26l5.92-4.21,5.98-4.25,2.81,3.95,1.59-1.13-2.81-3.95-1.08-1.52-2.03,1.44-28.75-40.42c-1.05-1.47-2.5-2.4-4.35-2.77-1.88-.24-3.55.15-5.02,1.19-1.54,1.1-2.46,2.55-2.77,4.34-.31,1.86.06,3.55,1.14,5.06l28.75,40.42-1.97,1.4,1.08,1.52,2.81,3.95,1.52-1.08-2.81-3.94Zm-27.86-43.35c-.78-1.1-1.04-2.29-.79-3.61.23-1.35.89-2.42,1.98-3.19,1.1-.78,2.29-1.04,3.6-.78,1.33.2,2.37.83,3.15,1.93l28.75,40.42-7.95,5.65-28.75-40.42Zm-12.33,9.26c-1.24-1.43-2.79-2.19-4.64-2.29-1.86-.16-3.5.38-4.93,1.61-1.39,1.21-2.16,2.76-2.29,4.64-.13,1.82.42,3.45,1.66,4.87l29.22,33.73c1.24,1.43,2.77,2.21,4.59,2.34,1.88.14,3.53-.4,4.92-1.61,1.43-1.24,2.19-2.79,2.3-4.65.19-1.82-.34-3.46-1.61-4.92l-29.22-33.73Zm-8.79,7.62c-.87-1.01-1.27-2.2-1.17-3.57.03-1.3.57-2.41,1.61-3.32,1.02-.88,2.2-1.26,3.57-1.17,1.37.1,2.49.66,3.36,1.66l29.22,33.73c.87,1.01,1.27,2.2,1.17,3.57-.1,1.37-.65,2.48-1.66,3.36-1.04.9-2.22,1.28-3.51,1.12-1.37-.1-2.49-.66-3.36-1.66l-29.22-33.73Zm18.26,51.57l-23.24-22.15,3.39-3.56c.93-.97,2.05-1.47,3.39-1.5,1.34-.03,2.49.42,3.46,1.34l16.18,15.42c1,.95,1.51,2.09,1.55,3.44.03,1.34-.41,2.48-1.34,3.46l-3.39,3.56Zm-40.7-36.23l39.41,37.58-1.67,1.75,1.35,1.29,3.15-3.31,3.19-3.35c1.28-1.34,1.88-2.93,1.85-4.8-.04-1.85-.75-3.44-2.12-4.74l-16.18-15.42c-1.8-1.72-3.97-2.25-6.5-1.6.6-2.49-.04-4.64-1.91-6.42l-7.72-7.36c-1.33-1.27-2.94-1.89-4.81-1.86-1.88.04-3.45.71-4.73,2.05l-3.19,3.35-3.15,3.31,1.35,1.29,1.67-1.75Zm1.29-1.35l3.39-3.56c.93-.97,2.06-1.46,3.41-1.48,1.35-.02,2.52.44,3.48,1.36l7.72,7.36c1,.95,1.52,2.1,1.55,3.44.03,1.34-.41,2.48-1.34,3.46l-3.39,3.56-14.83-14.14Zm20.18,54.07c1.54,1.09,3.21,1.49,5.01,1.19,1.86-.31,3.33-1.22,4.4-2.72,1.1-1.54,1.47-3.23,1.14-5.06-.25-1.81-1.15-3.28-2.72-4.4l-18.21-12.95c-1.5-1.07-3.19-1.44-5.05-1.13-.33.06-.86.21-1.61.48.06-.64.03-1.2-.08-1.68-.24-1.81-1.15-3.28-2.73-4.4l-8.69-6.18c-1.54-1.1-3.23-1.47-5.05-1.13-1.84.29-3.31,1.19-4.41,2.73-1.07,1.5-1.44,3.19-1.13,5.05.3,1.79,1.23,3.25,2.76,4.34l1.08-1.52c-1.09-.77-1.75-1.84-1.98-3.19-.28-1.27-.02-2.48.78-3.6.78-1.1,1.84-1.75,3.19-1.98,1.35-.23,2.57.05,3.66.82l8.69,6.18c1.09.77,1.75,1.84,1.98,3.19.23,1.35-.04,2.56-.82,3.66l1.52,1.08c.78-1.1,1.84-1.75,3.19-1.98,1.31-.26,2.52,0,3.6.78l18.21,12.95c1.09.77,1.75,1.84,1.98,3.19.23,1.35-.04,2.56-.82,3.66-.8,1.13-1.85,1.77-3.15,1.92-1.35.23-2.57-.05-3.66-.82l-1.08,1.52Zm-54.52-9.64l-3.34,5.81,1.62.93,1.21-2.1,47.21,27.15-1.21,2.1,1.62.93,3.34-5.81-1.62-.93-1.21,2.1-8.34-4.8-20.5-23.04,33.71,19.38-1.21,2.1,1.62.93,3.38-5.89-1.62-.93-1.24,2.16-47.21-27.15,1.24-2.16-1.62-.93-3.38,5.89,1.62.93,1.21-2.1,8.34,4.8,20.5,23.04-33.71-19.38,1.21-2.1-1.62-.93Zm-3.77,21.85c-1.76-.69-3.49-.65-5.17.12-1.72.72-2.93,1.96-3.62,3.71-.68,1.71-.63,3.44.12,5.17.72,1.67,1.97,2.86,3.73,3.55l41.52,16.37c1.76.69,3.48.67,5.15-.05,1.73-.75,2.94-1.99,3.62-3.7.69-1.76.65-3.49-.11-5.19-.67-1.7-1.9-2.91-3.7-3.62l-41.52-16.37Zm-4.27,10.82c-1.24-.49-2.14-1.36-2.69-2.62-.58-1.17-.61-2.4-.11-3.69.49-1.25,1.36-2.14,2.62-2.69,1.26-.54,2.51-.57,3.75-.08l41.52,16.37c1.24.49,2.14,1.36,2.69,2.62.54,1.26.58,2.5.08,3.75-.51,1.29-1.37,2.16-2.59,2.62-1.26.54-2.51.57-3.75.08l-41.52-16.37Zm4.98,17.18c1.33.38,2.32,1.15,2.98,2.32.65,1.17.8,2.39.43,3.68l-1.34,4.73-19.71-5.59,1.34-4.73c.37-1.29,1.14-2.25,2.33-2.9,1.19-.64,2.43-.78,3.72-.42l10.26,2.91Zm37.2,18.18l-1.79-.51-.66,2.33-30.88-8.77,1.34-4.73c.51-1.78.3-3.47-.6-5.1-.9-1.62-2.27-2.69-4.08-3.21l-10.26-2.91c-1.77-.5-3.49-.3-5.13.59-1.65.91-2.72,2.23-3.23,4.02l-2.51,8.85,1.8.51.66-2.33,52.38,14.87-.66,2.33,1.79.51,1.83-6.45Zm-5.42,24.31l-1.84-.33-.43,2.38-53.61-9.57.85-4.77.86-4.84,53.61,9.57-.43,2.38,1.84.33,1.19-6.68-1.84-.33-.44,2.45-53.61-9.57.44-2.45-1.84-.33-1.62,9.1-1.61,9.02,1.84.33.43-2.38,53.61,9.57-.43,2.38,1.84.33,1.18-6.6Z"/>
    <path class="cls-6" d="m467.58,303.59l1.57-8.71,9.61,1.73.33-1.84-11.44-2.07-2.67,14.77,1.84.33.43-2.38,53.59,9.67-.43,2.38,1.84.33,1.33-7.35,1.34-7.41-11.43-2.06-.33,1.84,9.6,1.73-1.57,8.71-31.59-5.7.87-4.83-1.84-.33-.87,4.83-20.16-3.64Zm-7.15,22.84l-1.84,6.45,1.79.51.66-2.33,52.36,14.96-.67,2.33,1.79.51,1.84-6.45-1.79-.51-.66,2.33-9.25-2.64-25.45-17.41,37.39,10.68-.66,2.33,1.79.51,1.87-6.53-1.79-.51-.68,2.4-52.36-14.96.68-2.4-1.79-.51-1.86,6.53,1.79.51.67-2.33,9.25,2.64,25.45,17.41-37.39-10.68.67-2.33-1.79-.51Zm45.19,45.72l-1.7-.77-.99,2.21-29.27-13.19,4.01-8.89,29.27,13.19-.99,2.21,1.7.77,2.79-6.19-1.7-.77-1.02,2.27-49.64-22.38,1.02-2.27-1.7-.77-2.79,6.19,1.7.77.99-2.21,18.68,8.42-4.01,8.89-18.68-8.42.99-2.21-1.7-.77-2.76,6.11,1.7.77.99-2.21,49.64,22.38-.99,2.21,1.7.77,2.76-6.11Zm-62.98-.46l4.4-7.69,8.47,4.85.93-1.62-10.09-5.78-7.45,13.02,1.62.93,1.2-2.1,47.26,27.05-1.2,2.1,1.62.93,3.71-6.49,3.74-6.54-10.08-5.77-.93,1.62,8.46,4.85-4.4,7.69-27.86-15.95,2.44-4.26-1.62-.93-2.44,4.26-17.78-10.18Zm6.53,19.21c1.09.85,1.72,1.94,1.88,3.27.16,1.33-.17,2.51-.99,3.57l-3.03,3.87-16.13-12.63,3.03-3.87c.83-1.06,1.91-1.65,3.25-1.8,1.34-.15,2.55.19,3.6,1.02l8.4,6.57Zm27.57,30.89l-1.47-1.15-1.49,1.91-25.28-19.79,3.03-3.87c1.14-1.46,1.59-3.1,1.37-4.95-.22-1.84-1.08-3.35-2.57-4.51l-8.4-6.57c-1.45-1.14-3.11-1.6-4.97-1.39-1.87.22-3.36,1.04-4.51,2.5l-5.67,7.24,1.47,1.15,1.49-1.91,42.88,33.56-1.49,1.91,1.47,1.15,4.13-5.28Zm-51.63-17.86c-1.37-1.3-2.97-1.94-4.79-1.89-1.89.05-3.47.73-4.75,2.07-1.34,1.4-1.95,3.02-1.84,4.84,0,1.85.7,3.44,2.06,4.75l35.83,34.22-1.67,1.75,1.35,1.29,2.32-2.43,2.32-2.43-1.35-1.29-1.67,1.75-23.22-22.17,6.74-7.05,23.22,22.17-1.67,1.75,1.35,1.29,2.32-2.43,2.37-2.48-1.35-1.29-1.72,1.8-35.83-34.22Zm-8.03,8.41c-.97-.92-1.47-2.07-1.5-3.44-.03-1.37.42-2.54,1.34-3.5.93-.97,2.05-1.45,3.39-1.45,1.37-.03,2.54.42,3.51,1.34l11.26,10.76-6.74,7.05-11.26-10.76Zm14.4,53.42l-19.84-25.24,3.86-3.04c1.06-.83,2.24-1.16,3.57-1,1.33.16,2.41.77,3.23,1.82l13.82,17.57c.85,1.09,1.2,2.29,1.05,3.62-.16,1.33-.76,2.4-1.82,3.23l-3.86,3.04Zm-35.13-41.65l33.66,42.8-1.9,1.5,1.15,1.47,3.59-2.82,3.64-2.86c1.46-1.15,2.28-2.64,2.51-4.48.22-1.84-.25-3.51-1.42-5l-13.82-17.57c-1.54-1.96-3.61-2.79-6.21-2.51.95-2.38.62-4.6-.97-6.62l-6.59-8.38c-1.14-1.45-2.64-2.29-4.5-2.53-1.86-.23-3.52.21-4.97,1.36l-3.64,2.86-3.59,2.82,1.15,1.47,1.9-1.5Zm1.47-1.15l3.86-3.04c1.06-.83,2.25-1.15,3.59-.98,1.34.18,2.43.79,3.25,1.84l6.59,8.38c.85,1.09,1.21,2.3,1.05,3.62-.16,1.33-.76,2.4-1.82,3.23l-3.86,3.04-12.66-16.1Zm-6.95,11.62c-1.02-1.59-2.44-2.57-4.26-2.94-1.81-.42-3.52-.13-5.11.89-1.55.99-2.53,2.42-2.94,4.26-.39,1.78-.08,3.47.94,5.06l24.05,37.6c1.02,1.59,2.42,2.58,4.2,2.97,1.84.41,3.55.11,5.1-.88,1.59-1.02,2.57-2.44,2.95-4.27.45-1.77.16-3.47-.88-5.1l-24.05-37.6Zm-9.8,6.27c-.72-1.12-.93-2.36-.64-3.7.21-1.29.91-2.31,2.07-3.05,1.13-.73,2.36-.94,3.7-.64,1.34.29,2.37,1.01,3.09,2.13l24.05,37.6c.72,1.12.93,2.36.64,3.7-.29,1.34-1,2.36-2.13,3.09-1.16.75-2.38.95-3.64.6-1.34-.29-2.37-1.01-3.09-2.13l-24.05-37.6Zm3.25,54.67l-14.55-28.62,4.38-2.23c1.2-.61,2.42-.7,3.69-.29,1.27.41,2.21,1.22,2.82,2.41l10.13,19.92c.63,1.23.73,2.48.32,3.76-.41,1.27-1.21,2.2-2.41,2.81l-4.38,2.23Zm-26.34-47.69l24.68,48.54-2.16,1.1.85,1.66,4.07-2.07,4.13-2.1c1.65-.84,2.75-2.14,3.34-3.91.57-1.76.44-3.49-.42-5.18l-10.13-19.92c-1.13-2.22-3-3.44-5.6-3.67,1.4-2.15,1.5-4.39.33-6.69l-4.83-9.5c-.84-1.64-2.15-2.76-3.92-3.36-1.78-.59-3.49-.48-5.14.36l-4.13,2.1-4.07,2.07.85,1.66,2.16-1.1Zm1.66-.85l4.38-2.23c1.2-.61,2.43-.69,3.71-.26,1.28.43,2.23,1.25,2.83,2.44l4.83,9.5c.63,1.23.73,2.49.32,3.76-.41,1.27-1.21,2.2-2.41,2.81l-4.38,2.23-9.28-18.26Zm-20.35,6.18l-6.35,2.17.6,1.77,2.29-.78,17.59,51.54-2.29.78.6,1.77,6.35-2.17-.6-1.77-2.29.78-3.11-9.11-.22-30.84,12.56,36.8-2.29.78.6,1.77,6.43-2.19-.6-1.77-2.36.8-17.59-51.54,2.36-.8-.6-1.77-6.42,2.19.6,1.77,2.29-.78,3.11,9.11.22,30.84-12.56-36.8,2.29-.78-.6-1.77Zm-12.02,63.57l-.42-1.82-2.36.54-12.25-53.06,4.72-1.09,4.79-1.1,12.25,53.06-2.36.54.42,1.82,6.61-1.53-.42-1.82-2.43.56-12.25-53.06,2.43-.56-.42-1.82-9.01,2.08-8.93,2.06.42,1.82,2.36-.54,12.25,53.06-2.36.54.42,1.82,6.53-1.51Zm-46.31-53.23l-6.7.18.05,1.87,2.42-.07,1.48,54.43-2.42.07.05,1.86,6.7-.18-.05-1.86-2.42.07-.26-9.62,8.96-29.51,1.05,38.87-2.42.07.05,1.86,6.79-.18-.05-1.87-2.49.07-1.48-54.44,2.49-.07-.05-1.86-6.79.18.05,1.87,2.42-.07.26,9.62-8.96,29.51-1.05-38.87,2.42-.07-.05-1.87Zm-26.06,1.07l-3.64,20.16-4.76-.86c-1.36-.25-2.43-.92-3.19-2.01-.76-1.1-1.02-2.33-.77-3.69l1.89-10.49c.24-1.31.91-2.37,2.01-3.15,1.1-.79,2.34-1.05,3.7-.81l4.76.86Zm-12.39,54.99l6.68,1.21.33-1.84-2.45-.44,9.67-53.59,2.45.44.33-1.84-9.06-1.64c-1.86-.34-3.56.04-5.09,1.12-1.53,1.08-2.46,2.53-2.79,4.34l-1.89,10.49c-.46,2.53.29,4.65,2.23,6.31-2.42.97-3.85,2.68-4.3,5.13l-4.84,26.83-2.38-.43-.33,1.84,6.6,1.19.33-1.84-2.38-.43,4.84-26.83c.24-1.31.91-2.36,2-3.12,1.1-.76,2.33-1.02,3.69-.77l4.76.86-5.7,31.59-2.38-.43-.33,1.84Zm-20.27-63.96l-6.46-1.82-.51,1.8,2.33.66-14.77,52.41-2.33-.66-.51,1.8,6.45,1.82.51-1.8-2.33-.66,2.61-9.26,17.33-25.52-10.55,37.42-2.33-.66-.51,1.8,6.53,1.84.51-1.8-2.4-.68,14.77-52.41,2.4.68.51-1.8-6.53-1.84-.51,1.8,2.33.66-2.61,9.26-17.32,25.52,10.55-37.42,2.33.66.51-1.8Zm-36.93,46.95l22.38-49.64,2.27,1.02.77-1.7-6.19-2.79-.77,1.7,2.21.99-22.38,49.64-4.48-2.02-4.41-1.99,22.38-49.64,2.21.99.77-1.7-6.11-2.76-.77,1.7,2.21.99-22.38,49.64-2.21-.99-.77,1.7,15.7,7.08-1.99,4.41,1.7.77,2.76-6.11-2.9-1.31Zm-3.1-61.97l-10.22,17.75-4.2-2.42c-1.2-.69-1.97-1.68-2.32-2.97-.35-1.29-.17-2.54.52-3.74l5.32-9.24c.67-1.16,1.65-1.92,2.95-2.29,1.3-.37,2.56-.2,3.75.49l4.2,2.42Zm-30.2,47.6l5.88,3.39.93-1.62-2.16-1.24,27.17-47.19,2.16,1.24.93-1.62-7.98-4.59c-1.64-.94-3.36-1.16-5.17-.66-1.8.5-3.17,1.55-4.09,3.15l-5.32,9.24c-1.28,2.23-1.29,4.47-.02,6.69-2.6.1-4.53,1.22-5.77,3.38l-13.6,23.63-2.1-1.21-.93,1.62,5.81,3.35.93-1.62-2.1-1.21,13.6-23.63c.67-1.16,1.65-1.91,2.94-2.26,1.29-.35,2.54-.17,3.74.52l4.2,2.42-16.02,27.82-2.1-1.21-.93,1.62Zm-30.18-20.63l1.15-1.47-1.91-1.49,30.53-39.01c.82-1.05,1.91-1.67,3.25-1.85,1.34-.18,2.56.16,3.65,1.01l3.81,2.98-33.56,42.88-1.91-1.49-1.15,1.47,2.65,2.07,2.7,2.11,1.15-1.47-1.96-1.54,34.71-44.35-5.29-4.14c-1.49-1.16-3.17-1.62-5.02-1.38-1.85.24-3.36,1.09-4.49,2.54l-30.53,39.01-1.91-1.49-1.15,1.47,2.64,2.07,2.64,2.07Zm-23.48-21.23l1.35-1.29-1.68-1.75,35.75-34.29c.96-.92,2.12-1.38,3.48-1.37,1.35.01,2.51.52,3.47,1.52l3.35,3.49-39.3,37.69-1.68-1.75-1.35,1.29,2.33,2.43,2.37,2.47,1.35-1.29-1.73-1.8,40.65-38.99-4.65-4.85c-1.31-1.36-2.9-2.06-4.77-2.08-1.87-.02-3.48.6-4.81,1.88l-35.75,34.29-1.68-1.75-1.35,1.29,2.32,2.42,2.32,2.42Zm24.9-60.25l-4.15-5.27-1.47,1.15,1.5,1.9-42.8,33.66-1.5-1.9-1.47,1.15,4.15,5.27,1.47-1.15-1.5-1.9,7.56-5.95,29.03-10.42-30.56,24.04-1.5-1.9-1.47,1.15,4.2,5.34,1.47-1.15-1.54-1.96,42.8-33.66,1.54,1.96,1.47-1.15-4.2-5.34-1.47,1.15,1.5,1.9-7.56,5.95-29.03,10.42,30.56-24.04,1.5,1.9,1.47-1.15Zm-59.69,15.36l1.62-.93-1.21-2.1,47.16-27.22,2.77,4.8-4.25,2.46.93,1.62,5.87-3.39-8.33-14.44-5.87,3.39.93,1.62,4.25-2.46,2.77,4.8-47.16,27.22-1.21-2.1-1.62.93,3.35,5.81Zm30.21-53.81c1.22-.55,2.47-.59,3.75-.1,1.24.4,2.15,1.23,2.72,2.49.55,1.23.59,2.47.1,3.75-.48,1.28-1.34,2.2-2.55,2.75l-15.01,6.79.77,1.71,15.01-6.79c1.72-.78,2.9-2.05,3.52-3.79.68-1.73.64-3.46-.14-5.18-.76-1.68-2.03-2.85-3.79-3.52-1.7-.64-3.42-.58-5.14.2l-40.67,18.39c-1.72.78-2.91,2.03-3.55,3.73-.67,1.77-.62,3.49.14,5.17.78,1.72,2.05,2.9,3.8,3.53,1.69.7,3.41.66,5.17-.14l15.07-6.81-.77-1.71-15.07,6.82c-1.22.55-2.47.58-3.75.1-1.28-.48-2.19-1.33-2.75-2.55-.57-1.26-.6-2.49-.07-3.69.48-1.28,1.34-2.2,2.55-2.75l40.67-18.39Zm.2-19.88l-1.82-6.45-1.8.51.66,2.33-52.4,14.82-.66-2.33-1.8.51,1.82,6.45,1.8-.51-.66-2.33,9.26-2.62,30.81,1.42-37.41,10.58-.66-2.33-1.8.51,1.85,6.53,1.8-.51-.68-2.4,52.4-14.82.68,2.4,1.8-.51-1.85-6.53-1.8.51.66,2.33-9.26,2.62-30.81-1.42,37.41-10.58.66,2.33,1.8-.51Zm-63.99-20.13l1.29,7.15,1.3,7.22-4.76.86.35,1.92,4.76-.86,1.84-.33-.44-2.45,48.81-8.81c1.78-.32,3.23-1.24,4.36-2.76,1.02-1.6,1.38-3.27,1.06-5.05-.34-1.86-1.26-3.31-2.75-4.35-1.55-1.08-3.24-1.46-5.06-1.13l-48.81,8.81-.43-2.38-1.84.33-4.76.86.33,1.84,4.76-.86Zm51.08-6.76c1.32-.24,2.51.04,3.6.82,1.12.78,1.81,1.83,2.04,3.15.24,1.32-.04,2.51-.83,3.59-.75,1.12-1.76,1.79-3.09,2.03l-48.81,8.81-1.73-9.6,48.81-8.81Z"/>
    <path class="cls-2" d="m467.58,303.59l1.57-8.71,9.61,1.73.33-1.84-11.44-2.07-2.67,14.77,1.84.33.43-2.38,53.59,9.67-.43,2.38,1.84.33,1.33-7.35,1.34-7.41-11.43-2.06-.33,1.84,9.6,1.73-1.57,8.71-31.59-5.7.87-4.83-1.84-.33-.87,4.83-20.16-3.64Zm-7.15,22.84l-1.84,6.45,1.79.51.66-2.33,52.36,14.96-.67,2.33,1.79.51,1.84-6.45-1.79-.51-.66,2.33-9.25-2.64-25.45-17.41,37.39,10.68-.66,2.33,1.79.51,1.87-6.53-1.79-.51-.68,2.4-52.36-14.96.68-2.4-1.79-.51-1.86,6.53,1.79.51.67-2.33,9.25,2.64,25.45,17.41-37.39-10.68.67-2.33-1.79-.51Zm45.19,45.72l-1.7-.77-.99,2.21-29.27-13.19,4.01-8.89,29.27,13.19-.99,2.21,1.7.77,2.79-6.19-1.7-.77-1.02,2.27-49.64-22.38,1.02-2.27-1.7-.77-2.79,6.19,1.7.77.99-2.21,18.68,8.42-4.01,8.89-18.68-8.42.99-2.21-1.7-.77-2.76,6.11,1.7.77.99-2.21,49.64,22.38-.99,2.21,1.7.77,2.76-6.11Zm-62.98-.46l4.4-7.69,8.47,4.85.93-1.62-10.09-5.78-7.45,13.02,1.62.93,1.2-2.1,47.26,27.05-1.2,2.1,1.62.93,3.71-6.49,3.74-6.54-10.08-5.77-.93,1.62,8.46,4.85-4.4,7.69-27.86-15.95,2.44-4.26-1.62-.93-2.44,4.26-17.78-10.18Zm6.53,19.21c1.09.85,1.72,1.94,1.88,3.27.16,1.33-.17,2.51-.99,3.57l-3.03,3.87-16.13-12.63,3.03-3.87c.83-1.06,1.91-1.65,3.25-1.8,1.34-.15,2.55.19,3.6,1.02l8.4,6.57Zm27.57,30.89l-1.47-1.15-1.49,1.91-25.28-19.79,3.03-3.87c1.14-1.46,1.59-3.1,1.37-4.95-.22-1.84-1.08-3.35-2.57-4.51l-8.4-6.57c-1.45-1.14-3.11-1.6-4.97-1.39-1.87.22-3.36,1.04-4.51,2.5l-5.67,7.24,1.47,1.15,1.49-1.91,42.88,33.56-1.49,1.91,1.47,1.15,4.13-5.28Zm-51.63-17.86c-1.37-1.3-2.97-1.94-4.79-1.89-1.89.05-3.47.73-4.75,2.07-1.34,1.4-1.95,3.02-1.84,4.84,0,1.85.7,3.44,2.06,4.75l35.83,34.22-1.67,1.75,1.35,1.29,2.32-2.43,2.32-2.43-1.35-1.29-1.67,1.75-23.22-22.17,6.74-7.05,23.22,22.17-1.67,1.75,1.35,1.29,2.32-2.43,2.37-2.48-1.35-1.29-1.72,1.8-35.83-34.22Zm-8.03,8.41c-.97-.92-1.47-2.07-1.5-3.44-.03-1.37.42-2.54,1.34-3.5.93-.97,2.05-1.45,3.39-1.45,1.37-.03,2.54.42,3.51,1.34l11.26,10.76-6.74,7.05-11.26-10.76Zm14.4,53.42l-19.84-25.24,3.86-3.04c1.06-.83,2.24-1.16,3.57-1,1.33.16,2.41.77,3.23,1.82l13.82,17.57c.85,1.09,1.2,2.29,1.05,3.62-.16,1.33-.76,2.4-1.82,3.23l-3.86,3.04Zm-35.13-41.65l33.66,42.8-1.9,1.5,1.15,1.47,3.59-2.82,3.64-2.86c1.46-1.15,2.28-2.64,2.51-4.48.22-1.84-.25-3.51-1.42-5l-13.82-17.57c-1.54-1.96-3.61-2.79-6.21-2.51.95-2.38.62-4.6-.97-6.62l-6.59-8.38c-1.14-1.45-2.64-2.29-4.5-2.53-1.86-.23-3.52.21-4.97,1.36l-3.64,2.86-3.59,2.82,1.15,1.47,1.9-1.5Zm1.47-1.15l3.86-3.04c1.06-.83,2.25-1.15,3.59-.98,1.34.18,2.43.79,3.25,1.84l6.59,8.38c.85,1.09,1.21,2.3,1.05,3.62-.16,1.33-.76,2.4-1.82,3.23l-3.86,3.04-12.66-16.1Zm-6.95,11.62c-1.02-1.59-2.44-2.57-4.26-2.94-1.81-.42-3.52-.13-5.11.89-1.55.99-2.53,2.42-2.94,4.26-.39,1.78-.08,3.47.94,5.06l24.05,37.6c1.02,1.59,2.42,2.58,4.2,2.97,1.84.41,3.55.11,5.1-.88,1.59-1.02,2.57-2.44,2.95-4.27.45-1.77.16-3.47-.88-5.1l-24.05-37.6Zm-9.8,6.27c-.72-1.12-.93-2.36-.64-3.7.21-1.29.91-2.31,2.07-3.05,1.13-.73,2.36-.94,3.7-.64,1.34.29,2.37,1.01,3.09,2.13l24.05,37.6c.72,1.12.93,2.36.64,3.7-.29,1.34-1,2.36-2.13,3.09-1.16.75-2.38.95-3.64.6-1.34-.29-2.37-1.01-3.09-2.13l-24.05-37.6Zm3.25,54.67l-14.55-28.62,4.38-2.23c1.2-.61,2.42-.7,3.69-.29,1.27.41,2.21,1.22,2.82,2.41l10.13,19.92c.63,1.23.73,2.48.32,3.76-.41,1.27-1.21,2.2-2.41,2.81l-4.38,2.23Zm-26.34-47.69l24.68,48.54-2.16,1.1.85,1.66,4.07-2.07,4.13-2.1c1.65-.84,2.75-2.14,3.34-3.91.57-1.76.44-3.49-.42-5.18l-10.13-19.92c-1.13-2.22-3-3.44-5.6-3.67,1.4-2.15,1.5-4.39.33-6.69l-4.83-9.5c-.84-1.64-2.15-2.76-3.92-3.36-1.78-.59-3.49-.48-5.14.36l-4.13,2.1-4.07,2.07.85,1.66,2.16-1.1Zm1.66-.85l4.38-2.23c1.2-.61,2.43-.69,3.71-.26,1.28.43,2.23,1.25,2.83,2.44l4.83,9.5c.63,1.23.73,2.49.32,3.76-.41,1.27-1.21,2.2-2.41,2.81l-4.38,2.23-9.28-18.26Zm-20.35,6.18l-6.35,2.17.6,1.77,2.29-.78,17.59,51.54-2.29.78.6,1.77,6.35-2.17-.6-1.77-2.29.78-3.11-9.11-.22-30.84,12.56,36.8-2.29.78.6,1.77,6.43-2.19-.6-1.77-2.36.8-17.59-51.54,2.36-.8-.6-1.77-6.42,2.19.6,1.77,2.29-.78,3.11,9.11.22,30.84-12.56-36.8,2.29-.78-.6-1.77Zm-12.02,63.57l-.42-1.82-2.36.54-12.25-53.06,4.72-1.09,4.79-1.1,12.25,53.06-2.36.54.42,1.82,6.61-1.53-.42-1.82-2.43.56-12.25-53.06,2.43-.56-.42-1.82-9.01,2.08-8.93,2.06.42,1.82,2.36-.54,12.25,53.06-2.36.54.42,1.82,6.53-1.51Zm-46.31-53.23l-6.7.18.05,1.87,2.42-.07,1.48,54.43-2.42.07.05,1.86,6.7-.18-.05-1.86-2.42.07-.26-9.62,8.96-29.51,1.05,38.87-2.42.07.05,1.86,6.79-.18-.05-1.87-2.49.07-1.48-54.44,2.49-.07-.05-1.86-6.79.18.05,1.87,2.42-.07.26,9.62-8.96,29.51-1.05-38.87,2.42-.07-.05-1.87Zm-26.06,1.07l-3.64,20.16-4.76-.86c-1.36-.25-2.43-.92-3.19-2.01-.76-1.1-1.02-2.33-.77-3.69l1.89-10.49c.24-1.31.91-2.37,2.01-3.15,1.1-.79,2.34-1.05,3.7-.81l4.76.86Zm-12.39,54.99l6.68,1.21.33-1.84-2.45-.44,9.67-53.59,2.45.44.33-1.84-9.06-1.64c-1.86-.34-3.56.04-5.09,1.12-1.53,1.08-2.46,2.53-2.79,4.34l-1.89,10.49c-.46,2.53.29,4.65,2.23,6.31-2.42.97-3.85,2.68-4.3,5.13l-4.84,26.83-2.38-.43-.33,1.84,6.6,1.19.33-1.84-2.38-.43,4.84-26.83c.24-1.31.91-2.36,2-3.12,1.1-.76,2.33-1.02,3.69-.77l4.76.86-5.7,31.59-2.38-.43-.33,1.84Zm-20.27-63.96l-6.46-1.82-.51,1.8,2.33.66-14.77,52.41-2.33-.66-.51,1.8,6.45,1.82.51-1.8-2.33-.66,2.61-9.26,17.33-25.52-10.55,37.42-2.33-.66-.51,1.8,6.53,1.84.51-1.8-2.4-.68,14.77-52.41,2.4.68.51-1.8-6.53-1.84-.51,1.8,2.33.66-2.61,9.26-17.32,25.52,10.55-37.42,2.33.66.51-1.8Zm-36.93,46.95l22.38-49.64,2.27,1.02.77-1.7-6.19-2.79-.77,1.7,2.21.99-22.38,49.64-4.48-2.02-4.41-1.99,22.38-49.64,2.21.99.77-1.7-6.11-2.76-.77,1.7,2.21.99-22.38,49.64-2.21-.99-.77,1.7,15.7,7.08-1.99,4.41,1.7.77,2.76-6.11-2.9-1.31Zm-3.1-61.97l-10.22,17.75-4.2-2.42c-1.2-.69-1.97-1.68-2.32-2.97-.35-1.29-.17-2.54.52-3.74l5.32-9.24c.67-1.16,1.65-1.92,2.95-2.29,1.3-.37,2.56-.2,3.75.49l4.2,2.42Zm-30.2,47.6l5.88,3.39.93-1.62-2.16-1.24,27.17-47.19,2.16,1.24.93-1.62-7.98-4.59c-1.64-.94-3.36-1.16-5.17-.66-1.8.5-3.17,1.55-4.09,3.15l-5.32,9.24c-1.28,2.23-1.29,4.47-.02,6.69-2.6.1-4.53,1.22-5.77,3.38l-13.6,23.63-2.1-1.21-.93,1.62,5.81,3.35.93-1.62-2.1-1.21,13.6-23.63c.67-1.16,1.65-1.91,2.94-2.26,1.29-.35,2.54-.17,3.74.52l4.2,2.42-16.02,27.82-2.1-1.21-.93,1.62Zm-30.18-20.63l1.15-1.47-1.91-1.49,30.53-39.01c.82-1.05,1.91-1.67,3.25-1.85,1.34-.18,2.56.16,3.65,1.01l3.81,2.98-33.56,42.88-1.91-1.49-1.15,1.47,2.65,2.07,2.7,2.11,1.15-1.47-1.96-1.54,34.71-44.35-5.29-4.14c-1.49-1.16-3.17-1.62-5.02-1.38-1.85.24-3.36,1.09-4.49,2.54l-30.53,39.01-1.91-1.49-1.15,1.47,2.64,2.07,2.64,2.07Zm-23.48-21.23l1.35-1.29-1.68-1.75,35.75-34.29c.96-.92,2.12-1.38,3.48-1.37,1.35.01,2.51.52,3.47,1.52l3.35,3.49-39.3,37.69-1.68-1.75-1.35,1.29,2.33,2.43,2.37,2.47,1.35-1.29-1.73-1.8,40.65-38.99-4.65-4.85c-1.31-1.36-2.9-2.06-4.77-2.08-1.87-.02-3.48.6-4.81,1.88l-35.75,34.29-1.68-1.75-1.35,1.29,2.32,2.42,2.32,2.42Zm24.9-60.25l-4.15-5.27-1.47,1.15,1.5,1.9-42.8,33.66-1.5-1.9-1.47,1.15,4.15,5.27,1.47-1.15-1.5-1.9,7.56-5.95,29.03-10.42-30.56,24.04-1.5-1.9-1.47,1.15,4.2,5.34,1.47-1.15-1.54-1.96,42.8-33.66,1.54,1.96,1.47-1.15-4.2-5.34-1.47,1.15,1.5,1.9-7.56,5.95-29.03,10.42,30.56-24.04,1.5,1.9,1.47-1.15Zm-59.69,15.36l1.62-.93-1.21-2.1,47.16-27.22,2.77,4.8-4.25,2.46.93,1.62,5.87-3.39-8.33-14.44-5.87,3.39.93,1.62,4.25-2.46,2.77,4.8-47.16,27.22-1.21-2.1-1.62.93,3.35,5.81Zm30.21-53.81c1.22-.55,2.47-.59,3.75-.1,1.24.4,2.15,1.23,2.72,2.49.55,1.23.59,2.47.1,3.75-.48,1.28-1.34,2.2-2.55,2.75l-15.01,6.79.77,1.71,15.01-6.79c1.72-.78,2.9-2.05,3.52-3.79.68-1.73.64-3.46-.14-5.18-.76-1.68-2.03-2.85-3.79-3.52-1.7-.64-3.42-.58-5.14.2l-40.67,18.39c-1.72.78-2.91,2.03-3.55,3.73-.67,1.77-.62,3.49.14,5.17.78,1.72,2.05,2.9,3.8,3.53,1.69.7,3.41.66,5.17-.14l15.07-6.81-.77-1.71-15.07,6.82c-1.22.55-2.47.58-3.75.1-1.28-.48-2.19-1.33-2.75-2.55-.57-1.26-.6-2.49-.07-3.69.48-1.28,1.34-2.2,2.55-2.75l40.67-18.39Zm.2-19.88l-1.82-6.45-1.8.51.66,2.33-52.4,14.82-.66-2.33-1.8.51,1.82,6.45,1.8-.51-.66-2.33,9.26-2.62,30.81,1.42-37.41,10.58-.66-2.33-1.8.51,1.85,6.53,1.8-.51-.68-2.4,52.4-14.82.68,2.4,1.8-.51-1.85-6.53-1.8.51.66,2.33-9.26,2.62-30.81-1.42,37.41-10.58.66,2.33,1.8-.51Zm-63.99-20.13l1.29,7.15,1.3,7.22-4.76.86.35,1.92,4.76-.86,1.84-.33-.44-2.45,48.81-8.81c1.78-.32,3.23-1.24,4.36-2.76,1.02-1.6,1.38-3.27,1.06-5.05-.34-1.86-1.26-3.31-2.75-4.35-1.55-1.08-3.24-1.46-5.06-1.13l-48.81,8.81-.43-2.38-1.84.33-4.76.86.33,1.84,4.76-.86Zm51.08-6.76c1.32-.24,2.51.04,3.6.82,1.12.78,1.81,1.83,2.04,3.15.24,1.32-.04,2.51-.83,3.59-.75,1.12-1.76,1.79-3.09,2.03l-48.81,8.81-1.73-9.6,48.81-8.81Z"/>
    <path class="cls-5" d="m496.68,257.33c7.56,0,13.69,6.13,13.69,13.69s-6.13,13.69-13.69,13.69-13.69-6.13-13.69-13.69,6.13-13.69,13.69-13.69"/>
    <path class="cls-5" d="m495.52,260.17c5.29,0,9.58,4.29,9.58,9.58s-4.29,9.58-9.58,9.58-9.58-4.29-9.58-9.58,4.29-9.58,9.58-9.58"/>
    <path class="cls-5" d="m56.3,257.33c-7.56,0-13.69,6.13-13.69,13.69s6.13,13.69,13.69,13.69,13.69-6.13,13.69-13.69-6.13-13.69-13.69-13.69"/>
    <path class="cls-5" d="m57.46,260.17c-5.29,0-9.58,4.29-9.58,9.58s4.29,9.58,9.58,9.58,9.58-4.29,9.58-9.58-4.29-9.58-9.58-9.58"/>
  </g>
  <rect class="cls-1" width="550" height="550"/>
</svg>