<?xml version="1.0" encoding="UTF-8"?>
<svg id="_Слой_1" data-name=" Слой 1" xmlns="http://www.w3.org/2000/svg" viewBox="0 0 1050 600">
  <defs>
    <style>
      .cls-1 {
        fill: none;
      }

      .cls-1, .cls-2 {
        stroke-width: 0px;
      }

      .cls-2 {
        fill: #fff;
      }
    </style>
  </defs>
  <rect class="cls-1" width="1050" height="600"/>
  <g>
    <path class="cls-2" d="m118.72,461.1v72.59h-7.84v-65.95h-47.56v65.95h-7.84v-72.59h63.24Z"/>
    <path class="cls-2" d="m144.06,461.1h7.84v60.14l48.09-60.14h7.19v72.59h-7.84v-60.04l-48.09,60.04h-7.19v-72.59Z"/>
    <path class="cls-2" d="m288.99,502.31c2.72,3.01,4.08,6.93,4.08,11.77,0,6.29-2.31,11.13-6.92,14.52-4.62,3.39-11.4,5.08-20.34,5.08h-33.28v-72.59h31.24c8.02,0,14.28,1.59,18.79,4.77s6.76,7.78,6.76,13.79c0,4.08-1.07,7.52-3.22,10.32s-5.15,4.89-9.02,6.27c5.22,1.04,9.2,3.06,11.92,6.07h-.01Zm-48.63-8.35h22.97c5.8,0,10.25-1.14,13.37-3.42,3.11-2.28,4.67-5.6,4.67-9.96s-1.56-7.67-4.67-9.95c-3.11-2.28-7.57-3.42-13.37-3.42h-22.97v26.75Zm44.87,19.6c0-9.13-6.48-13.69-19.43-13.69h-25.44v27.69h25.44c12.95,0,19.43-4.67,19.43-14Z"/>
    <path class="cls-2" d="m375.73,461.1v72.59h-7.84v-33.49h-47.02v33.49h-7.94v-72.59h7.94v32.35h47.02v-32.35h7.84Z"/>
    <path class="cls-2" d="m413.79,529.48c-6.05-3.22-10.77-7.62-14.17-13.22-3.4-5.6-5.1-11.89-5.1-18.87s1.7-13.27,5.1-18.87,8.12-10.01,14.17-13.22c6.05-3.21,12.79-4.82,20.24-4.82s14.15,1.59,20.13,4.77c5.97,3.18,10.68,7.59,14.12,13.22,3.44,5.64,5.15,11.94,5.15,18.92s-1.72,13.29-5.15,18.92c-3.44,5.64-8.14,10.04-14.12,13.22s-12.69,4.77-20.13,4.77-14.19-1.61-20.24-4.82Zm36.34-5.91c4.79-2.59,8.55-6.19,11.27-10.79,2.72-4.6,4.08-9.73,4.08-15.4s-1.36-10.8-4.08-15.4c-2.72-4.6-6.48-8.19-11.27-10.78-4.8-2.59-10.16-3.89-16.1-3.89s-11.33,1.3-16.16,3.89c-4.83,2.59-8.62,6.19-11.38,10.78-2.76,4.6-4.13,9.73-4.13,15.4s1.38,10.8,4.13,15.4c2.75,4.6,6.55,8.19,11.38,10.79,4.83,2.59,10.22,3.89,16.16,3.89s11.31-1.3,16.1-3.89Z"/>
    <path class="cls-2" d="m492.42,461.1h7.84v60.14l48.1-60.14h7.19v72.59h-7.84v-60.04l-48.1,60.04h-7.19v-72.59Zm18.63-8.81c-3.11-2.35-4.71-5.63-4.78-9.85h5.91c.07,2.77,1.14,4.94,3.22,6.53,2.08,1.59,4.87,2.39,8.37,2.39s6.21-.79,8.32-2.39c2.11-1.59,3.2-3.77,3.28-6.53h5.9c-.07,4.22-1.68,7.5-4.83,9.85s-7.37,3.53-12.67,3.53-9.61-1.17-12.72-3.53Z"/>
    <path class="cls-2" d="m621.73,529.53c-5.98-3.18-10.67-7.59-14.06-13.22-3.4-5.63-5.1-11.94-5.1-18.92s1.7-13.29,5.1-18.92c3.4-5.63,8.11-10.04,14.12-13.22s12.74-4.77,20.18-4.77c5.58,0,10.73.9,15.46,2.7,4.72,1.8,8.73,4.42,12.02,7.88l-5.05,4.87c-5.87-5.74-13.28-8.61-22.22-8.61-5.94,0-11.34,1.31-16.21,3.94s-8.68,6.22-11.43,10.78c-2.76,4.56-4.13,9.68-4.13,15.35s1.38,10.79,4.13,15.35,6.56,8.16,11.43,10.78c4.87,2.63,10.27,3.94,16.21,3.94,9.02,0,16.42-2.9,22.22-8.71l5.05,4.87c-3.29,3.46-7.32,6.1-12.08,7.93s-9.93,2.75-15.51,2.75c-7.44,0-14.15-1.59-20.13-4.77h0Z"/>
    <path class="cls-2" d="m710.78,500.39h-17.18v33.29h-7.73v-72.59h7.73v32.56h17.18l25.44-32.56h8.59l-27.91,35.26,29.52,37.33h-9.13l-26.52-33.29h0Z"/>
    <path class="cls-2" d="m819,461.1v72.59h-7.84v-65.95h-36.29l-.86,24.26c-.36,10.02-1.2,18.09-2.52,24.21s-3.35,10.68-6.07,13.69c-2.72,3.01-6.33,4.51-10.84,4.51-1.93,0-3.94-.24-6.01-.73l.64-6.84c1.22.28,2.4.42,3.54.42,3.15,0,5.71-1.21,7.68-3.63s3.45-6.17,4.46-11.25c1-5.08,1.68-11.8,2.04-20.17l1.07-31.11h51Z"/>
    <path class="cls-2" d="m892.43,514.29h-41.87l-9.02,19.39h-8.27l34.35-72.59h7.84l34.35,72.59h-8.37l-9.02-19.39h.01Zm-2.9-6.22l-18.04-38.99-18.04,38.99h36.08Z"/>
    <path class="cls-2" d="m993.45,527.04v22.92h-7.41v-16.28h-65.59l-.11,16.28h-7.41l.11-22.92h3.76c4.94-.28,8.37-4.06,10.31-11.35,1.93-7.29,3.11-17.64,3.54-31.06l.86-23.54h50.67v65.95h11.27,0Zm-58.35-14.36c-1.4,7.15-3.74,11.94-7.03,14.36h46.27v-59.31h-35.96l-.64,17.63c-.36,11.06-1.23,20.17-2.63,27.32h-.01Z"/>
  </g>
  <path class="cls-2" d="m595.67,406.13c-6.65,0-11.83-1.76-15.43-5.25-6.75-6.55-7.66-16.6-6.25-23.83,1.12-5.77,3.46-12.14,5.73-18.3,2.43-6.63,4.95-13.48,5.18-17.91.18-3.47.3-5.99.25-9.38-.14-10.65-1.73-18.97-3.5-27.24-3.04-14.22-6.09-25.88-8.41-34.45-2.42-8.95-3.88-13.88-5.06-17.84-1.24-4.19-2.22-7.5-3.77-13.54-5.49-21.36-12.33-47.94-13.64-94.06-.87-30.28,1.76-60.95,7.81-91.16l.63-3.12h196.28l.66,3.07c6.84,31.82,10.03,63.49,9.47,94.15-.14,7.85-.74,24.07-3.13,44.52-2.15,18.44-4.01,34.36-9.53,54.43-2.81,10.22-5.95,19.23-8.71,27.17-3.96,11.36-7.38,21.18-8.93,31.48-1.99,13.23-1.55,26.65-1.54,26.79.09,2.56.15,4.1.35,6.13.89,8.94,3.43,14.81,6.11,21.03,2.66,6.16,5.41,12.54,6.6,21.91,1.11,8.73.12,13.88-3.4,17.79-3.31,3.68-8.52,5.88-15.07,6.37h-.25l-130.26,1.19c-.74.04-1.47.06-2.18.06h0Zm-30.08-348.32c-5.49,28.63-7.86,57.64-7.04,86.29,1.29,45.25,7.73,70.27,13.4,92.35,1.52,5.9,2.48,9.15,3.7,13.27,1.18,4,2.66,8.98,5.1,18.02,2.35,8.66,5.44,20.46,8.51,34.86,1.85,8.67,3.53,17.4,3.67,28.77.05,3.63-.07,6.27-.26,9.89-.3,5.6-2.89,12.68-5.65,20.18-2.16,5.88-4.39,11.95-5.39,17.11-.97,4.99-.5,12.37,4.03,16.76,2.37,2.3,6.37,3.32,11.86,3h.18l130.21-1.19c3.13-.25,7.31-1.11,9.75-3.81,1.27-1.41,2.44-3.9,1.47-11.61-1.05-8.28-3.47-13.88-6.02-19.81-2.8-6.49-5.69-13.2-6.7-23.34-.23-2.28-.29-4.01-.38-6.62-.02-.59-.47-14.29,1.62-28.22,1.65-11.02,5.19-21.15,9.27-32.88,2.86-8.21,5.82-16.7,8.56-26.67,5.36-19.5,7.19-35.14,9.3-53.26,2.35-20.13,2.94-36.06,3.07-43.77.53-29.08-2.38-59.11-8.65-89.31h-183.61,0Z"/>
  <path class="cls-2" d="m64.25,406.15l-16.82-209.67c0-.13-.16-13.64-8.5-22.59l-.88-.94-13.58-122.92h240.51l-10.8,117.41-1.36.78c-.51.51-3.73,4.13-5.3,15.16-2.41,16.85-4.26,31.47-5.84,46-4.07,37.49-6.2,75.85-8.27,112.94-.7,12.64-1.43,25.71-2.23,38.56-.57,9.18-1.03,16.58-1.3,20.85l-.23,3.63-165.4.79h0Zm-9.05-209.84l16.22,202.04,150.92-.72c.27-4.32.64-10.26,1.07-17.22.79-12.83,1.52-25.89,2.23-38.52,2.07-37.19,4.22-75.65,8.31-113.35,1.59-14.62,3.45-29.31,5.87-46.26,1.62-11.32,4.92-16.66,6.93-18.95l9.71-105.53H33.15l12.35,111.77c9.16,10.65,9.68,24.89,9.71,26.73h-.01Z"/>
  <path class="cls-2" d="m492.81,406.14l-168.79-.24-20.35-224.51c-10.94-12.31-13.5-18.54-15.1-29.41-3.03-20.68,1.96-33.25,11.16-46.35l-8.97-55.2,233.28-.4-6.11,53.71c5.52,10.22,15.54,34.17,4.92,58.76-2.49,5.77-5.97,11.16-10.35,16.05l-19.7,227.59h0Zm-161.69-8l154.56.22,19.31-223.13.92-.98c4.2-4.5,7.5-9.48,9.81-14.83,9.65-22.34-.4-44.5-5.17-52.99l-.62-1.1,5.41-47.52-215.44.37,8.02,49.36-.94,1.31c-8.88,12.32-13.48,23.15-10.72,42,1.33,9.08,2.98,14,14.05,26.3l.87.96,19.94,220.02h0Z"/>
  <path class="cls-2" d="m573.23,104.02c-2.47,45.08,1.97,78.42,6.56,100.65,6.22,30.11,12.69,54.77,12.69,54.77,6.52,24.85,9.03,30.39,11.39,46.67,4.1,28.33,1.19,44.09-2.03,54.54-2.14,6.93-4.69,12.44-6.64,16.19h127.25c-2.07-3.83-4.76-9.43-7-16.51-2.45-7.74-6.71-24.68-2.11-53.78,3.51-22.17,7.96-24.88,15.71-54.33,1.3-4.95,2.41-9.58,3.38-13.95,0,0,3.31-14.81,5.68-31.34,2.29-15.92,5.24-53.74,5.04-104.15-8.33.61-22.78,1.34-40.76.44-39.66-1.98-55.97-9.89-87.77-7.53-9.3.69-23.74,2.54-41.4,8.32h.01Z"/>
  <path class="cls-2" d="m57.5,109.75c1.98,18.18,3.96,36.37,5.94,54.55,0,0,6.25,8.7,7.29,18.5,1.04,9.79,13.54,194.05,13.54,194.05h125.38c6.21-104.72,11.17-180.92,12.05-191.87.22-2.67.79-8.97,4.04-16.05,2.01-4.38,4.39-7.71,6.37-10.06,1.79-17.25,3.57-34.5,5.36-51.75-22.89,5.6-41.52,6.52-54.14,6.37-31.44-.38-46.06-7.73-79.45-8-19.9-.16-36.1,2.27-46.39,4.27h.01Z"/>
  <path class="cls-2" d="m321.62,108.46c10.06,1.62,26.31,3.6,46.32,2.93,28.54-.96,41.5-6.52,69.29-8.71,13.28-1.05,33.32-1.6,58.43,1.9,4.31,9.12,6.17,17.12,7.05,22.59,1.38,8.52,2.75,16.91-.75,26.48-2.78,7.61-7.37,12.73-10.58,15.67-5.59,70.3-11.17,140.6-16.76,210.9h-129.95l-16.77-208.88s-30.05-23.13-6.29-62.88h.01Z"/>
  <path class="cls-2" d="m985.65,405.13h-156.72c-2.15,0-3.89-1.74-3.89-3.89v-14.43c0-1.04.42-2.03,1.15-2.76.74-.73,1.72-1.12,2.78-1.12,8.09.09,20.12-1.36,31.66-8.76,18.12-11.62,28.59-33.69,26.06-54.93-2.36-19.78-14.91-32.52-20.74-37.45-13.4-4.96-32.47-14.79-48.47-33.63-15.91-18.73-25.11-41.99-27.35-69.13-1.11-13.46-.59-34.9,8.19-60.63,1.36-4,2.82-7.71,4.37-11.65,2.9-7.37,6.18-15.72,9.81-28.51,2.44-8.6,4.52-17.38,6.18-26.1.35-1.83,1.95-3.16,3.82-3.16h169.58c1.87,0,3.47,1.33,3.82,3.17,1.64,8.71,3.72,17.49,6.18,26.08,3.53,12.31,6.8,20.6,9.43,27.26.92,2.33,1.78,4.49,2.55,6.59,4.95,13.38,12.79,40.3,9.71,70.35-1.01,9.87-3.38,32.97-18.95,55.76-18.03,26.4-43.83,38.14-58.16,42.89-5.5,5.3-16.98,18.53-18.75,38.05-1.86,20.47,7.42,41.21,23.64,52.83,12.8,9.17,26.69,10.56,33.9,10.56h.12c2.14,0,3.88,1.73,3.89,3.87l.08,14.83c0,1.04-.4,2.03-1.13,2.76s-1.72,1.15-2.76,1.15h0Zm-152.84-7.77h148.93l-.04-7.16c-9.66-.51-22.49-3.18-34.68-11.92-18.71-13.4-29-36.34-26.85-59.86,2.09-22.94,15.94-38.13,21.8-43.61.42-.39.91-.68,1.46-.86,13.2-4.26,37.89-15.14,54.97-40.15,14.46-21.16,16.6-42.11,17.64-52.17,2.92-28.49-4.55-54.12-9.26-66.86-.76-2.05-1.59-4.16-2.49-6.43-2.69-6.82-6.05-15.3-9.68-27.97-2.23-7.78-4.15-15.71-5.73-23.61h-163.18c-1.59,7.9-3.51,15.82-5.72,23.6-3.74,13.16-7.09,21.7-10.05,29.23-1.51,3.85-2.94,7.48-4.25,11.31-8.35,24.46-8.85,44.76-7.8,57.48.78,9.5,3.17,38.4,25.53,64.73,15.16,17.84,33.3,27.03,45.85,31.59.42.15.8.37,1.15.65,6.3,5.2,21.24,19.78,24.01,42.94,2.88,24.13-9.01,49.2-29.58,62.39-11.38,7.3-23.13,9.52-32.01,9.92v6.73l-.02.03Z"/>
  <path class="cls-2" d="m826.6,111.09c-6.7,11.91-18.53,37.1-16.28,69.59.81,11.74,2.23,32.24,16.79,52.07,20.29,27.63,51.41,33.96,60.16,35.6,3.25.61,50.49,8.74,85.03-20.96,34.96-30.05,43.54-87.34,16.1-136.79-9.65-1.68-25.69-3.85-45.57-3.28-27.6.79-39.91,6.2-67.7,7.14-10.9.37-27.65.16-48.53-3.38h0Z"/>
</svg>