<?xml version="1.0" encoding="UTF-8"?>
<svg id="_Слой_1" data-name="Слой 1" xmlns="http://www.w3.org/2000/svg" viewBox="0 0 1080 1080">
  <defs>
    <style>
      .cls-1 {
        fill: none;
      }

      .cls-1, .cls-2 {
        stroke-width: 0px;
      }

      .cls-2 {
        fill: #fff;
      }
    </style>
  </defs>
  <rect class="cls-1" width="1080" height="1080"/>
  <g>
    <path class="cls-2" d="m754.65,949.28c-2.25,7.47-4.91,14.85-6.61,22.44-1.01,4.52-2.5,8.24-5.78,11.61-2.28,2.33-4.07,5.45-5.21,8.53-3.6,9.78-9.55,12.7-18.82,7.73-4.16-2.23-7.25-6.41-10.93-9.59-3.1-2.67-6.03-5.83-9.62-7.58-6.57-3.2-9.99-8.21-8.54-15.28,1.01-4.95,2.63-9.77,3.9-14.66.41-1.57.84-3.2.83-4.8-.19-23.81,4.81-46.79,10.73-69.66,2.5-9.65,5.41-19.4,6.12-29.24.55-7.67,3.56-13.04,7.97-18.72,1.73-2.23,1.56-6.59,1.04-9.78-.93-5.64.47-10.63,3.79-14.69,3.46-4.25,5.42-8.77,6.17-14.06.2-1.4.74-2.96,1.63-4.01,2.52-2.95,5.1-2.42,6.91,1.06.56,1.08,1.4,2.35,2.42,2.79,5.94,2.53,8.57,7.05,6.52,12.98-2.64,7.65-3.16,14.98.46,22.5.67,1.39.17,4.14-.85,5.41-3.33,4.11-4.45,7.85-3.74,13.64,1.02,8.22-.65,16.82-1.52,25.23-.79,7.56-2.06,15.07-3.12,22.61-.15,1.04-.03,2.22-.5,3.08-5.25,9.64-.88,20.11-2.64,30.04-.06.35.22.76.2.71,4.8-7.48,9.71-15.12,14.62-22.78.32-.5.9-1.08.83-1.55-1.19-8.86,5.81-14.64,8.33-22.11,1.27-3.78,3.24-7.39,5.34-10.81,3.37-5.49,9.79-5.57,12.82.01,3.16,5.82,4.5,12.37,1.37,18.48-2.51,4.89-3.08,9.07.1,13.63.56.8.6,1.96,1.18,4,2.63-6.28,5.01-11.78,7.22-17.34,1.04-2.62,1.39-5.56,2.69-8.01,6.18-11.65,7.86-24.59,11.17-37.09,1.59-6.01,4.01-11.86,6.62-17.51.65-1.41,3.53-1.79,6.21-3.03,1.87-5.81,3.99-12.64,6.29-19.41,2.01-5.92,4.11-11.82,6.45-17.62.53-1.31,2.2-2.16,3.35-3.22.77,1.68,2.34,3.47,2.15,5.03-.46,3.79-1.74,7.48-1.72,11.57,2.13-5.35,4.29-10.68,6.36-16.05,1.07-2.77,1.64-5.79,3.1-8.33.66-1.15,2.92-1.4,4.45-2.05.47,1.46,1.6,3.09,1.29,4.37-1.49,6.23-3.41,12.36-5.11,18.54-1.33,4.86-2.67,9.72-3.83,14.63-1.72,7.24-3.27,14.51-4.93,21.76-.39,1.69-.9,3.36-.58,5.3.89-2.12,1.54-4.39,2.75-6.3.73-1.15,2.33-1.76,3.54-2.61.66,1.52,2.09,3.18,1.84,4.52-.85,4.53-2.83,8.88-3.43,13.42-2.34,17.6-10.22,33.56-14.64,50.55-1.15,4.42-3.65,8.48-5.36,12.78-2.31,5.81-4.9,11.56-6.51,17.57-1.37,5.13-.54,10.97-2.4,15.84-6.31,16.5-8.56,34.51-18.45,49.67-3.25,4.98-9,6-12.5,1.25-3.83-5.2-6.92-11.08-9.45-17.04-1.44-3.38-3.47-5.34-6.49-6.79-5.21-2.51-6.62-5.18-5.65-11,.56-3.35,1.26-6.68,1.9-10.01-.57-.17-1.14-.35-1.72-.52Z"/>
    <path class="cls-2" d="m429.32,841.45c-4.04,2.33-6.66,4.63-9.67,5.39-3.87.98-5.55-1.84-5.61-6.2-2.27,1.76-3.97,3.52-6.04,4.5-1.26.6-3.08,0-4.66-.05.16-1.58-.1-3.4.6-4.68.81-1.47,2.48-2.46,3.21-4.58-1.86.7-3.74,1.36-5.58,2.09-3.45,1.38-6.88,2.84-10.34,4.19-3.32,1.3-5.08-.07-5.75-4.19,7.2-3.53,14.57-7.15,21.6-10.6-1.47-1.79-3.22-3-3.39-4.41-.12-1.05,1.57-2.76,2.85-3.44,3.01-1.61,6.15-3.09,9.41-4.06,7.21-2.14,13.46-5.77,19.71-9.97,4.93-3.32,11.13-4.94,16.95-6.74,11.36-3.51,22.84-6.64,34.29-9.86,1.26-.36,2.73-.7,3.94-.39,6.41,1.65,12.99,1.99,19.35,4.71,10.21,4.36,15.27,12.48,15.61,22.12.51,14.56-2.48,28.82-12.56,40.55-5.37,6.25-11.75,10.83-19.38,14.01-11.63,4.85-11.89,5.11-8.74,17.15,2.06,7.87,4.59,15.75,8.06,23.08,5.85,12.33,8.4,25.37,10.66,38.62,1.04,6.12,3.45,11.99,4.66,18.09,2.18,10.96,3.91,22,5.88,33,.6,3.33.2,6-4.68,6.8,2.99,11.87,5.82,23.53,8.91,35.13,1.52,5.71,1.4,6.54-3.91,8.48-3.15-9.87-6.29-19.73-9.44-29.62-1.82.78-3.73,2.3-4.68,1.84-1.34-.65-2.34-2.65-2.83-4.27-2.51-8.42-4.83-16.89-7.18-25.35-.95-3.42-1.81-6.86-3.65-10.07.24,1.2.87,2.47.64,3.57-.36,1.72-1.3,3.33-2,4.98-1.26-1.05-3.28-1.87-3.67-3.18-2.54-8.54-4.62-17.21-7.04-25.78-3.28-11.6-6.62-23.2-10.16-34.72-3.98-12.95-8.21-25.83-12.43-39.02-3.47.79-6.29,2.4-6.79,6.68-.12,1-.53,2.08-1.12,2.89-5.1,6.94-6.73,15.1-8.59,23.26-2.77,12.2-5.94,24.31-8.99,36.45-.91,3.63-2.11,7.11-7.7,6.19-3.43,15.67-6.83,31.22-10.24,46.76-.41,1.88.22,4.52-3.16,4.25-3.18-.25-3.2-2.42-3.15-4.81.08-3.72.02-7.45.02-11.23-1.46-.4-3.75-.35-4.46-1.39-.95-1.39-1.02-3.64-.86-5.47.61-6.83,1.52-13.64,2.22-20.47.36-3.53,1.99-7.24-1.98-10.18-.86-.63-.56-3.1-.45-4.7,1.42-20.72,6.82-40.44,13.99-59.89,6.58-17.86,11.97-36.15,18.28-55.48Zm65.54-26.1c-.4-.4-.79-.79-1.19-1.19-8.75.12-16.54,3.52-24.24,7.37-7.61,3.8-9.62,10.32-9.36,19.32,10.28-7.19,22.9-9.05,30.58-19.23,1.51-2.01,2.82-4.18,4.22-6.27Z"/>
    <path class="cls-2" d="m253.08,812.59c3.1-1.52,5.89-2.89,10.03-4.92-3.89-.44-6.54-.98-9.19-.98-3.12,0-6.25.71-9.37.64-1.25-.03-2.48-1.3-3.71-2.01.86-1.21,1.61-3.34,2.61-3.47,11.94-1.55,22.94-8.05,35.46-6.62,2.88.33,5.88-.39,8.84-1.29-.5-.14-1.15-.13-1.48-.45-.98-.97-2.3-1.96-2.54-3.14-.13-.64,1.57-2.24,2.63-2.44,20.23-3.72,40.48-4.01,60.18,2.35,14.59,4.7,26.92,17.31,21.5,35.13-.74,2.42-1.32,4.92-1.63,7.43-.99,8.03-5.13,14.08-11.25,19.14-4.45,3.68-4.15,5.09.91,7.5,1.08.51,2.12,1.11,3.23,1.54,17.03,6.61,16.81,17.97,15.09,29.83-.28,1.91-.97,3.77-1.19,5.69-1.88,15.99-11.17,26.58-24.35,34.81-4.06,2.54-7.07,6.8-10.48,10.35-3.51,3.66-6.52,7.94-10.49,10.98-4.42,3.39-9.67,5.71-14.58,8.44-12.59,7.01-27.16,8.53-40.15,14.48-2.1.96-4.38.77-6.61,2.46-3.87,2.92-7.45,1.41-9.86-3.18-3.77.98-7.61,2.13-11.52,2.93-2.29.47-4.77.76-7.03.37-1.41-.24-2.58-1.9-3.86-2.93,1.25-1.03,2.35-2.58,3.78-2.99,4.47-1.28,9.05-2.13,13.6-3.15,0-.52,0-1.04,0-1.55-1.42-.38-2.97-.52-4.23-1.21-1.04-.57-2.42-1.78-2.4-2.68.03-1.04,1.32-2.15,2.27-3.01.48-.44,1.44-.3,2.14-.55,7.84-2.74,15.77-5.26,23.44-8.4,2.52-1.03,4.38-3.68,6.53-5.6-1.42-2.15-2.4-3.62-3.37-5.09.4.04.8.08,1.2.11.92-5.34,1.94-10.66,2.75-16.02,2.2-14.58,4.26-29.18,6.47-43.76,2.36-15.62,4.94-31.21,7.17-46.84.69-4.83.58-9.78.77-13.28-1.62-3.31-2.76-5.63-3.7-7.54-10.03.97-20.63,2.05-31.24,2.98-2.73.24-5.47-.06-6.38-4.02Zm59.85,104.37l1.63.59c9.22-13.04,17.42-26.68,23.83-41.67-2.87.22-5.33.78-7.21,2.13-5.69,4.1-13.33,6.33-14.46,14.99-.62,4.71-1.9,9.33-2.67,14.02-.55,3.29-.75,6.63-1.11,9.94Zm8.15-75.33c2.79-2.98,6.18-6.62,9.59-10.25,3.26-3.47,5.84-7.29,4.83-12.34-.29-1.48-1.39-3.82-2.34-3.94-2.94-.37-6.83-.92-8.78.61-2.04,1.59-2.93,5.46-3.16,8.42-.46,5.98-.14,12.02-.14,17.5Z"/>
    <path class="cls-2" d="m599.32,864.21c-.79,3.05-1.12,5.08-1.84,6.97-2.28,5.98-4.78,11.82-3.17,18.56.64,2.66-.72,6.19.58,8.18,1.06,1.61,4.7,1.76,7.26,2.1,3.78.51,7.6.8,11.41.87,13.23.24,26.47.45,39.71.47,6.46.01,8.02.71,10.48,6.86-3.32.95-6.53,1.87-10.02,2.87,1.26,3.14-1.05,5.13-4.39,5.84-5.68,1.21-11.48,1.86-17.2,2.94-13.42,2.54-26.85,5.08-40.21,7.92-1.71.36-3.53,2.22-4.46,3.85-1.67,2.95-3.1,6.15-3.93,9.43-2.72,10.81-5.09,21.72-7.67,32.57-1.24,5.22-2.57,10.42-4.05,15.58-1.1,3.85-2.75,4.23-7.39,1.16-1.06,6.69-1.98,12.93-3.06,19.15-.71,4.11-1.36,8.27-2.64,12.21-.51,1.57-2.65,2.62-4.04,3.91-1.04-1.65-2.94-3.29-2.96-4.95-.08-5.18.54-10.38.9-15.69-6.66,2.74-8.49,1.42-7.65-5.61.91-7.55,2.13-15.06,3.22-22.59.24-1.67.17-2.69-1.24-4.39-1.64-1.98-1.61-5.88-1.3-8.84.83-7.86,2.24-15.65,3.32-23.48.67-4.82-3.81-7.98-8.67-6.59-2.93.84-6.14,1.59-9.08,1.23-3.78-.47-4.69-3.99-1.45-5.91,6.65-3.93,9.94-12,18.24-14.01,1.79-.43,3.56-4.09,3.99-6.5,1.92-10.71,3.35-21.51,5.04-32.85-4.92-.77-9.45-4.06-15.19-2.43-1.5.42-3.93-.63-5.23-1.79-1.8-1.61-2.53-3.86.81-5.11,1.95-.73,3.87-1.56,5.78-2.4,2-.87,3.24-1.59,3.7-4.55.36-2.31,4.24-5.05,7.04-5.78,5.08-1.33,5.92-3.94,6.09-8.76.27-7.54,1.86-15.03,2.94-22.88-5.35-.76-10.43-1.06-15.25-2.33-2.45-.64-4.91-2.65-6.51-4.71-1.49-1.92.11-3.6,2.38-4.09,4.35-.93,8.71-1.8,13.07-2.7-1.13-5.96-1.07-6.43,4.97-8,3.69-.96,6.07-2.54,7.87-6.1,3.74-7.41,7.13-7.85,14.04-3,.9.63,2.7.3,3.99,0,5.82-1.33,5.35-2.14,8.21,1.36,5.28.38,9.58.78,13.89.98,9.92.45,19.93.17,29.76,1.37,8.33,1.02,16.86-2.15,25.06,1.71,2.22,1.05,5.29.15,7.91.54,5.39.8,6.28,2.22,5.13,7.12,3.36.47,6.83.6,10.05,1.56,1.47.44,3.11,2.38,3.41,3.89.17.86-2.03,2.72-3.48,3.23-1.89.67-4.09.56-6.17.59-5.66.1-11.32.1-16.98.16-.73,0-1.92-.1-2.13.28-3.77,6.55-10.76,5.24-16.37,6.02-9.69,1.34-19.59,1.32-29.4,1.63-2.32.07-4.7-.64-7-1.23-4.87-1.25-7.06.35-7.32,5.33-.22,4.24-.62,8.46-.97,12.98,11.82,1.55,24.19,1.93,36.76-.01,5.69-.88,11.79.36,17.6,1.27,1.1.17,1.73,3.37,2.85,5.76,3.98.55,9.2.98,14.26,2.14,1.69.39,4.14,2.59,4.18,4.02.07,2.64-2.53,2.88-5,2.97-8.65.31-17.3.79-25.93,1.47-1.36.11-2.57,1.67-3.93,2.43-1.46.82-2.96,1.99-4.53,2.15-11.69,1.2-23.4,2.18-35.11,3.25-1.3.12-2.6.34-2.99.39Z"/>
    <path class="cls-2" d="m587.86,656.82c6.52-1.32,12.39-2.79,18.34-3.62,5.18-.72,10.49-.52,15.7-1.09,4.44-.48,8.8-1.61,13.23-2.22,3.31-.46,4.41-2.33,4.42-5.39,0-1.96-.69-4.12,2.28-5.13.82-.28.8-2.94,1.22-4.49.97-3.62-1.17-8.56,4.73-10.16,1.01-.27,1.2-3.19,1.97-4.79,1.87-3.94,3.02-4.14,6.2-1.39.63.55,1.52.93,2.35,1.1,2.23.47,3.22,1.68,2.24,3.83-1.2,2.64-.29,4.51,1.62,6.36.8.77,1.65,2.04,1.6,3.04-.23,4.05.08,8.44-1.41,12.04-3.7,8.97-5.03,18.05-4.94,27.73.07,7.24-1.84,14.48-2.48,21.75-.4,4.47-.07,9-.07,13.51.6.13,1.21.27,1.81.4.85-1.21,2.09-2.31,2.49-3.65,5.27-17.69,10.39-35.41,15.62-53.11.84-2.85,1.72-5.75,3.09-8.36.62-1.19,2.55-1.64,3.75-2.6.77-.62,1.56-1.47,1.87-2.38,2.16-6.18,4.05-12.45,6.37-18.56.51-1.34,2.41-2.13,3.61-3.25.76-.71,1.68-1.43,2.04-2.35,1.79-4.58,3.32-9.27,5.17-13.82.47-1.15,1.8-1.95,2.74-2.91.31,1.27,1.07,2.62.83,3.78-.85,4.24-2.19,8.37-3.04,12.61-.67,3.39-4.18,6.64-.54,10.47.62.65-.27,2.85-.63,4.3-2.39,9.85-5.36,19.6-7.1,29.57-1.74,9.95-3.68,19.81-6.83,29.4-3.09,9.44-5.98,18.98-9.7,28.18-3.2,7.91-10.22,11.46-18.39,12.36-5.46.61-10.55-3.68-13.04-9.81-1.04-2.57-2.67-4.91-4.01-7.36-.71-1.29-1.7-2.54-2-3.93-2.91-13.5-3.63-27.1-1.65-40.82.55-3.81.62-7.7,1-12.72-1.49,1.12-2.93,1.96-2.84,2.18,1.58,3.87-1.57,3.89-3.68,4.51-11.66,3.42-18.59,10.94-21.48,22.84-1.23,5.09-4.38,9.68-6.42,14.6-4.98,12.05-7.83,24.65-9.25,37.59-.46,4.15-1.1,8.29-1.48,12.45-.35,3.83-.37,7.68-.71,11.51-.09,1.04-.78,2.02-1.2,3.03-.92-.43-1.83-.86-3.17-1.48-.58,6-1.19,12.19-1.79,18.38-.41.19-.81.38-1.22.57-.68-1.23-1.85-2.43-1.95-3.71-.35-4.59-.37-9.2-.45-13.81-.03-1.66.96-3.63-2.02-3.94-.5-.05-1.07-1.95-1.14-3.03-.18-2.83-.11-5.67-.13-8.5-.06-10.61-3.25-21.25.89-31.83,2.2-5.63,3.57-11.59,5.65-18.55-2.3,1.68-3.68,2.89-5.24,3.78-3.05,1.74-6.04,3.82-9.35,4.82-9.33,2.81-16.8-2.57-17.77-12.37-.32-3.27-1.02-6.56-.8-9.8.18-2.67.8-5.77,2.36-7.81,7.15-9.35,14.8-18.32,22.09-27.57,6.62-8.41,13.04-16.98,19.49-25.52,2-2.65,3.75-4.98,7.69-2.66.99.58,3.16-1,4.84-1.35,1.52-.32,3.46-.93,4.55-.28.78.46.58,2.78.58,4.28,0,5.3-3.82,8.04-6.68,11.92-5.68,7.7-13.77,12.98-18.89,20.96-.29.46-.43,1.02-.94,2.28Zm-7.78,13.18c-2.95,5.31-6.06,10.9-9.28,16.68,5.2-4.15,10.13-8.09,14.39-11.49-1.6-1.62-3.2-3.25-5.11-5.19Z"/>
    <path class="cls-2" d="m514.67,691.5c-6.06.31-8.34,3.8-9.56,8.76-1.35,5.5-3.16,10.88-4.81,16.3-.62,2.05-.65,4.55-3.91,4.57-.54,0-1.22,1.81-1.59,2.87-1.76,5.07-3.35,10.2-5.18,15.24-.58,1.6-1.72,3-2.61,4.5-.67-.21-1.35-.42-2.02-.62.46-3.64,1.05-7.27,1.31-10.92.1-1.36-.56-2.78-.92-4.15-.25-.98-.91-1.97-.82-2.9.83-8.06,1.78-16.12,2.77-24.78-1.58.47-3.19,1.29-4.81,1.31-1.57.02-3.15-.8-4.73-1.23-.77-.21-1.61-.68-2.3-.52-4.04.92-8.05,1.99-12.07,3.01.32.33.65.65.97.98-1,1.52-1.97,3.06-3.01,4.55-.24.34-.95.45-1.05.79-3.01,9.78-13.25,9.63-19.98,14.21-4.93,3.36-10.99,5.34-16.8,7.07-6.04,1.8-12.35,3.03-18.62,3.51-2.14.16-4.52-2.68-6.74-4.22-.29-.2-.22-1.13-.43-1.18-5.47-1.19-4.9-3.52-1.38-6.61.4-.35.6-1.59.31-1.98-2.86-3.84-.36-6.69,1.58-9.7.71-1.11,1.59-2.34,1.72-3.58,1.28-12.09,7.82-22.14,12.42-32.96,2.03-4.77,2.26-10.28,3.77-15.32,2.87-9.54,5.89-19.05,9.27-28.42.99-2.75,3.45-4.96,5.16-7.47.81-1.18,1.36-2.55,2.18-3.72,1.52-2.15,2.92-4.47,4.83-6.21.99-.91,2.97-.73,4.51-1.05.1,1.36.23,2.72.28,4.08.03.72-.1,1.45-.17,2.41,1.31.39,2.52.75,4.08,1.21-.39,1.44-.44,2.88-1.12,3.89-1.68,2.49-1.6,4.5.42,6.83.76.88,1.11,3.43.51,3.96-4.26,3.82-4.27,9.22-5.86,14.06-4.65,14.12-9.6,28.14-14.13,42.3-1.75,5.46-2.66,11.19-4.19,17.86,6.02-2.91,11.35-5.35,16.56-8.04,4.9-2.53,9.61-5.45,14.54-7.92,1.75-.88,3.98-3.45,5.91.16.15.28,1.87-.07,2.75-.41,4.3-1.66,8.49-3.68,12.89-5.01,1.92-.58,4.25.2,6.4.36.06.5.12,1.01.18,1.51,3.72-1.84,7.46-3.65,11.13-5.57.73-.38,1.49-1.11,1.77-1.85,1.56-4.18,3.22-8.35,4.39-12.64,4.64-16.92,9.1-33.89,13.66-50.84.39-1.43.98-2.81,1.54-4.19,1.17-2.88,2.76-5.99,6.32-4.93,1.92.57,3.22,3.24,5.45,5.67,3.23-1.01,4.71,1.41,4.57,5.62,0,.29-.04.71.13.87,6.13,5.79,1.66,12.78,2.01,19.17.51,9.29.13,18.63.13,28.24,6.4-1.03,11.58-5.11,18.17-1.35-1.69,1.48-3,2.39-4,3.57-.84.99-1.11,2.47-1.98,3.4-1.73,1.83-3.44,4.17-5.64,4.96-4.09,1.47-5.67,3.86-5.33,8,.17,2.07.17,4.18.01,6.26-.44,5.69-1.32,11.37-1.44,17.06-.15,7.27.44,14.55.3,21.83-.03,1.58-1.82,3.12-2.8,4.68-.41-.16-.82-.32-1.23-.47,0,4.47.1,8.93-.07,13.39-.04,1.12-.99,2.2-1.53,3.3-.82-.86-2.16-1.61-2.35-2.59-.76-3.94-1.16-7.95-1.69-11.94-.42-3.19.74-6.17-2.68-9.33-2.77-2.56-3.46-7.99-3.91-12.27-.77-7.25-.61-14.59-.89-21.89-.04-1.16-.34-2.32-.52-3.53Z"/>
    <path class="cls-2" d="m334.04,690.79c-6.77,1.2-12.61,2.34-18.49,3.17-1.08.15-2.34-1.01-3.51-1.56,1.12-.66,2.18-1.46,3.37-1.95,2.57-1.06,5.41-.78,6.04-5.21.32-2.24,4.98-4.14,7.97-5.62,2.48-1.23,5.22-1.74,4.57-5.43-.06-.36.19-1.03.47-1.14,5.42-2.15,4.19-7.27,5.25-11.42,1.56-6.06,3.33-12.06,5.02-18.09.59-2.1,1.17-4.21,1.76-6.31-.34-.35-.67-.7-1.01-1.05-3.6,2.08-7.2,4.16-10.8,6.24-1.58.91-3.04,2.8-4.94.28-.24-.32-1.93-.02-2.55.48-5.88,4.73-11.63,9.61-17.54,14.3-.93.74-2.47.71-3.73,1.04.05-1.2-.35-2.73.23-3.55,2.24-3.15,4.67-6.18,7.25-9.06,5.36-5.97,10.65-12.02,16.39-17.62,2.94-2.86,6.63-5.07,10.25-7.09,2.7-1.5,5.79-2.36,8.78-3.27,9.01-2.77,18.37-3.07,27.6-2.48,6.73.43,13.47,4,16.32,9.77,4.03,8.15,5.52,17.51.04,26.12-6.64,10.43-15.31,19.02-25.28,26.26-2.24,1.63-4.99,2.89-7.69,3.48-6.2,1.36-8.61,5.71-9.02,11.2-.49,6.62-1.46,12.97-4.85,18.8-.51.87-.83,1.98-.85,2.99-.21,8.27-4.99,14.03-10.45,19.48-1.13,1.13-1.68,2.84-2.82,3.96-.74.73-2.23,1.43-3.06,1.16-.74-.24-1.33-1.8-1.46-2.84-.16-1.29.15-2.67.37-3.99,2.11-12.47,4.25-24.93,6.33-37.4.2-1.21.03-2.48.03-3.63Zm22.57-28.03c.34.26.68.52,1.02.77,3.81-2.97,8.18-5.45,11.29-9.02,5.13-5.89,10.18-12.05,9.53-20.88-.25-3.34-1.82-4.5-4.55-4.88-2.61-.37-11.87,4.96-12.4,7.52-1.82,8.79-3.28,17.65-4.88,26.49Z"/>
    <path class="cls-2" d="m724.15,663.82c-1.66-.3-3.96-.37-5.96-1.18-1.31-.54-2.76-2.03-3.05-3.33-.21-.94,1.15-2.65,2.24-3.38,3.42-2.31,7.53-3.81,10.42-6.61,1.94-1.88,2.25-5.42,3.51-8.82-4.36-1.08-7.92-1.93-11.47-2.84-5.63-1.45-5.39-2.88-2.7-7.69,2.41-4.32,5.16-3.73,8.68-3.4,3.03.29,5.79.35,8.87-1.5,2.49-1.49,6.41-.98,9.65-.75,4.92.36,9.8,1.72,14.71,1.79,5.34.08,10.69-.81,16.03-1.28,2.1-.19,4.53-1.46,5.48,1.94.09.32,1.88.36,2.83.21,3.82-.6,7.61-1.47,11.45-1.91.98-.11,2.11,1.01,3.17,1.56-.78.76-1.46,1.71-2.38,2.24-1.01.57-2.25.76-3.39,1.11-4.19,1.25-8.2,2.33-12.01,5.1-3.51,2.55-8.56,3.29-13.07,4.12-6.83,1.25-13.76,1.88-20.9,2.81v7.22c5.29-.26,10.3-.69,15.31-.64,1.76.02,3.48,1.32,5.28,1.85,1.34.4,2.76.59,4.16.7,3.56.27,7.13.45,10.69.66.09.78.18,1.56.26,2.35-2.63.67-5.32,1.18-7.87,2.08-1.38.48-2.48,1.71-3.8,2.42-1.1.59-2.31,1.1-3.53,1.34-7.41,1.49-14.85,2.83-22.23,4.43-.96.21-2.16,1.58-2.36,2.59-1.3,6.41-2.41,12.85-3.44,19.31-.27,1.69-.04,3.46-.04,5.37,10.15-1.07,19.87-2.19,29.62-3.07,4-.36,8.07-.44,12.08-.14,1.5.11,2.85,1.75,4.35,2.54,1.44.76,2.95,1.4,4.48,1.94,2.68.94,6.6-.22,7.01,4.5.04.51,2.13.7,3.11,1.3,1.15.71,2.12,1.7,3.17,2.57-1.19.58-2.38,1.65-3.57,1.65-6.57.02-13.13-.23-19.7-.36-1.03-.02-2.67-.29-2.98.22-2.47,3.96-6.35,2.54-9.75,2.77-10.42.7-20.88,1.04-31.25,2.18-1.99.22-4.14,3.23-5.3,5.44-1.33,2.52-1.04,5.96-5.17,6.16-4.35.21-7.65-.86-8.44-5.76-.42-2.61-1.54-3.25-4.53-3.21-4.64.06-9.32-1.2-13.91-2.25-.87-.2-1.77-1.98-1.91-3.13-.1-.82.86-2.34,1.67-2.61,6.53-2.18,11.61-7.8,19.1-7.84,1.06,0,2.8-2.05,3.04-3.36,1.63-9.02,2.94-18.09,4.4-27.41Z"/>
    <path class="cls-2" d="m276.14,794.9c-2.14-1.87-4.92-3.21-4.88-4.46.11-3.34,3.53-3.36,5.83-3.09,1.82.21,3.47,1.95,5.19,3.01-1.81,1.34-3.62,2.68-6.13,4.54Z"/>
  </g>
  <g>
    <path class="cls-2" d="m815.23,305.25c.27,150.92-122.57,275.82-278.2,274.79-75.09-1.75-139.9-28.47-192.76-81.81-54.63-55.12-81.03-122.42-79.44-199.86,1.5-73.32,28.68-136.64,80.57-188.48,53.61-53.56,119.2-80.22,194.84-80.32,152.33-.19,275.46,122.75,274.99,275.67Zm-297.47-44.48c-1.34,1.51-2.77,2.94-4,4.53-3.72,4.85-8.55,8.03-14.49,9.31-6.67,1.44-13.18.71-19.36-2.34-1.22-.6-2.5-1.07-4.18-1.78,1.54,3.61,4,5.33,7.05,6.2,1.95.55,3.99.8,6,1.1,10.64,1.61,24.73-4.89,28.99-17.03.73-2.66,1.57-5.3,2.15-7.99.33-1.53.46-3.19-.77-5.03-.49,4.21-.93,7.99-1.36,11.76-.05.42-.02.84-.03,1.26Zm-46.64-86.65c.89-2.75,1.69-5.24,2.5-7.73,1.17-3.57,2.15-7.16,2.01-10.97-.18-5.01-.19-10.02-.51-15.02-.27-4.22-.68-8.45-1.37-12.62-1.09-6.65-3.58-12.92-5.78-19.26-.58-1.68-1.09-3.41-1.4-5.15-.93-5.34.93-9.64,5.52-12.44,2.58-1.58,5.45-2.79,8.32-3.76,7.7-2.6,15.74-3.45,23.8-4.17,9.03-.8,18.02-.55,26.94.98,6.54,1.12,13.04,2.43,19.56,3.68,13.87,2.65,27.63,5.73,41.09,10.07,14.82,4.77,29.34,10.35,43.92,15.77,9.6,3.57,18.78,7.94,27.57,13.17,4.65,2.77,8.17,6.64,10.93,11.22,2.19,3.64,2.71,7.54.67,11.42-1.5,2.85-3.15,5.65-4.98,8.3-5.05,7.31-9.52,14.91-12.6,23.27-1.68,4.54-3.3,9.11-4.94,13.66-.78,2.16-1.62,4.29-2.29,6.48-1.05,3.41-.99,3.42,2.37,4.72,13.46,5.24,26.96,10.41,40.37,15.78,8.99,3.6,17.22,8.54,24.29,15.24,2.77,2.63,5.57,5.23,8.19,8.01,4.58,4.87,5.2,13.72-2.45,18.13-2.92,1.68-6.1,3.03-9.31,4.07-5.28,1.71-10.82,2.04-16.35,2.43-7.74.54-15.48.74-23.2.12-9.65-.78-19.27-1.95-28.91-2.9-3.26-.32-6.53-.5-10.02-.76,0,1.23.02,2.07,0,2.91-.22,7.59,1.19,15.05,1.92,22.56.51,5.25.91,10.5-.4,15.68-.85,3.36-2.01,6.63-3.1,10.14,3.55,2.44,4.61,6.11,4.13,10.38-.07.59-.23,1.16-.29,1.75-.2,1.85-.53,3.71-.51,5.56.02,2.17,1.58,3.41,3.73,3.21.84-.08,1.67-.39,2.51-.45,2.64-.18,4.4,1.43,4.42,4.09.01,1.01-.15,2.03-.31,3.03-.3,1.84-.73,3.66-.98,5.51-.16,1.2-.14,2.43,1.42,3.54.53-2.96-.23-5.85,1.25-8.51,2.53,1.08,5.07,2.03,7.49,3.24,2.5,1.25,2.78,2.53,1.33,4.95-.52.87-1.21,1.64-1.77,2.5-.29.44-.45.95-.85,1.81,2.37-.57,3.3-2.6,5.39-3.32,4.03,2.95,8.18,5.92,12.24,9,2.12,1.61,3.5,3.76,3.4,6.53-.05,1.45.64,2.21,1.82,2.74.54.24,1.1.46,1.64.7,4.46,1.9,8.93,3.77,13.37,5.7,1.57.68,3.13,1.53,3.62,3.34.84,3.14,2.98,5.06,5.72,6.49,2.71,1.42,5.42,2.86,8.16,4.22,8.65,4.27,16.93,9.11,24.31,15.37,1.04.88,2.12,1.71,3.25,2.47,4.45,2.98,8.01,6.79,10.97,11.25,2.73,4.1,6.17,7.63,9.53,11.38.53-.86.94-1.5,1.32-2.15,9.3-16.13,16.7-33.08,22.27-50.85,6.8-21.68,10.51-43.9,11.38-66.56.38-9.84.16-19.71-.72-29.56-.81-9.14-1.96-18.21-3.64-27.23-4.76-25.44-13.27-49.57-25.48-72.36-15.62-29.15-36.2-54.28-61.65-75.4-25.98-21.57-55.16-37.31-87.41-47.25-20.32-6.27-41.12-9.96-62.4-10.92-9.28-.42-18.55-.46-27.81.09-11.55.69-23,2.21-34.36,4.49-25.12,5.04-48.91,13.72-71.39,25.98-27.64,15.08-51.7,34.59-72.17,58.51-15.82,18.48-28.65,38.85-38.57,61.06-6.75,15.11-11.91,30.75-15.59,46.88-3.94,17.28-5.81,34.8-6.2,52.5-.08,3.73.13,7.48.32,11.21.28,5.59.44,11.21,1.06,16.76.89,8,1.85,16.02,3.32,23.93,4.8,25.84,13.37,50.4,25.99,73.5,10.09,18.47,22.45,35.29,36.79,50.67,7.03,7.54,14.52,14.61,22.34,21.32,15.44,13.25,32.2,24.52,50.53,33.41.65.32,1.35.52,2.15.83.36-.9.74-1.58.91-2.3,1.65-7.17.17-13.83-3.74-19.91-2.01-3.13-3.98-6.16-3.69-10.06.35-4.57,2.54-8.41,5.02-12.08.36-.53,1.47-.77,2.24-.76,2.66.02,3.33-.42,3.86-2.93.12-.58.26-1.16.38-1.74,1.14-5.57,2.59-11.08,2.81-16.81.08-2.19.33-4.4.78-6.55,1.33-6.41,4.23-12.2,7.49-17.8,3.6-6.17,7.55-12.15,11.02-18.39,4.11-7.39,9.58-13.4,16.68-17.94,7.38-4.72,14.83-9.36,22.2-14.11,1.25-.81,2.46-1.86,3.35-3.04,3.83-5.1,7.53-10.3,11.27-15.47.37-.51.66-1.07,1.05-1.7-.58-.22-.97-.4-1.38-.51-8.1-2.27-16.16-4.74-24.32-6.76-16.26-4.02-32.56-7.9-48.89-11.62-7.07-1.61-14.27-2.31-21.53-1.15-2.18.35-4.38.59-6.58.76-10.21.81-20.26,2.49-29.9,6.05-8.95,3.3-17.58,7.34-25.95,11.91-4.62,2.53-9.28,5.07-13.55,8.13-6.84,4.91-13.37,10.24-20.02,15.41-1.59,1.23-3.14,2.51-4.7,3.77,0-2.3.27-4.4.9-6.39,2.42-7.71,5.47-15.18,8.9-22.5,5.83-12.41,12.54-24.35,19.31-36.26,5.71-10.03,12.46-19.29,21.12-27.04,2.34-2.1,4.89-4.01,7.01-6.31,4.95-5.4,10.77-9.61,16.93-13.47,13.35-8.35,26.79-16.52,41.01-23.33,2.92-1.4,3.23-2.08,2.45-4.98-2.3-8.56-2.76-17.23-1.91-26.02.27-2.73.8-5.36,1.93-7.87.73-1.62,1.37-3.29,2.04-4.91-3.86-1.17-7.6-2.26-11.32-3.45-9.73-3.11-19.33-6.55-28.42-11.26-4.13-2.14-7.85-4.79-10.42-8.78-2.31-3.58-1.38-6.71,2.44-8.56,6.92-3.36,14.4-4.52,21.9-5.58,9.93-1.4,19.88-2.66,29.91-3.14,6.11-.29,12.22-.72,18.33-.93,8.69-.3,17.33.51,25.96,1.43.83.09,1.71.07,2.53-.1.4-.08.69-.65,1.43-1.4-5.11-.68-9.61-1.28-14.31-1.9Zm-141.19,183.61c1.52,1.49,1.92.33,2.38-.4,5.99-9.5,11.99-18.99,17.93-28.51,3.13-5.02,6.76-9.62,11.36-13.35,2.57-2.08,5.33-3.95,8.15-5.67,2.08-1.27,4.41-1.41,6.46.23,2.15,1.71,3.24,3.91,2.51,6.73-.27,1.07-.51,2.15-.88,3.18-1.87,5.11-3.77,10.21-5.67,15.3-1.04,2.78-2.1,5.54-3.22,8.52,4.07,0,7.76-.68,11.42-1.85,10.6-3.39,21.22-6.72,31.85-10,6.69-2.06,13.62-2.92,20.57-3.52,6.85-.6,13.72-1.1,20.58-1.6,4.32-.32,8.65-.5,12.97-.84,6.35-.51,12.7-1.05,19.04-1.67,9.22-.91,18.43-1.85,27.63-2.93,1.61-.19,3.31-.93,4.66-1.86,3.29-2.29,3.49-6.9.66-9.81-.82-.84-1.71-1.44-2.92-1.22-2.07.39-4.18.71-6.19,1.32-3.16.97-6.17,2.46-9.64,1.74-4.66-.97-9.36-1.74-13.99-2.83-3.39-.8-6-2.89-7.43-6.12-.85-1.92-1.44-3.98-1.94-6.02-1.34-5.52-3.14-10.82-7.26-14.95-2.14-2.14-3.87-4.51-5.2-7.2-.84-1.7-1.69-3.39-2.64-5.31-1.44,2.53-2.83,4.77-4.03,7.1-1.12,2.16-2.85,3.57-5.01,4.51-1.4.61-2.84,1.14-4.3,1.6-2.25.7-4.43.66-6.69-.33-2.43-1.06-4.78-2.18-6.82-3.91-.51-.43-1.12-.85-1.74-1.01-1.73-.42-2.94-1.52-4.26-2.63-2.48-2.09-5.25-2.89-8.52-1.55-2.5,1.02-5.16,1.7-7.79,2.38-3.83.98-7.41,2.4-10.7,4.64-2.95,2-6.03,3.83-9.14,5.59-4.68,2.65-9.14,5.6-13.18,9.15-2.55,2.25-5.08,4.52-7.6,6.81-3.58,3.27-7.46,6.28-10.64,9.9-9.09,10.38-17.33,21.43-24.08,33.5-2.36,4.22-4.45,8.59-6.68,12.91Zm46.75-8.38l.28.69c4.01-1.34,8.09-2.51,12.03-4.06,13.43-5.27,27.22-9.12,41.54-11.08,10.13-1.39,20.32-1.79,30.53-1.94.85-.01,1.72.06,2.55-.08.31-.05.54-.6.87-.99-6.28-2.06-22.81-2.03-37.73.14-17.78,2.58-34.29,8.94-50.06,17.33Zm65.67-97.73c1.57-.93,2.22-1.75,2.24-3.12.04-1.77.28-3.54.41-5.32.31-4.31.49-8.63-.05-12.94-.46-3.7-1.43-7.19-4.36-9.75-2.5-2.19-5.73-1.63-7.31,1.25-1.44,2.63-2.47,5.43-2.5,8.46-.06,6.12-.07,12.24.03,18.36.02,1.5.42,3.03.88,4.47.67,2.07,1.82,2.68,4.24,2.41-1.63-5.45-3.28-10.88-3.13-16.64.16-5.77,1.63-11.09,5.21-16.18.83,1.51,1.5,2.59,2.04,3.73,1.88,3.93,2.13,8.18,2.26,12.42.13,4.15.03,8.31.03,12.85Zm21.84-11.62c.23.03.46.06.68.09.59-1.11,1.16-2.24,1.78-3.34,3.24-5.77,7.11-10.99,12.81-14.59,4.92-3.11,10.25-4.38,16.07-3.34,5.49.99,10.24,3.53,14.65,6.82.69.52,1.4,1.02,2.1,1.53.15-.67.03-1.05-.17-1.39-2.48-4.18-6.06-7.04-10.58-8.77-4.14-1.59-8.45-1.92-12.8-1.53-4.08.37-8.06,1.21-11.48,3.76-5.68,4.24-9.68,9.72-12.01,16.39-.49,1.41-.71,2.91-1.05,4.37Zm-11.1,19.59c.26.13.51.25.77.38.83-1.11,2-2.11,2.42-3.36,1.45-4.41,2.77-8.87,3.88-13.38.48-1.93-1.04-3.23-3.06-2.98-.74.09-1.57.28-2.13.73-1.25,1-2.39,2.15-3.49,3.31-.75.8-.35,1.61.36,2.2.44.37,1.04.54,1.56.81,1.35.68,2.09,1.76,1.87,3.28-.2,1.33-.52,2.65-.85,3.96-.42,1.69-.89,3.37-1.34,5.06Zm62.21,151.15c-6.33,7.4-6.59,23.81,2.6,35.12.04-.42.13-.74.08-1.04-.46-2.94-1.15-5.81-2.46-8.53-1.57-3.26-2.35-6.79-2.39-10.36-.03-3.3.58-6.59,1.89-9.69.75-1.78.77-3.57.28-5.5Zm10.14,46.13c-1.89,2.83-9.15,23.41-9.08,24.99,2.07.14,3.31-.95,4.09-2.77.9-2.11,1.98-4.14,2.76-6.29,1.87-5.13,2.53-10.46,2.23-15.94Zm103.17-119.67c-4.5,6.43-8.99,12.87-13.57,19.42.62.36.97.57,1.3.77,4.49-3.54,12.26-15.86,12.26-20.19Zm-149.94,92.33c-1.73,1.37-1.7,3.07-1.53,4.74.41,3.86.9,7.71,1.37,11.57.13,1.1.29,2.19.44,3.29,3.15-6.62,1.7-13.02-.29-19.59Zm27.08,58.32c2.79-.26,6.11-3.42,8.3-7.59,1.8-3.41,2.12-5.13,1.14-6.9-3.02,4.1-6.01,8.1-8.91,12.16-.41.57-.35,1.47-.53,2.32Zm-28.12-337.14c3.86-4.9,3.09-16.21-1.01-19.02.33,6.26.66,12.37,1.01,19.02Zm-21.03,83.98c5.7.72,9.84-5.67,7.6-11.55-2.54,3.86-4.97,7.56-7.6,11.55Zm6.79,2.65c-5.08-.6-9.79-1.15-14.91-1.75,3.4,3.41,10.79,4.26,14.91,1.75Zm176.93,19.14c-.25-.13-.51-.25-.76-.38-1.46,1.95-2.7,4.04-3.82,6.5,1.18.4,2.15.73,3.3,1.12.47-2.67.88-4.96,1.28-7.24Zm-183.74-33.59c-3.86-.76-7.11-1.41-10.29-2.04-.53,1.08-.39,1.58.51,1.79,1.81.43,3.6.93,5.42,1.34,1.35.31,2.64.13,4.36-1.09Zm96.25-41.86c.02-.25.03-.51.05-.76-3.71-.72-7.43-1.44-11.09-2.15-.54,1.44.27,1.6,1.03,1.73,2.9.5,5.81.99,8.72,1.44.41.06.86-.16,1.29-.25Zm95.13,23.89c-1.64-3.67-3.79-4.42-8.04-3.06.37.22.62.43.92.54,2.22.8,4.44,1.58,7.12,2.52Zm-127.17,189.21c-.52,2-1,3.8-1.48,5.63,1.99.29,2.8-.23,3.27-1.93.48-1.71-.03-2.96-1.8-3.7Z"/>
    <path class="cls-2" d="m407.41,312.86c-2.78,1.6-6.36,2.67-7.98,2.4.54-1.59,3.08-3.09,5.86-3.42.9-.11,1.9-.33,2.12,1.02Z"/>
  </g>
</svg>