<?xml version="1.0" encoding="UTF-8"?>
<svg version="1.1" xmlns="http://www.w3.org/2000/svg" width="400" height="400">
<path d="M0 0 C0.5775 0.7425 1.155 1.485 1.75 2.25 C3.86589247 4.97194876 3.86589247 4.97194876 6.125 6.9375 C8.40640439 9.44704483 9.11581194 11.75797713 10 15 C10.55945313 14.51015625 11.11890625 14.0203125 11.6953125 13.515625 C14.38095989 11.74947044 15.70218791 11.6511585 18.875 11.75 C19.74640625 11.77578125 20.6178125 11.8015625 21.515625 11.828125 C24.39055483 12.02701952 27.17978862 12.40627129 30 13 C29.09677683 16.61289268 28.06263701 17.94961806 25.125 20.3125 C20.83231262 22.58933418 16.69745286 22.1480118 11.96484375 21.75 C8.1004296 22.0758531 6.04275574 23.68515462 3 26 C5.41507328 26.39049692 7.83066712 26.76277086 10.25 27.125 C10.93191406 27.23714844 11.61382812 27.34929687 12.31640625 27.46484375 C16.17576714 28.0268866 18.77000385 28.34288453 22 26 C22.78375 25.195625 23.5675 24.39125 24.375 23.5625 C27.87264316 20.14813405 31.03522912 18 36 18 C35.25 25.625 35.25 25.625 33 29 C33.495 30.485 33.495 30.485 34 32 C35.03060547 32.09087891 35.03060547 32.09087891 36.08203125 32.18359375 C36.98308594 32.26738281 37.88414062 32.35117188 38.8125 32.4375 C39.70582031 32.51871094 40.59914063 32.59992188 41.51953125 32.68359375 C44 33 44 33 47 34 C46.9375 35.75 46.9375 35.75 46 38 C41.33479627 41.40171106 37.64572513 42.47917318 31.91796875 42.82421875 C29.91598958 42.89045718 29.91598958 42.89045718 28 44 C26.125 44.1328125 26.125 44.1328125 24 44.125 C22.948125 44.12886719 22.948125 44.12886719 21.875 44.1328125 C20 44 20 44 18 43 C17.67 44.32 17.34 45.64 17 47 C17.66 46.67 18.32 46.34 19 46 C24.15445016 45.82527288 28.91940468 46.15323411 34 47 C32.25109591 51.25626147 30.14501213 52.30569691 26.109375 54.18359375 C23.43785008 55.21757284 20.84510706 55.71548929 18 56 C18.99 56.928125 18.99 56.928125 20 57.875 C22 60 22 60 22 62 C22.66 62 23.32 62 24 62 C24.103125 61.21625 24.20625 60.4325 24.3125 59.625 C25 57 25 57 28 55 C28.804375 54.95875 29.60875 54.9175 30.4375 54.875 C33.07587787 54.29548577 33.07587787 54.29548577 33.89453125 52.37109375 C34.31798828 51.35208984 34.31798828 51.35208984 34.75 50.3125 C37.03016121 45.12606774 40.92757109 42.3576078 46 40 C47.32 40 48.64 40 50 40 C49.10421126 46.13682138 48.14643974 50.05040671 43 54 C40.1875 55.3125 40.1875 55.3125 38 56 C40.49505962 58.49505962 41.67328888 58.35948376 45.125 58.625 C46.03507812 58.69976562 46.94515625 58.77453125 47.8828125 58.8515625 C48.58148438 58.90054688 49.28015625 58.94953125 50 59 C49.71799583 62.38405002 49.28694239 63.72125596 46.8125 66.125 C42.1072558 69.26182946 37.39443672 71.3302934 32 73 C32 73.66 32 74.32 32 75 C32.66 74.67 33.32 74.34 34 74 C36.37402501 73.92883618 38.75000677 73.91590915 41.125 73.9375 C42.40632813 73.94652344 43.68765625 73.95554687 45.0078125 73.96484375 C45.99523437 73.97644531 46.98265625 73.98804688 48 74 C47.21319823 78.21690386 45.4942875 79.52843079 42 82 C39.36246921 83.31876539 37.61519672 82.85477863 34.6875 82.625 C30.5544693 82.48650473 30.5544693 82.48650473 27.1640625 84.5546875 C25.61922528 86.68891006 25.61922528 86.68891006 24 90 C24.56847656 90.04898438 25.13695312 90.09796875 25.72265625 90.1484375 C30.71081129 90.63143081 35.22599578 91.47638163 40 93 C38.78904348 96.63286955 37.20640617 97.43006752 33.921875 99.21484375 C31.22544616 100.31643358 28.86858211 100.27986167 26 100 C26.12177688 101.91466367 26.12177688 101.91466367 27 104 C29.47933197 105.77148372 29.47933197 105.77148372 32 107 C31.505 108.485 31.505 108.485 31 110 C24.85881978 112.44097384 18.40902839 113.90907229 12 112 C10.0625 110.4375 10.0625 110.4375 9 109 C8.34 109.66 7.68 110.32 7 111 C7.84304687 111.26554687 8.68609375 111.53109375 9.5546875 111.8046875 C10.65039062 112.15789062 11.74609375 112.51109375 12.875 112.875 C13.96554688 113.22304687 15.05609375 113.57109375 16.1796875 113.9296875 C19 115 19 115 21 117 C18.56549281 120.14457178 17.09736024 120.97446289 13.1875 122 C8.46632306 122.41631391 5.82123575 120.62709958 2 118 C-0.98897288 128.51477959 -2.24140553 136.27578341 1.24609375 146.73828125 C1.93720434 148.81161301 2.49888433 150.87390729 3 153 C-4.96835441 156.90286746 -14.11906401 157.4555944 -22.74609375 155.3203125 C-24.9375 154.5 -24.9375 154.5 -28 153 C-27.09923002 148.94653511 -25.52365738 145.26293839 -23.9375 141.4375 C-20.13292313 131.54560013 -22.09776496 121.89869453 -25 112 C-25.37125 112.86625 -25.7425 113.7325 -26.125 114.625 C-28.33833099 118.60899578 -30.60940862 120.97010983 -34 124 C-34.66 124 -35.32 124 -36 124 C-35.93965068 121.77009273 -35.8507725 119.5409464 -35.75 117.3125 C-35.70359375 116.07113281 -35.6571875 114.82976562 -35.609375 113.55078125 C-34.92418461 109.55822954 -33.66694176 107.96030535 -31 105 C-31 104.34 -31 103.68 -31 103 C-31.61875 103.804375 -32.2375 104.60875 -32.875 105.4375 C-35 108 -35 108 -37 109 C-38.62165752 109.12148305 -40.24884327 109.17543652 -41.875 109.1875 C-43.17050781 109.20876953 -43.17050781 109.20876953 -44.4921875 109.23046875 C-47.1241288 108.98859252 -48.73980544 108.32983541 -51 107 C-50.505 105.515 -50.505 105.515 -50 104 C-48.515 103.505 -48.515 103.505 -47 103 C-47.928125 102.5875 -48.85625 102.175 -49.8125 101.75 C-54.43817787 99.21041215 -54.43817787 99.21041215 -56 96 C-56.23492829 93.28005251 -56.13702151 90.74043023 -56 88 C-57.1446875 88.495 -57.1446875 88.495 -58.3125 89 C-61 90 -61 90 -64 90 C-63.57620166 87.89303095 -63.1354597 85.78946473 -62.6875 83.6875 C-62.44386719 82.51574219 -62.20023438 81.34398437 -61.94921875 80.13671875 C-61.03606345 77.11917264 -60.44125126 75.89419215 -58 74 C-58.54269531 73.68546875 -59.08539063 73.3709375 -59.64453125 73.046875 C-68.20196146 67.92783567 -68.20196146 67.92783567 -69.61328125 62.75 C-70.12855957 60.5066114 -70.58871035 58.26451242 -71 56 C-68.36 56.33 -65.72 56.66 -63 57 C-63.94944955 52.31427072 -63.94944955 52.31427072 -66.5625 48.5 C-68.88736477 46.07405415 -68.69495417 43.23348581 -69 40 C-65.04 40.495 -65.04 40.495 -61 41 C-61.33 40.484375 -61.66 39.96875 -62 39.4375 C-63.98191638 34.60657883 -63.27722483 30.32141957 -61.5 25.5625 C-61.005 24.386875 -60.51 23.21125 -60 22 C-58.10546875 22.30078125 -58.10546875 22.30078125 -56 23 C-53.7200829 27.30651007 -52.59300425 31.13736516 -52 36 C-51.505 35.401875 -51.01 34.80375 -50.5 34.1875 C-47.20397873 31.30348139 -44.14385374 30.38128458 -40 29 C-43.3 29 -46.6 29 -50 29 C-44.125 21.125 -44.125 21.125 -43 20 C-46.63 19.01 -50.26 18.02 -54 17 C-47.28551276 10.10404013 -47.28551276 10.10404013 -43.15234375 9.76953125 C-42.09144531 9.78371094 -41.03054687 9.79789063 -39.9375 9.8125 C-38.34228516 9.82216797 -38.34228516 9.82216797 -36.71484375 9.83203125 C-34 10 -34 10 -32 11 C-29.6670134 11.04022391 -27.33293334 11.04320247 -25 11 C-28.10003562 6.17078237 -28.10003562 6.17078237 -32 2 C-31 1 -31 1 -27.3125 0.6875 C-22.7935292 0.7929697 -20.27847105 1.72152895 -17 5 C-16.20695125 7.62540877 -15.75651716 10.13450931 -15.421875 12.85546875 C-15.28265625 13.56316406 -15.1434375 14.27085938 -15 15 C-14.34 15.33 -13.68 15.66 -13 16 C-12.9175 15.01 -12.835 14.02 -12.75 13 C-12.13691993 8.52543052 -10.18031955 4.90429315 -8 1 C-7.34 1 -6.68 1 -6 1 C-3.34785025 5.53075583 -2.17146395 8.75260501 -3 14 C-4.41796875 15.75390625 -4.41796875 15.75390625 -6.125 17.5 C-7.82172385 19.14802967 -7.82172385 19.14802967 -9 21 C-8.55944704 24.88391222 -8.55944704 24.88391222 -7 28 C-6.34 28 -5.68 28 -5 28 C-4.505 26.515 -4.505 26.515 -4 25 C-2.37109375 23.61328125 -2.37109375 23.61328125 -0.4375 22.3125 C0.20316406 21.87550781 0.84382813 21.43851563 1.50390625 20.98828125 C1.99761719 20.66214844 2.49132812 20.33601563 3 20 C2.360625 19.38125 1.72125 18.7625 1.0625 18.125 C-1.74637716 13.86912551 -2.10750442 10.0444381 -2 5 C-1.0625 1.875 -1.0625 1.875 0 0 Z M-28 15 C-26.89290509 17.06295292 -26.89290509 17.06295292 -25 19 C-22.01349195 19.6644218 -22.01349195 19.6644218 -19 20 C-18.01 20.66 -17.02 21.32 -16 22 C-17.45399296 18.16674584 -19.3080115 16.71720395 -23 15 C-25.70953551 14.74803871 -25.70953551 14.74803871 -28 15 Z M-38.8125 17.25 C-40.21205 19.31249474 -40.85264484 20.49496229 -41 23 C-40.1349293 25.80359527 -40.1349293 25.80359527 -38 28 C-34.59471004 29.24838381 -34.59471004 29.24838381 -31 29 C-28.43661311 27.52006844 -28.43661311 27.52006844 -27 25 C-26.33333333 22.5 -26.33333333 22.5 -27 20 C-28.52018248 17.56304526 -28.52018248 17.56304526 -31 16 C-34.23585302 15.53773528 -36.08249081 15.36723504 -38.8125 17.25 Z M-25 24 C-25.515625 24.969375 -26.03125 25.93875 -26.5625 26.9375 C-29 30 -29 30 -30.90234375 30.33984375 C-31.59457031 30.35144531 -32.28679687 30.36304688 -33 30.375 C-35.09486487 30.38849815 -35.09486487 30.38849815 -37 31 C-38.45208887 32.91867598 -39.26387435 34.74643852 -40.11328125 36.9921875 C-41.08366986 39.18945511 -42.21959371 40.41409188 -44 42 C-42.93458984 42.29003906 -42.93458984 42.29003906 -41.84765625 42.5859375 C-40.92855469 42.84632813 -40.00945312 43.10671875 -39.0625 43.375 C-37.68771484 43.75785156 -37.68771484 43.75785156 -36.28515625 44.1484375 C-34 45 -34 45 -33 47 C-32.87044922 46.11248047 -32.87044922 46.11248047 -32.73828125 45.20703125 C-31.75168512 39.65855945 -30.56563473 36.65250778 -26 33 C-25.34 32.67 -24.68 32.34 -24 32 C-23.945652 34.0622048 -23.90705039 36.12482816 -23.875 38.1875 C-23.85179687 39.33605469 -23.82859375 40.48460937 -23.8046875 41.66796875 C-24.06261318 46.06818091 -24.86904951 48.86904951 -28 52 C-28 52.99 -28 53.98 -28 55 C-25.36 55.99 -22.72 56.98 -20 58 C-20 53.38 -20 48.76 -20 44 C-14.65069743 48.06150751 -12.19588078 50.35621791 -11 57 C-10.67 57 -10.34 57 -10 57 C-9.70967193 53.61929094 -9.55479633 50.37082782 -10 47 C-12.28075185 44.43965247 -12.28075185 44.43965247 -15 43 C-16.3729863 40.2540274 -16.12412634 38.0410953 -16 35 C-15.67 34.01 -15.34 33.02 -15 32 C-16.11375 31.79375 -17.2275 31.5875 -18.375 31.375 C-22 30 -22 30 -23.4375 26.875 C-23.623125 25.92625 -23.80875 24.9775 -24 24 C-24.33 24 -24.66 24 -25 24 Z M18.5 31.125 C16.65654016 33.94603638 16.65654016 33.94603638 17.5625 37.1875 C18.8354729 40.24307478 18.8354729 40.24307478 22 42 C25.46311301 41.85570362 27.33834135 41.59762717 29.9375 39.25 C31.2027898 37.02756768 31.2027898 37.02756768 30.875 34.4375 C29.91041439 31.75044008 29.38918727 30.56532959 27 29 C23.01420931 28.32156754 21.61342699 28.47858706 18.5 31.125 Z M-14 34 C-15.14121708 37.35232517 -15.38081215 39.09557116 -14 42.375 C-11.96991716 44.31743665 -11.96991716 44.31743665 -8.5 44.4375 C-5.13786435 44.24887668 -5.13786435 44.24887668 -3.0625 42.875 C-1.49577755 40.11019567 -1.61023565 38.11811483 -2 35 C-3.43777681 32.91522362 -4.59798239 32.18760822 -6.875 31.125 C-10.1104211 30.93468111 -11.54741319 31.94512997 -14 34 Z M10 35 C9.19663887 37.87759068 9.19663887 37.87759068 8.8125 41.125 C8.65394531 42.22070312 8.49539062 43.31640625 8.33203125 44.4453125 C8.22246094 45.28835937 8.11289063 46.13140625 8 47 C11.59547535 44.37627474 14.19163556 42.11905232 16 38 C15.78670551 35.25760857 15.78670551 35.25760857 15 33 C12.67642489 32.81509993 12.67642489 32.81509993 10 35 Z M0 34 C0 36.97 0 39.94 0 43 C1.11375 42.05125 2.2275 41.1025 3.375 40.125 C4.00148438 39.59132813 4.62796875 39.05765625 5.2734375 38.5078125 C6.55836651 37.38567993 7.79371975 36.20628025 9 35 C6.03 34.67 3.06 34.34 0 34 Z M-49 43 C-48.67 43.680625 -48.34 44.36125 -48 45.0625 C-46.79846973 48.59199518 -46.65679655 51.2934027 -47 55 C-48.5 56.625 -48.5 56.625 -50 58 C-50.25069913 60.62570704 -50.25069913 60.62570704 -50 63 C-46.61150886 63 -45.74534471 62.39792933 -43 60.5625 C-39.59923751 58.30176585 -37.19846886 57 -33 57 C-32.67 56.34 -32.34 55.68 -32 55 C-32.58007812 54.88785156 -33.16015625 54.77570313 -33.7578125 54.66015625 C-38.98077077 53.34148857 -41.51165866 51.9299568 -44.4375 47.3125 C-44.88996094 46.50425781 -45.34242188 45.69601563 -45.80859375 44.86328125 C-46.20175781 44.24839844 -46.59492188 43.63351563 -47 43 C-47.66 43 -48.32 43 -49 43 Z M-1 43 C-3.30060534 44.8628949 -3.30060534 44.8628949 -3.1953125 47.8203125 C-3.17210937 48.91085938 -3.14890625 50.00140625 -3.125 51.125 C-3.10695313 52.22070312 -3.08890625 53.31640625 -3.0703125 54.4453125 C-3.04710937 55.28835937 -3.02390625 56.13140625 -3 57 C-1.35 56.01 0.3 55.02 2 54 C1.34 50.37 0.68 46.74 0 43 C-0.33 43 -0.66 43 -1 43 Z M-59.8125 46.1875 C-61.35530428 48.54230653 -61.8624874 50.18099161 -62 53 C-60.69595521 55.4708217 -59.6676978 56.65463907 -57.1875 57.9375 C-53.77624718 58.03496437 -51.80166911 56.86777941 -49 55 C-47.66666667 52.66666667 -47.66666667 52.66666667 -48 50 C-49.4285061 47.0684887 -49.4285061 47.0684887 -52 45 C-55.23708907 44.47149566 -57.03792509 44.36967506 -59.8125 46.1875 Z M12 52 C8.37 55.96 4.74 59.92 1 64 C1.33 64.66 1.66 65.32 2 66 C2.54269531 65.72285156 3.08539063 65.44570312 3.64453125 65.16015625 C4.35996094 64.79792969 5.07539063 64.43570313 5.8125 64.0625 C6.52019531 63.70285156 7.22789062 63.34320313 7.95703125 62.97265625 C10 62 10 62 13 61 C12.71125 61.77085937 12.4225 62.54171875 12.125 63.3359375 C11.568125 64.84027344 11.568125 64.84027344 11 66.375 C10.62875 67.37273437 10.2575 68.37046875 9.875 69.3984375 C8.89373723 71.85848061 8.89373723 71.85848061 9 74 C7.02 74.66 5.04 75.32 3 76 C3.33 76.99 3.66 77.98 4 79 C6.38212548 78.07361787 8.69430342 77.16764006 10.9375 75.9375 C13.57505571 74.73861104 16.14204094 74.38972169 19 74 C18.34 73.21625 17.68 72.4325 17 71.625 C14.14113646 67.38216365 14.5034204 62.93323339 15 58 C15.30223136 56.65927442 15.62524959 55.32229007 16 54 C14.68 53.34 13.36 52.68 12 52 Z M-34 61 C-34.66680368 64.04279372 -34.66680368 64.04279372 -34 67 C-32.53958234 69.11670357 -32.53958234 69.11670357 -30 70 C-26.37942732 70.00668717 -26.37942732 70.00668717 -23 69 C-20.83448884 65.75173326 -20.44843047 64.76905843 -21 61 C-22.99399631 58.26748653 -24.1623973 57.16752054 -27.5 56.5 C-30.87013879 57.17402776 -32.01677007 58.2087875 -34 61 Z M26 60 C24.83333333 61.83333333 24.83333333 61.83333333 25 64 C25.8650707 66.80359527 25.8650707 66.80359527 28 69 C31.40528996 70.24838381 31.40528996 70.24838381 35 70 C37.56338689 68.52006844 37.56338689 68.52006844 39 66 C39.66666667 63.5 39.66666667 63.5 39 61 C37.35380651 58.60371845 37.35380651 58.60371845 35 57 C30.70124217 57 29.34811134 57.46629412 26 60 Z M-61 59 C-59.02 61.64 -57.04 64.28 -55 67 C-53.95550089 63.86650268 -54.06576355 63.01031744 -55 60 C-57.97 59.505 -57.97 59.505 -61 59 Z M-19 59 C-18.65933687 63.77435464 -18.65933687 63.77435464 -16.5625 67.9375 C-15.03927901 69.18743667 -15.03927901 69.18743667 -13 69 C-12.67 66.69 -12.34 64.38 -12 62 C-14.31 61.01 -16.62 60.02 -19 59 Z M-37 65 C-37.53625 65.61875 -38.0725 66.2375 -38.625 66.875 C-41.31103023 69.2782902 -43.55414562 70.06022153 -47 71 C-46.13375 72.6396875 -46.13375 72.6396875 -45.25 74.3125 C-44.92515625 74.92738281 -44.6003125 75.54226562 -44.265625 76.17578125 C-42.78667816 78.30747314 -41.13102079 79.54499631 -39 81 C-38.46932659 78.89829344 -37.95077143 76.79352402 -37.4375 74.6875 C-37.14746094 73.51574219 -36.85742188 72.34398437 -36.55859375 71.13671875 C-35.73967567 67.98487888 -35.73967567 67.98487888 -37 65 Z M0 66 C-2.30671915 68.71549154 -2.30671915 68.71549154 -1.625 71.1875 C-1.41875 71.785625 -1.2125 72.38375 -1 73 C-0.34 70.69 0.32 68.38 1 66 C0.67 66 0.34 66 0 66 Z M25 70 C25.33 71.32 25.66 72.64 26 74 C26.33 73.01 26.66 72.02 27 71 C26.34 70.67 25.68 70.34 25 70 Z M-27.6875 71.5 C-28.89986328 71.63921875 -28.89986328 71.63921875 -30.13671875 71.78125 C-31.05904297 71.88953125 -31.05904297 71.88953125 -32 72 C-31.67 72.99 -31.34 73.98 -31 75 C-30.90691456 76.66458673 -30.87003815 78.33281997 -30.875 80 C-30.87242187 80.86625 -30.86984375 81.7325 -30.8671875 82.625 C-31 85 -31 85 -32 88 C-31.48050781 88.42410156 -30.96101563 88.84820312 -30.42578125 89.28515625 C-25.79564664 93.17926207 -22.37374978 96.99049275 -19 102 C-18.67 102 -18.34 102 -18 102 C-18.03305502 100.06177404 -18.10249905 98.12414332 -18.1875 96.1875 C-18.23970703 94.56908203 -18.23970703 94.56908203 -18.29296875 92.91796875 C-18.7076137 89.80435751 -18.7076137 89.80435751 -21.44140625 88.28515625 C-22.28574219 87.86105469 -23.13007813 87.43695313 -24 87 C-26.69014742 82.77262549 -27.50466467 78.95335326 -28 74 C-23.21495828 76.48454089 -20.13922331 78.47951843 -17 83 C-16.91868537 81.56344146 -16.86066441 80.1255517 -16.8125 78.6875 C-16.77769531 77.88699219 -16.74289063 77.08648437 -16.70703125 76.26171875 C-16.82190526 73.93733586 -16.82190526 73.93733586 -18.32421875 72.20703125 C-21.16015492 70.16436394 -24.37246081 71.11564763 -27.6875 71.5 Z M-52 76 C-52.66 79.3 -53.32 82.6 -54 86 C-52.02 85.01 -50.04 84.02 -48 83 C-48.99 80.69 -49.98 78.38 -51 76 C-51.33 76 -51.66 76 -52 76 Z M-8.8125 77.25 C-10.21205 79.31249474 -10.85264484 80.49496229 -11 83 C-10.06196218 85.7859011 -10.06196218 85.7859011 -8 88 C-5.15372409 89.33550847 -5.15372409 89.33550847 -2 89 C1.06307631 87.02033737 1.06307631 87.02033737 3 84 C3 81.05861032 2.40882057 79.62398929 0.8125 77.1875 C-2.36698828 75.10438699 -5.67825106 75.08844901 -8.8125 77.25 Z M5 81 C5 81.66 5 82.32 5 83 C5.99 83.33 6.98 83.66 8 84 C8.144375 84.928125 8.28875 85.85625 8.4375 86.8125 C8.92100111 90.00725111 8.92100111 90.00725111 10 93 C13.3 89.7 16.6 86.4 20 83 C17.11462914 81.55731457 14.46891449 81.97742035 11.2890625 82.0625 C9.03803159 82.00103841 7.15458145 81.62964937 5 81 Z M-52 87 C-53.72397707 89.38073024 -54.01876202 90.61537855 -53.875 93.5625 C-52.78716074 96.59290936 -51.83446998 97.50402973 -49 99 C-46.5 99.58333333 -46.5 99.58333333 -44 99 C-41.26748653 97.00600369 -40.16752054 95.8376027 -39.5 92.5 C-40.16101983 89.19490084 -41.36397638 88.05024059 -44 86 C-47.2832442 84.56358066 -49.08219796 84.95753857 -52 87 Z M-5 91 C-6.96006223 96.88018669 -6.00051595 102.99690429 -5 109 C-2.32443838 106.50280916 -0.32307997 104.43020732 1 101 C1.02853647 98.39877587 1.02853647 98.39877587 0.625 95.75 C0.51414062 94.85796875 0.40328125 93.9659375 0.2890625 93.046875 C0.19367188 92.37140625 0.09828125 91.6959375 0 91 C-1.65 91 -3.3 91 -5 91 Z M-38 94 C-38.66 95.65 -39.32 97.3 -40 99 C-38.35 99 -36.7 99 -35 99 C-35.66 97.35 -36.32 95.7 -37 94 C-37.33 94 -37.66 94 -38 94 Z M11.5625 99.1875 C9.77470722 101.84647339 9.77470722 101.84647339 10.0625 104.625 C11.09262164 107.23464149 11.64944861 108.45998357 14 110 C16.95720628 110.66680368 16.95720628 110.66680368 20 110 C22.5714939 107.9315113 22.5714939 107.9315113 24 105 C23.93107581 102.10518392 23.38861317 100.59314642 21.8125 98.1875 C17.92818902 95.6426066 14.90925314 96.1840036 11.5625 99.1875 Z " fill="#FFFFFF" transform="translate(209,109)"/>
<path d="M0 0 C24.04362781 6.25793053 46.99841361 20.35098848 60 42 C63.85369803 48.79844946 67.21604784 55.09012369 68 63 C65.43923903 63.67404284 62.87673417 64.339414 60.3125 65 C59.59126953 65.19078125 58.87003906 65.3815625 58.12695312 65.578125 C50.22887978 67.59772366 50.22887978 67.59772366 47 67 C45.515625 65.1640625 45.515625 65.1640625 44.25 62.625 C40.93117903 56.60857327 36.80232353 51.8849797 32 47 C31.38511719 46.37222656 30.77023438 45.74445313 30.13671875 45.09765625 C20.52252696 36.01872996 8.42620145 30.92803936 -4 27 C-3.44597287 23.85334105 -2.7779254 21.51143587 -1.4375 18.5625 C0.91404842 12.63796781 0.23737703 6.25972009 0 0 Z M34 22 C35 24 35 24 35 24 Z M28 25 C28 26.65 28 28.3 28 30 C29.32 28.68 30.64 27.36 32 26 C30.68 25.67 29.36 25.34 28 25 Z M37 26 C37.66 27.32 38.32 28.64 39 30 C39.33 28.68 39.66 27.36 40 26 C39.01 26 38.02 26 37 26 Z M34 30 C33.67 30.99 33.34 31.98 33 33 C33.66 33 34.32 33 35 33 C34.67 32.01 34.34 31.02 34 30 Z M28 33 C27.67 34.65 27.34 36.3 27 38 C28.65 38 30.3 38 32 38 C30.6910428 34.87802522 30.6910428 34.87802522 28 33 Z M39 34 C38.01 34.66 37.02 35.32 36 36 C36 36.66 36 37.32 36 38 C37.32 38 38.64 38 40 38 C39.67 36.68 39.34 35.36 39 34 Z " fill="#FFFFFF" transform="translate(221,76)"/>
<path d="M0 0 C0.02578125 1.0621875 0.0515625 2.124375 0.078125 3.21875 C0.36309539 11.12504321 0.7348139 17.12066758 5 24 C5 24.66 5 25.32 5 26 C3.86304688 26.4125 2.72609375 26.825 1.5546875 27.25 C-18.19842412 34.56660413 -35.06654084 43.40473622 -45.28125 62.4453125 C-47 65 -47 65 -48.91796875 65.984375 C-51.61766786 66.00463541 -53.36068054 65.24472857 -55.8125 64.125 C-59.97346486 62.33732621 -63.50212884 61.39111923 -68 61 C-66.89207619 49.72190376 -60.19090717 40.44696082 -53 32 C-52.43023437 31.28585938 -51.86046875 30.57171875 -51.2734375 29.8359375 C-39.98752042 16.24481183 -18.50344802 0 0 0 Z M-39 22 C-38.67 23.65 -38.34 25.3 -38 27 C-36.68 25.68 -35.36 24.36 -34 23 C-35.65 22.67 -37.3 22.34 -39 22 Z M-31 23 C-29.68 24.32 -28.36 25.64 -27 27 C-26.67 25.68 -26.34 24.36 -26 23 C-27.65 23 -29.3 23 -31 23 Z M-41 28 C-40 30 -40 30 -40 30 Z M-34 28 C-33.67 28.99 -33.34 29.98 -33 31 C-32.34 30.67 -31.68 30.34 -31 30 C-31 29.34 -31 28.68 -31 28 C-31.99 28 -32.98 28 -34 28 Z M-38 32 C-38.33 33.32 -38.66 34.64 -39 36 C-37.68 35.67 -36.36 35.34 -35 35 C-35.33 34.01 -35.66 33.02 -36 32 C-36.66 32 -37.32 32 -38 32 Z M-29 32 C-29.33 32.99 -29.66 33.98 -30 35 C-28.68 35.33 -27.36 35.66 -26 36 C-26.33 34.68 -26.66 33.36 -27 32 C-27.66 32 -28.32 32 -29 32 Z M-33 37 C-32 39 -32 39 -32 39 Z " fill="#FFFFFF" transform="translate(177,76)"/>
<path d="M0 0 C3.90787558 0.59019235 7.60172546 1.38972548 11.375 2.5625 C12.68597656 2.96662109 12.68597656 2.96662109 14.0234375 3.37890625 C15.00183594 3.68634766 15.00183594 3.68634766 16 4 C15.5361588 10.61790327 14.24997464 15.70404619 11.4375 21.6875 C11.07817383 22.46786621 10.71884766 23.24823242 10.34863281 24.05224609 C5.07570373 35.31881465 -1.06693887 45.50203806 -8.70019531 55.32080078 C-16.47926858 65.06591403 -16.47926858 65.06591403 -18 77 C-18.495 77.99 -18.495 77.99 -19 79 C-22.2618707 79 -24.37335445 78.51074159 -26.921875 76.43359375 C-30.49969581 72.65618377 -33.08517622 69.30633728 -33.25 63.98046875 C-32.35718034 56.90766304 -27.24365997 51.65294772 -22.99584961 46.26855469 C-12.13491118 32.33256716 -5.23833354 16.82429478 0 0 Z M-10 34 C-9.67 34.66 -9.34 35.32 -9 36 C-8.34 35.34 -7.68 34.68 -7 34 C-7.99 34 -8.98 34 -10 34 Z M-10 39 C-9 42 -9 42 -9 42 Z M-4 40 C-4.33 40.66 -4.66 41.32 -5 42 C-4.34 42 -3.68 42 -3 42 C-3.33 41.34 -3.66 40.68 -4 40 Z " fill="#FFFFFF" transform="translate(273,188)"/>
<path d="M0 0 C0.85991813 2.53113712 1.54921277 4.97498608 2.1875 7.5625 C5.80932738 20.95220014 12.32941199 32.51016524 20 44 C21.61340867 46.45238118 23.21383238 48.91299412 24.8125 51.375 C25.19784912 51.95846191 25.58319824 52.54192383 25.98022461 53.14306641 C29.37035493 58.35183301 31.77419366 62.67741844 31 69 C28.53439033 73.74155706 25.74502471 76.52863297 21 79 C18.8125 78.59765625 18.8125 78.59765625 17 78 C17.06960937 77.29875 17.13921875 76.5975 17.2109375 75.875 C17.5726693 69.53608088 17.10501965 66.01253461 12.9609375 61.1875 C12.31382812 60.465625 11.66671875 59.74375 11 59 C-2.50756001 42.66095834 -12.06668119 24.69253169 -17 4 C-16.40832031 3.80664062 -15.81664063 3.61328125 -15.20703125 3.4140625 C-10.10838101 1.73687152 -10.10838101 1.73687152 -5.125 -0.25 C-3 -1 -3 -1 0 0 Z M7 33 C7.66 33.66 8.32 34.32 9 35 C9 34.34 9 33.68 9 33 C8.34 33 7.68 33 7 33 Z M0 36 C0.33 37.32 0.66 38.64 1 40 C1.66 39.67 2.32 39.34 3 39 C2.01 38.01 1.02 37.02 0 36 Z M8 38 C7.67 38.66 7.34 39.32 7 40 C7.66 40 8.32 40 9 40 C8.67 39.34 8.34 38.68 8 38 Z " fill="#FFFFFF" transform="translate(124,187)"/>
<path d="M0 0 C4.95 0 9.9 0 15 0 C14.67 1.216875 14.34 2.43375 14 3.6875 C12.62111435 9.7662494 12.82754634 15.80124915 13 22 C14.38180432 19.84716701 15.72863787 17.6822786 17.0625 15.5 C17.45244141 14.89929688 17.84238281 14.29859375 18.24414062 13.6796875 C21.2361233 8.70187562 21.19620544 5.66162158 20 0 C24.95 0 29.9 0 35 0 C34.34 1.98 33.68 3.96 33 6 C32.69764818 8.98837565 32.69764818 8.98837565 32.734375 12.0625 C32.73179688 13.18914062 32.72921875 14.31578125 32.7265625 15.4765625 C32.73816406 17.22066406 32.73816406 17.22066406 32.75 19 C32.74226563 20.16273438 32.73453125 21.32546875 32.7265625 22.5234375 C32.73042969 24.21339844 32.73042969 24.21339844 32.734375 25.9375 C32.73663086 26.95714844 32.73888672 27.97679687 32.74121094 29.02734375 C32.93415452 32.57832476 32.93415452 32.57832476 35 38 C30.05 38 25.1 38 20 38 C20.33 36.68 20.66 35.36 21 34 C21.14129118 32.48729395 21.24462817 30.97071872 21.31640625 29.453125 C21.35830078 28.60878906 21.40019531 27.76445312 21.44335938 26.89453125 C21.48267578 26.02183594 21.52199219 25.14914062 21.5625 24.25 C21.60568359 23.36183594 21.64886719 22.47367187 21.69335938 21.55859375 C21.79913615 19.37254037 21.90122546 17.18637911 22 15 C20.65304207 17.22187927 19.32258204 19.45117463 18 21.6875 C17.6184375 22.31333984 17.236875 22.93917969 16.84375 23.58398438 C13.59640152 29.1218733 13.47590151 31.90360605 15 38 C10.05 38 5.1 38 0 38 C0.66 35.69 1.32 33.38 2 31 C2.29929053 28.13139535 2.29929053 28.13139535 2.265625 25.3125 C2.26820312 24.28382813 2.27078125 23.25515625 2.2734375 22.1953125 C2.26570313 21.14085937 2.25796875 20.08640625 2.25 19 C2.25773437 17.94554687 2.26546875 16.89109375 2.2734375 15.8046875 C2.27085938 14.77601563 2.26828125 13.74734375 2.265625 12.6875 C2.26336914 11.76324219 2.26111328 10.83898437 2.25878906 9.88671875 C2.02436356 6.25595831 2.02436356 6.25595831 0 0 Z " fill="#FFFFFF" transform="translate(93,293)"/>
<path d="M0 0 C3.87485635 -0.08751413 7.74945643 -0.14056435 11.625 -0.1875 C13.26662109 -0.22520508 13.26662109 -0.22520508 14.94140625 -0.26367188 C25.28821508 -0.35773377 25.28821508 -0.35773377 30 3 C32.35620437 6.53430656 32.48991613 7.83571287 32 12 C30 15.375 30 15.375 28 18 C28.78375 18.4125 29.5675 18.825 30.375 19.25 C33.16813985 21.11209323 34.11280239 21.8060886 35 25 C34.91956305 29.42403201 34.46712594 31.43453176 31.625 34.875 C27.71524255 38.04004175 24.89911683 38.12145911 20.01953125 38.09765625 C18.85615234 38.09443359 17.69277344 38.09121094 16.49414062 38.08789062 C15.27919922 38.07951172 14.06425781 38.07113281 12.8125 38.0625 C11.58595703 38.05798828 10.35941406 38.05347656 9.09570312 38.04882812 C6.06375332 38.03703065 3.03190094 38.02056921 0 38 C0.16226074 37.30777344 0.32452148 36.61554688 0.49169922 35.90234375 C1.04669214 32.73339284 1.12955846 29.77935371 1.1328125 26.5625 C1.13410156 25.33789062 1.13539063 24.11328125 1.13671875 22.8515625 C1.13285156 21.58054687 1.12898437 20.30953125 1.125 19 C1.13080078 17.09347656 1.13080078 17.09347656 1.13671875 15.1484375 C1.13478516 13.31152344 1.13478516 13.31152344 1.1328125 11.4375 C1.13168457 10.32246094 1.13055664 9.20742188 1.12939453 8.05859375 C1.01080192 5.25533302 0.63904595 2.7262576 0 0 Z M14.421875 3.1796875 C12.58801146 5.52743588 12.47357739 7.17549827 12.25 10.125 C12.17265625 11.01445312 12.0953125 11.90390625 12.015625 12.8203125 C12.01046875 13.53960937 12.0053125 14.25890625 12 15 C12.33 15.33 12.66 15.66 13 16 C16.48055874 15.82432642 16.48055874 15.82432642 20 15 C22.35618542 12.11400612 22.35618542 12.11400612 21.8125 8.5 C20.90350339 4.52736976 20.90350339 4.52736976 18 2 C15.93859771 1.8004232 15.93859771 1.8004232 14.421875 3.1796875 Z M13 19 C12.67 19.33 12.34 19.66 12 20 C12.01171681 22.12660108 12.10947118 24.25301482 12.25 26.375 C12.31703125 27.53773438 12.3840625 28.70046875 12.453125 29.8984375 C13.01660111 33.094152 13.45377002 34.09717222 16 36 C20.82442184 34.73053486 20.82442184 34.73053486 24 31 C24.53663089 27.54326077 24.62118814 24.20355203 23 21.0625 C19.74614724 19.33389072 16.66700979 19.23658128 13 19 Z " fill="#FFFFFF" transform="translate(198,293)"/>
<path d="M0 0 C1.61455078 0.00483398 1.61455078 0.00483398 3.26171875 0.00976562 C4.38964844 0.01814453 5.51757812 0.02652344 6.6796875 0.03515625 C7.81535156 0.03966797 8.95101563 0.04417969 10.12109375 0.04882812 C12.93234388 0.0606401 15.7434898 0.07711118 18.5546875 0.09765625 C18.41321289 0.72816895 18.27173828 1.35868164 18.12597656 2.00830078 C15.50303706 14.26789234 16.10317032 25.84007033 18.5546875 38.09765625 C13.6046875 38.09765625 8.6546875 38.09765625 3.5546875 38.09765625 C4.2146875 32.81765625 4.8746875 27.53765625 5.5546875 22.09765625 C0.48747713 23.88010055 0.48747713 23.88010055 -1.6953125 27.84765625 C-2.00984375 28.5025 -2.324375 29.15734375 -2.6484375 29.83203125 C-3.71588263 32.65918495 -3.71588263 32.65918495 -4.4453125 38.09765625 C-9.0653125 38.09765625 -13.6853125 38.09765625 -18.4453125 38.09765625 C-16.76879911 34.74462946 -14.99502404 31.64364757 -13.0078125 28.47265625 C-12.41097656 27.51101563 -11.81414062 26.549375 -11.19921875 25.55859375 C-9.4453125 23.09765625 -9.4453125 23.09765625 -6.4453125 21.09765625 C-7.4146875 20.31390625 -8.3840625 19.53015625 -9.3828125 18.72265625 C-12.74694348 16.00272056 -13.36763614 14.77455023 -13.8828125 10.28515625 C-13.8688609 7.72736358 -13.7790695 6.51870354 -12.17578125 4.49609375 C-7.94903982 0.97895125 -5.36412364 -0.02823223 0 0 Z M-2.4453125 4.09765625 C-3.68050931 7.80324669 -4.14164636 11.25234593 -3.4453125 15.09765625 C-1.33817804 17.7172876 -1.33817804 17.7172876 1.5546875 19.09765625 C2.8746875 19.09765625 4.1946875 19.09765625 5.5546875 19.09765625 C5.66300919 17.01547263 5.74042291 14.93166496 5.8046875 12.84765625 C5.85109375 11.6875 5.8975 10.52734375 5.9453125 9.33203125 C5.83336935 6.00550997 5.83336935 6.00550997 3.6015625 3.67578125 C0.51717133 1.2977392 1.07238147 1.75252694 -2.4453125 4.09765625 Z " fill="#FFFFFF" transform="translate(250.4453125,292.90234375)"/>
<path d="M0 0 C4.84377975 4.39319559 7.74050645 8.82750699 8.6875 15.375 C8.93205074 20.51845421 8.29478389 24.94533254 5.6875 29.4375 C2.19324635 33.23839224 -1.60196588 37.18998117 -6.921875 37.67578125 C-15.29937041 37.87375689 -18.89220137 36.62459645 -25.0625 30.875 C-28.72542044 26.19262597 -29.56141296 20.00940098 -29.15625 14.1953125 C-27.92728334 8.12138113 -24.73228587 3.20807503 -19.75 -0.4375 C-13.20569546 -3.45794825 -6.4916807 -3.06211354 0 0 Z M-14.4375 4.4375 C-18.62919168 11.14420669 -19.0252455 17.84720339 -17.3125 25.4375 C-16.0028433 28.86371089 -14.54309162 31.64356992 -11.375 33.6875 C-9.06052959 33.57406745 -9.06052959 33.57406745 -6.6875 31.5625 C-2.75848541 26.39274396 -1.99224441 21.15636311 -2.5 14.75 C-3.21496473 9.88143061 -4.79460442 5.95539558 -8.3125 2.4375 C-12.3133924 1.9805902 -12.3133924 1.9805902 -14.4375 4.4375 Z " fill="#FFFFFF" transform="translate(335.3125,294.5625)"/>
<path d="M0 0 C5.68520724 5.27521634 7.63654624 10.18373547 8.375 17.9375 C8.21087398 23.2305641 6.15694387 27.66577308 2.57421875 31.54296875 C-3.32480209 36.74081399 -8.52542488 37.31528348 -16.10546875 37.203125 C-19.33011152 36.97683428 -22.0435343 36.31398476 -25 35 C-24.67 34.01 -24.34 33.02 -24 32 C-20.9375 30.8125 -20.9375 30.8125 -18 30 C-17.66602213 27.12586875 -17.66602213 27.12586875 -18 24 C-18.66902344 23.58621094 -19.33804688 23.17242187 -20.02734375 22.74609375 C-22 21 -22 21 -22.20703125 17.6796875 C-22.07683594 16.42414063 -21.94664062 15.16859375 -21.8125 13.875 C-21.69519531 12.61429687 -21.57789063 11.35359375 -21.45703125 10.0546875 C-21 7 -21 7 -20 6 C-18.48071962 5.92820036 -16.95832518 5.91607993 -15.4375 5.9375 C-14.61121094 5.94652344 -13.78492188 5.95554687 -12.93359375 5.96484375 C-12.29550781 5.97644531 -11.65742188 5.98804688 -11 6 C-8.72858546 11.39460953 -8.79586639 16.26157749 -9 22 C-10.98 22.99 -10.98 22.99 -13 24 C-13 26.31 -13 28.62 -13 31 C-9.11589437 30.73517462 -7.4537952 30.46605993 -4.6875 27.625 C-1.8649276 23.23433182 -1.35372641 19.11557405 -2 14 C-3.38469175 9.55316135 -5.03469397 6.70789109 -8.8125 3.9375 C-12.73331723 2.78431846 -15.06169784 2.92591759 -19 4 C-22.35211493 6.18616191 -23.72686604 7.18059812 -25 11 C-25.99 10.67 -26.98 10.34 -28 10 C-27.61130695 4.55829726 -25.88350321 1.79720314 -22 -2 C-15.23601414 -5.61794593 -6.19736725 -4.22547767 0 0 Z " fill="#FFFFFF" transform="translate(158,295)"/>
<path d="M0 0 C4.27070558 -0.08692074 8.54118458 -0.14036515 12.8125 -0.1875 C14.63491211 -0.22520508 14.63491211 -0.22520508 16.49414062 -0.26367188 C18.23920898 -0.27817383 18.23920898 -0.27817383 20.01953125 -0.29296875 C21.09307861 -0.3086792 22.16662598 -0.32438965 23.27270508 -0.34057617 C26 0 26 0 27.8269043 1.33081055 C29.55811268 3.79413453 29.752941 6.03529203 30 9 C29.67 9.99 29.34 10.98 29 12 C27.02 12 25.04 12 23 12 C22.74605469 11.43410156 22.49210937 10.86820312 22.23046875 10.28515625 C21.88628906 9.55167969 21.54210937 8.81820313 21.1875 8.0625 C20.85105469 7.33160156 20.51460938 6.60070312 20.16796875 5.84765625 C19.06399866 3.66970511 19.06399866 3.66970511 16 3 C13.79086 6.31371 13.77518447 7.3446021 13.875 11.1875 C13.90207031 12.53908203 13.90207031 12.53908203 13.9296875 13.91796875 C13.95289063 14.60503906 13.97609375 15.29210937 14 16 C15.32 14.68 16.64 13.36 18 12 C18.66 12.33 19.32 12.66 20 13 C20 16.96 20 20.92 20 25 C18.68 25 17.36 25 16 25 C15.34 24.34 14.68 23.68 14 23 C13.94577053 24.4370809 13.90710277 25.87475462 13.875 27.3125 C13.84019531 28.51326172 13.84019531 28.51326172 13.8046875 29.73828125 C13.84182678 32.28388576 13.84182678 32.28388576 16 35 C17.939509 34.80811844 17.939509 34.80811844 20 34 C21.34231442 32.16016576 21.34231442 32.16016576 22.25 29.9375 C22.58515625 29.20402344 22.9203125 28.47054688 23.265625 27.71484375 C23.50796875 27.14894531 23.7503125 26.58304687 24 26 C25.66611905 25.957279 27.33382885 25.95936168 29 26 C30.86922654 27.86922654 30.29230229 30.49751169 30.42578125 32.9921875 C30 35 30 35 28.35327148 36.60717773 C25.35077067 38.38425701 23.39665736 38.34406849 19.921875 38.29296875 C18.76171875 38.28330078 17.6015625 38.27363281 16.40625 38.26367188 C15.1996875 38.23853516 13.993125 38.21339844 12.75 38.1875 C10.91695313 38.16719727 10.91695313 38.16719727 9.046875 38.14648438 C6.03080502 38.1111398 3.01562513 38.0617956 0 38 C0.15597656 37.04222656 0.31195313 36.08445312 0.47265625 35.09765625 C2.25035254 23.29177598 2.45990605 11.74671399 0 0 Z " fill="#FFFFFF" transform="translate(345,293)"/>
<path d="M0 0 C4.27070558 -0.08692074 8.54118458 -0.14036515 12.8125 -0.1875 C14.63491211 -0.22520508 14.63491211 -0.22520508 16.49414062 -0.26367188 C18.23920898 -0.27817383 18.23920898 -0.27817383 20.01953125 -0.29296875 C21.09307861 -0.3086792 22.16662598 -0.32438965 23.27270508 -0.34057617 C26 0 26 0 27.8269043 1.3659668 C29.4062375 3.56585798 29.73817823 5.31632682 30 8 C29.5625 10.3125 29.5625 10.3125 29 12 C27.02 12 25.04 12 23 12 C22.74605469 11.43410156 22.49210937 10.86820312 22.23046875 10.28515625 C21.88628906 9.55167969 21.54210937 8.81820313 21.1875 8.0625 C20.85105469 7.33160156 20.51460937 6.60070312 20.16796875 5.84765625 C19.06399866 3.66970511 19.06399866 3.66970511 16 3 C13.97826068 6.03260897 13.70661562 7.08690037 13.4375 10.5625 C13.09589041 14.80821918 13.09589041 14.80821918 12 17 C13.98 15.35 15.96 13.7 18 12 C18.66 12.33 19.32 12.66 20 13 C20 16.96 20 20.92 20 25 C15 24 15 24 14 23 C13.94577053 24.4370809 13.90710277 25.87475462 13.875 27.3125 C13.84019531 28.51326172 13.84019531 28.51326172 13.8046875 29.73828125 C13.84182678 32.28388576 13.84182678 32.28388576 16 35 C17.939509 34.80811844 17.939509 34.80811844 20 34 C21.34231442 32.16016576 21.34231442 32.16016576 22.25 29.9375 C22.58515625 29.20402344 22.9203125 28.47054688 23.265625 27.71484375 C23.50796875 27.14894531 23.7503125 26.58304687 24 26 C25.66611905 25.957279 27.33382885 25.95936168 29 26 C30.86922654 27.86922654 30.29230229 30.49751169 30.42578125 32.9921875 C30 35 30 35 28.35327148 36.60717773 C25.35077067 38.38425701 23.39665736 38.34406849 19.921875 38.29296875 C18.76171875 38.28330078 17.6015625 38.27363281 16.40625 38.26367188 C15.1996875 38.23853516 13.993125 38.21339844 12.75 38.1875 C10.91695312 38.16719727 10.91695312 38.16719727 9.046875 38.14648438 C6.03080502 38.1111398 3.01562513 38.0617956 0 38 C0.23662354 37.12299438 0.23662354 37.12299438 0.47802734 36.22827148 C3.10636311 25.00805609 2.88285559 11.06763304 0 0 Z " fill="#FFFFFF" transform="translate(166,293)"/>
<path d="M0 0 C3.87474457 -0.11668214 7.74903396 -0.18741231 11.625 -0.25 C13.26662109 -0.30027344 13.26662109 -0.30027344 14.94140625 -0.3515625 C21.27515938 -0.42833527 25.25338428 -0.38391751 30 4 C32.47823733 7.717356 32.53203788 10.69302669 32 15 C30.12365422 19.58662302 27.37988587 21.77023992 23 24 C19.63640776 24.60333493 16.42568634 24.81482777 13 25 C13.66 29.29 14.32 33.58 15 38 C10.05 38 5.1 38 0 38 C0.33 36.68 0.66 35.36 1 34 C1.09338141 31.73065563 1.13069604 29.45876385 1.1328125 27.1875 C1.13376923 26.53676514 1.13472595 25.88603027 1.13571167 25.21557617 C1.13639018 23.84391177 1.13455887 22.47224411 1.13037109 21.10058594 C1.12501812 19.00708774 1.13032716 16.91380407 1.13671875 14.8203125 C1.13605791 13.48437453 1.13477663 12.14843669 1.1328125 10.8125 C1.13168457 9.60207031 1.13055664 8.39164062 1.12939453 7.14453125 C1.02291165 4.55679636 0.76686877 2.45519851 0 0 Z M17 2 C14.91738855 3.03712176 14.91738855 3.03712176 13 5 C11.63649745 10.5676354 11.8967516 16.29839402 12 22 C16.19045121 21.58350348 16.19045121 21.58350348 19.8125 19.625 C22.47072754 15.98742547 22.29907358 12.3365669 22 8 C20.25271222 4.27196535 20.25271222 4.27196535 17 2 Z " fill="#FFFFFF" transform="translate(60,293)"/>
<path d="M0 0 C4.37821909 -0.0740719 8.75610782 -0.12856375 13.13476562 -0.16479492 C14.62473909 -0.179896 16.11466801 -0.20037858 17.60449219 -0.22631836 C19.7442523 -0.26264584 21.88342566 -0.27971221 24.0234375 -0.29296875 C25.31169434 -0.3086792 26.59995117 -0.32438965 27.92724609 -0.34057617 C28.94125488 -0.22818604 29.95526367 -0.1157959 31 0 C33.13586678 3.20380017 33.23132175 4.01939967 33.125 7.6875 C33.10695313 8.49574219 33.08890625 9.30398438 33.0703125 10.13671875 C33.04710937 10.75160156 33.02390625 11.36648438 33 12 C31.35 12.66 29.7 13.32 28 14 C25.78286492 10.74820188 23.65167557 7.5786304 22 4 C19.36800816 6.63199184 20.81438151 14.26961894 20.8125 17.8125 C20.79413086 19.61557617 20.79413086 19.61557617 20.77539062 21.45507812 C20.77345703 22.61072266 20.77152344 23.76636719 20.76953125 24.95703125 C20.76336792 26.54994995 20.76336792 26.54994995 20.75708008 28.17504883 C21.00161708 31.01880529 21.65777797 32.53532527 23 35 C23 35.99 23 36.98 23 38 C18.05 38 13.1 38 8 38 C9 34 9 34 10 31 C10.0833804 28.86205475 10.10733747 26.72157991 10.09765625 24.58203125 C10.09443359 23.32841797 10.09121094 22.07480469 10.08789062 20.78320312 C10.07951172 19.47287109 10.07113281 18.16253906 10.0625 16.8125 C10.05748317 15.47721519 10.05292059 14.14192859 10.04882812 12.80664062 C10.03702695 9.53771527 10.02056297 6.26888009 10 3 C9.34 3 8.68 3 8 3 C7.80664062 3.62648438 7.61328125 4.25296875 7.4140625 4.8984375 C7.15367187 5.71570313 6.89328125 6.53296875 6.625 7.375 C6.36976563 8.18710937 6.11453125 8.99921875 5.8515625 9.8359375 C5 12 5 12 3 14 C-0.53571429 13.46428571 -0.53571429 13.46428571 -2 12 C-2.26656548 7.3795317 -1.83737243 4.21215814 0 0 Z " fill="#FFFFFF" transform="translate(273,293)"/>
<path d="M0 0 C0.72614502 0.00008057 1.45229004 0.00016113 2.20043945 0.00024414 C4.4150722 -0.00194063 6.62920561 -0.02008844 8.84375 -0.0390625 C10.245441 -0.04199669 11.64713437 -0.04398131 13.04882812 -0.04492188 C14.33072021 -0.04903076 15.6126123 -0.05313965 16.93334961 -0.05737305 C19.99023438 0.18554688 19.99023438 0.18554688 21.99023438 2.18554688 C22.25585938 4.49804688 22.25585938 4.49804688 22.24023438 7.18554688 C22.24796875 8.51585937 22.24796875 8.51585937 22.25585938 9.87304688 C21.99023438 12.18554688 21.99023438 12.18554688 19.99023438 14.18554688 C18.00585938 14.05664062 18.00585938 14.05664062 15.99023438 13.18554688 C14.72460938 11.40820312 14.72460938 11.40820312 13.74023438 9.24804688 C13.40507813 8.53777344 13.06992187 7.8275 12.72460938 7.09570312 C11.99023438 5.18554688 11.99023438 5.18554688 11.99023438 3.18554688 C11.33023438 3.18554688 10.67023437 3.18554688 9.99023438 3.18554688 C9.9314258 7.14381618 9.89636924 11.1019708 9.86523438 15.06054688 C9.84847656 16.16914063 9.83171875 17.27773438 9.81445312 18.41992188 C9.77390659 25.312832 10.39740648 31.47560258 11.99023438 38.18554688 C7.04023437 38.18554688 2.09023438 38.18554688 -3.00976562 38.18554688 C-2.34976563 35.87554687 -1.68976562 33.56554687 -1.00976562 31.18554688 C-0.73922809 27.90769642 -0.73922809 27.90769642 -0.81445312 24.59570312 C-0.82089844 23.40009766 -0.82734375 22.20449219 -0.83398438 20.97265625 C-0.85074219 19.74353516 -0.8675 18.51441406 -0.88476562 17.24804688 C-0.89378906 15.99185547 -0.9028125 14.73566406 -0.91210938 13.44140625 C-0.93557314 10.35592165 -0.96840361 7.27083483 -1.00976562 4.18554688 C-2.78509783 6.44199892 -3.99306149 8.1376617 -4.94726562 10.87304688 C-6.00976562 13.18554688 -6.00976562 13.18554688 -8.00976562 14.06054688 C-10.00976562 14.18554688 -10.00976562 14.18554688 -12.00976562 13.18554688 C-12.03663115 11.2064529 -12.05609938 9.22725717 -12.07226562 7.24804688 C-12.08386719 6.14589844 -12.09546875 5.04375 -12.10742188 3.90820312 C-11.8862828 -2.25715432 -4.82334402 0.01692789 0 0 Z " fill="#FFFFFF" transform="translate(37.009765625,292.814453125)"/>
<path d="M0 0 C3.38185911 1.66682261 5.48281049 3.92267099 7.12890625 7.3515625 C9.26873674 13.85741484 8.74752201 20.19584494 5.875 26.375 C3.40555762 30.71376888 1.30826499 33.43161126 -3 36 C-6.00491027 36.65024288 -8.92961481 36.92494614 -12 37 C-12 36.34 -12 35.68 -12 35 C-6.58823529 31 -6.58823529 31 -4 31 C-2.92474806 28.34771188 -1.90543849 25.71631546 -1 23 C-1.59167969 23.10699219 -2.18335938 23.21398437 -2.79296875 23.32421875 C-9.24884505 24.30365838 -9.24884505 24.30365838 -12.9375 22.8125 C-15.6140278 20.46039981 -16.78353963 18.38433959 -17.3359375 14.8515625 C-17.43177417 9.38887247 -16.67758174 6.30802432 -13 2 C-8.74696324 -0.83535784 -4.99241992 -0.76089759 0 0 Z M-6 3 C-8.87308681 6.24380769 -10.894727 8.5785338 -11 13 C-10.1852975 15.46988923 -9.15053391 17.65291081 -8 20 C-5.35786868 20.21422686 -3.58483133 20.33418933 -1.25 19 C0.70634747 15.86984405 1.12003813 12.6223272 1 9 C-0.01042218 6.03490467 -0.01042218 6.03490467 -2 4 C-4.08533633 3.12177688 -4.08533633 3.12177688 -6 3 Z " fill="#FFFFFF" transform="translate(288,146)"/>
<path d="M0 0 C4.7884398 2.54704245 6.38924506 5.91340544 8 11 C8.69959876 18.34578696 7.21982001 24.44214636 2.625 30.3125 C-1.98107294 35.02824135 -5.43926858 36.35679104 -12 37 C-12 36.01 -12 35.02 -12 34 C-10.35546875 32.5703125 -10.35546875 32.5703125 -8.1875 31.125 C-4.85206188 28.76362788 -2.77468007 26.77119516 -1 23 C-1.66 23.33 -2.32 23.66 -3 24 C-7.04354469 24.38880237 -9.56587465 24.18839402 -13.3125 22.5625 C-16.47704717 19.54514107 -17.26151418 17.55484057 -17.9453125 13.3125 C-18.06131905 8.40708021 -16.0103242 5.19401951 -12.9375 1.5625 C-8.62800555 -0.72978428 -4.77906851 -0.76370617 0 0 Z M-8.73046875 4.68359375 C-10.20482768 7.37373174 -10.3722808 9.01367907 -10.3125 12.0625 C-10.30863281 12.91972656 -10.30476562 13.77695313 -10.30078125 14.66015625 C-10.14148154 17.26887304 -10.14148154 17.26887304 -8 20 C-5.04279372 20.66680368 -5.04279372 20.66680368 -2 20 C0.30423824 17.69576176 0.97303519 16.02646038 1.05859375 12.76953125 C0.75428782 8.20671605 0.75428782 8.20671605 -1.3046875 4.2265625 C-4.11112101 2.19610139 -6.27063984 2.29039677 -8.73046875 4.68359375 Z " fill="#FFFFFF" transform="translate(204,68)"/>
<path d="M0 0 C3.67248378 1.63221501 6.04226138 3.47607049 8 7 C9.82359314 14.15409616 8.32545687 20.0432116 5.375 26.625 C2.03818709 31.96639081 -2.70265407 36.05644721 -8.5 38.4375 C-9.325 38.623125 -10.15 38.80875 -11 39 C-9.32044107 35.30010206 -7.08369792 32.73307356 -4.33984375 29.78125 C-2.88558137 27.8478866 -2.41958683 26.36211843 -2 24 C-2.60328125 23.98582031 -3.2065625 23.97164062 -3.828125 23.95703125 C-10.30874605 23.57028451 -10.30874605 23.57028451 -13.5 20.9375 C-15.38598935 17.24410418 -16.20396177 14.15266173 -16 10 C-13.24827327 2.05056723 -8.20217816 -1.38089409 0 0 Z M-7.8125 5.4375 C-9.59141237 9.27620563 -9.6925523 12.84468621 -9 17 C-7.4548843 19.71648577 -7.4548843 19.71648577 -5 21 C-2.87092681 21.23901711 -2.87092681 21.23901711 -1 20 C0.99821884 17.72616476 1.98338819 16.06523231 2.03125 12.99609375 C1.65465815 9.3444978 1.04983906 7.07475859 -1 4 C-4.02626741 3.4568238 -5.38009671 3.50835256 -7.8125 5.4375 Z " fill="#FFFFFF" transform="translate(118,144)"/>
</svg>
