<?xml version="1.0" encoding="UTF-8"?>
<svg id="_Слой_1" data-name="Слой 1" xmlns="http://www.w3.org/2000/svg" viewBox="0 0 400 400">
  <defs>
    <style>
      .cls-1 {
        fill: none;
      }

      .cls-1, .cls-2 {
        stroke-width: 0px;
      }

      .cls-2 {
        fill: #fff;
      }
    </style>
  </defs>
  <g>
    <path class="cls-2" d="m121.33,187.1c7.76-3.97,14.96-7.65,22.46-11.49-.83-1.22-1.44-2.15-2.08-3.06-1.41-1.99-1.21-3.21.95-4.34,8.04-4.21,16.11-8.4,24.2-12.51.68-.35,1.81-.43,2.48-.11,8.75,4.25,17.43,8.62,26.17,12.89,1.66.81,1.82,1.71.81,3.12-.74,1.03-1.38,2.13-2.36,3.67,7.43,3.8,14.67,7.5,22.07,11.28.27-.71.49-1.09.57-1.5.5-2.78.51-2.87,3.36-3.05,1.84-.11,3.7,0,5.56.02,1.82.02,2.67.92,2.59,2.77-.08,1.6,0,3.2-.09,4.8-.11,1.91.68,3.14,2.45,3.86,1.76.72,3.47,1.57,5.62,2.56-.88.93-1.57,1.7-2.3,2.42-1.3,1.27-2.3,5.88-1.39,7.32.28.44,1.18.65,1.81.67,6.59.14,13.18.31,19.77.3,6.53-.01,13.05-.3,19.57-.31,1.83,0,2.34-.58,2.15-2.32-.18-1.71-.07-3.45-.17-5.18-.07-1.19.45-1.6,1.58-1.55,1.21.05,2.45-.12,3.64.03,1.9.24,2.56-.68,2.56-2.37,0-1.21.07-2.45-.16-3.62-.26-1.35.24-1.76,1.47-1.74,1.27.02,2.55,0,4.04,0,.16-1.15.42-2.26.46-3.38.3-10.87.57-21.74.83-32.61,0-.41-.06-1-.32-1.22-2.59-2.14-1.07-4.87-1.05-7.36,0-.27.82-.77,1.27-.78,3.13-.03,6.27,0,9.4.13.47.02,1.25.7,1.3,1.14.17,1.45.09,2.93.06,4.4,0,.44-.02,1.1-.28,1.28-1.92,1.29-1.16,3.2-1.13,4.86.21,10.56.54,21.11.75,31.66.03,1.57.59,2.1,2.11,2.2,3.48.22,3.55.36,3.34,3.95q-.21,3.54,3.31,3.52c3.69-.02,3.71-.02,4.07,3.62.17,1.71.25,3.42.39,5.4,1.52,0,3.03-.01,4.54,0,2.94.02,5.9-.09,8.83.15,1.8.15,2.17-.5,2.21-2.09.19-7.1.48-14.19.73-21.29.49-14.07,1.04-28.13,1.46-42.2.42-14.26.67-28.53,1.04-42.79.44-17.14.95-34.28,1.38-51.42.04-1.65.68-2.52,2.28-2.72,1.01-.13,2.03-.32,3.04-.31,3.79.04,4.72.98,4.72,4.72,0,10.68-.12,21.37.04,32.05.22,15.02.68,30.04,1,45.06.21,9.66.36,19.32.56,28.98.36,18.04.76,36.08,1.08,54.12.03,1.51.61,1.81,1.94,1.81,4.69,0,4.39-.33,4.65,4.5.06,1.13.15,2.26.24,3.48,1.64,0,3.09,0,4.54,0,5.25,0,10.5,0,15.75-.05,1.21-.01,1.78.37,1.77,1.61-.06,13.56-.1,27.13-.13,40.69,0,1.18-.63,1.62-1.66,1.63-3.77.04-7.54.14-11.3.03-1.66-.05-2.58.05-3.07,2.03-.93,3.76-5.55,5.48-9.24,3.61-1.23-.62-2.12-.7-3.33.04-.68.42-1.74.3-2.63.31-2.28.03-4.56.04-6.84-.04-1.94-.07-3.87-.33-5.81-.45-.6-.04-1.25,0-1.82.19-2.1.72-4.11.55-6.2-.13-.86-.28-1.97-.3-2.81,0-4.27,1.53-8.06-.17-9.52-4.31-.17-.47-1.11-.95-1.7-.95-8.19-.03-16.39,0-24.58.07-3.26.02-6.53.11-9.79.26-1.44.06-2.16-.41-2.14-1.91.04-4.8.04-9.59.07-14.39.02-4.78,1.22-5-4.91-4.8-1.98.07-3.96.3-5.94.29-1.38-.01-1.81.59-1.79,1.83.03,1.92-.08,3.84.06,5.75.14,1.82-.47,2.49-2.35,2.47-7.3-.07-14.59.04-21.89-.05-1.84-.02-2.7.37-2.62,2.39.14,3.38.02,6.78.15,10.16.06,1.46-.47,2.25-1.87,2.27-4.08.07-8.16.11-12.24.08-3.13-.02-6.26-.18-9.39-.23-2.09-.03-3.8.73-5.26,2.32-.58.64-1.72.95-2.64,1.06-1.32.16-2.7-.15-4.02,0-1.73.2-3.15.13-3.86-1.81-.11-.29-.83-.47-1.29-.5-1.85-.12-3.71-.15-5.56-.22-2.28-.09-4.33.21-6.22,1.85-2.29,1.99-7.81,1.2-10.23-.98-.71-.64-1.83-1.18-2.76-1.18-23.81-.12-47.62-.11-71.43-.23-15.36-.07-30.72-.37-46.08-.41-6.46-.02-12.92.34-19.38.53-.38.01-.77.05-1.15.06-4.07.09-4.4-.41-4.36-4.35.04-4.34-.32-8.69-.41-13.04-.09-4.47-.38-8.94,1.24-13.29.47-1.26.29-2.78.29-4.19-.01-5.5-.06-10.99-.11-16.49-.02-2.24.12-4.5-.16-6.71-.54-4.25.92-7.5,3.98-10.45,2.4-2.31,5.08-2.96,8.19-2.93,8.77.07,17.54.15,26.3.11,11.13-.06,22.27-.19,33.4-.38,3.97-.07,7.92-.45,11.58-2.29,1.24-.62,1.88-1.45,1.78-2.84-.14-1.91-.29-3.83-.39-5.74-.18-3.54,1.22-5.8,4.39-7.13.12-.05.23-.13.35-.14,1.32-.16,5.36,3.41,5.41,4.81.04,1.34,0,2.67,0,4.72Zm106.94,50.84c0-1.11.01-2.25,0-3.38-.17-11.64-.37-23.29-.49-34.93-.01-1.42-.52-2.15-1.76-2.79-11.69-5.94-23.37-11.93-35.02-17.95-3.37-1.74-3.34-1.79-1.63-5.05.09-.17.17-.34.27-.51.62-1.07.54-1.82-.72-2.45-6.24-3.11-12.43-6.33-18.68-9.42-.62-.31-1.66-.29-2.29.02-5.75,2.77-11.47,5.63-17.18,8.49-3.8,1.9-3.79,1.92-1.66,5.49.03.05.06.11.1.17,1.12,1.96,1.04,2.38-.95,3.38-10.72,5.45-21.43,10.93-32.21,16.27-1.95.97-2.8,1.99-2.76,4.31.17,9.73.08,19.46.1,29.18,0,2.43.04,4.86.08,7.29.02.97.31,1.47,1.47,1.76,2.71.68,5.33,1.38,8-.07.36-.2.88-.16,1.33-.13,3.54.24,7.04.27,10.21-1.72.15-.1.38-.14.56-.11,3.23.55,6.43-.23,9.62-.23,2.76,0,5.38.28,8.22-.34,2.53-.55,5.38.54,8.11.76,1.53.12,3.1.01,4.64-.12,2.54-.22,5.06-.69,7.6-.78,3-.1,6.01.18,9.01.16,6.53-.03,13.05-.25,19.57-.19,3.83.03,7.56.84,11.08,2.48.39.18,1.02.16,1.42-.02,2.56-1.16,4.96-1,7.24.68.29.21.68.43,1.01.4,1.77-.17,3.52-.41,5.73-.68Zm142.85,15.8c.17-.34.28-.45.28-.56-.17-9.59-.34-19.18-.52-28.77-.02-1.32-.69-1.68-1.96-1.65-6.84.17-13.69.35-20.53.38-16.19.07-32.39.04-48.58.08-6.85.02-13.7.16-20.54.1-1.85-.01-2.27.72-2.26,2.36.05,8.45.07,16.89.01,25.34-.01,1.68.79,1.83,2.12,1.82,11.71-.11,23.42-.18,35.13-.28.95,0,2.02.09,2.84-.28,3.19-1.42,6.2-1.37,9.02.72,2.33-2.04,4.74-1.86,7.3-.88.66.25,1.57.24,2.24,0,2.48-.89,4.84-.96,7.23.31.55.29,1.44.35,2.01.11,2.19-.92,4.5-1.24,6.49-.03,1.97,1.2,3.96,1.22,6.07,1.21,3.14-.01,6.27,0,9.41,0,1.46,0,2.91,0,4.25,0Zm-293.55-28.79c.7-.19.88-.28,1.07-.28,3.26-.04,6.53-.15,9.79-.08,4.6.1,4.6.19,4.4,4.86-.11,2.55-.18,5.12-.11,7.67.02.55.71,1.49,1.17,1.54,3.75.42,7.51.79,11.27.94,3.95.16,4.06.05,4.03-3.97-.06-8.96-.29-17.91-.32-26.87,0-1.84-.61-2.2-2.31-2.19-25.09.05-50.18.05-75.27,0-1.74,0-2.15.55-2.15,2.19.03,8.77-.04,17.53-.07,26.3,0,.69.07,1.38.1,2.05,1.61.1,3.07.25,4.52.26,2.28,0,4.57.02,6.84-.17,1.52-.13,3-.85,4.51-.87,5.74-.08,11.47,0,17.21.05,1.21.01,2.48.42,3.62.18,2.53-.53,4.92-.21,7.4.29,3.52.71,4.21.08,4.28-3.46.05-2.85.01-5.71.01-8.43Zm259.19-96.58c-.18,0-.36,0-.53,0,0,19.13.02,38.26,0,57.39,0,6.72-.06,13.44-.21,20.16-.1,4.63-.04,4.77,4.58,4.32.13-.01.26-.03.38-.03,1.14.02,1.52-.5,1.5-1.66-.28-14.65-.51-29.3-.76-43.95-.43-24.82-.89-49.64-1.27-74.46-.09-5.88.1-11.77.12-17.66.02-7.35,0-14.7,0-22.06,0-.64.06-1.35-.2-1.89-.36-.76-.95-1.91-1.52-1.96-1.45-.12-1.1,1.25-1.11,2.13-.13,7.1-.26,14.2-.34,21.3-.22,19.45-.42,38.9-.63,58.35Zm-104.53,85.59c0,.98-.02,1.6,0,2.22.14,4.48.34,8.95.41,13.43.09,5.81.04,11.61.16,17.42,0,.45.89,1.24,1.39,1.26,7.14.29,14.29.48,21.49.7.12-.52.24-.82.24-1.11-.05-7.1-.1-14.19-.23-21.29,0-.48-.58-1.14-1.06-1.39-6.23-3.26-12.49-6.48-18.76-9.68-1.06-.54-2.2-.94-3.65-1.55Zm76.62,5.02c0-5.39,0-10.49,0-15.6,0-1.27-.91-1.2-1.73-1.22-8.63-.17-17.27-.3-25.9-.51-1.31-.03-1.66.51-1.66,1.68,0,3.07-.07,6.14-.09,9.21-.02,1.96,0,3.91,0,5.87h5.68c0-1.18-.04-2.2,0-3.21.12-2.43.25-4.85.47-7.27.04-.48.4-1.19.79-1.36,3.19-1.37,5.13.04,4.95,3.5,0,.13-.03.26-.03.38,0,2.67,0,5.33,0,8.21h5.28c.07-.91.15-1.73.18-2.56.09-2.56.09-5.12.26-7.67.04-.56.53-1.44.98-1.57.95-.27,2.02-.22,3.04-.16,1.02.06,1.62.61,1.56,1.75-.07,1.6-.11,3.2-.09,4.8.03,1.82.15,3.63.22,5.37,2.14.12,3.9.22,6.07.34Zm-104.12,24.44c0-1.27-.13-2.36.03-3.41.32-2.09-.62-2.62-2.54-2.61-9.02,0-18.03-.08-27.05-.13-4.22-.02-4.15-.02-4.28,4.16-.05,1.6.44,2.06,2.05,2.04,8.25-.08,16.5-.05,24.75-.05,2.23,0,4.46,0,7.03,0Zm-1.99,2.39c-1.1-.11-1.66-.21-2.23-.22-4.47-.14-4.56-.14-4.57,4.27-.01,5.76.13,11.52.24,17.28.02.86-.06,1.99,1.32,1.82,1.75-.22,3.48-.58,5.21-.9.04,0,.03-.36.03-.55,0-7.16,0-14.32,0-21.69Zm-29.24,23.11c1.03,0,1.79,0,2.55,0,3.6.04,3.68.04,3.77-3.64.12-4.86,0-9.72.15-14.57.16-4.96.24-4.88-4.66-4.99-1.7-.04-2.01.62-1.99,2.12.07,6.4.04,12.8.05,19.19,0,.56.07,1.12.12,1.88Zm123.16-79.21c.13-1.09.35-2.03.34-2.97-.14-10.87-.32-21.73-.46-32.6-.02-1.26-.17-2.03-1.75-2-1.7.03-1.4,1.1-1.41,2.09-.03,8.7-.06,17.4-.09,26.1,0,2.99,0,5.97,0,9.11,1.09.09,2.15.17,3.36.27Zm51.46,24.67c-6.56,0-13.06.04-19.57-.03-1.71-.02-2.05.84-2.04,2.25.01,1.46.5,2.14,2.15,2.1,5.56-.13,11.11-.09,16.67-.12,3.69-.02,3.75-.11,2.97-3.82-.01-.06-.06-.11-.19-.38Zm-46.5-17c.08-.67.14-1.11.18-1.54.21-2.76.03-2.98-2.72-2.97-2.94.01-5.87.06-8.81.07-3.03.01-3.41.42-2.84,3.42.07.39.67.97,1.04.98,4.33.07,8.66.04,13.15.04ZM43.73,243.46c0-.51.05-.96,0-1.4-.4-3.15-2.96-4.49-5.48-2.59-1.51,1.14-2.53,2.94-3.68,4.51-.23.32-.22,1.03-.03,1.42.76,1.61,3.91,2.31,6.64,1.76,2.2-.44,2.73-1.82,2.56-3.7Zm172.02,9.46c1.31-.41,2.74-.62,3.91-1.28,1.96-1.1,2.04-3.56.35-5-1.54-1.32-5.83-1.56-7.47-.35-.37.27-.72.81-.76,1.24-.24,3.31.18,5.42,3.96,5.38Zm-127.09,11.76c1.65-.22,3.62,0,4.21-2.17.61-2.22.03-4.19-1.72-5.74-1.7-1.5-3.69-1.29-4.58.79-.58,1.36-.34,3.06-.52,4.6-.24,1.99.75,2.67,2.61,2.51Zm72.04-21.29c-4.4,0-5.99,1.34-5.91,4.84.03,1.51.81,2.25,2.11,2.04,1.86-.31,3.73-.77,5.45-1.52,1.29-.56,2.35-1.71,1.88-3.38-.5-1.75-1.99-1.96-3.53-1.98Zm-73.67-4.19c-.78.29-2.54.48-2.75,1.15-.36,1.15-.08,2.78.52,3.89,1.42,2.62,6.58,2.4,8.13-.21.9-1.5.34-3.3-1.39-3.9-1.31-.45-2.73-.58-4.52-.93Zm-15.99,16.44c1.19-.23,2.43-.21,3.39-.73.82-.45,1.72-1.45,1.84-2.3.1-.74-.65-1.96-1.37-2.38-2.23-1.27-4.69-1.3-6.93-.06-.8.44-1.7,1.68-1.61,2.46.1.88,1.12,1.84,1.98,2.39.74.48,1.81.44,2.72.62Zm29.7-11.9c-.41-.75-.72-2.13-1.56-2.66-1.27-.8-2.95-.34-3.76.91-1.03,1.61-1.67,3.48-2.36,5.28-.12.31.22.99.54,1.25,2.5,1.97,5.25,1.22,6.42-1.75.32-.82.41-1.72.72-3.04Zm126.38-4.11c-2.66-.03-4.25,1.08-4.3,2.99-.06,2.6,2.17,4.65,5.18,4.74,1.95.06,2.78-1.07,2.8-3.84.02-2.86-.92-3.86-3.67-3.9Zm-72.1-3.17c-.02.07-.04.13-.06.2-.51.02-1.02,0-1.53.07-1.97.29-3.02,1.59-2.88,3.59.15,2.07,1.74,2.17,3.22,2.1,1.64-.08,3.27-.54,4.91-.63,1.44-.09,1.76-.96,1.98-2.1.24-1.23-.43-1.77-1.46-2.06-1.39-.4-2.8-.78-4.2-1.17Zm-5.05,8.16c-2.24-.02-4.14.71-5.37,2.66-.24.38-.17,1.45.07,1.57,1.72.86,3.47,1.93,5.32,2.2,2.17.31,3.09-.97,3.06-3.31-.04-2.7-.43-3.1-3.08-3.12Zm17.5,20.06c.74-.12,2.7.5,2.98-1.69.21-1.68.62-4.07-.26-4.99-1.45-1.52-3.35.21-5,.97-1.87.87-1.87,2.33-1.5,4.01.39,1.75,1.67,1.86,3.78,1.7Zm-134.28-6.61c-.1-.07-.21-.14-.31-.21-.15-.75-.08-1.65-.49-2.2-.58-.79-1.53-1.87-2.27-1.83-.92.05-2.41.99-2.56,1.76-.36,1.87-.36,3.91,0,5.78.35,1.77,2.37,2.22,3.55.8.95-1.15,1.4-2.72,2.07-4.1Zm73.74,7.05c2.98-.18,5.8-.33,8.61-.56.34-.03.77-.46.93-.81,1.16-2.52-.42-4.74-3.18-4.52-2.8.22-5.48,2.53-6.36,5.89Zm42.8-6.24c-4.09-.07-4.76.79-3.61,4.24.22.65.91,1.7,1.27,1.66,1.91-.22,3.88-.52,5.62-1.27.64-.27,1.06-1.88.94-2.8-.07-.59-1.26-1.18-2.06-1.49-.81-.31-1.75-.28-2.17-.34Zm75.18,2.58c.11.04.22.08.33.12,0,.25.02.51,0,.76-.22,1.99.97,2.48,2.64,2.62,1.7.15,2.72-.37,2.72-2.22,0-1.45.14-2.92-.06-4.35-.11-.76-.76-2.01-1.22-2.04-.95-.06-2.34.28-2.82.96-.82,1.17-1.08,2.74-1.58,4.14Zm-110.86-22.03c-.89.22-1.8.3-2.58.67-1.96.93-2.17,3.14-.49,4.51,1.74,1.42,4.94,1.35,6.57-.16,1.5-1.38,1.17-3.56-.71-4.3-.87-.34-1.83-.49-2.79-.73Zm-51.63,10.1c.84-.08,1.31-.04,1.73-.17,1.17-.36,2.69-.31,2.83-2.04.15-1.84-.92-2.95-2.54-3.33-1.21-.28-2.53-.22-3.78-.13-.98.07-2.09.14-2.13,1.63-.04,1.42-.32,2.91,1.5,3.47.9.28,1.84.44,2.4.58Zm12.3,7.54c-2.63,0-3.28.85-3.89,4.42-.24,1.4.2,2.43,1.31,2.82.89.31,2.39.33,2.97-.21,1.05-.97,1.93-2.38,2.32-3.76.61-2.18-.46-3.26-2.71-3.26Zm21.99.83c.72-.13,1.34-.07,1.69-.34.9-.72,1.98-1.47,2.38-2.45.18-.44-.98-1.61-1.72-2.2-.72-.57-1.66-.94-2.56-1.21-2.1-.62-3.47-.11-4.03,1.37-.59,1.54.13,3.18,1.91,4.06.78.39,1.66.55,2.33.77Zm-59.1,7.09c.35-.06,1.32-.04,2.07-.45.62-.34,1.33-1.15,1.37-1.79.12-1.97-2.38-3.83-4.79-3.77-2.23.05-3.64,1.28-3.6,3.12.04,1.88,1.57,2.88,4.95,2.89Zm98.29-27.72c-1.35.56-2.54.95-3.62,1.55-.9.5-1.24,1.16-.5,2.32,1.99,3.12,2.7,3.43,6.16,1.97,1.8-.76,2.61-2.66,1.4-4.06-.77-.89-2.22-1.19-3.44-1.78Zm9.28-.14c-2.79-.03-3.84.67-3.83,2.56,0,2.2,1.54,3.78,3.69,3.79,2.26.02,3.79-1.1,3.83-2.8.07-2.64-.84-3.52-3.68-3.56Zm-5.93,16.49c0-2.15-.92-3.19-2.86-3.23-1.79-.04-4.8,1.56-4.81,2.55-.03,1.98,2.36,4.36,4.35,4.34,1.93-.02,3.32-1.56,3.32-3.67Zm205.73,13.65c2.19.01,3.63-1.26,3.68-3.27.05-2.09-1.38-3.58-3.39-3.55-2.18.03-3.8,1.48-3.84,3.44-.04,2.01,1.38,3.37,3.56,3.39Zm-17.67-6.86c-2.46.09-3.95,1.24-3.93,3.02.03,1.99,2.05,3.92,4.02,3.84,2.14-.09,3.28-1.44,3.24-3.87-.02-1.48-1.77-3.05-3.34-2.99Zm-262.08-6.59c0-1.67-1.13-2.52-3.37-2.52-2.8,0-4.36,1.17-4.31,3.24.05,1.8,1.54,3.14,3.46,3.1,2.36-.04,4.23-1.74,4.22-3.83Zm.38,10.45c2.26-.02,3.98-1.98,3.95-4.49-.02-1.97-.76-2.77-2.57-2.75-2.29.03-4.39,2.21-4.31,4.48.06,1.83,1.07,2.78,2.93,2.76Zm44.73-6.77c.04-2.33-.5-2.98-2.66-2.77-1.23.12-2.51.51-3.6,1.09-1.85.97-1.99,3.02-.41,4.37,1.39,1.19,2.95,1.03,4.5.34,1.37-.61,2.44-1.45,2.18-3.04Zm7.16.62c.93-.31,2.08-.62,3.17-1.09.99-.42,1-1.17.47-2.04-1.29-2.11-5.55-3.23-7.52-1.75-.7.52-1.24,1.65-1.26,2.53-.02.53.99,1.31,1.69,1.6.97.41,2.1.48,3.46.75Zm12.22-6.91c1.5-1.12,3.2-1.88,3.99-3.2.37-.62-.85-2.43-1.65-3.45-.85-1.09-2.83-.78-4.35.85-.83.89-1.72,2.49-1.44,3.42.29.94,1.99,1.45,3.44,2.39Zm.53,13.64c2.6,0,4.64-1.93,4.61-4.59-.01-1.27-1.26-2.27-2.81-2.25-2.26.04-4.62,2.28-4.52,4.36.08,1.52.77,2.54,2.71,2.47Zm-4.1-25.47c-1.76.36-3.19.65-4.62.94-1.57.32-1.83,1.66-1.67,2.79.1.69,1.06,1.54,1.81,1.8,2.06.7,3.94-.13,5.45-1.49.83-.75,1.28-1.91,1.9-2.88-1.02-.41-2.04-.82-2.87-1.16Zm94.54,14.8c-2.47,0-4.6,1.15-4.66,2.5-.07,1.64,2.23,3.34,4.49,3.31,2.14-.03,3.7-1.39,3.73-3.26.03-1.91-.88-2.56-3.56-2.55Zm-94.44-2.29c-2.8-.02-3.36.65-2.77,3.22.18.8.4,1.71.93,2.27.54.57,1.48,1.07,2.24,1.08,1.64.01,4.07-2.34,4.01-3.6-.07-1.36-1.81-2.7-3.83-2.94-.25-.03-.51-.03-.58-.03Zm213.59,12.4c0-2.06-1.48-3.59-3.45-3.55-1.83.03-3.45,1.49-3.49,3.14-.04,1.81,1.83,3.72,3.67,3.75,1.71.02,3.27-1.56,3.27-3.34Zm-258.64-6.08c2.26.18,4.03-.9,4.24-2.59.19-1.53-1.61-3.07-3.85-3.27-2.21-.2-3.91,1.04-4,2.91-.08,1.74,1.16,2.76,3.61,2.95Zm58.14,6.64c2.93-.01,4.24-.67,4.27-2.04.05-2.36-1.49-4.29-3.44-4.31-2.07-.02-3.65,2.01-3.67,4.53-.01,2.4,1.83,1.51,2.83,1.82Zm-58.05-14.52c1.89.04,3.04-1.04,3.04-2.83,0-1.79-1.74-3.52-3.58-3.57-2.02-.05-3.49,1.67-3.55,4.14-.04,1.51,1.2,2.19,4.09,2.26Zm236.97,10.26c-2,.02-3.63,1.37-3.6,2.97.04,1.79,2.16,3.95,3.85,3.92,1.62-.02,3.02-1.71,2.97-3.6-.05-2-1.33-3.31-3.23-3.29Zm22.35-7.1c-2.27-.03-3.83,1.29-3.9,3.3-.06,1.89,1.04,3.21,2.71,3.26,2.16.06,4.34-1.82,4.34-3.74,0-1.71-1.21-2.8-3.16-2.82Zm-236.98,10.27c-.84-2.69-4.98-5.01-7.44-4.05-.62.24-1.05,1.48-1.17,2.32-.11.76.13,2.18.53,2.3,2.72.83,5.48.89,8.07-.57Zm-56.09,1.02c.58-.1,1.42-.17,2.2-.4,1.3-.37,2.11-1.21,1.99-2.65-.12-1.44-1.08-2.32-2.4-2.24-1.54.09-3.15.4-4.53,1.04-.67.31-1.25,1.64-1.18,2.44.05.58,1.22,1.13,1.97,1.53.48.25,1.12.18,1.94.28Zm301.38-11.26c-1.7-.01-3.06,1.19-3.09,2.74-.05,1.96,1.89,3.89,3.95,3.94,1.79.04,2.88-1.13,2.85-3.06-.03-1.99-1.68-3.6-3.71-3.61Zm8.21,10.33c.02-1.81-1.17-2.9-3.22-2.96-2.1-.06-3.89,1.4-3.86,3.15.03,1.64,1.78,3.14,3.71,3.16,1.98.02,3.35-1.34,3.37-3.35Zm-197.88-9.63c.06,2.65,1.27,4.19,3.24,4.09,1.57-.08,2.93-1.62,2.87-3.24-.08-2.12-1.92-3.97-3.91-3.91-1.82.05-2.26.66-2.21,3.06Zm162.66,5.51c2.14,0,3.53-1.26,3.5-3.16-.03-1.66-1.69-2.95-3.84-2.97-2.01-.02-3.34,1.24-3.32,3.14.03,1.93,1.34,3,3.66,2.99Zm-281.82-8.44c-.76-1-1.11-1.77-1.71-2.19-1.57-1.09-3.35-.5-4.49,1.33-1.16,1.88-.85,4.09.84,5.03.58.32,1.76.53,2.05.22,1.2-1.3,2.16-2.82,3.31-4.4Zm188.69,3.14c.68-.43,1.79-.73,1.98-1.33.36-1.14.63-2.77-.88-3.33-1.51-.56-3.21-.82-4.82-.81-.73,0-1.96.88-2.05,1.49-.11.77.49,2.06,1.17,2.45,1.28.73,2.83.98,4.59,1.54Zm-141.07-.67c.86-.09,1.25-.1,1.62-.18,1.85-.41,2.96-1.94,2.63-3.6-.3-1.55-1.93-2.3-4.37-2.02-1.97.23-3.33,1.43-3.14,2.92.07.58.37,1.32.82,1.64.84.61,1.86.96,2.44,1.25Zm243.47-.23c-1.96-.02-3.66,1.39-3.75,3.09-.08,1.58,1.72,3.08,3.71,3.1,1.91.02,3.2-1.16,3.26-2.98.06-1.91-1.22-3.19-3.22-3.21Zm-272.75-16.58c-.96.27-2.01.39-2.86.87-.93.52-1.52,1.43-.68,2.54,1.26,1.65,4.77,2.54,6.63,1.55.54-.29,1.06-1.08,1.12-1.69.22-2.2-.99-3.03-4.21-3.27Zm94.68,20.73c.85-.3,2.04-.58,3.09-1.13,1.53-.81,1.53-2.73.09-3.69-1.74-1.17-5.47-.39-6.59,1.38-.85,1.34-.35,2.68,1.18,3.06.62.15,1.25.22,2.24.38Zm-31.03,7.69c2.65-.33,3.79-1.22,3.56-3.09-.19-1.57-1.2-2.49-2.64-2.92-1.36-.41-2.86-.39-3.59.91-.56,1-1.02,2.64-.56,3.45.49.88,2.11,1.12,3.23,1.64Zm-90.52-27.36c-1.29.79-2.81,1.27-3.57,2.31-.6.83-.46,2.38-.22,3.52.07.31,1.79.54,2.63.33,1.06-.27,2.18-.87,2.92-1.65.67-.71,1.33-2.02,1.1-2.8-.2-.69-1.63-1.03-2.85-1.71Zm25.62,26.98c.67-.07,1.3-.14,1.93-.21,1.27-.14,2.17-.63,2.25-2.08.08-1.44-.65-2.23-1.94-2.68-1.86-.65-3.54-.29-4.95,1.01-1.37,1.27-.88,3.28.85,3.72.61.15,1.25.17,1.85.24Zm-14.02-10.61c-.04-.09-.08-.18-.11-.27-1.22.48-2.57.77-3.61,1.5-1.51,1.06-1.3,2.37.29,3.3,1.61.95,4.1.74,5.71-.72.7-.63,1.02-1.68,1.52-2.53-.82-.38-1.62-.81-2.47-1.13-.4-.15-.88-.11-1.33-.15Zm171.09.06l-.69-.86c-2.15.28-4.35.37-6.43.92-1.47.38-1.76,3.2-.47,3.46,1.97.39,4.17.4,6.1-.1.74-.19,1-2.22,1.48-3.42Zm-45.67-13.48c-.01-.32.01-.64-.05-.95-.19-.92-.43-1.83-.64-2.75-1.19.32-2.55.39-3.52,1.03-.7.46-1.4,1.83-1.21,2.54.31,1.13,1.23,2.21,2.16,3.01.64.56,1.73.6,2.61.88.22-.81.47-1.62.64-2.44.09-.43.02-.89.01-1.33Zm-64.5,12.55c2.07-.03,3.33-1.03,3.29-2.63-.04-1.75-1.64-3-3.77-2.94-2.05.06-3.61,1.21-3.64,2.67-.02,1.55,1.94,2.93,4.11,2.9Zm-35.51-15.35c-2.5-.06-4.06.92-4.08,2.3-.03,1.55,1.7,2.96,3.73,2.74,1.08-.12,2.25-.57,3.12-1.22.6-.45,1.02-1.49,1.02-2.26,0-.38-1.1-.87-1.77-1.12-.77-.28-1.61-.36-2.02-.44Zm-15.93,15.85c-1.71.24-3.41.35-4.06,2.16-.37,1.05,1.29,2.4,3.34,2.84.55.12,1.26.33,1.68.1.98-.52,2.33-1.11,2.62-1.98.44-1.33-.69-2.34-2.01-2.81-.53-.19-1.12-.23-1.58-.32Zm90.65,3.35c.71-.36,1.69-.8,2.61-1.35,1.69-1.01,1.87-1.98.62-3.52-.43-.53-1.02-.97-1.62-1.3-1.6-.88-3.58-.55-3.69.85-.13,1.69.6,3.45,1.01,5.17.02.09.47.07,1.07.15Zm15,7.56c2.56-.05,3.33-.66,3.32-2.5-.01-1.9-1.68-3.67-3.44-3.66-1.75.01-2.58,1.48-2.57,4.33,0,2.16,1.62,1.66,2.7,1.82Zm50.72-26.82c-1.63.02-2.36,1.01-2.35,3.17.01,1.87,1.33,3.39,2.94,3.39,1.61,0,2.96-1.69,2.9-3.64-.06-1.89-1.32-2.95-3.49-2.92Zm-131.1-.24c-1.04.4-2.24.62-3.08,1.28-.63.5-1.11,1.58-1.08,2.38.02.49,1.12,1.29,1.77,1.33,1.47.08,2.99-.12,4.44-.42.47-.1.98-.8,1.16-1.33.65-1.9-.5-2.97-3.21-3.23Zm217.5-86.72c.97-.38,2.49-.5,2.82-1.19,1.11-2.27.07-3.72-2.44-3.92-.38-.03-.76-.03-1.15-.04-2.84-.05-3.02.2-2.7,3.01.26,2.27,1.94,1.73,3.46,2.14ZM45.66,248.59c-.85.24-2.12.35-3.09.95-.57.35-.92,1.46-.9,2.22,0,.38,1.06,1.08,1.61,1.06,2-.1,4.01-.37,5.98-.77.47-.09,1.1-.93,1.09-1.43,0-.46-.66-1.14-1.18-1.32-1-.36-2.09-.44-3.52-.71Zm125.26,1.67c.04-2.53-.6-3.27-2.81-3.29-1.8,0-2.64.79-2.64,2.51,0,2.04,1.73,4.25,3.4,4.33,1.28.06,2.02-1.22,2.06-3.55Zm-121.71-8.47c.96-.49,2.22-.92,3.21-1.69.77-.6.77-1.61-.19-2.28-1.7-1.19-5.6-.85-7.05.58-.93.92-1.12,1.75.34,2.28,1.07.39,2.18.67,3.69,1.12Zm169.82,2.59c.34-.24,1.52-.7,1.52-1.15,0-1.35-.13-2.95-.86-3.99-.7-1-3.37-.4-4.25.86-.52.75-.81,1.86-.72,2.76.04.43,1.19.81,1.88,1.08.58.22,1.24.24,2.42.44Zm-186.37,3.53c.12-1.59-1.02-1.97-2.32-2.04-1.74-.1-3.28,1.58-3.3,3.52-.02,1.56.99,2.74,2.34,2.73,1.64-.01,3.28-2.07,3.28-4.21Zm80.02-.94c-2.57-.03-4.29,1.09-4.31,2.71-.01,1.16,1.32,2.21,2.86,2.23,1.96.03,3.91-1.5,3.96-3.12.06-1.97-1.41-1.74-2.51-1.82Zm7.01-.11c-.26.04-1-.06-1.36.26-.74.66-1.66,1.49-1.78,2.35-.07.52,1.19,1.29,1.93,1.82.32.23.86.19,1.3.21,2.03.08,3.73-.9,3.8-2.16.06-1.28-1.51-2.36-3.9-2.47Zm-48.24,1.48c2.2.02,3.86-.93,3.89-2.22.04-1.57-1.11-2.63-2.84-2.64-1.89,0-3.77,1.4-3.72,2.84.05,1.75,1.37,1.89,2.68,2.02Zm138.61.33c-.02-1.72-.87-2.65-2.35-2.6-1.58.05-2.93,1.52-2.94,3.2,0,1.5,1.04,2.75,2.34,2.78,1.6.04,2.97-1.53,2.94-3.37Zm-70.54-3.72c-.69.09-1.3,0-1.67.25-.69.47-1.45,1.07-1.74,1.79-.12.31.78,1.42,1.35,1.55,1.43.32,2.96.46,4.42.31.49-.05,1.09-1.16,1.2-1.86.06-.42-.63-1.16-1.16-1.42-.77-.38-1.7-.45-2.4-.62Zm-34.53,1.2c2.25-.02,3.32-.69,3.25-2.06-.09-1.73-1.63-3.02-3.58-2.97-1.29.03-2.22.41-2.14,2,.11,2.21.73,3.04,2.47,3.02Zm-49.77,1.67c-2.06,0-3.48,1.23-3.38,2.93.07,1.25.63,2.23,2.05,2.25,2.07.03,3.36-1.42,3.42-3.53.04-1.69-1.14-1.53-2.09-1.65Zm-7.58-4.35c-1.88.02-2.99.93-2.86,2.54.17,2.14,2.01,1.8,3.34,1.9,1.17.09,2.61-.08,2.86-1.59.25-1.49-1.51-2.87-3.34-2.85Zm177.3-52.81c-.09-1.69-.22-2.76-.18-3.82.05-1.61-.79-2.13-2.23-2.1-1.72.04-3.17,1.14-3.1,2.45.02.38.25.93.55,1.09,1.48.78,3.02,1.46,4.96,2.37Zm-144.62,74.28c.52-.18,1.34-.36,2.06-.74.54-.29,1.41-.91,1.34-1.23-.18-.99-.54-2.14-1.24-2.77-.43-.39-1.83-.25-2.4.18-.75.55-1.25,1.57-1.61,2.48-.55,1.38.2,2,1.85,2.08Zm-25.2-18.63c1.62.35,1.97-.83,2.32-1.95.45-1.44-.91-1.21-1.57-1.61-.32-.19-.7-.3-1.06-.4-1.29-.35-2.6-.56-3.25.99-.46,1.1.83,2.53,2.44,2.85.37.07.75.09,1.13.13Zm156.09,16.46c0,1.75.14,1.94,1.52,1.98,1.35.04,3.14-2.02,3-3.7-.04-.53-.74-1.41-1.18-1.43-1.96-.09-3.35,1.33-3.35,3.16Zm-1.98-.4c-.03-1.2-1.39-2.41-2.85-2.27-2.07.19-1.04,2.02-1.3,3.06-.23.91.33,1.88,1.63,1.84,1.36-.04,2.56-1.28,2.52-2.63Zm11.05,2.72c.11-.01.62-.1,1.13-.09,1.15.02,1.77-.64,1.51-1.63-.15-.58-.93-1.23-1.55-1.39-.82-.22-1.88-.26-2.61.09-.82.39-1.38,1.31-2.06,2,.74.34,1.47.72,2.24,1.02.28.11.63.02,1.34.02Zm49.45-38.61c.19-1.24-.07-2.07-1.51-2.08-1.29-.02-1.94.53-1.76,1.84.12.87-.56,2.22,1.25,2.17,1.35-.03,2.3-.35,2.02-1.93Zm50.06-11.63c.47-.51,1.23-.96,1.34-1.54.22-1.17.02-2.31-1.71-2.13-1.03.11-2.13-.24-2.17,1.52-.04,1.74.91,1.81,2.55,2.15Zm-68.15-3.56c.22,1.4.06,2.72.55,3.03.67.43,1.89.29,2.74,0,.31-.11.52-1.86.3-1.97-.93-.49-2.03-.65-3.6-1.07Zm14.73,3.27c1.12-.06,2.17-.12,3.36-.19-.1-1.04-.17-1.85-.24-2.6-3.46-.76-4-.31-3.11,2.79Zm-29.22.15c1.48-.16,2.57-.27,4.03-.42-.28-1-.29-2.28-.75-2.46-.85-.34-2.14-.34-2.87.11-.47.29-.28,1.66-.41,2.77Z"/>
    <path class="cls-2" d="m311.91,315.16c1.57,0,2.96,0,4.35,0,5.12,0,10.24.05,15.36-.03,1.61-.02,2.09.54,2.07,2.11-.06,7.8,0,15.61-.05,23.41,0,1.5.17,2.52,2.03,2.27,1.19-.17,1.73.37,1.72,1.64-.02,3.2.02,6.4.12,9.59.05,1.42-.46,1.88-1.88,1.89-4.53.03-4.53.08-4.53-4.37q0-3.71-3.73-3.71c-4.48,0-8.96.06-13.44-.03-1.62-.03-2.4.38-2.21,2.13.13,1.2.03,2.43.03,3.64,0,.38.11.82-.03,1.14-1.1,2.46-3.24.66-4.85,1.11-.92.26-1.54-.16-1.5-1.34.09-3.32.13-6.65.08-9.98-.02-1.36.5-1.91,1.8-1.74,1.34.18,2.03-.46,2.36-1.67.75-2.83,1.97-5.63,2.17-8.5.36-5.33.13-10.7.14-16.06,0-.38,0-.76,0-1.52Zm15.38,27.59c0-7.25.02-14.33-.06-21.41,0-.38-.82-1.05-1.3-1.09-1.78-.13-3.58,0-5.36-.08-1.4-.07-1.85.41-1.87,1.85-.07,3.83-.15,7.67-.59,11.47-.36,3.07-1.25,6.07-1.94,9.26h11.11Z"/>
    <path class="cls-2" d="m102.64,315.22c2.08,0,4.11-.08,6.11.09.31.03.76,1.18.76,1.82.06,5.56.03,11.13.02,16.7,0,1.15,0,2.3,0,3.9,1.51-2.2,2.76-4.05,4.04-5.89,3.52-5.03,7.06-10.05,10.59-15.07.95-1.35,5.26-2.38,6.53-1.4.42.32.52,1.24.52,1.88.03,7.29-.01,14.59.03,21.88.02,2.42.18,4.85.4,7.27.11,1.2-.27,1.56-1.43,1.63-5.38.32-5.38.35-5.38-5.02,0-5.74,0-11.48,0-17.52-3.43,4.91-6.66,9.54-9.9,14.17-1.69,2.41-3.37,4.83-5.08,7.22-.74,1.04-5.6,1.78-6.39.88-.39-.44-.41-1.3-.41-1.97-.02-7.8.02-15.61-.02-23.41-.01-2.28-.25-4.57-.4-7.14Z"/>
    <path class="cls-2" d="m300.98,330.78c.35,11.47-8.82,19.64-19.42,17.43-3.82-.8-6.92-2.8-8.84-6.19-3.81-6.72-3.83-13.59.14-20.22,3.5-5.84,10.04-8.28,16.98-6.74,6.15,1.36,10,5.94,10.9,13,.12.95.16,1.91.23,2.72Zm-24.69.79c.17.05.34.11.51.16.03,3.27.83,6.2,2.27,8.4,3.32,5.04,9.96,5.04,12.93-.2,3.06-5.38,3.06-11.09.13-16.51-3.03-5.62-10.27-5.59-13.27.06-1.31,2.46-1.75,5.38-2.58,8.09Z"/>
    <path class="cls-2" d="m60.66,315.24c.33-.02,1.02-.07,1.71-.07,8.07,0,16.13.04,24.2-.04,1.77-.02,2.3.51,2.28,2.28-.09,7.87-.06,15.75-.02,23.62,0,1.79.18,3.57.36,5.35.11,1.15-.27,1.58-1.46,1.66-5.28.31-5.27.34-5.26-4.81,0-6.91-.04-13.83.03-20.74.02-1.55-.52-1.98-1.98-1.95-3.71.07-7.43.07-11.14-.03-1.71-.05-2.35.45-2.3,2.26.21,8.12.3,16.24.42,24.37,0,.18-.07.36-.18.83-1.85,0-3.76.11-5.63-.09-.41-.04-.99-1.19-.99-1.83-.07-6.59-.03-13.19-.03-19.78,0-3.57,0-7.13,0-11.02Z"/>
    <path class="cls-2" d="m161.64,329.49c.5.33.87.57,1.24.81,3.45,2.19,4.82,5.32,4.2,9.34-.62,3.95-2.86,6.72-6.69,7.54-3.27.7-6.71.7-10.08.8-4.63.13-4.63.04-4.62-4.64,0-5.56.07-11.13,0-16.69-.04-3.25-.3-6.5-.47-9.75-.04-.83-.3-1.81,1-1.8,4.02.03,8.04.04,12.05.24,1.1.05,2.22.6,3.23,1.13,3.64,1.9,4.81,5.91,2.73,9.46-.7,1.2-1.63,2.28-2.58,3.58Zm-9.55,8.53h.03c0,1.27-.05,2.55.03,3.82.03.43.25,1.08.57,1.23,3.16,1.55,7.65-1.02,7.99-4.51.33-3.4-1.69-5.49-5.57-5.77-2.95-.21-3.04-.13-3.04,2.74,0,.83,0,1.65,0,2.48Zm0-14.31q-.02,4.32,4.29,4.51c.19,0,.41.09.57.02.43-.2,1.12-.39,1.2-.71.42-1.7,1.02-3.45.91-5.15-.14-2.12-2.6-3.19-5.46-2.87-2.37.26-1.21,2.07-1.49,3.24-.07.3-.01.63-.01.95Z"/>
    <path class="cls-2" d="m257.47,329.5c.44.3.8.56,1.17.79,3.34,2.06,4.75,5.05,4.28,8.94-.49,4.04-2.64,6.96-6.55,7.87-3.19.74-6.57.78-9.88.87-5.01.14-5.01.04-5.01-5.01,0-6.08.05-12.16-.02-18.23-.03-2.68-.24-5.36-.48-8.03-.09-1.02.02-1.65,1.19-1.63,3.83.05,7.67-.05,11.49.21,1.45.1,2.97.8,4.26,1.57,3.01,1.8,3.97,5.42,2.34,8.53-.74,1.4-1.77,2.64-2.78,4.12Zm-9.61,8.41h.02c0,1.28-.04,2.56.02,3.83.02.46.18,1.11.5,1.31,2.17,1.37,6.9-.56,7.77-3.1,1.44-4.19-1.16-7.21-6.13-7.24-1.55-.01-2.45.33-2.22,2.13.13,1.01.02,2.04.02,3.06Zm0-14.1q-.01,4.14,4.04,4.42c.25.02.54.11.76.03.44-.16,1.13-.35,1.21-.66.44-1.76,1.08-3.57.99-5.33-.11-2.02-2.57-3.04-5.38-2.78-2.35.21-1.43,1.94-1.61,3.17-.05.38,0,.77-.01,1.15Z"/>
    <path class="cls-2" d="m204.64,348c.39-1.12.62-1.83.88-2.52,3.49-9,7.1-17.96,10.42-27.02,1.01-2.76,2.67-3.79,5.47-3.75,4.08,10.95,8.18,21.94,12.38,33.19-2.02,0-4.02.08-6.02-.06-.44-.03-.98-.75-1.21-1.27-.69-1.58-1.12-3.28-1.9-4.81-.32-.62-1.23-1.29-1.9-1.33-2.61-.15-5.24-.02-7.87-.08-1.15-.03-1.75.43-2.11,1.5-.48,1.46-1.16,2.85-1.6,4.31-.42,1.41-1.24,1.95-2.67,1.85-1.18-.08-2.37-.02-3.88-.02Zm10.4-12.87h7.7c-1.26-3.6-2.45-6.99-3.79-10.79-1.4,3.88-2.62,7.26-3.9,10.79Z"/>
    <path class="cls-2" d="m193.63,330.89c3.74,2.4,5.61,5.29,5.1,9.4-.43,3.51-2.28,6-5.53,7.21-5.51,2.05-10.82,1.31-15.81-1.72-.41-.25-.78-1.02-.73-1.51.13-1.25.51-2.47.85-3.98.82.47,1.4.8,1.99,1.13,2.42,1.4,4.99,2.35,7.83,2.2,2.89-.15,4.76-2.03,4.79-4.72.04-3.16-1.52-4.95-4.64-5.2-1.34-.11-2.68-.05-4.02-.13-2.41-.14-1.29-2.03-1.52-3.22-.24-1.26.45-1.7,1.67-1.63,1.78.1,3.57.15,5.36.13.5,0,1.16-.19,1.48-.54,1.4-1.53,1.58-5.37.43-7.08-1.19-1.78-3.52-2.5-6.02-1.5-1.93.77-3.68,1.97-5.79,3.14-.65-1.2-1.41-2.49-2.03-3.85-.12-.28.21-.97.53-1.2,4.69-3.39,9.82-4.4,15.21-2.09,5.58,2.38,6.76,9.17,2.59,13.77-.42.47-.98.8-1.74,1.41Z"/>
    <path class="cls-2" d="m266.32,293.01h2.25v6.91c.13.04.26.08.4.13,1.3-1.86,2.52-3.78,3.93-5.54.56-.7,1.54-1.05,2.33-1.56.23.78.63,1.55.67,2.34.11,2.62.12,5.24.06,7.86,0,.45-.53.9-.81,1.35-.44-.42-1.23-.81-1.26-1.25-.14-1.95-.06-3.91-.48-6.03-1.36,1.96-2.64,3.97-4.11,5.85-.5.64-1.46.93-2.22,1.37-.25-.71-.71-1.41-.73-2.13-.08-3.05-.03-6.11-.03-9.29Z"/>
    <path class="cls-2" d="m298.87,304.34c-1.55.48-2.15-.1-2.11-1.65.04-1.6,0-3.2-.03-4.8,0-.11-.11-.21-.34-.64-1.33,1.91-2.58,3.7-3.83,5.48-.33.47-.59,1.04-1.03,1.37-.36.27-1,.42-1.39.28-.35-.12-.73-.72-.74-1.12-.1-3.13-.14-6.27-.1-9.4,0-.33.74-.95,1.04-.9.46.08,1.16.62,1.18.99.12,1.96.06,3.94.06,6.13,2.9-2.04,3.13-6.46,7.29-7.43v11.67Z"/>
    <path class="cls-2" d="m102.99,298.46c0-1.4.07-2.81-.02-4.21-.06-.99.23-1.46,1.25-1.39,1.14.07,2.32-.02,3.43.22,1.95.44,2.68,2.05,1.69,3.79-.48.84-.38,1.19.25,1.89,1.81,2,.84,4.84-1.79,5.54-.31.08-.63.13-.94.17-3.61.45-3.78.3-3.78-3.32,0-.89,0-1.79,0-2.68-.03,0-.05,0-.08,0Zm2.44,4.54c1.02-.44,1.92-.6,2.42-1.14.32-.34.31-1.5-.02-1.84-.51-.53-1.42-.68-2.4-1.09v4.07Zm-.53-8.16c.51,1.02.92,1.84,1.32,2.65.47-.45,1.27-.86,1.34-1.37.18-1.39-.72-1.74-2.66-1.28Z"/>
    <path class="cls-2" d="m176.23,298.56c-.02,3.58-2.31,6.15-5.44,6.11-3.02-.04-5.06-2.36-5.07-5.76-.02-3.58,2.23-6.13,5.4-6.14,3.24,0,5.13,2.14,5.11,5.8Zm-8.2.37c.07.36.13.94.28,1.49.39,1.37,1.08,2.54,2.7,2.53,1.6-.01,2.32-1.15,2.68-2.55.13-.49.22-1,.24-1.5.09-2.55-1.17-4.43-2.94-4.43-1.67,0-2.92,1.8-2.96,4.47Z"/>
    <path class="cls-2" d="m149.51,294.6v2.54c.68.08,1.3.13,1.91.22,1.96.31,3.02,1.46,3.09,3.31.08,1.97-.92,3.25-2.89,3.7-.31.07-.63.11-.95.14-3.5.31-3.53.28-3.53-3.22,0-2.3.03-4.6-.06-6.9-.04-1.06.24-1.56,1.35-1.53,1.34.04,2.69-.05,4.02.06.43.03.81.52,1.22.81-.39.29-.75.78-1.16.84-.92.13-1.88.04-2.99.04Zm.04,8c1.5.32,2.62-.05,2.71-1.6.09-1.67-1.14-2.03-2.71-2.04v3.64Z"/>
    <path class="cls-2" d="m254.5,304.37c-4.11.72-3.74-3.58-6.26-4.8,0,1.38.07,2.56-.04,3.73-.04.42-.51.8-.79,1.2-.44-.34-1.24-.65-1.26-1.01-.17-3.25-.23-6.51-.23-9.77,0-.27.76-.84.98-.76.48.17,1.12.63,1.19,1.05.17,1.1.06,2.25.06,3.38l.59.22c.52-.93.93-1.96,1.61-2.76.7-.82,1.62-1.48,2.55-2.04.2-.12.91.43,1.23.81.09.1-.31.81-.64,1.03-2.39,1.63-2.86,3.7-1.33,6.09.72,1.12,1.44,2.23,2.34,3.63Z"/>
    <path class="cls-2" d="m122.65,293.08c1.73-.59,2.43,0,2.22,1.67-.22,1.73.18,2.65,2.24,2.71,1.85.06,2.98,1.63,2.92,3.44-.06,1.8-.9,3.03-2.75,3.43-.19.04-.37.08-.56.12-3.7.61-4.08.29-4.08-3.39,0-1.34,0-2.69,0-4.03,0-1.27,0-2.55,0-3.94Zm2.22,5.89c0,.81-.11,1.52.03,2.17.13.56.55,1.05.84,1.57.65-.4,1.58-.64,1.88-1.22.7-1.35-.3-2.3-2.76-2.52Z"/>
    <path class="cls-2" d="m188.46,292.98c1.28,0,2.55-.11,3.79.02,2.08.23,3.2,1.33,3.35,3.07.16,1.86-.91,3.67-2.85,3.97-1.86.29-2.32,1.13-2.08,2.79.11.78.41,1.75-1.01,1.72-1.24-.03-1.2-.89-1.2-1.74,0-3.19,0-6.38,0-9.83Zm2.31,5.67c1.79-.11,2.71-.82,2.5-2.38-.18-1.36-1.09-1.87-2.5-1.47v3.85Z"/>
    <path class="cls-2" d="m232.95,295.61c-2.5-1.51-3.74-1.48-5.05.03-1.34,1.54-1.46,4.29-.25,5.9,1.26,1.68,2.68,1.73,6.34.41-.3.63-.44,1.48-.93,1.84-2.05,1.49-5.31,1.08-7.05-.74-1.9-1.98-2.03-5.8-.27-8.18,1.52-2.05,4.61-2.77,6.91-1.63,1.24.61,1.45,1.33.3,2.37Z"/>
    <path class="cls-2" d="m86.57,301.53c-.76,0-1.54-.09-2.29.01-1.78.24-2.26-.49-2.28-2.23-.02-1.82.49-2.51,2.35-2.35,1.77.15,3.56.07,5.34.03,1.93-.04,1.42,1.37,1.47,2.42.05,1.08.19,2.27-1.55,2.13-1.01-.08-2.04-.01-3.05-.02Z"/>
    <path class="cls-2" d="m313.47,301.54c-.76,0-1.54-.08-2.29.02-1.7.21-2.11-.53-2.19-2.17-.09-1.98.57-2.61,2.49-2.42,1.58.15,3.19.15,4.77,0,1.96-.17,1.95.98,1.95,2.38,0,1.34-.03,2.44-1.87,2.21-.94-.12-1.91-.02-2.86-.02Z"/>
    <path class="cls-2" d="m210.12,294.59c0,3.01,0,5.69,0,8.36,0,.78.11,1.76-1.05,1.5-.5-.11-1.18-.93-1.2-1.45-.14-3-.14-6.01-.09-9.01,0-.38.56-1.06.89-1.08,1.46-.11,2.94-.08,4.4.03.33.03.61.59.92.91-.31.24-.6.66-.93.7-.87.1-1.76.03-2.93.03Z"/>
    <path class="cls-2" d="m131.73,293.15c1.98-.57,2.26-.4,2.28,1.6.02,2.74,0,5.47.03,8.21,0,.8.11,1.55-1.07,1.57-1.24.02-1.25-.76-1.24-1.65.01-3.23,0-6.45,0-9.73Z"/>
    <path class="cls-2" d="m294.22,292.96c-.74-.47-1.48-.76-1.93-1.29-.38-.44-.42-1.17-.62-1.78.55.17,1.1.42,1.66.5.54.08,1.13.06,1.67-.04.51-.1.99-.37,1.49-.56-.12.6-.06,1.32-.39,1.76-.42.56-1.14.88-1.88,1.4Z"/>
    <path class="cls-2" d="m153.69,219.49c0-3.05.08-5.23-.03-7.39-.07-1.46.55-1.92,1.89-1.91,3.32.01,6.64-.02,9.96-.07.89-.01,1.43.18,1.44,1.25.04,4.6.09,9.19.24,13.79.06,1.87-.84,2.81-2.53,2.81-3.12.01-6.25-.12-9.37-.36-.45-.03-1.13-.98-1.19-1.55-.26-2.47-.33-4.97-.42-6.58Z"/>
    <path class="cls-2" d="m189.75,227.42c0-5.51.01-10.68,0-15.85,0-1.02.39-1.59,1.44-1.59,3.32,0,6.64.02,9.96.03,1.03,0,1.48.5,1.49,1.53.06,4.66.14,9.32.22,13.99.02,1.32-.46,1.96-1.93,1.92-3.5-.09-7.01-.03-11.18-.03Z"/>
    <path class="cls-2" d="m148.46,183.85c1.48-1.19,2.71-2.38,4.14-3.29,4.74-3.02,9.48-6.05,14.38-8.79.93-.52,2.81-.14,3.87.47,5.15,2.95,10.18,6.11,15.24,9.22.96.59,1.84,1.31,3.18,2.27-2.29,1.5-4.23,2.91-6.3,4.1-3.65,2.11-7.38,4.08-11.06,6.12-1.8,1-3.71,1.22-5.51.25-5.72-3.11-11.38-6.33-17.05-9.51-.21-.12-.37-.34-.89-.83Zm2.28-.05c6.21,3.15,11.92,6.1,17.69,8.93.55.27,1.53.06,2.14-.26,3.8-1.96,7.58-3.96,11.3-6.08,1.57-.89,2.95-2.11,4.59-3.31-5.88-3.34-11.41-6.53-17-9.6-.61-.34-1.75-.25-2.39.1-3.09,1.66-6.14,3.42-9.12,5.27-2.31,1.44-4.49,3.07-7.2,4.95Z"/>
    <path class="cls-2" d="m301.92,234.49c0-.57,0-1.15,0-1.72,0-3.33,1.25-4.3,4.5-3.26.5.16,1.04,1.11,1.05,1.7.04,2.48-.07,4.97-.24,7.45-.03.4-.61.76-.96,1.12-.07.07-.25.02-.37.03-3.86.35-3.97.25-3.97-3.59,0-.57,0-1.15,0-1.72Z"/>
    <path class="cls-2" d="m284.17,239.94c0-3.2-.04-6.07.04-8.93.01-.4.57-1.07.94-1.12,1.26-.15,2.55-.14,3.81-.06.27.02.73.61.72.93-.12,2.79-.3,5.58-.53,8.37-.02.21-.54.52-.85.55-1.38.13-2.76.18-4.13.26Z"/>
    <path class="cls-2" d="m339.93,232.4c.01,2.92-.02,2.96-2.23,2.96-2.25,0-2.42-.18-2.43-2.55-.01-2.97.2-3.12,2.82-3.22,2.43-.09,1.7,1.63,1.84,2.81Z"/>
    <path class="cls-2" d="m351.52,231.96c-.46,1.57.09,3.41-2.38,3.12-.87-.1-2.45-.37-2.45-.57,0-1.42.04-2.99.65-4.21.33-.66,2.01-1.2,2.76-.92.7.26.97,1.67,1.42,2.58Z"/>
    <path class="cls-2" d="m362.03,231.96c-.48,1.3.66,2.97-1.57,3.17-2.47.22-2.59.2-2.77-2.3-.03-.45-.12-.91-.05-1.34.12-.76.2-2.05.56-2.15,1-.27,2.34-.38,3.13.11.59.36.52,1.77.7,2.5Z"/>
    <path class="cls-2" d="m61.57,220.8c6.4.22,5.42-.75,5.53,5.74.08,4.59,0,4.6-4.51,4.88-.89.06-1.79.05-2.68,0-3.65-.2-3.69-.21-3.77-3.93-.04-1.72.17-3.44.18-5.16,0-1.13.45-1.62,1.61-1.55,1.14.07,2.3.02,3.64.02Z"/>
    <path class="cls-2" d="m47.65,231.23h-10.07c0-3.06-.04-6.22.06-9.38.01-.36.78-.99,1.21-1,2.42-.1,4.84-.03,7.27-.06,1.03-.01,1.55.38,1.54,1.44-.01,2.92,0,5.83,0,9Z"/>
    <path class="cls-2" d="m166.29,180.44c.23,1.51.63,3.02.63,4.52,0,.82-.51,2.15-1.09,2.34-1.03.33-2.33.13-3.4-.21-.34-.11-.47-1.38-.43-2.11.08-1.58.38-3.15.48-4.73.11-1.67,1.39-1.78,2.46-1.65.73.08,1.38.87,2.07,1.34-.24.17-.48.33-.72.5Zm.08,5.14c-.86-.71-1.32-1.34-1.87-1.45-.35-.07-.84.66-1.27,1.03.38.42.7,1.08,1.15,1.18.45.1,1.02-.37,1.99-.77Z"/>
    <path class="cls-2" d="m173.62,179.86l-3.21,1.72c.16.24.33.47.49.71.46.03.94-.01,1.36.12.73.23,1.94.47,2.02.89.2.95.13,2.21-.37,3-.84,1.33-2.33,1.47-3.77.85-1.49-.64-1.88-1.84-1.43-3.31.37-1.21.72-2.45,1.29-3.57.61-1.19,1.68-1.68,3.02-1.16.2.25.39.5.59.75Zm-.03,5c-.75-.65-1.18-1.03-1.62-1.4-.43.56-.96,1.07-1.24,1.7-.08.19.66,1.04.79.98.64-.25,1.19-.7,2.07-1.28Z"/>
    <path class="cls-2" d="m178.34,180.4c-1.23.14-1.83.21-2.43.27-.13-.1-.27-.21-.4-.31.39-.47.79-1.32,1.18-1.32.77,0,1.99.27,2.23.79.67,1.46,1.15,3.08,1.31,4.67.2,1.91-2.29,3.67-4.83,3.41.6-.54,1.09-.91,1.49-1.36.57-.63,1.08-1.32,1.62-1.99-.63-.45-1.25-.9-2.06-1.48.48-.68,1.02-1.46,1.89-2.7Z"/>
    <path class="cls-2" d="m159.7,179.07v7.69c-1.31.48-2.07.23-1.81-1.37.24-1.48.64-2.81-.15-4.42-.6-1.23.94-1.52,1.96-1.9Z"/>
  </g>
  <rect class="cls-1" width="400" height="400"/>
</svg>